<svg width="35" height="40" viewBox="0 0 35 40" fill="none" xmlns="http://www.w3.org/2000/svg">
<g clip-path="url(#clip0_184_345)">
<path d="M14.4785 11.5152C10.7491 8.14183 10.2208 4.52852 13.0154 1.72805C15.4269 -0.691145 19.4195 -0.551799 21.7361 2.02997C24.2889 4.87495 23.6483 8.50375 19.9943 11.4958C22.0415 11.954 23.9792 12.8087 25.6978 14.0118C29.0595 16.3342 31.0123 19.543 31.7865 23.5163C31.8182 23.6741 31.8395 23.8338 31.8503 23.9944C31.939 24.8769 32.3269 25.7026 32.9496 26.3342C34.4785 27.8651 34.9082 30.3075 33.987 32.4422C33.0193 34.6621 31.4516 36.3749 29.2531 37.3348C20.2382 41.2694 11.4691 41.012 3.12573 35.4865C0.230429 33.5763 -0.698544 30.6462 0.530409 27.8689C0.918991 26.9406 1.58739 26.1565 2.44254 25.6259C2.65156 25.4981 3.08508 25.4633 2.87413 25.0278C2.35158 23.9537 2.77155 22.9241 3.08315 21.9313C4.75917 16.5877 8.32216 13.1893 13.7412 11.7222C13.9734 11.6584 14.2115 11.5887 14.4785 11.5152ZM15.6398 37.4587C16.0675 37.5148 16.2204 37.5457 16.3655 37.5516C20.4649 37.7201 24.5443 36.8954 28.2564 35.1478C29.0827 34.7741 29.8263 34.2393 30.4434 33.5746C31.0605 32.91 31.5388 32.1289 31.8503 31.2771C32.6245 29.2353 31.3936 27.3638 29.224 27.269C25.7404 27.1161 22.9941 28.4496 21.2329 31.5036C19.8859 33.855 18.3396 35.9975 15.6359 37.4587H15.6398ZM17.4396 32.7422C19.2124 29.7404 21.2465 27.1877 24.556 25.6917C21.2658 24.3195 19.2105 21.9313 17.4048 19.1482C15.6146 22.0338 13.5051 24.3195 10.3369 25.6994C11.8731 26.4224 13.2642 27.42 14.4418 28.6431C15.5817 29.8488 16.4507 31.2442 17.4358 32.7422H17.4396ZM9.89174 35.4033C11.5158 35.4847 13.1232 35.0438 14.4785 34.1453C14.8946 33.8666 15.0321 33.6112 14.7108 33.137C14.0044 32.0958 13.3057 31.0526 12.4213 30.1507C10.4375 28.1322 8.06283 27.0948 5.21011 27.2632C3.54376 27.3599 2.54318 28.347 2.41545 30.0172C2.33029 31.1262 2.76575 32.0358 3.5515 32.779C5.29913 34.4356 7.32739 35.442 9.884 35.4033H9.89174ZM18.4073 13.7834C14.1979 13.3209 9.78336 15.2311 7.35448 18.4863C6.51841 19.603 5.8062 20.8088 5.61266 22.208C5.43074 23.4602 6.1623 24.1995 7.41835 24.0602C7.80073 24.0091 8.17687 23.9189 8.54086 23.7911C11.0317 22.9744 12.8915 21.3487 14.3837 19.2411C15.6456 17.4354 16.6442 15.4246 18.3957 13.7834H18.4073ZM27.5925 24.155C29.435 24.244 29.5472 24.1066 29.195 22.8409C28.6333 20.7421 27.5215 18.8313 25.9746 17.3058C24.9643 16.3129 23.7354 15.7749 22.309 15.862C20.1124 15.9955 19.1873 17.6715 20.3969 19.4985C22.2045 22.2448 24.7514 23.915 27.5809 24.155H27.5925ZM17.2113 9.63013C18.1706 9.63043 19.0921 9.25579 19.7791 8.58615C20.4661 7.91651 20.8642 7.0049 20.8884 6.04584C20.9291 4.12209 19.2221 2.39769 17.2751 2.39382C16.3163 2.39467 15.396 2.77159 14.7121 3.4436C14.0281 4.11561 13.635 5.02909 13.6173 5.98778C13.6192 6.94486 13.997 7.86289 14.6692 8.54416C15.3414 9.22542 16.2543 9.61541 17.2113 9.63013Z" fill="#467DDB"/>
</g>
<defs>
<clipPath id="clip0_184_345">
<rect width="34.4591" height="40" fill="white"/>
</clipPath>
</defs>
</svg>
