<svg width="744" height="153" viewBox="0 0 744 153" fill="none" xmlns="http://www.w3.org/2000/svg">
<g clip-path="url(#clip0_99_294)">
<path d="M71.4572 54.4739C74.6201 50.8592 68.012 42.5567 76.7381 42.7827C92.27 43.178 95.9694 55.4059 99.5276 67.2383C102.154 67.8596 101.278 65.7981 101.589 64.8379C102.888 60.602 97.7203 53.2596 106.305 52.6101C113.026 52.1018 115.229 58.2298 117.799 63.3695C120.199 68.142 116.076 76.1903 123.418 77.913C131.354 79.805 139.092 77.687 146.039 72.6039C155.499 65.6569 165.468 59.3877 175.013 52.5254C184.021 46.0302 181.31 41.0883 172.358 37.756C159.65 33.0117 147.225 38.3208 134.827 39.7328C126.158 40.7212 117.912 40.5517 109.807 37.9537C104.554 36.2875 97.5508 34.2542 97.6355 27.8721C97.7203 20.7839 105.373 20.1626 110.569 19.4848C130.196 16.8585 149.484 12.679 168.461 7.34172C204.043 -2.71165 238.834 -2.37277 273.287 12.0578C286.108 17.4233 299.268 12.8767 312.258 11.7754C320.589 11.0694 328.891 10.1375 337.307 11.0129C314.178 14.8253 291.191 23.6361 267.554 14.5711C237.535 3.07751 207.404 1.722 176.283 9.91154C151.969 16.2937 127.231 21.0663 101.109 26.9119C113.591 39.4221 127.344 36.1745 140.334 34.6778C149.681 33.5765 158.916 31.515 168.348 32.5599C175.041 33.2941 181.677 35.2709 183.993 42.5003C186.563 50.6333 179.418 53.4573 174.871 58.1169C146.66 86.978 110.202 85.3683 74.7048 83.9845C60.0484 83.4197 48.4418 70.2317 34.6325 64.3579C25.4264 60.4608 16.4179 55.3494 2.60862 60.6302C26.2453 74.8631 44.9401 90.988 64.482 106.04C66.5153 107.593 69.7346 108.017 72.4456 108.243C100.092 110.502 127.739 112.591 155.386 114.794C162.107 115.331 168.63 114.371 174.645 111.575C241.856 80.4263 313.275 70.8248 386.274 73.2252C449.334 75.2867 508.327 60.8279 565.682 36.7676C587.088 27.7873 608.409 35.9204 629.786 36.344C633.062 36.4005 636.423 38.0384 639.557 37.5865C670.452 33.2941 693.382 47.9223 714.619 67.8031C721.057 73.8182 729.388 77.7718 736.702 82.8832C739.978 85.1706 745.315 86.8367 743.649 92.0893C742.011 97.229 736.984 97.9915 731.986 98.1044C726.253 98.2174 720.803 97.3984 715.579 94.8851C709.366 91.8634 703.012 89.0959 693.778 84.8882C699.002 94.6027 702.871 101.719 706.655 108.892C708.18 111.744 710.241 114.653 707.304 117.872C704.48 120.979 701.431 119.313 698.211 118.578C687.395 116.093 680.194 109.061 673.275 98.3021C671.751 103.922 672.541 110.36 665.114 109.033C651.305 106.576 647.408 95.7323 644.584 83.3068C639.331 88.8418 647.86 98.7539 638.569 99.4599C629.532 100.166 625.578 91.6375 625.24 84.041C624.675 70.8813 617.445 70.4859 608.465 74.0724C592.594 80.3981 579.039 90.9598 566.247 101.86C558.509 108.468 566.586 112.648 572.431 114.229C581.694 116.714 591.069 114.54 600.417 113.184C613.464 111.292 626.595 109.316 639.077 115.811C642.381 117.533 646.278 119.341 646.25 123.746C646.194 129.281 641.167 130.298 637.298 131.117C605.641 138.007 574.069 145.406 542.158 150.969C524.48 154.047 505.87 152.494 489.35 145.463C465.882 135.466 442.613 137.414 418.835 141.537C414.317 142.328 409.826 143.429 405.252 140.492C427.9 137.442 450.407 127.841 473.422 136.454C506.858 148.964 540.012 149.953 574.295 140.295C596.153 134.138 618.688 130.27 642.692 124.96C632.271 114.314 621.173 114.964 610.018 116.178C599.315 117.336 588.641 119.595 577.91 119.764C570.454 119.877 562.293 117.505 559.723 109.061C557.012 100.194 565.541 97.5961 570.313 92.7389C598.214 64.3014 634.361 68.0573 669.294 66.9277C673.332 66.7865 676.156 69.6387 679.46 71.3331C692.789 78.2519 706.062 85.34 719.702 91.6093C725.434 94.2356 732.099 97.0878 739.837 89.9996C717.499 77.2917 699.51 59.4441 678.556 45.9173C670.875 40.9471 658.478 43.291 648.227 42.2743C636.536 41.1165 624.703 40.6929 613.181 38.5467C589.488 34.113 568.167 39.9869 546.422 49.1649C483.589 75.7385 417.084 80.2569 349.958 78.2801C290.4 76.5292 234.457 91.3551 180.435 114.229C163.914 121.233 148.185 118.296 132.003 117.307C111.36 116.037 90.8015 113.721 70.1582 112.253C65.0186 111.885 61.4886 109.457 57.7609 106.463C41.6925 93.4731 25.9629 80.0027 8.17186 69.2434C4.41597 66.9559 -1.79679 65.3463 0.490634 59.3029C2.5239 53.9374 8.22834 52.6948 13.6504 53.1184C26.0476 54.0786 36.2422 61.308 50.0515 66.7582C45.3072 57.9192 41.4383 51.2264 38.0778 44.3076C36.6093 41.286 32.6275 38.1513 36.7223 34.339C39.9699 31.2891 43.8952 32.4187 47.4252 33.4071C58.5517 36.5699 65.5551 44.7312 71.429 54.5304L71.4572 54.4739ZM37.5412 36.2593C51.294 54.2763 53.3838 78.0824 81.906 80.8499C68.4356 63.426 65.8093 40.3258 37.5412 36.2593ZM704.198 115.189C688.864 83.1373 683.103 70.0906 663.674 73.2252C675.535 88.1923 678.02 111.01 704.198 115.189ZM75.665 46.6233C78.7713 57.2132 81.2282 66.024 83.9392 74.7784C85.21 78.8166 88.2317 80.6805 92.5524 80.2851C95.5175 80.031 96.873 78.0824 96.1953 75.5973C93.0889 64.4708 94.5574 50.3509 75.6367 46.6233H75.665ZM652.096 71.8979C649.102 72.2085 646.391 72.8298 647.493 76.8681C649.074 82.6573 650.345 88.5876 652.463 94.1791C654.524 99.6011 658.901 105.362 664.662 103.075C670.169 100.872 664.917 95.1392 664.154 91.0727C663.307 86.5261 661.782 82.0925 660.313 77.7153C659.014 73.9312 656.67 71.2201 652.096 71.8979ZM104.639 55.8012C106.87 64.8944 100.798 73.1122 109.073 78.9296C110.513 79.9462 114.579 79.1838 114.862 76.7269C115.794 69.2151 114.862 62.014 104.639 55.8012ZM638.315 95.5064C636.959 86.5826 642.268 78.7319 634.926 72.6321C633.429 71.3896 629.419 72.2085 629.221 74.6372C628.685 81.8383 628.318 89.3501 638.315 95.5064Z" fill="#467DDB"/>
</g>
<defs>
<clipPath id="clip0_99_294">
<rect width="743.921" height="151.987" fill="white" transform="translate(0.0390625 0.422852)"/>
</clipPath>
</defs>
</svg>
