<svg width="318" height="475" viewBox="0 0 318 475" fill="none" xmlns="http://www.w3.org/2000/svg">
<g clip-path="url(#clip0_99_309)">
<path d="M292.344 44.5175C293.129 44.9635 293.821 44.8749 294.48 44.8103C298.798 44.3848 301.442 46.6246 303.151 50.2704C305.842 56.0233 306.221 61.9225 304.747 68.1316C303.611 72.9245 302.697 77.7685 300.763 82.3095C299.637 84.9511 298.225 87.4735 296.884 90.0232C294.08 95.3607 291.59 100.879 289.96 106.72C289.813 107.244 289.759 107.891 289.926 108.392C291.618 113.498 292.208 118.873 293.821 124.013C294.565 126.385 295.929 128.373 296.854 130.62C301.036 140.785 304.624 151.171 308.697 161.372C310.775 166.577 312.975 171.745 314.82 177.035C316.618 182.185 317.703 187.519 317.58 193.037C317.498 196.778 317.505 200.519 317.474 204.26C317.454 206.878 317.205 209.465 316.4 211.977C316.069 213.016 315.943 214.108 316.113 215.174C316.683 218.748 316.639 222.408 317.638 225.921C318.003 227.197 317.73 228.514 317.761 229.815C317.911 236.054 317.488 242.274 317.232 248.503C317.01 253.861 317.444 259.243 317.515 264.615C317.577 269.309 317.665 274.01 317.502 278.701C317.242 286.128 317.464 293.549 317.56 300.97C317.751 315.938 318.051 330.902 318 345.87C317.976 352.943 317.594 360.034 317.427 367.108C317.256 374.287 317.311 381.493 317.116 388.673C317 393.016 317.972 397.207 317.887 401.516C317.689 411.473 315.973 421.134 312.487 430.447C310.614 435.448 307.166 439.492 303.946 443.669C300.302 448.394 295.182 451.107 290.263 454.123C285.9 456.798 281.234 458.882 276.619 461.064C273.528 462.524 270.158 462.755 266.9 463.484C254.391 466.272 241.739 467.885 228.927 468.348C223.251 468.553 217.581 469.281 211.915 469.22C199.025 469.077 186.144 469.982 173.25 469.376C169.17 469.186 165.073 469.291 160.987 469.414C158.022 469.502 155.048 469.509 152.148 469.053C147.536 468.331 143.098 469.237 138.616 469.918C130.03 471.221 121.475 472.774 112.817 473.563C108.976 473.914 105.118 474.217 101.264 474.261C98.453 474.295 95.8468 473.087 93.2509 472.106C90.597 471.106 88.0762 469.792 85.5792 468.444C84.2489 467.725 83.2596 466.639 82.3045 465.52C81.6836 464.791 81.7757 463.937 82.0555 463.099C82.3522 462.207 82.0998 461.69 81.1276 461.959C75.2195 463.589 70.3858 461.053 65.3475 458.429C57.1402 454.153 49.4992 448.904 41.2442 444.741C37.1985 442.699 33.1801 440.609 29.1788 438.484C25.3242 436.439 23.1683 433.276 22.0495 429.232C21.8312 428.442 22.0392 427.319 20.4803 428.037C19.7981 428.35 19.2864 427.414 19.2421 426.74C19.1329 425.1 18.0379 424.375 16.8031 423.592C13.235 421.328 10.4515 418.336 9.66009 414.084C9.31897 412.246 8.52758 411.068 7.07783 410.084C4.24314 408.164 2.74905 405.193 1.1765 402.313C0.238425 400.594 -0.136805 398.735 0.0508099 396.737C0.395339 393.054 0.83538 389.428 2.77293 386.143C3.32213 385.214 3.20615 384.206 2.85138 383.066C2.17597 380.905 2.17597 378.586 3.02877 376.438C4.86739 371.809 6.99255 367.309 9.22346 362.846C13.6921 353.903 18.7816 345.342 24.4748 337.142C29.0697 330.528 33.7123 323.886 40.0127 318.75C45.7606 314.066 52.2281 310.529 59.3916 308.405C60.3843 308.112 60.7049 307.768 60.5855 306.638C59.9374 300.555 59.2006 294.468 58.9141 288.361C58.6036 281.679 59.3405 275 59.6168 268.322C59.9101 261.282 61.759 254.474 62.6595 247.526C63.7989 238.74 64.0308 229.913 64.2525 221.073C64.5288 209.955 63.5874 198.851 63.9489 187.74C64.3174 176.521 65.1906 165.335 66.1764 154.152C66.6881 148.338 66.9098 142.5 67.2987 136.676C68.2777 122.004 69.8503 107.428 74.8954 93.4783C77.3003 86.8335 80.0224 80.3215 82.9014 73.8504C86.3501 66.0959 90.3958 58.7363 95.2499 51.8227C100.319 44.6026 105.125 37.0796 112.34 31.7046C116.191 28.8384 120.377 26.4181 124.381 23.7595C131.831 18.8168 139.745 14.8408 148.185 11.8282C152.875 10.1534 157.337 7.83864 162.003 6.08214C169.433 3.28059 177.176 1.92577 185.117 1.62962C190.899 1.41516 196.633 0.574353 202.426 0.32926C209.009 0.0501257 215.436 0.764981 221.883 1.83046C237.677 4.44138 252.928 9.31941 268.507 12.8426C273.572 13.9864 278.314 16.0084 283.052 18.0304C285.205 18.9495 287.572 18.8576 289.721 19.872C292.893 21.3698 296.291 22.3911 299.46 23.8957C303.359 25.7509 306.961 28.0418 307.735 32.8381C308.155 35.4389 307.391 37.74 305.426 39.4284C302.492 41.944 298.955 43.1116 295.111 43.3329C294.08 43.3908 293.074 43.384 292.358 44.5073L292.344 44.5175ZM177.657 139.811C177.07 139.934 176.934 140.499 176.576 140.832C175.668 141.673 175.16 142.956 173.922 143.413C170.248 144.764 166.441 145.642 162.563 144.733C156.498 143.311 153.243 140.907 152.005 134.314C151.821 133.333 151.603 133.296 150.702 133.582C148.478 134.286 146.428 135.757 143.944 135.413C137.913 134.572 133.046 127.996 133.984 122.035C134.045 121.644 134.072 121.245 134.096 120.85C134.557 113.532 135.836 106.288 136.054 98.952C136.126 96.4841 136.972 94.1761 137.412 91.7865C138.913 83.5861 141.522 75.7805 145.8 68.5877C147.663 65.4594 149.842 62.5182 152.592 60.1218C158.609 54.8795 165.124 50.5121 172.735 47.6901C184.353 43.3874 196.234 41.8828 208.525 42.9176C216.108 43.5542 223.674 44.3133 231.236 45.1405C239.137 46.0051 247.105 46.1617 254.999 47.1863C262.981 48.2211 270.973 48.2041 278.948 47.1421C283.837 46.4885 288.473 45.2936 290.758 40.1705C291.027 39.568 291.699 39.0029 291.058 38.3561C290.437 37.7332 289.813 38.254 289.22 38.5978C286.917 39.9356 284.502 40.3033 281.855 39.7552C276.383 38.6251 271.294 36.3341 265.962 34.7785C263.932 34.1862 263.11 32.702 262.988 30.714C262.953 30.1489 262.868 29.5736 262.933 29.0154C263.056 27.9193 262.776 27.4052 261.524 27.2691C259.501 27.0478 257.441 26.8742 255.493 26.2138C248.071 23.6948 240.474 21.86 232.843 20.0593C222.33 17.5811 211.704 16.165 200.945 16.4578C189.832 16.7573 178.936 18.5955 168.529 22.8063C161.962 25.4649 155.201 27.664 148.908 30.9659C144.49 33.2841 140.168 35.7861 135.788 38.1757C135.297 38.4447 134.646 39.0676 134.158 38.2983C133.735 37.6311 134.352 37.1239 134.833 36.746C138.029 34.21 141.12 31.5242 144.678 29.4817C151.19 25.7407 158.2 23.0548 165.046 20.0286C171.029 17.3837 177.326 15.7259 183.739 14.3745C189.095 13.2477 194.471 12.4239 199.912 12.2095C207.471 11.9099 215.02 12.6724 222.5 13.5439C230.581 14.4834 238.703 15.6169 246.399 18.5172C252.877 20.9579 259.802 21.6966 266.334 23.9569C269.749 25.1381 273.225 26.1866 276.561 27.5516C281.705 29.6621 286.856 31.7454 292.044 33.7436C295.98 35.2618 299.924 35.6874 304.041 34.5606C306.75 33.8185 307.179 33.0186 305.917 30.5268C305.47 29.6451 304.819 29.3081 303.997 29.8221C300.35 32.0995 296.598 31.5276 292.887 30.1796C289.643 29.0052 286.48 27.6095 283.284 26.2955C282.387 25.9279 281.572 25.4037 280.845 24.7569C278.996 23.1093 278.563 21.3937 279.607 19.164C280.163 17.976 279.825 17.4381 278.679 17.0296C275.582 15.9233 272.478 14.8068 269.254 14.1532C259.027 12.0767 248.995 9.18665 238.823 6.87869C230.824 5.06432 223.046 2.22192 214.743 1.90875C211.175 1.77599 207.655 0.83987 204.056 1.31644C200.85 1.74535 197.606 1.68748 194.385 1.89513C189.357 2.21852 184.312 2.15725 179.291 2.84146C171.019 3.96481 163.074 6.0481 155.621 9.8913C153.509 10.9806 151.313 11.961 149.061 12.7031C136.583 16.8016 125.555 23.6948 114.827 30.9591C106.752 36.426 101.134 44.4767 95.8298 52.5205C89.1302 62.6816 83.8156 73.6087 79.0025 84.7877C72.9647 98.8057 69.9765 113.467 68.9497 128.608C68.3664 137.204 67.807 145.806 67.0531 154.387C65.9922 166.475 64.8734 178.556 64.8563 190.699C64.8427 200.904 65.2179 211.103 65.293 221.311C65.3748 232.174 64.2184 242.91 62.738 253.609C62.0114 258.872 60.9437 264.08 60.5105 269.401C59.5212 281.543 59.5861 293.628 61.7283 305.658C61.9705 307.016 62.5572 307.366 63.8193 307.053C70.2596 305.443 76.7647 304.126 83.2528 302.73C93.3465 300.555 103.348 297.957 113.554 296.327C120.278 295.251 126.998 294.135 133.721 293.066C134.615 292.923 135.086 292.756 135.075 291.622C135.024 285.795 134.867 279.953 135.174 274.143C135.679 264.669 137.961 255.822 143.897 247.979C151.439 238.012 159.943 229.035 169.416 220.94C177.371 214.146 186.202 208.519 194.829 202.671C210.971 191.73 226.273 179.748 241.214 167.265C242.991 165.781 244.322 164.031 245.417 161.995C247.453 158.203 249.387 154.299 252.184 151.014C254.814 147.923 257.001 144.594 258.986 141.084C260.381 138.62 261.886 136.213 263.417 133.83C266.603 128.87 270.032 124.054 272.761 118.822C278.471 107.871 282.738 96.2186 288.94 85.4991C289.424 84.6583 289.332 84.066 288.193 83.7835C285.508 83.1163 283.588 81.1794 281.524 79.5216C279.9 78.2144 279.061 76.4954 279.061 74.3474C279.068 67.6005 282.056 62.3242 286.856 57.8002C289.591 55.2233 293.009 54.0421 296.308 52.5716C297.304 52.129 298.471 51.6422 297.492 50.4372C296.687 49.4466 296.618 48.5377 296.847 47.462C296.99 46.7948 296.847 46.2196 296.141 46.1991C294.132 46.1413 292.034 45.7838 290.475 47.6425C289.213 49.1471 287.606 50.1887 285.774 50.9138C285.095 51.1827 284.413 51.5367 283.861 51.9997C278.699 56.3262 273.388 60.4928 268.944 65.5989C268.66 65.9223 268.452 66.3751 268.374 66.8006C267.623 70.9127 266.655 74.9772 265.232 78.9021C264.083 82.0678 263.428 85.506 260.927 88.0454C259.59 89.4002 258.669 90.9967 257.888 92.7124C254.886 99.3095 252.28 106.08 248.903 112.517C245.819 118.396 242.316 124.03 239.249 129.912C236.878 134.456 234.064 138.718 230.762 142.616C228.119 145.738 225.298 148.658 220.72 148.958C213.682 149.417 208.153 146.139 205.4 139.478C203.797 142.875 201.31 145.557 199.325 148.58C198.394 149.996 197.203 150.881 195.603 151.337C194.348 151.695 193.099 152.083 191.885 152.559C190.688 153.026 189.562 152.978 188.44 152.41C186.922 151.64 185.38 150.915 183.896 150.091C180.594 148.26 178.749 145.418 178.165 141.714C178.063 141.071 178.237 140.325 177.637 139.811H177.657ZM106.766 467.535C107.223 467.919 107.684 467.753 108.117 467.759C116.508 467.885 124.699 466.057 132.967 465.084C141.87 464.035 150.75 462.977 159.718 462.568C168.733 462.156 177.756 461.874 186.765 461.302C203.708 460.226 220.679 459.542 237.605 458.191C247.924 457.367 258.062 455.481 268.162 453.272C272.201 452.39 276.005 451.175 279.528 449.034C280.446 448.475 281.411 447.975 282.407 447.573C285.447 446.344 287.797 444.213 289.844 441.769C291.444 439.863 292.682 437.65 294.323 435.782C299.433 429.961 302.066 423.115 303.229 415.565C304.12 409.788 304.604 403.97 305.129 398.156C306.801 379.682 306.671 361.13 307.268 342.615C307.712 328.853 307.572 315.066 307.834 301.293C308.295 277.094 307.882 252.877 309.444 228.705C309.461 228.429 309.584 228.106 309.298 227.932C308.919 227.704 308.691 228.082 308.418 228.249C304.863 230.434 301.657 233.028 298.996 236.255C297.4 238.192 295.247 238.999 292.788 239.52C292.846 239.159 292.829 238.975 292.907 238.842C295.203 234.802 297.4 230.703 299.828 226.744C304.706 218.792 307.159 210.098 308.138 200.918C308.261 199.774 308.049 198.722 307.503 197.65C304.068 190.865 299.091 185.181 294.514 179.203C292.307 176.32 289.09 174.573 286.77 171.854C285.263 170.087 283.782 168.303 282.141 166.645C277.741 162.21 274.292 156.988 270.298 152.212C269.547 151.317 268.712 150.571 267.538 150.347C264.567 149.782 261.562 149.482 258.556 149.87C256.551 150.129 254.589 150.891 253.44 152.61C250.759 156.62 248.388 160.845 246.979 165.471C245.372 170.744 246.59 175.939 248.149 181.011C249.742 186.202 252.74 190.76 255.527 195.318C259.46 201.752 263.342 208.206 267.067 214.759C268.111 216.597 268.439 218.585 268.647 220.617C268.739 221.512 268.452 222.438 267.545 222.721C266.597 223.013 266.399 222.023 266.095 221.407C263.776 216.678 261.476 211.943 258.713 207.44C255.66 202.463 252.277 197.691 249.595 192.489C248.18 189.739 246.819 186.964 245.751 183.639C243.158 187.894 239.512 190.644 236.247 193.759C233.46 196.417 230.735 199.175 227.522 201.326C224.704 203.212 221.767 204.914 218.864 206.674C215.736 208.57 212.144 209.666 209.33 212.12C209.289 212.154 209.224 212.161 209.169 212.178C205.963 213.223 203.183 215.116 200.222 216.655C198.568 217.516 197.101 218.653 195.521 219.592C194.716 220.072 194.014 220.457 193.57 221.284C191.81 224.562 190.64 228.034 190.05 231.704C189.497 235.152 190.353 238.179 192.588 240.898C195.637 244.605 199.407 247.543 202.944 250.723C205.383 252.915 207.907 255.144 210.858 256.578C216.316 259.226 221.634 262.143 227.18 264.635C232.116 266.854 236.855 269.493 240.999 273.155C243.114 275.021 245.458 276.614 247.272 278.83C252.201 284.842 255.599 291.765 259.174 298.584C259.433 299.081 259.573 299.643 259.74 300.187C262.251 308.401 263.492 316.867 264.673 325.343C265.723 332.88 265.918 340.481 266.252 348.065C266.661 357.416 266.644 366.733 264.772 376.006C263.295 383.332 258.526 387.461 251.826 389.292C248.524 390.194 245.516 390.027 243.732 386.457C243.54 386.075 243.37 385.463 242.865 385.51C242.254 385.565 242.302 386.256 242.149 386.705C241.132 389.667 239.253 391.763 236.234 392.812C231.666 394.398 227.061 394.092 222.466 393.084C220.979 392.758 219.492 392.135 218.52 390.872C216.742 388.553 214.498 386.521 213.761 383.519C213.655 383.09 213.464 382.603 212.918 382.573C212.417 382.545 212.308 383.025 212.165 383.376C211.216 385.714 209.456 386.8 206.969 387.062C205.574 387.209 204.21 387.699 202.849 388.104C201.597 388.475 200.307 388.536 199.185 387.965C195.18 385.926 191.244 383.75 188.928 379.635C188.03 378.038 187.208 376.398 186.124 374.348C185.141 378.593 183.412 381.997 180.853 384.921C179.178 386.838 177.009 388.111 174.454 388.407C171.176 388.788 168.549 387.144 166.045 385.313C165.274 384.751 164.599 384.05 163.562 383.764C163.647 385.003 163.733 386.174 163.811 387.352C163.992 390.099 163.978 390.153 166.591 390.752C170.913 391.743 175.102 393.156 179.267 394.626C183.326 396.059 187.079 397.952 189.562 401.748C192.042 405.54 191.527 410.666 188.177 413.083C186.062 414.612 183.831 416.028 181.348 416.855C173.12 419.595 164.896 422.349 156.852 425.6C155.051 426.328 153.005 426.298 151.333 427.118C149.344 428.092 147.642 429.45 145.374 430.104C142.655 430.887 139.902 431.441 137.16 432.064C136.713 432.166 135.932 432.33 135.836 431.7C135.652 430.498 135.024 431.2 134.502 431.23C133.291 431.305 132.244 432.578 130.938 431.799C129.761 431.098 128.526 431.169 127.301 431.431C121.629 432.65 115.87 433.222 110.099 433.664C103.662 434.161 97.6036 435.802 92.2003 439.475C89.5566 441.272 87.527 443.791 86.8891 446.746C85.8589 451.512 84.4262 456.369 86.1659 461.367C86.6913 462.881 87.336 464.148 88.6288 465.097C90.58 466.531 92.8894 466.902 95.1782 467.283C96.3108 467.47 96.4438 466.752 96.0345 465.911C93.9571 461.625 94.2709 457.077 94.6598 452.56C94.9361 449.36 96.454 446.916 99.606 445.619C102.543 444.407 105.473 443.778 108.704 444.2C113.343 444.806 117.313 448.159 118.309 452.751C118.767 454.865 118.606 456.921 117.474 458.834C115.785 461.676 113.602 463.977 110.515 465.349C109.195 465.935 107.895 466.588 106.759 467.559L106.766 467.535ZM11.3452 361.488C12.6892 360.776 12.6619 360.756 13.3373 359.84C19.515 351.517 25.2867 342.898 32.2625 335.174C38.3413 328.441 45.764 323.634 53.8212 319.699C59.7941 316.782 66.4186 316.033 72.7361 314.253C78.559 312.612 84.6377 312.629 90.6039 311.907C94.1515 311.478 97.7162 311.189 101.274 310.852C101.7 310.811 102.256 310.529 102.536 310.975C102.83 311.441 102.291 311.758 102.072 312.139C101.192 313.657 99.739 313.923 98.1664 314.127C90.0683 315.192 81.8986 315.853 74.046 318.327C64.4129 321.36 54.7388 324.223 46.453 330.391C41.633 333.979 37.3077 337.949 33.9272 342.959C32.4058 345.213 31.3006 347.671 29.8918 349.955C28.1998 352.695 26.119 355.194 24.2156 357.801C21.4457 361.6 18.4132 365.239 16.0049 369.252C13.716 373.068 12.082 377.279 10.1752 381.323C9.91934 381.868 9.93981 382.634 9.07337 382.6C7.74983 382.545 7.57245 383.018 8.06707 384.21C8.64015 385.578 8.05684 386.232 6.45359 386.205C5.93509 386.194 5.96238 386.559 5.82252 386.831C1.77345 394.562 3.55068 398.939 7.84876 404.862C8.03978 405.128 8.2274 405.482 8.64356 405.325C8.95057 405.21 8.98468 404.876 8.97103 404.6C8.85505 402.034 9.9364 399.783 10.663 397.401C12.6142 391.021 16.1209 385.486 19.515 379.856C22.4077 375.053 25.8529 370.621 28.5751 365.685C33.4292 356.885 38.986 348.505 46.03 341.264C50.8432 336.318 56.2397 332.117 62.9836 329.959C70.0618 327.695 77.348 326.695 84.723 326.147C91.559 325.643 98.3336 326.211 105.084 327.202C106.783 327.45 108.202 328.138 108.874 329.935C109.324 331.144 109.137 331.631 107.759 331.474C105.671 331.239 103.58 331.082 101.468 331.198C93.0087 331.668 84.648 332.832 76.2974 334.248C65.6989 336.049 56.6763 340.641 49.7346 348.842C43.7923 355.864 38.7915 363.578 34.241 371.574C32.7265 374.236 31.3176 377.054 28.749 378.838C27.081 379.996 26.0815 381.558 25.024 383.138C24.2702 384.264 23.6084 385.456 22.9091 386.617C20.8658 390.01 18.7134 393.36 17.5536 397.193C16.3665 401.125 15.2749 405.056 14.6234 409.155C14.0469 412.777 15.3533 415.156 17.7514 417.389C18.4507 418.039 18.8839 418.012 19.167 417.018C21.3161 409.482 25.0957 402.708 29.1277 396.066C32.8595 389.915 37.4578 384.319 40.8144 377.926C43.0282 373.705 45.5627 369.674 48.261 365.746C51.3856 361.198 54.6364 356.705 59.2756 353.59C67.7558 347.895 77.406 346.074 87.411 345.774C94.2811 345.567 101.158 346.207 108.015 346.009C110.839 345.928 112.394 346.663 113.578 349.093C114.639 351.265 114.595 351.548 112.169 351.755C103.157 352.532 94.1276 352.256 85.1016 352.256C84.0817 352.256 83.0515 352.161 82.0759 352.569C79.9167 353.471 77.638 353.931 75.3764 354.482C68.5165 356.164 62.7073 359.52 58.8595 365.596C54.2271 372.908 48.7726 379.676 44.7236 387.382C41.1623 394.157 36.5436 400.298 32.4365 406.745C29.3528 411.585 26.8012 416.715 26.0678 422.536C25.9382 423.571 25.5903 424.528 24.966 425.355C24.0484 426.567 24.3213 427.588 25.2185 428.711C29.1038 433.576 34.2206 436.861 39.7808 439.301C43.5365 440.949 47.1591 442.804 50.5737 444.986C52.3202 446.103 53.2993 445.762 54.4284 444.547C55.5575 443.328 56.9526 442.862 58.5491 442.917C60.4354 442.978 62.2127 443.407 63.9182 444.309C67.7285 446.324 70.8839 449.166 74.0119 452.043C75.1205 453.064 75.7789 454.378 75.7584 455.957C75.755 456.281 75.7482 456.764 75.9392 456.9C76.3383 457.18 76.6181 456.706 76.9455 456.509C80.9161 454.116 81.9565 450.147 82.6217 445.99C83.0925 443.036 82.1885 440.54 79.903 438.559C79.48 438.195 78.9035 437.848 78.8899 437.249C78.8558 435.792 77.771 435.295 76.7647 434.638C71.8083 431.411 66.4118 429.021 61.1074 426.461C57.3449 424.647 53.8894 419.993 57.2016 414.782C59.2415 411.572 60.49 407.95 62.1888 404.559C64.754 399.453 67.1418 394.259 71.3921 390.187C77.2559 384.574 83.9248 381.289 92.2651 382.314C97.9106 383.008 103.59 383.008 109.263 383.223C114.407 383.417 119.606 382.964 124.682 384.237C125.377 384.411 125.698 383.972 125.933 383.383C126.759 381.313 128.301 379.795 129.955 378.403C133.977 375.012 138.95 373.77 143.835 372.299C148.198 370.988 152.094 371.897 155.795 374.362C156.842 375.06 157.405 376.268 158.551 376.935C158.803 375.999 158.254 375.465 157.865 374.971C156.542 373.29 155.993 371.387 155.959 369.29C155.955 369.014 155.911 368.721 155.812 368.466C154.001 363.819 153.018 358.924 151.565 354.172C148.092 342.806 145.793 331.14 142.921 319.621C141.308 313.143 142.791 306.876 143.873 300.565C143.706 303.094 143.375 305.613 143.078 308.136C142.348 314.304 142.764 320.278 146.07 325.772C146.291 326.14 146.383 326.637 146.387 327.073C146.418 331.021 147.376 334.81 148.283 338.612C150.49 347.868 153.086 357.018 155.75 366.148C156.085 367.288 155.853 368.892 157.872 368.677C158.22 368.64 158.247 369.184 158.387 369.484C159.08 370.948 160.175 372.095 161.355 373.167C161.546 373.341 161.853 373.545 162.068 373.507C162.525 373.433 162.385 372.983 162.389 372.673C162.402 371.336 161.976 370.046 161.324 368.963C159.226 365.481 161.338 359.867 164.964 358.087C168.167 356.514 171.302 355.211 174.819 357.09C175.088 357.233 175.447 357.488 175.76 357.216C176.081 356.936 175.876 356.569 175.75 356.273C175.003 354.486 174.768 352.545 174.15 350.741C171.254 342.272 168.498 333.762 166.073 325.142C164.122 318.212 161.996 311.315 161.918 304.03C161.867 299.438 161.853 294.826 164.081 290.594C164.681 289.454 163.688 289.212 163.074 288.852C159.288 286.608 155.14 286.268 150.883 286.71C149.402 286.864 148.341 287.721 147.482 288.991C145.415 292.041 144.787 295.537 144.074 299.037C144.17 297.392 144.364 295.772 144.651 294.165C144.794 293.369 144.705 292.953 143.77 293.124C141.195 293.583 138.555 293.498 135.99 293.842C128.509 294.846 121.062 296.109 113.612 297.335C99.0363 299.734 84.7435 303.458 70.3347 306.634C63.8944 308.054 57.4404 309.487 51.4265 312.568C43.9663 316.387 37.4919 321.245 32.3683 327.872C25.6039 336.621 19.4126 345.747 14.214 355.517C13.2214 357.379 12.3822 359.323 11.3589 361.471L11.3452 361.488ZM199.424 291.868C199.628 290.88 199.826 289.941 200.021 289.001C201.412 282.306 205.844 278.776 212.257 277.366C215.211 276.719 218.264 277.016 221.228 276.641C224.076 276.28 226.519 277.513 229.152 277.952C229.688 278.04 230.23 278.599 230.605 279.068C232.304 281.22 232.577 280.992 234.214 279.582C234.426 279.402 234.712 279.31 234.958 279.17C235.992 278.585 236.09 277.931 235.04 277.281C233.113 276.086 231.195 274.871 229.22 273.755C222.354 269.864 214.941 267.066 208.04 263.239C202.279 260.046 196.487 256.887 192.407 251.451C188.559 246.328 185.168 240.892 181.457 235.677C179.223 232.538 176.886 229.471 174.621 226.353C174.208 225.784 173.888 225.774 173.417 226.244C173.1 226.56 172.711 226.812 172.356 227.095C163.139 234.495 154.447 242.342 149.73 253.575C147.096 259.849 145.589 266.361 145.302 273.172C145.118 277.55 145.926 281.87 145.885 286.234C145.879 287.088 145.759 287.997 146.404 289.046C147.441 287.316 148.683 286.135 150.559 285.842C156.266 284.961 161.567 286.128 166.213 289.475C167.785 290.608 168.099 290.142 168.866 288.858C173.277 281.465 177.486 280.835 184.834 281.06C186.697 281.118 188.713 281.332 190.149 282.612C193.14 285.277 197.05 287.078 198.557 291.2C198.663 291.49 198.806 291.854 199.42 291.861L199.424 291.868ZM217.711 377.371C218.035 374.471 218.079 371.54 218.103 368.643C218.12 366.403 219.348 365.675 220.955 365.028C223.657 363.935 226.584 363.762 229.377 363.043C229.865 362.917 230.298 363.108 230.674 363.333C231.953 364.102 233.43 364.378 234.757 365.001C235.896 365.535 236.043 365.025 236.022 364.105C236.012 363.653 236.019 363.2 236.009 362.747C235.79 353.856 235.418 344.975 234.317 336.144C233.44 329.118 233.505 322.024 232.587 314.991C231.588 307.332 229.599 299.874 228.463 292.252C228.02 289.281 226.931 286.564 224.946 284.28C223.872 283.041 222.657 281.928 221.508 280.753C220.959 280.192 220.167 279.596 220.355 278.796C220.634 277.611 219.98 277.666 219.263 277.703C216.882 277.829 214.488 277.931 212.165 278.52C206.915 279.851 202.753 282.469 201.296 288.092C199.632 294.53 199.915 300.875 202.255 307.121C202.671 308.231 203.063 309.378 203.248 310.542C204.114 315.958 205.847 321.166 206.509 326.664C207.276 333.04 209.06 339.29 210.384 345.601C210.732 347.252 211.605 348.712 211.69 350.493C211.827 353.246 212.966 355.888 212.929 358.696C212.929 358.856 212.976 359.057 213.079 359.173C214.951 361.335 214.839 364.088 215.207 366.652C215.733 370.284 215.971 373.96 217.704 377.371H217.711ZM189.685 370.931C189.869 368.902 189.286 366.989 189.255 365.048C189.218 362.625 189.869 360.415 192.045 359.227C196.129 357.001 200.423 355.384 205.23 356.511C206.321 356.766 206.512 356.422 206.301 355.398C205.042 349.301 203.695 343.221 202.634 337.091C200.706 325.983 198.591 314.917 196.146 303.918C194.843 298.063 192.311 292.552 191.162 286.636C190.66 284.048 189.03 282.612 186.267 282.295C183.749 282.009 181.29 282.173 178.803 282.435C175.249 282.809 172.629 284.76 170.715 287.538C166.895 293.079 166.816 299.489 167.806 305.698C168.662 311.077 170.258 316.367 172.07 321.585C174.491 328.581 176.327 335.78 178.81 342.769C179.653 345.145 180.246 347.609 180.99 350.006C182.46 354.748 183.688 359.581 185.083 364.357C185.192 364.735 185.22 365.157 185.612 365.379C187.277 366.318 187.676 368.149 188.604 369.606C188.887 370.052 188.914 370.696 189.685 370.934V370.931ZM180.007 132.268C179.929 137.609 181.126 140.907 182.467 144.162C183.132 145.775 184.411 146.789 186.025 147.372C189.896 148.767 194.522 147.491 197.108 144.267C199.779 140.934 201.914 137.275 203.722 133.405C206.147 128.207 207.634 122.651 209.886 117.395C214.477 106.669 218.707 95.8033 222.964 84.9443C225.093 79.5148 226.972 73.9866 229.548 68.7511C232.263 63.2331 231.809 58.7227 227.829 54.0898C227.586 53.8072 227.314 53.6506 226.966 53.6234C223.541 53.3477 220.167 52.4286 216.671 53.2626C213.444 54.0319 210.179 54.7536 207.658 56.9934C205.462 58.944 203.551 61.2179 201.546 63.3761C200.781 64.1965 200.505 65.2075 200.539 66.3478C200.727 72.3764 199.383 78.1463 197.575 83.8448C195.893 89.1381 193.604 94.1897 191.547 99.3367C188.293 107.483 185.718 115.88 182.521 124.057C181.28 127.233 180.12 130.508 180.007 132.271V132.268ZM126.653 430.141C125.903 429.603 125.613 429.331 125.272 429.157C121.032 427.006 119.261 423.132 118.807 418.816C117.91 410.241 118.794 401.754 121.246 393.462C121.444 392.792 121.233 392.563 120.667 392.645C117.498 393.098 114.53 391.763 111.402 391.651C108.724 391.556 106.07 391.879 103.406 391.753C96.3926 391.423 89.659 392.23 83.3449 395.712C79.7154 397.714 75.9051 399.276 73.3365 402.796C72.2142 404.335 71.2762 406.132 69.6524 407.201C68.5165 407.95 68.7962 408.29 69.5467 409.066C71.3546 410.939 73.1557 412.855 74.1108 415.337C74.5372 416.446 74.7487 417.634 75.7891 418.4C76.0927 418.622 76.3076 419.017 75.9563 419.245C74.3496 420.293 75.4958 421.202 76.1302 422.005C79.0673 425.729 80.9298 429.804 80.5341 434.675C80.4863 435.285 80.7456 435.785 81.1856 436.176C83.3415 438.086 84.5422 440.547 85.3268 443.254C85.4564 443.703 85.6099 444.217 86.0943 444.275C86.5889 444.336 86.8345 443.839 87.046 443.441C90.3412 437.262 96.3142 434.961 102.492 433.375C108.7 431.782 115.202 431.86 121.543 430.955C123.095 430.733 124.637 430.464 126.65 430.141H126.653ZM231.574 129.415C232.676 128.52 233.222 127.465 233.798 126.443C238.553 118.008 243.302 109.566 248.146 101.189C253.743 91.5039 258.178 81.4143 261.152 70.6574C261.592 69.0643 262.094 67.478 261.473 65.8406C260.214 62.5148 258.434 59.5976 255.616 57.259C253.511 55.5161 250.677 54.9136 248.903 52.7077C248.702 52.4592 248.169 52.4252 247.784 52.3809C246.43 52.2277 245.069 52.1563 243.718 51.9724C241.859 51.7205 240.839 52.4933 240.15 54.2395C235.906 64.9828 231.206 75.5354 226.488 86.0744C224.076 91.4665 222.773 97.233 220.536 102.679C219.035 106.339 217.203 109.906 216.367 113.794C215.371 118.437 213.522 122.767 211.356 126.899C209.531 130.385 208.095 133.588 210.346 137.336C210.602 137.765 210.633 138.327 210.882 138.763C212.1 140.883 213.263 143.13 216.05 143.488C219.389 143.913 223.647 141.367 225.062 138.279C221.085 137.493 217.165 136.39 213.393 134.865C211.322 134.028 210.548 132.264 211.209 130.127C212.816 124.949 215.811 120.663 220.177 117.453C223.056 115.336 227.365 115.605 230.234 117.777C232.782 119.703 233.464 122.624 232.294 126.311C231.99 127.26 231.837 128.258 231.574 129.415ZM155.109 131.512C155.276 131.335 155.379 131.27 155.413 131.178C155.471 131.022 155.512 130.848 155.519 130.681C155.785 125.725 157.671 121.368 160.356 117.273C162.665 113.753 167.652 112.361 171.38 114.311C171.667 114.461 171.954 114.703 172.128 114.972C174.055 117.937 176.613 120.588 176.89 124.394C176.903 124.598 176.937 124.956 177.336 124.993C178.558 122.838 178.715 120.313 179.769 118.127C183.002 111.421 185.301 104.365 187.87 97.4032C191.506 87.5518 194.866 77.6459 196.367 67.1989C196.708 64.833 196.333 62.3106 197.053 60.1388C197.882 57.6402 196.818 56.3637 195.242 55.0735C193.543 53.6813 191.537 52.9256 189.354 52.592C184.64 51.8703 180.028 52.3537 175.627 54.083C172.022 55.5025 169.341 57.8615 168.42 61.9634C165.967 72.9007 163.252 83.7801 161.184 94.7991C159.67 102.867 157.801 110.863 156.399 118.954C156.027 121.092 155.566 123.271 155.027 125.405C154.54 127.335 154.096 129.446 155.106 131.519L155.109 131.512ZM244.069 365.661C245.062 363.326 246.778 362.066 248.715 360.902C252.287 358.754 255.834 358.472 259.539 360.361C260.746 360.977 261.316 360.786 261.217 359.309C261.122 357.896 261.173 356.477 261.084 355.064C260.521 345.771 258.829 336.635 257.298 327.474C255.524 316.864 253.842 306.236 252.126 295.615C252.065 295.227 252.126 294.819 251.761 294.536C248.483 292 245.969 288.647 242.65 286.132C240.484 284.488 237.973 283.334 236.015 281.427C235.395 280.825 234.845 280.59 234.068 280.964C233.215 281.376 233.188 282.084 233.443 282.84C233.914 284.232 234.596 285.577 234.893 287.003C236.527 294.816 238.182 302.628 239.59 310.484C240.201 313.889 240.979 317.265 240.627 320.87C240.412 323.056 240.692 325.34 240.307 327.587C240.109 328.744 240.065 329.986 240.249 331.144C240.719 334.119 240.856 337.118 241.04 340.113C241.265 343.838 242.544 347.477 242.149 351.241C241.651 355.99 243.261 360.483 243.612 365.123C243.619 365.212 243.745 365.29 244.066 365.668L244.069 365.661ZM122.488 409.72C122.488 410.908 122.423 412.103 122.498 413.287C122.795 417.873 126.336 421.811 130.74 422.346C132.821 422.598 134.922 422.57 137.003 422.09C144.77 420.303 150.978 416.62 153.69 408.603C153.888 408.021 154.253 407.494 154.526 406.935C155.74 404.427 156.733 401.87 156.873 399.024C156.992 396.652 157.193 394.272 157.582 391.93C158.179 388.332 158.343 384.717 157.889 381.126C157.535 378.331 156.573 375.829 153.639 374.457C147.495 371.577 141.785 373.395 136.733 376.636C133.192 378.906 130.535 382.59 128.331 386.307C124.061 393.51 122.393 401.407 122.488 409.72ZM308.469 195.866C308.8 193.49 308.462 191.257 308.442 189.034C308.36 179.921 305.443 171.408 302.22 163.102C298.696 154.023 295.622 144.788 292.075 135.723C290.877 132.666 289.789 129.568 288.64 126.494C288.428 125.926 288.241 125.065 287.483 126.113C284.328 130.467 280.859 134.593 278.068 139.212C277.431 140.264 277.427 141.169 277.905 142.242C278.662 143.947 279.467 145.68 279.696 147.525C280.033 150.238 281.104 152.59 282.442 154.935C284.843 159.16 288.138 162.85 289.922 167.439C290.018 167.687 290.226 167.963 290.454 168.075C291.485 168.576 291.829 169.474 292.092 170.495C292.228 171.023 292.542 171.544 292.887 171.98C296.4 176.419 299.62 181.038 301.797 186.307C301.947 186.668 302.189 186.995 302.431 187.305C303.997 189.317 305.436 191.417 306.794 193.575C307.254 194.307 307.411 195.267 308.472 195.869L308.469 195.866ZM135.826 120.122C136.825 119.179 136.955 118.43 137.183 117.746C137.886 115.629 138.794 113.62 140.312 111.959C143.385 108.596 148.526 108.65 152.124 112.054C153.554 113.406 153.639 113.368 154.185 111.462C155.385 107.261 155.928 102.931 156.828 98.6729C159.226 87.3169 161.792 75.9984 164.224 64.6492C164.534 63.1991 165.083 61.7251 164.534 60.1558C164.272 59.4069 164.046 59.2129 163.374 59.6588C162.433 60.2852 161.468 60.8843 160.523 61.5038C151.869 67.1818 146.506 75.5252 142.693 84.7605C139.053 93.5702 137.49 103.02 136.211 112.456C135.891 114.829 135.959 117.256 135.826 120.125V120.122ZM156.279 424.078C156.634 424.02 156.801 424.02 156.944 423.963C163.518 421.338 170.18 418.969 176.913 416.777C179.663 415.881 182.429 414.731 184.503 412.716C187.58 409.723 188.87 405.067 183.528 402.588C181.205 401.509 178.865 400.58 176.351 400.008C172.707 399.181 169.075 398.258 165.5 397.176C164.255 396.798 164.316 397.302 164.299 398.115C164.197 402.878 163.763 407.609 163.02 412.31C162.501 415.589 161.563 418.703 159.267 421.26C158.398 422.23 157.115 422.741 156.279 424.078ZM97.2454 453.82C97.4364 456.635 97.4842 458.568 97.7196 460.475C97.9925 462.715 98.2722 464.985 99.988 466.735C100.394 467.15 100.663 467.61 101.38 467.354C105.596 465.853 109.85 464.423 113.558 461.816C115.028 460.784 116.181 459.464 116.693 457.7C117.709 454.187 115.942 451.583 113.759 449.17C112.565 447.849 110.9 447.158 109.451 446.174C107.472 444.836 101.738 445.15 100.319 446.991C98.5928 449.231 96.9759 451.617 97.2523 453.816L97.2454 453.82ZM236.06 376.554H236.2C236.2 374.627 236.094 372.694 236.234 370.777C236.34 369.29 235.824 368.629 234.364 368.395C231.114 367.87 227.856 367.448 224.561 367.652C222.998 367.748 221.583 368.633 219.935 368.541C219.089 368.493 219.195 369.371 219.181 369.988C219.12 372.588 219.301 375.223 218.932 377.78C218.509 380.734 219.717 382.651 221.951 384.227C222.415 384.554 222.882 384.884 223.302 385.262C225.079 386.855 227.235 387.086 229.381 386.6C231.243 386.177 233.014 385.337 234.811 384.642C235.681 384.305 236.108 383.689 236.077 382.675C236.009 380.636 236.056 378.593 236.056 376.554H236.06ZM200.362 377.923C202.293 378.059 205.079 377.255 207.894 376.588C208.764 376.38 209.163 375.986 209.033 375.053C208.477 371.019 207.924 366.982 207.426 362.938C207.324 362.111 207.007 361.726 206.174 361.668C203.643 361.491 201.146 361.11 198.626 362.043C196.715 362.751 194.655 362.962 192.588 362.856C190.746 362.764 190.323 363.108 190.531 364.99C190.817 367.574 191.206 370.151 191.721 372.697C191.987 374.018 192.745 375.203 193.56 376.299C195.068 378.324 197.282 377.848 200.355 377.923H200.362ZM178.793 371.526C178.684 367.697 178.049 363.911 174.338 361.321C172.827 360.266 171.514 359.684 169.661 360.463C167.28 361.464 165.281 363.108 162.969 364.156C161.614 364.769 161.58 365.426 161.979 366.631C162.743 368.936 163.613 371.24 163.801 373.681C164.07 377.136 170.173 380.06 172.851 379.015C173.642 378.705 174.447 378.392 175.276 378.246C177.077 377.926 178.019 376.806 178.476 375.145C178.779 374.035 178.732 372.898 178.793 371.53V371.526ZM202.712 48.936C200.328 48.936 197.936 48.8101 195.562 48.97C193.134 49.1368 190.725 49.5726 188.31 49.913C187.877 49.9742 187.273 50.0219 187.249 50.57C187.222 51.2065 187.874 51.0806 188.279 51.1623C188.945 51.2984 189.62 51.3937 190.292 51.5027C195.068 52.2788 198.404 55.3833 199.594 60.0026C199.802 60.8094 199.403 62.154 200.457 62.331C201.344 62.4808 201.754 61.2349 202.364 60.5915C205.69 57.0956 208.948 53.5587 213.986 52.4218C218.052 51.5061 222.118 51.615 226.167 52.1971C230.595 52.8371 234.262 54.7331 235.923 59.2776C236.036 59.5839 235.995 60.0469 236.411 60.0877C236.943 60.1388 236.96 59.6078 237.09 59.2674C237.871 57.2045 238.581 55.1076 239.638 53.1639C240.303 51.9452 239.979 51.6933 238.652 51.6184C235.255 51.4244 231.85 51.4108 228.467 50.9342C219.925 49.736 211.322 49.1777 202.709 48.9292L202.712 48.936ZM168.993 118.372C164.33 118.519 163.31 119.097 161.147 123.706C160.09 125.963 159.383 128.356 158.636 130.732C158.029 132.663 157.968 132.799 159.912 133.153C163.978 133.895 168.143 134.045 172.148 135.205C173.335 135.549 174.004 134.933 174.324 133.704C175.228 130.256 175.416 126.821 174.747 123.301C173.949 119.087 173.182 118.362 168.996 118.376L168.993 118.372ZM223.899 136.69C225.089 136.799 225.946 136.237 226.781 135.474C229.343 133.136 230.411 130.052 231.134 126.825C231.683 124.377 229.865 120.799 227.774 120.166C224.704 119.237 221.774 119.553 219.376 121.872C216.544 124.609 214.876 128.074 213.57 131.723C213.229 132.676 213.396 133.534 214.453 133.973C217.5 135.233 220.645 136.162 223.896 136.69H223.899ZM255.074 363.302C255.074 363.282 255.074 363.258 255.074 363.237C254.449 363.237 253.825 363.234 253.201 363.237C252.519 363.241 251.836 363.231 251.158 363.268C248.712 363.401 248.306 363.932 247.579 366.287C246.334 370.331 247.211 374.341 247.446 378.372C247.484 378.995 247.938 379.359 248.367 379.74C250.158 381.33 252.215 382.273 254.62 382.549C255.749 382.678 256.82 383.076 256.237 381.235C256.097 380.792 256.339 380.452 256.674 380.21C257.274 379.774 257.513 379.145 257.635 378.471C258.12 375.839 259.024 373.337 259.962 370.849C260.695 368.902 260.702 366.856 260.924 364.834C261.043 363.751 260.607 363.261 259.498 363.288C258.024 363.326 256.547 363.299 255.074 363.299V363.302ZM297.243 58.6478C297.461 57.8955 296.765 57.7457 295.923 57.8615C294.517 58.0521 293.132 58.3346 291.884 59.0733C286.746 62.1064 283.547 66.6644 281.78 72.2335C280.678 75.7022 282.172 78.3268 285.686 79.4603C286.968 79.8756 288.357 79.9539 289.666 80.3011C290.7 80.5734 291.068 80.1513 291.352 79.2391C292.566 75.2903 293.869 71.3722 295.073 67.4201C295.912 64.6662 296.748 61.9021 297.246 58.6478H297.243ZM299.75 30.0298C300.746 29.7983 302.912 30.0264 303.311 28.3618C303.717 26.6734 301.623 26.2206 300.34 25.6998C294.323 23.2625 288.261 20.9307 282.223 18.541C281.681 18.3266 281.292 18.2789 280.92 18.827C279.771 20.5086 279.945 22.3128 281.561 23.6199C282.343 24.2497 283.26 24.7467 284.185 25.1586C286.402 26.1423 288.653 27.058 290.905 27.9669C293.582 29.0494 296.27 30.1115 299.753 30.0332L299.75 30.0298ZM79.2003 431.523C78.2008 426.921 76.3145 423.261 72.9374 420.753C70.0959 418.642 67.0361 416.777 64.0854 414.785C63.7238 414.54 63.2155 414.07 62.9119 414.578C62.0592 416.004 60.4798 416.572 59.4155 417.733C58.8595 418.339 58.8254 418.792 59.5451 419.221C64.389 422.128 68.67 425.9 73.7697 428.412C75.4821 429.256 76.9046 430.604 79.2037 431.516L79.2003 431.523ZM148.529 124.578C150.085 124.609 151.094 123.894 151.773 122.525C152.653 120.752 152.599 118.794 152.994 116.926C153.332 115.332 152.339 113.957 150.681 113.848C144.043 113.416 141.147 115.241 139.715 121.64C139.445 122.852 139.865 123.335 140.963 123.492C143.484 123.856 146.005 124.214 148.529 124.578ZM284.348 38.7851C285.696 38.6659 286.699 38.8225 287.545 38.2234C287.872 37.9919 288.176 37.7026 288.162 37.2634C288.148 36.7052 287.661 36.7494 287.296 36.6473C282.581 35.3095 278.352 32.8177 273.842 30.9795C270.929 29.7915 267.835 29.366 264.929 28.2563C264.553 28.1133 264.178 28.0656 264.045 28.6682C263.588 30.714 264.792 32.9573 266.825 33.6585C270.898 35.0678 274.968 36.4737 279.061 37.8217C280.893 38.4242 282.796 38.751 284.345 38.7851H284.348ZM58.8595 444.527C56.9936 444.421 55.6325 445.453 54.3158 446.549C53.7222 447.042 53.9474 447.284 54.5921 447.594C60.5616 450.45 66.2651 453.871 72.586 455.981C73.0363 456.131 73.5446 456.594 73.9607 456.09C74.2916 455.689 74.1961 455.113 74.0324 454.62C73.8107 453.963 73.3774 453.432 72.8726 452.969C70.072 450.405 67.2373 447.89 63.8261 446.127C62.2536 445.313 60.6503 444.636 58.8629 444.527H58.8595ZM155.423 132.56C155.164 134.783 155.508 136.148 156.835 137.558C159.912 140.819 163.757 141.421 167.942 140.506C169.654 140.131 171.353 139.58 172.725 138.409C173.134 138.058 173.901 137.316 172.677 137.146C169.914 136.764 167.311 135.764 164.585 135.219C161.543 134.61 158.258 134.596 155.426 132.564L155.423 132.56ZM144.589 131.209C146.377 130.858 148.157 130.566 149.911 130.147C150.729 129.95 151.596 127.134 151.18 126.375C151.012 126.072 150.746 126.048 150.46 126.093C147.376 126.579 144.408 125.633 141.396 125.317C139.752 125.143 137.985 125.054 136.61 123.836C136.307 123.567 136.082 122.924 135.56 123.23C135.171 123.461 135.185 124.026 135.205 124.483C135.232 125.167 135.294 125.919 135.799 126.385C138.316 128.71 141.089 130.596 144.593 131.206L144.589 131.209ZM268.92 63.7267C273.098 59.9414 277.205 56.2275 281.647 52.2073C278.85 53.1809 276.349 53.5928 273.9 54.2157C271.178 54.9101 268.473 54.2804 265.761 54.2974C265.352 54.2974 264.748 54.0387 264.577 54.6208C264.441 55.0735 264.987 55.2437 265.29 55.4582C266.634 56.4011 267.456 57.7219 268.203 59.1482C268.964 60.6052 268.814 62.1744 268.923 63.7267H268.92ZM73.2922 416.436C72.4257 414.329 71.399 412.876 70.147 411.568C69.4068 410.796 68.67 410.009 67.7217 409.485C66.8246 408.988 66.231 409.577 65.6682 410.149C65.385 410.438 65.385 410.748 65.7535 410.99C68.2266 412.62 70.2971 414.809 73.2922 416.436Z" fill="#467DDB"/>
<path d="M277.001 163.922C276.356 169.284 274.575 174.07 270.066 177.552C267.002 179.918 263.605 181.525 259.897 182.492C255.353 183.676 252.474 180.609 253.242 176.017C253.668 173.471 254.78 171.867 256.789 170.462C259.76 168.382 261.227 164.913 263.83 162.455C265.147 161.213 266.272 159.773 267.572 158.51C269.305 156.832 270.53 156.675 272.604 157.86C274.954 159.197 277.325 160.569 276.997 163.919L277.001 163.922ZM272.532 165.114C272.402 164.184 272.211 162.84 272.024 161.499C271.901 160.62 271.41 160.345 270.789 160.988C269.24 162.595 267.081 163.466 265.631 165.124C262.704 168.47 259.59 171.527 255.677 173.76C253.975 174.73 253.631 176.831 254.364 178.938C255.012 180.793 256.373 181.875 258.399 181.606C262.759 181.024 266.678 179.503 268.896 175.329C270.195 172.882 271.382 170.373 272.194 167.708C272.413 166.993 272.542 166.281 272.532 165.117V165.114Z" fill="#467DDB"/>
<path d="M192.618 142.8C189.599 142.262 186.168 140.972 182.907 139.259C181.501 138.521 181.532 136.975 181.962 135.77C183.715 130.838 185.857 125.936 190.121 122.736C194.003 119.822 199.137 119.689 201.655 123.808C203.087 126.147 203.763 128.86 202.722 131.6C201.559 134.671 200.143 137.632 198.158 140.284C196.756 142.16 195.392 142.868 192.618 142.8ZM192.717 141.509C195.197 141.571 196.04 141.152 197.336 139.695C199.492 137.271 200.761 134.392 201.699 131.342C202.368 129.166 200.3 125.31 198.063 124.996C195.228 124.598 192.373 125.126 190.353 127.24C187.727 129.994 185.946 133.374 184.397 136.853C183.968 137.819 184.244 138.606 185.124 138.99C187.764 140.148 190.415 141.319 192.721 141.506L192.717 141.509Z" fill="#467DDB"/>
<path d="M152.848 391.222C152.626 394.476 151.63 398.772 149.297 402.714C148.304 404.389 146.981 405.631 145.21 406.401C139.476 408.889 134.127 407.98 129.202 404.372C127.155 402.874 126.899 400.362 127.087 398.19C127.404 394.51 128.025 390.854 130.167 387.573C131.92 384.887 134.243 383.583 137.279 383.311C139.312 383.127 141.356 383.1 143.392 382.971C144.033 382.93 144.794 383.175 145.18 382.354C145.296 382.113 145.517 382.12 145.756 382.14C150.047 382.535 152.923 385.697 152.838 391.219L152.848 391.222ZM143.634 384.237C141.581 384.363 139.538 384.444 137.504 384.625C135.263 384.822 133.442 385.779 131.978 387.563C129.389 390.722 128.768 394.521 128.448 398.347C128.274 400.42 128.71 402.626 130.744 403.899C133.619 405.703 136.638 407 140.206 406.391C143.157 405.887 146.142 405.4 147.888 402.67C150.655 398.354 151.804 393.54 151.49 388.431C151.327 385.789 149.522 384.264 146.855 384.237C145.777 384.227 144.699 384.237 143.631 384.237H143.634Z" fill="#467DDB"/>
</g>
<defs>
<clipPath id="clip0_99_309">
<rect width="318" height="474" fill="white" transform="translate(0 0.28125)"/>
</clipPath>
</defs>
</svg>
