<svg width="69" height="80" viewBox="0 0 69 80" fill="none" xmlns="http://www.w3.org/2000/svg">
<g clip-path="url(#clip0_213_1008)">
<path d="M28.9981 23.0303C21.5392 16.2837 20.4825 9.05704 26.0718 3.45611C30.8947 -1.38229 38.88 -1.1036 43.5133 4.05994C48.6188 9.7499 47.3376 17.0075 40.0296 22.9916C44.1241 23.908 47.9994 25.6175 51.4366 28.0236C58.1601 32.6684 62.0656 39.0861 63.6139 47.0327C63.6774 47.3482 63.7201 47.6676 63.7417 47.9887C63.919 49.7538 64.6948 51.4051 65.9402 52.6684C68.9981 55.7302 69.8574 60.615 68.0149 64.8844C66.0796 69.3241 62.9443 72.7497 58.5472 74.6696C40.5173 82.5387 22.9791 82.0239 6.29247 70.973C0.501873 67.1526 -1.35607 61.2924 1.10183 55.7379C1.879 53.8812 3.2158 52.313 4.9261 51.2517C5.34414 50.9963 6.21118 50.9266 5.78927 50.0557C4.74418 47.9074 5.58413 45.8482 6.20731 43.8625C9.55935 33.1755 16.6853 26.3785 27.5234 23.4445C27.9878 23.3168 28.4639 23.1774 28.9981 23.0303ZM31.3205 74.9173C32.176 75.0296 32.4817 75.0915 32.772 75.1031C40.9708 75.4401 49.1296 73.7908 56.5537 70.2957C58.2065 69.5482 59.6935 68.4785 60.9278 67.1493C62.162 65.82 63.1187 64.2578 63.7417 62.5542C65.2899 58.4706 62.8282 54.7276 58.4891 54.538C51.5218 54.2322 46.0293 56.8991 42.5069 63.0071C39.8129 67.71 36.7202 71.9949 31.3128 74.9173H31.3205ZM34.9203 65.4844C38.4659 59.4809 42.534 54.3754 49.1529 51.3833C42.5727 48.639 38.462 43.8625 34.8506 38.2964C31.2702 44.0677 27.0511 48.639 20.7148 51.3988C23.7872 52.8447 26.5695 54.84 28.9246 57.2862C31.2044 59.6976 32.9424 62.4884 34.9126 65.4844H34.9203ZM19.8245 70.8066C23.0726 70.9693 26.2875 70.0876 28.9981 68.2906C29.8303 67.7333 30.1051 67.2223 29.4626 66.274C28.0498 64.1916 26.6524 62.1052 24.8835 60.3015C20.916 56.2643 16.1667 54.1896 10.4612 54.5264C7.12854 54.7199 5.12738 56.694 4.87191 60.0344C4.7016 62.2523 5.57251 64.0716 7.14402 65.5579C10.6393 68.8712 14.6958 70.884 19.809 70.8066H19.8245ZM36.8557 27.5668C28.4368 26.6417 19.6077 30.4621 14.75 36.9727C13.0778 39.2061 11.6534 41.6175 11.2663 44.416C10.9025 46.9204 12.3656 48.399 14.8777 48.1203C15.6425 48.0182 16.3948 47.8379 17.1227 47.5823C22.1043 45.9489 25.8241 42.6974 28.8084 38.4822C31.3321 34.8709 33.3294 30.8492 36.8324 27.5668H36.8557ZM55.2261 48.31C58.911 48.488 59.1355 48.2132 58.431 45.6818C57.3076 41.4842 55.0841 37.6626 51.9902 34.6115C49.9697 32.6258 47.5117 31.5498 44.659 31.724C40.2658 31.991 38.4156 35.3431 40.8348 38.997C44.45 44.4896 49.5439 47.83 55.2029 48.31H55.2261ZM34.4636 19.2603C36.3823 19.2609 38.2253 18.5116 39.5993 17.1723C40.9733 15.833 41.7694 14.0098 41.8179 12.0917C41.8992 8.24419 38.4852 4.79538 34.5913 4.78763C32.6736 4.78933 30.8331 5.54318 29.4652 6.8872C28.0972 8.23123 27.3111 10.0582 27.2756 11.9756C27.2795 13.8897 28.035 15.7258 29.3794 17.0883C30.7238 18.4508 32.5496 19.2308 34.4636 19.2603Z" fill="#467DDB"/>
</g>
<defs>
<clipPath id="clip0_213_1008">
<rect width="68.9181" height="80" fill="white" transform="translate(0.0410156)"/>
</clipPath>
</defs>
</svg>
