<svg width="532" height="713" viewBox="0 0 532 713" fill="none" xmlns="http://www.w3.org/2000/svg">
<g clip-path="url(#clip0_184_601)">
<path d="M299.009 1.48494C209.993 6.79769 128.619 35.1896 51.3595 81.3602C67.916 89.2373 83.4561 94.4151 99.4125 98.0714C138.648 107.077 177.872 116.23 217.316 124.243C255.095 131.923 293.364 135.69 332.024 134.205C346.474 133.653 360.986 134.856 375.411 134.549C417.843 133.641 460.031 130.5 498.814 110.451C505.524 106.979 511.843 102.844 517.403 97.6788C527.359 88.4398 527.738 73.3604 518.419 60.5141C510.508 49.6187 499.242 43.2875 487.719 36.9687C453.442 18.1839 415.909 11.6074 377.922 6.54003C370.06 5.49711 362.186 4.62597 354.312 3.63213C352.573 3.41128 350.613 3.33766 349.977 0.417487C356.246 0.96962 362.271 1.19047 368.198 2.06162C392.127 5.57073 416.056 8.87126 439.531 15.2147C456.137 19.7053 471.995 25.7175 487.351 33.2755C497.528 38.2815 508.12 42.2814 516.693 50.4162C525.816 59.0786 529.808 69.7777 531.89 81.5565C532.502 85.0656 530.739 88.2925 528.816 91.2618C522.571 100.93 513.986 107.691 503.822 113.053C471.162 130.291 435.906 136.5 399.609 137.396C366.19 138.205 332.746 138.34 299.327 137.715C265.688 137.089 232.477 132.156 199.792 124.095C163.875 115.237 127.137 110.034 91.5506 99.7155C78.3005 95.8751 64.977 92.182 52.2657 86.7097C49.6083 85.5687 47.2448 85.4092 44.9059 87.3478C35.2438 95.3476 27.4187 104.562 21.7733 116.071C11.9766 136.034 18.2587 153.861 30.1618 169.039C48.8246 192.842 73.243 210.363 100.037 224.436C102.596 225.774 104.188 224.559 106.16 223.541C118.786 217.013 131.129 209.811 144.147 204.167C173.415 191.48 203.013 179.873 235.024 175.296C261.622 171.493 288.196 168.499 315.027 166.634C346.584 164.45 377.799 166.033 408.451 172.56C431.816 177.542 454.532 185.873 474.836 199.198C482.575 204.277 488.6 211.161 492.789 219.639C497.895 229.994 495.972 239.577 489.629 248.35C478.167 264.19 461.292 270.852 443.009 274.926C424.407 279.073 405.512 279.343 386.567 279.895C343.082 281.146 299.731 279.024 256.663 273.502C212.038 267.785 168.333 257.711 126.966 239.16C120.671 236.338 114.242 233.798 107.874 231.148C105.425 230.129 102.952 230.264 101.029 232.068C86.2604 245.969 75.484 261.908 77.2229 283.38C78.3618 297.428 82.7703 310.25 92.4813 321.133C101.629 331.378 111.279 340.936 122.386 349.022C126.28 351.856 129.856 352.212 134.044 349.439C160.814 331.71 190.388 320.299 221.566 314.017C247.613 308.778 273.917 303.563 300.785 304.508C344.025 306.029 386.078 313.182 425.509 332.078C428.436 333.476 431.289 335.084 433.996 336.875C451.263 348.261 450.32 369.574 435.857 380.616C424.64 389.18 411.892 391.966 398.47 393.917C357.471 399.892 316.447 397.929 275.35 395.278C230.701 392.407 188.134 380.935 146.376 365.672C142.126 364.126 138.11 362.065 134.669 359.206C130.958 356.114 127.958 357.059 125.068 360.065C102.143 383.88 103.331 416.149 124.749 437.756C131.387 444.455 138.722 450.246 146.608 455.363C148.923 456.86 150.907 457.829 153.503 455.228C171.051 437.584 193.29 429.143 216.778 423.155C238.869 417.536 261.145 413.155 283.922 411.585C305.193 410.112 326.036 411.867 346.891 416.787C366.704 421.462 383.163 430.505 395.715 446.664C404.765 458.332 403.552 466.614 391.025 475.092C380.163 482.454 367.488 484.871 355.157 488.233C345.397 490.896 335.392 490.969 325.46 491.288C297.956 492.172 270.415 493.104 243.021 489.546C217.561 486.245 192.653 480.479 168.553 471.461C166.839 470.823 165.112 470.197 163.434 469.473C153.099 464.97 153.368 465.031 150.466 475.89C147.539 486.859 150.613 497.497 152.107 508.024C156.221 537.14 164.194 565.348 175.374 592.562C191.575 632.021 214.818 666.229 247.919 693.786C265.026 708.031 299.548 712.019 318.786 688.841C329.954 675.382 338.024 660.069 347.907 645.873C365.321 620.855 376.771 593.003 386.42 564.44C392.531 546.367 396.56 527.594 399.034 508.576C399.193 507.374 399.536 506.184 399.817 505.006C400.356 502.785 400.062 498.871 402.769 499.349C405.965 499.914 406.92 503.84 406.002 506.932C401.287 522.748 399.781 539.25 395.176 555.103C384.951 590.329 370.488 623.432 349.621 653.799C341.576 665.517 334.792 678.179 325.876 689.308C300.185 721.38 265.296 719.012 237.571 693.749C203.258 662.462 180.444 623.96 164.549 581.004C154.58 554.035 148.641 525.876 144.82 497.435C143.424 486.994 142.053 475.767 148.078 465.743C149.939 462.639 147.759 461.314 145.739 459.952C138.648 455.166 131.632 450.283 125.178 444.627C114.634 435.376 106.993 424.088 104.115 410.382C100.123 391.377 106.932 375.156 119.153 360.825C119.545 360.359 119.973 359.917 120.378 359.463C125.141 354.212 124.798 354.691 118.908 350.519C96.3878 334.544 76.9412 316.213 72.202 286.962C71.2959 281.355 71.8592 276.104 73.047 270.717C76.1085 256.804 82.7458 244.927 92.6283 234.694C98.2369 228.89 98.1634 228.252 91.3792 223.749C81.2151 217.001 70.8917 210.461 60.4582 204.142C55.8782 201.369 51.7881 198.241 48.0898 194.351C41.6362 187.541 34.6315 181.272 28.1902 174.45C15.8585 161.383 10.2621 145.236 12.8338 127.899C14.536 116.427 21.5161 106.047 29.6229 97.188C33.1988 93.2863 36.8848 89.4704 40.6198 85.7404C42.3955 83.9736 43.0935 82.9552 40.2647 81.2988C27.982 74.1334 15.8585 66.698 3.63708 59.4221C2.0696 58.4896 0.14699 57.9866 0.0245304 55.7412C-0.0489451 54.3425 0.893991 53.2259 2.04511 52.9928C4.16366 52.5756 5.90258 53.3732 7.16391 55.3731C10.0172 59.8761 14.7931 62.0355 19.1527 64.5999C26.8676 69.1396 34.9254 73.1027 42.2485 78.3173C44.9059 80.2068 47.4163 81.0412 50.6125 79.0044C92.7262 52.1585 138.036 32.5025 185.93 18.6133C210.348 11.5338 235.036 5.59527 260.214 2.08616C272.95 0.31933 285.881 -0.576352 299.046 1.54629L299.009 1.48494ZM362.137 275.49C384.412 274.729 406.296 276.03 427.922 272.533C444.65 269.822 460.925 265.785 474.958 255.319C487.939 245.638 491.858 232.89 485.135 219.614C480.347 210.154 472.766 203.443 463.521 198.707C430.653 181.873 395.691 172.487 358.855 170.916C300.27 168.413 242.543 173.689 186.371 191.64C160.728 199.836 136.53 211.32 112.969 224.228C111.756 224.89 110.091 225.197 110.152 227.013C110.213 228.78 111.72 229.123 113.079 229.651C130.297 236.399 147.025 244.423 164.941 249.294C204.801 260.141 244.943 268.852 286.396 271.736C311.818 273.515 337.18 275.196 362.137 275.478V275.49ZM326.011 392.616C350.466 392.702 371.823 392.861 393.033 389.021C405.867 386.702 418.333 384.297 429.906 377.414C441.882 370.285 443.511 350.666 430.775 342.433C427.028 340.004 423.244 337.55 419.227 335.611C382.281 317.771 342.494 312.017 302.23 309.465C275.056 307.747 248.36 313.587 221.884 318.937C192.457 324.888 164.622 335.44 139.138 351.697C137.816 352.543 135.856 353.046 136.052 355.059C136.261 357.083 138.404 357.071 139.787 357.733C153.405 364.224 167.769 368.752 182.158 372.972C230.089 387.033 278.962 394.628 325.999 392.616H326.011ZM296.939 488.196C310.888 488.896 326.354 487.718 341.649 485.558C357.324 483.35 372.913 480.135 386.58 471.399C395.495 465.706 396.78 457.252 390.302 449.068C380.518 436.701 367.782 428.75 352.903 424.002C327.909 416.026 302.107 414.775 276.354 416.983C249.854 419.266 223.623 424.345 198.507 433.388C184.828 438.308 171.284 444.247 160.41 454.602C157.14 457.706 154.874 460.271 160.973 463.031C164.083 464.442 167.035 466.234 170.304 467.436C210.691 482.233 252.462 488.687 296.939 488.209V488.196Z" fill="#ECE8FB"/>
<path d="M246.768 575.985C244.012 574.083 241.649 572.525 239.383 570.856C233.469 566.501 226.917 564.268 219.545 563.998C206.527 563.531 193.718 560.403 180.627 560.673C178.729 560.709 176.611 560.55 176.745 558.035C176.88 555.593 179.072 555.532 180.921 555.593C197.208 556.059 213.434 557.176 229.501 560.035C235.342 561.065 239.787 564.795 244.392 568.12C246.596 569.715 247.943 572.034 246.755 575.997L246.768 575.985Z" fill="#ECE8FB"/>
<path d="M313.974 574.317C315.223 565.998 321.101 561.888 327.836 559.802C337.412 556.833 347.246 553.716 357.545 555.716C362.419 556.661 367.109 553.716 371.921 555.422C373.954 556.146 377.028 556.428 376.575 559.238C376.146 561.863 373.17 560.685 371.37 560.747C359.259 561.213 347.05 559.839 335.184 563.986C327.701 566.599 321.003 570.526 313.986 574.317H313.974Z" fill="#ECE8FB"/>
<path d="M256.197 638.622C258.659 639.591 259.345 641.395 259.957 643.052C262.982 651.235 270.145 653.8 277.481 655.738C283.04 657.211 291.637 650.953 294.968 643.677C295.813 641.825 296.548 639.923 297.282 638.033C297.797 636.696 298.225 634.892 300.001 635.469C301.36 635.923 301.556 637.776 301.618 639.162C301.96 648.401 288.759 662.229 279.146 662.781C269.276 663.345 254.275 647.849 256.197 638.634V638.622Z" fill="#ECE8FB"/>
<path d="M336.604 597.592C330.493 597.347 324.505 596.316 318.578 594.917C316.814 594.5 314.622 594.206 315.541 591.519C316.251 589.445 317.782 587.813 320.17 588.672C333.187 593.298 345.8 590.255 358.414 586.844C359.969 586.427 361.61 586.292 363.214 586.083C364.757 585.875 366.3 586.23 366.606 587.887C366.888 589.408 365.872 590.586 364.329 591.065C355.23 593.862 346.315 597.433 336.604 597.592Z" fill="#ECE8FB"/>
<path d="M218.419 598.365C209.589 598.586 201.213 595.457 192.494 594.733C190.131 594.537 187.939 592.917 188.637 590.243C189.396 587.347 191.894 588.942 193.755 589.163C205.793 590.549 217.684 594.046 229.991 591.506C231.901 591.114 234.424 590.782 234.877 593.641C235.379 596.807 232.881 597.114 230.567 597.457C226.538 598.034 222.521 598.733 218.419 598.377V598.365Z" fill="#ECE8FB"/>
<path d="M303.308 0.0124532C308.145 0.0124532 312.639 -0.0243556 317.133 0.0124532C324.811 0.086071 332.49 0.208767 340.168 0.331463C341.368 0.356003 342.825 0.282385 343.168 1.76701C343.462 3.00624 342.348 3.70561 341.331 3.52157C330.249 1.47254 319.154 4.45406 308.084 3.32525C306.443 3.15348 304.373 3.17802 303.32 0.000183624L303.308 0.0124532Z" fill="#ECE8FB"/>
</g>
<defs>
<clipPath id="clip0_184_601">
<rect width="532" height="713" fill="white"/>
</clipPath>
</defs>
</svg>
