<svg width="42" height="42" viewBox="0 0 42 42" fill="none" xmlns="http://www.w3.org/2000/svg">
<path d="M20.4268 21.0664C20.4268 21.0664 30.0641 40.4852 35.1252 35.2852C40.1864 30.0852 20.4268 21.0664 20.4268 21.0664Z" fill="#2D53DF"/>
<path d="M20.4863 20.842C20.4863 20.842 42.1755 22.2232 40.187 15.2623C38.1986 8.30132 20.4863 20.842 20.4863 20.842Z" fill="#2D53DF"/>
<path d="M20.0322 20.9699C20.0322 20.9699 -1.65344 19.5887 0.331529 26.5497C2.3165 33.5106 20.0322 20.9699 20.0322 20.9699Z" fill="#2D53DF"/>
<path d="M20.0912 20.7423C20.0912 20.7423 10.4539 1.32694 5.39274 6.52347C0.331591 11.72 20.0912 20.7423 20.0912 20.7423Z" fill="#2D53DF"/>
<path d="M20.3164 20.6769C20.3164 20.6769 32.3683 2.65306 25.3187 0.88175C18.2691 -0.88956 20.3164 20.6769 20.3164 20.6769Z" fill="#2D53DF"/>
<path d="M20.2019 21.1318C20.2019 21.1318 8.15007 39.1591 15.1997 40.927C22.2492 42.6949 20.2019 21.1318 20.2019 21.1318Z" fill="#2D53DF"/>
<path d="M20.784 21.0664C20.784 21.0664 1.05555 30.1543 6.13748 35.3336C11.2194 40.5128 20.784 21.0664 20.784 21.0664Z" fill="#2D53DF"/>
<path d="M21.1787 20.9663C21.1787 20.9663 38.9395 33.4518 40.9002 26.4909C42.861 19.53 21.1787 20.9663 21.1787 20.9663Z" fill="#2D53DF"/>
<path d="M20.8942 20.6801C20.8942 20.6801 22.8619 -0.893293 15.8192 0.898735C8.77658 2.69076 20.8942 20.6801 20.8942 20.6801Z" fill="#2D53DF"/>
<path d="M21.0088 21.1318C21.0088 21.1318 19.0447 42.7052 26.0838 40.9097C33.123 39.1142 21.0088 21.1318 21.0088 21.1318Z" fill="#2D53DF"/>
<path d="M21.1201 20.7424C21.1201 20.7424 40.8659 11.6545 35.7666 6.47179C30.6674 1.28907 21.1201 20.7424 21.1201 20.7424Z" fill="#2D53DF"/>
<path d="M20.7248 20.8423C20.7248 20.8423 2.96404 8.35685 1.00332 15.3178C-0.957396 22.2787 20.7248 20.8423 20.7248 20.8423Z" fill="#2D53DF"/>
<path d="M19.8146 20.9531C19.8146 20.9531 -1.26837 26.2187 2.757 32.2543C6.78236 38.2899 19.8146 20.9531 19.8146 20.9531Z" fill="#9FAEFF"/>
<path d="M20.2188 20.9287C20.2188 20.9287 35.3364 36.4907 38.5788 30.0028C41.8213 23.5149 20.2188 20.9287 20.2188 20.9287Z" fill="#9FAEFF"/>
<path d="M19.9936 20.5902C19.9936 20.5902 25.9589 -0.240808 18.7049 0.21842C11.451 0.677649 19.9936 20.5902 19.9936 20.5902Z" fill="#9FAEFF"/>
<path d="M20.0248 21.0664C20.0248 21.0664 14.0595 41.8974 21.3135 41.4382C28.5674 40.979 20.0248 21.0664 20.0248 21.0664Z" fill="#9FAEFF"/>
<path d="M20.2061 20.6933C20.2061 20.6933 41.2856 15.4277 37.2637 9.39214C33.2418 3.35656 20.2061 20.6933 20.2061 20.6933Z" fill="#9FAEFF"/>
<path d="M19.8001 20.7217C19.8001 20.7217 4.68249 5.15971 1.44003 11.6476C-1.80243 18.1355 19.8001 20.7217 19.8001 20.7217Z" fill="#9FAEFF"/>
<path d="M26.9944 20.1254C26.7001 20.2214 26.3824 20.2183 26.0901 20.1165C25.7978 20.0148 25.5469 19.82 25.376 19.562L23.104 20.3016C23.1458 20.5122 23.1666 20.7264 23.1662 20.941C23.167 21.7938 22.8331 22.6128 22.236 23.2221L23.6919 25.2232C23.9633 25.1607 24.2471 25.1795 24.5078 25.2773C24.7686 25.375 24.9947 25.5473 25.1581 25.7727C25.3788 26.0768 25.47 26.4559 25.4117 26.8271C25.3534 27.1983 25.1503 27.5312 24.8469 27.753C24.5422 27.9733 24.1626 28.0638 23.7912 28.0049C23.4198 27.9459 23.0869 27.7423 22.8654 27.4386C22.6857 27.1954 22.5887 26.901 22.5887 26.5987C22.5887 26.2964 22.6857 26.002 22.8654 25.7589L21.451 23.8131C20.9768 24.0762 20.4442 24.2164 19.9018 24.2209C19.3542 24.2214 18.8153 24.0835 18.3353 23.82L16.9209 25.7658C17.1006 26.0089 17.1976 26.3033 17.1976 26.6056C17.1976 26.9079 17.1006 27.2023 16.9209 27.4455C16.6995 27.7492 16.3666 27.9529 15.9952 28.0118C15.6238 28.0708 15.2442 27.9802 14.9394 27.76C14.7888 27.6504 14.6613 27.5123 14.5641 27.3534C14.467 27.1946 14.4021 27.0181 14.3732 26.8342C14.3443 26.6503 14.352 26.4625 14.3957 26.2816C14.4395 26.1006 14.5185 25.93 14.6282 25.7796C14.7916 25.5542 15.0178 25.3819 15.2785 25.2842C15.5393 25.1865 15.823 25.1676 16.0944 25.2301L17.5468 23.229C16.9507 22.6194 16.618 21.8003 16.6201 20.9479C16.6197 20.7333 16.6405 20.5191 16.6823 20.3085L14.4103 19.5689C14.239 19.8264 13.9882 20.0209 13.6959 20.1226C13.4037 20.2243 13.0862 20.2277 12.7919 20.1323C12.6146 20.0754 12.4503 19.9841 12.3083 19.8636C12.1664 19.7431 12.0496 19.5958 11.9648 19.4301C11.88 19.2644 11.8287 19.0836 11.814 18.8981C11.7993 18.7125 11.8214 18.5259 11.879 18.3489C11.9363 18.1715 12.0279 18.0072 12.1488 17.8653C12.2697 17.7234 12.4174 17.6068 12.5835 17.522C12.7496 17.4373 12.9308 17.3861 13.1167 17.3714C13.3025 17.3567 13.4895 17.3788 13.6668 17.4365C13.9246 17.5201 14.1528 17.676 14.3245 17.8855C14.4962 18.095 14.604 18.3494 14.6351 18.6185L17.0143 19.3892C17.2561 18.9451 17.5978 18.5631 18.0125 18.2734C18.4271 17.9838 18.9035 17.7943 19.4039 17.7199V15.2764C19.1314 15.1772 18.8959 14.9966 18.7295 14.7593C18.5632 14.5219 18.4738 14.2391 18.4736 13.9492C18.4731 13.763 18.5095 13.5785 18.5806 13.4064C18.6517 13.2343 18.7561 13.0779 18.8878 12.9462C19.0196 12.8146 19.1761 12.7102 19.3483 12.6391C19.5205 12.5681 19.7051 12.5318 19.8914 12.5322C20.2675 12.5322 20.6281 12.6815 20.894 12.9472C21.1599 13.213 21.3092 13.5734 21.3092 13.9492C21.309 14.2391 21.2197 14.5219 21.0533 14.7593C20.8869 14.9966 20.6515 15.1772 20.379 15.2764V17.7199C20.8794 17.7943 21.3557 17.9838 21.7704 18.2734C22.185 18.5631 22.5268 18.9451 22.7686 19.3892L25.1443 18.6185C25.177 18.3495 25.2858 18.0954 25.4579 17.886C25.63 17.6766 25.8583 17.5207 26.116 17.4365C26.2931 17.3789 26.4799 17.3568 26.6655 17.3715C26.8512 17.3863 27.0321 17.4375 27.1979 17.5222C27.3637 17.607 27.511 17.7237 27.6316 17.8656C27.7522 18.0074 27.8435 18.1717 27.9004 18.3489C28.014 18.7046 27.9826 19.0907 27.8129 19.4233C27.6433 19.756 27.3491 20.0083 26.9944 20.1254Z" fill="#657ED7"/>
<path d="M25.8695 16.4451C25.6685 16.6804 25.3959 16.8434 25.0934 16.9089C24.7908 16.9745 24.4751 16.9391 24.1946 16.808L22.6424 18.6233C22.7879 18.7811 22.9175 18.953 23.0293 19.1363C23.4752 19.8635 23.6179 20.7363 23.4266 21.5673L25.7134 22.5157C25.9124 22.321 26.1643 22.1891 26.4378 22.1365C26.7113 22.084 26.9942 22.1131 27.2512 22.2203C27.5983 22.3647 27.8741 22.6406 28.0181 22.9877C28.1621 23.3347 28.1627 23.7246 28.0197 24.072C27.8747 24.4187 27.5981 24.6939 27.2504 24.8372C26.9028 24.9805 26.5124 24.9803 26.1649 24.8365C25.8846 24.7228 25.6482 24.5222 25.4904 24.2642C25.3326 24.0063 25.2616 23.7047 25.288 23.4035L23.0654 22.4807C22.7982 22.9523 22.417 23.3496 21.9566 23.6361C21.4897 23.922 20.9579 24.0852 20.4108 24.1106L20.22 26.5079C20.5003 26.6217 20.7368 26.8222 20.8946 27.0802C21.0524 27.3381 21.1234 27.6398 21.097 27.9409C21.0666 28.3155 20.889 28.6627 20.6029 28.9066C20.3168 29.1505 19.9456 29.2711 19.5707 29.242C19.385 29.2271 19.2041 29.1757 19.0382 29.0908C18.8724 29.0059 18.725 28.8892 18.6043 28.7474C18.4836 28.6055 18.3921 28.4413 18.3349 28.2641C18.2778 28.087 18.2561 27.9003 18.2712 27.7147C18.2929 27.4373 18.3959 27.1724 18.5674 26.9531C18.7388 26.7338 18.9711 26.5698 19.2352 26.4816L19.4296 24.0174C18.6028 23.808 17.8912 23.2826 17.448 22.5543C17.3357 22.3714 17.2416 22.1778 17.1673 21.9764L14.8428 22.5296C14.8311 22.8386 14.7186 23.1353 14.5224 23.3744C14.3262 23.6134 14.0571 23.7818 13.7562 23.8538C13.5752 23.8977 13.3873 23.9055 13.2033 23.8767C13.0193 23.8479 12.8428 23.783 12.684 23.6859C12.5251 23.5887 12.3869 23.4612 12.2775 23.3106C12.1681 23.1599 12.0895 22.9892 12.0463 22.8082C12.0025 22.627 11.9949 22.439 12.024 22.255C12.0531 22.0709 12.1182 21.8944 12.2156 21.7355C12.313 21.5766 12.4409 21.4385 12.5918 21.3291C12.7427 21.2197 12.9138 21.1411 13.0952 21.0978C13.3587 21.0349 13.6348 21.0488 13.8907 21.1381C14.1465 21.2274 14.3713 21.3883 14.5384 21.6016L16.9706 21.019C16.945 20.5141 17.0371 20.0101 17.2396 19.5468C17.4422 19.0835 17.7496 18.6736 18.1377 18.3493L16.862 16.2646C16.5777 16.322 16.2826 16.2907 16.0167 16.1749C15.7508 16.0591 15.5269 15.8644 15.3754 15.6172C15.2778 15.4586 15.2125 15.2823 15.1833 15.0984C15.1541 14.9144 15.1615 14.7266 15.2052 14.5456C15.2488 14.3646 15.3279 14.194 15.4377 14.0436C15.5475 13.8932 15.6861 13.766 15.8453 13.6693C16.1661 13.4733 16.5517 13.4127 16.9173 13.5008C17.2829 13.5889 17.5985 13.8186 17.7947 14.1392C17.9458 14.3866 18.0172 14.6744 17.9992 14.9637C17.9812 15.2529 17.8746 15.5297 17.6939 15.7563L18.9697 17.841C19.4354 17.6436 19.9407 17.5571 20.4457 17.5881C20.9507 17.6191 21.4417 17.7668 21.8799 18.0197L23.5043 16.1238C23.3917 15.8773 23.3519 15.6038 23.3894 15.3354C23.427 15.0671 23.5403 14.8151 23.7162 14.6089C23.8373 14.4675 23.9851 14.3513 24.1511 14.2671C24.3172 14.1829 24.4983 14.1323 24.684 14.1182C24.8697 14.1041 25.0564 14.1268 25.2333 14.185C25.4102 14.2432 25.5739 14.3357 25.715 14.4573C25.9976 14.7015 26.1723 15.0473 26.2013 15.4195C26.2302 15.7917 26.111 16.1603 25.8695 16.4451Z" fill="#657ED7"/>
</svg>
