<svg width="50" height="51" viewBox="0 0 50 51" fill="none" xmlns="http://www.w3.org/2000/svg">
<path d="M24.7236 25.624C24.7236 25.624 36.3216 48.9935 42.4124 42.7356C48.5033 36.4777 24.7236 25.624 24.7236 25.624Z" fill="#FD56A6"/>
<path d="M24.7939 25.3545C24.7939 25.3545 50.8956 27.0166 48.5027 18.6395C46.1097 10.2624 24.7939 25.3545 24.7939 25.3545Z" fill="#FD56A6"/>
<path d="M24.248 25.5082C24.248 25.5082 -1.84951 23.8461 0.539293 32.2232C2.92809 40.6003 24.248 25.5082 24.248 25.5082Z" fill="#FD56A6"/>
<path d="M24.3195 25.2338C24.3195 25.2338 12.7216 1.86848 6.63078 8.12223C0.539972 14.376 24.3195 25.2338 24.3195 25.2338Z" fill="#FD56A6"/>
<path d="M24.5904 25.1549C24.5904 25.1549 39.0941 3.46415 30.6104 1.33248C22.1266 -0.799195 24.5904 25.1549 24.5904 25.1549Z" fill="#FD56A6"/>
<path d="M24.4529 25.7031C24.4529 25.7031 9.94917 47.398 18.433 49.5255C26.9167 51.653 24.4529 25.7031 24.4529 25.7031Z" fill="#FD56A6"/>
<path d="M25.1527 25.624C25.1527 25.624 1.41063 36.5608 7.52646 42.7938C13.6423 49.0267 25.1527 25.624 25.1527 25.624Z" fill="#FFC3E3"/>
<path d="M25.6279 25.504C25.6279 25.504 47.0021 40.5296 49.3617 32.1525C51.7213 23.7754 25.6279 25.504 25.6279 25.504Z" fill="#FFC3E3"/>
<path d="M25.2864 25.1587C25.2864 25.1587 27.6544 -0.803736 19.1789 1.35287C10.7035 3.50948 25.2864 25.1587 25.2864 25.1587Z" fill="#FFC3E3"/>
<path d="M25.4234 25.7031C25.4234 25.7031 23.0596 51.6655 31.5309 49.5047C40.0021 47.344 25.4234 25.7031 25.4234 25.7031Z" fill="#FFC3E3"/>
<path d="M25.5566 25.2335C25.5566 25.2335 49.3196 14.2967 43.1829 8.0596C37.0462 1.82248 25.5566 25.2335 25.5566 25.2335Z" fill="#FFC3E3"/>
<path d="M25.0819 25.3537C25.0819 25.3537 3.70779 10.3281 1.34817 18.7052C-1.01145 27.0823 25.0819 25.3537 25.0819 25.3537Z" fill="#FFC3E3"/>
<path d="M23.9855 25.4873C23.9855 25.4873 -1.38668 31.8242 3.45762 39.0877C8.30192 46.3511 23.9855 25.4873 23.9855 25.4873Z" fill="#FFCFE9"/>
<path d="M24.4736 25.458C24.4736 25.458 42.6669 44.186 46.569 36.3782C50.4711 28.5703 24.4736 25.458 24.4736 25.458Z" fill="#FFCFE9"/>
<path d="M24.2025 25.0507C24.2025 25.0507 31.3814 -0.0182605 22.6517 0.534396C13.9219 1.08705 24.2025 25.0507 24.2025 25.0507Z" fill="#FFCFE9"/>
<path d="M24.2403 25.624C24.2403 25.624 17.0613 50.693 25.7911 50.1404C34.5208 49.5877 24.2403 25.624 24.2403 25.624Z" fill="#FFCFE9"/>
<path d="M24.457 25.1759C24.457 25.1759 49.825 18.839 44.9849 11.5755C40.1448 4.31206 24.457 25.1759 24.457 25.1759Z" fill="#FFCFE9"/>
<path d="M23.9691 25.209C23.9691 25.209 5.77583 6.48101 1.87371 14.2888C-2.02842 22.0967 23.9691 25.209 23.9691 25.209Z" fill="#FFCFE9"/>
<path d="M32.6266 24.4914C32.2725 24.607 31.8902 24.6033 31.5384 24.4808C31.1866 24.3584 30.8846 24.1239 30.679 23.8135L27.9448 24.7035C27.995 24.9569 28.0201 25.2147 28.0197 25.473C28.0206 26.4993 27.6187 27.4849 26.9002 28.2181L28.6523 30.6264C28.9788 30.5512 29.3204 30.5739 29.6342 30.6915C29.948 30.8091 30.2202 31.0164 30.4168 31.2877C30.6824 31.6537 30.7921 32.1099 30.7219 32.5566C30.6518 33.0033 30.4074 33.4039 30.0423 33.6709C29.6756 33.936 29.2187 34.045 28.7717 33.974C28.3248 33.9031 27.9241 33.658 27.6576 33.2925C27.4413 32.9998 27.3247 32.6456 27.3247 32.2818C27.3247 31.9179 27.4413 31.5637 27.6576 31.2711L25.9555 28.9294C25.3848 29.246 24.7438 29.4148 24.0911 29.4202C23.432 29.4208 22.7835 29.2548 22.2059 28.9377L20.5038 31.2794C20.72 31.572 20.8368 31.9263 20.8368 32.2901C20.8368 32.6539 20.72 33.0081 20.5038 33.3008C20.2372 33.6663 19.8366 33.9114 19.3897 33.9824C18.9427 34.0533 18.4859 33.9443 18.1191 33.6793C17.9379 33.5474 17.7844 33.3812 17.6675 33.19C17.5506 32.9988 17.4725 32.7865 17.4377 32.5652C17.403 32.3439 17.4122 32.1179 17.4648 31.9001C17.5175 31.6823 17.6125 31.477 17.7446 31.296C17.9412 31.0248 18.2134 30.8174 18.5272 30.6998C18.841 30.5822 19.1825 30.5595 19.5091 30.6347L21.257 28.2265C20.5397 27.4928 20.1392 26.5071 20.1417 25.4813C20.1413 25.223 20.1663 24.9653 20.2166 24.7119L17.4824 23.8218C17.2763 24.1317 16.9743 24.3657 16.6227 24.4881C16.271 24.6105 15.8889 24.6146 15.5347 24.4997C15.3213 24.4313 15.1236 24.3215 14.9527 24.1764C14.7819 24.0314 14.6415 23.8541 14.5394 23.6547C14.4373 23.4553 14.3756 23.2377 14.3579 23.0144C14.3401 22.7912 14.3668 22.5666 14.4361 22.3536C14.505 22.1401 14.6153 21.9424 14.7608 21.7716C14.9063 21.6009 15.0841 21.4604 15.2839 21.3585C15.4838 21.2565 15.7018 21.1949 15.9255 21.1772C16.1493 21.1595 16.3742 21.1861 16.5876 21.2555C16.8978 21.3561 17.1725 21.5437 17.3791 21.7959C17.5857 22.0481 17.7154 22.3542 17.7529 22.678L20.6161 23.6055C20.9072 23.071 21.3184 22.6114 21.8174 22.2628C22.3164 21.9141 22.8896 21.6861 23.4918 21.5966V18.656C23.1639 18.5366 22.8806 18.3193 22.6803 18.0336C22.4801 17.7479 22.3726 17.4076 22.3723 17.0588C22.3718 16.8347 22.4156 16.6127 22.5011 16.4056C22.5867 16.1984 22.7123 16.0102 22.8709 15.8518C23.0294 15.6933 23.2177 15.5677 23.425 15.4822C23.6323 15.3967 23.8544 15.353 24.0786 15.3535C24.5311 15.3535 24.9651 15.5332 25.2851 15.853C25.6051 16.1728 25.7849 16.6065 25.7849 17.0588C25.7846 17.4076 25.6771 17.7479 25.4769 18.0336C25.2766 18.3193 24.9933 18.5366 24.6654 18.656V21.5966C25.2676 21.6861 25.8408 21.9141 26.3398 22.2628C26.8388 22.6114 27.2501 23.071 27.5411 23.6055L30.4002 22.678C30.4395 22.3542 30.5704 22.0484 30.7775 21.7965C30.9847 21.5445 31.2594 21.3568 31.5696 21.2555C31.7827 21.1862 32.0074 21.1597 32.2309 21.1774C32.4543 21.1951 32.672 21.2567 32.8715 21.3587C33.071 21.4608 33.2484 21.6012 33.3935 21.7719C33.5386 21.9426 33.6485 22.1403 33.717 22.3536C33.8537 22.7816 33.8158 23.2463 33.6117 23.6466C33.4075 24.0469 33.0535 24.3505 32.6266 24.4914Z" fill="#FD56A6"/>
<path d="M31.2735 20.062C31.0317 20.3452 30.7036 20.5413 30.3395 20.6202C29.9754 20.6991 29.5954 20.6564 29.2579 20.4988L27.3899 22.6833C27.5651 22.8733 27.721 23.0801 27.8555 23.3007C28.3922 24.1758 28.5638 25.2262 28.3337 26.2262L31.0857 27.3676C31.3251 27.1333 31.6283 26.9745 31.9575 26.9113C32.2866 26.8481 32.627 26.8831 32.9364 27.0121C33.3541 27.1859 33.6859 27.5179 33.8593 27.9356C34.0326 28.3533 34.0333 28.8225 33.8612 29.2406C33.6867 29.6578 33.3538 29.9889 32.9354 30.1614C32.5171 30.3338 32.0473 30.3336 31.6291 30.1606C31.2918 30.0237 31.0073 29.7823 30.8173 29.4719C30.6274 29.1615 30.542 28.7985 30.5737 28.4361L27.899 27.3254C27.5774 27.8931 27.1187 28.3711 26.5646 28.716C26.0027 29.06 25.3627 29.2565 24.7043 29.287L24.4747 32.172C24.812 32.3089 25.0966 32.5503 25.2865 32.8607C25.4765 33.1711 25.5618 33.5341 25.5301 33.8966C25.4936 34.3473 25.2797 34.7652 24.9355 35.0587C24.5912 35.3522 24.1445 35.4974 23.6933 35.4624C23.4698 35.4444 23.2521 35.3825 23.0525 35.2804C22.853 35.1782 22.6755 35.0378 22.5303 34.8671C22.3851 34.6964 22.2749 34.4988 22.2061 34.2856C22.1374 34.0723 22.1113 33.8476 22.1294 33.6243C22.1556 33.2904 22.2796 32.9716 22.4859 32.7077C22.6922 32.4438 22.9717 32.2465 23.2896 32.1404L23.5235 29.1748C22.5285 28.9228 21.6722 28.2905 21.1388 27.4141C21.0035 27.1939 20.8904 26.961 20.8009 26.7186L18.0035 27.3843C17.9895 27.7562 17.8541 28.1132 17.618 28.401C17.3819 28.6887 17.058 28.8913 16.6958 28.9779C16.478 29.0308 16.252 29.0402 16.0305 29.0055C15.8091 28.9708 15.5967 28.8928 15.4055 28.7758C15.2143 28.6589 15.048 28.5054 14.9163 28.3242C14.7846 28.1429 14.6901 27.9374 14.638 27.7196C14.5854 27.5016 14.5763 27.2753 14.6113 27.0538C14.6462 26.8323 14.7246 26.6199 14.8418 26.4287C14.9591 26.2375 15.113 26.0713 15.2946 25.9396C15.4762 25.8079 15.6821 25.7134 15.9004 25.6613C16.2175 25.5855 16.5498 25.6023 16.8577 25.7098C17.1656 25.8172 17.4362 26.0108 17.6372 26.2675L20.5642 25.5664C20.5334 24.9587 20.6443 24.3522 20.888 23.7947C21.1317 23.2372 21.5017 22.7439 21.9688 22.3536L20.4335 19.8448C20.0914 19.9139 19.7362 19.8762 19.4163 19.7368C19.0963 19.5975 18.8269 19.3632 18.6445 19.0657C18.5271 18.8748 18.4485 18.6626 18.4133 18.4412C18.3782 18.2199 18.3871 17.9939 18.4397 17.7761C18.4922 17.5582 18.5873 17.3529 18.7195 17.1719C18.8517 16.9909 19.0183 16.8379 19.2099 16.7215C19.596 16.4856 20.0601 16.4126 20.5 16.5187C20.94 16.6247 21.3198 16.9011 21.5559 17.287C21.7378 17.5847 21.8238 17.9311 21.8021 18.2792C21.7804 18.6273 21.6522 18.9603 21.4347 19.2331L22.97 21.7419C23.5305 21.5044 24.1386 21.4002 24.7463 21.4375C25.3541 21.4748 25.9449 21.6526 26.4723 21.9569L28.4272 19.6753C28.2917 19.3786 28.2437 19.0495 28.2889 18.7266C28.3341 18.4036 28.4705 18.1003 28.6822 17.8522C28.8279 17.682 29.0057 17.5422 29.2056 17.4409C29.4055 17.3395 29.6234 17.2786 29.8469 17.2617C30.0704 17.2447 30.295 17.2721 30.5079 17.3421C30.7208 17.4121 30.9178 17.5234 31.0876 17.6697C31.4277 17.9636 31.638 18.3798 31.6728 18.8278C31.7076 19.2757 31.5642 19.7192 31.2735 20.062Z" fill="#FD56A6"/>
</svg>
