<svg width="94" height="90" viewBox="0 0 94 90" fill="none" xmlns="http://www.w3.org/2000/svg">
<path d="M64.3244 24.9015C64.3584 25.0546 64.3896 25.2106 64.4264 25.3779C64.4604 25.3751 64.5029 25.3836 64.5341 25.3694C67.6421 23.8579 70.9542 23.2141 74.3739 23.1035C77.7454 22.9929 81.1312 23.2028 84.4517 23.7955C86.061 24.0819 87.6589 24.4534 89.2257 24.9242C90.0162 25.1624 90.801 25.4261 91.5716 25.7211C91.957 25.8686 92.3423 26.0217 92.7219 26.1833C93.0109 26.3053 93.3283 26.4244 93.4557 26.7363C93.5719 27.0199 93.5067 27.3517 93.4812 27.6438C93.2461 30.372 92.6964 33.0974 92.0703 35.7603C91.3082 39.0784 90.2514 42.2915 88.6052 45.2919C86.6701 48.8113 84.0919 51.7068 80.59 53.7317C79.7599 54.2109 78.8787 54.5739 78.0061 54.9653C77.9664 55.0305 77.9069 55.0702 77.8389 55.0986C76.2467 55.7168 74.6771 56.3747 72.9374 56.5052C70.8862 56.6612 68.8576 56.5733 66.8602 56.077C64.6446 55.5268 62.684 54.4548 60.9302 53.0056C59.5731 51.8826 58.3859 50.5979 57.3716 49.1573C57.1988 48.9134 56.9778 48.6865 56.9467 48.3632C57.0373 48.091 57.3093 48.0002 57.5048 47.8414C58.4568 47.0729 58.9696 46.1143 58.8874 44.8665C58.8676 44.5886 58.8138 44.322 58.7373 44.0583C58.6891 43.8938 58.6183 43.7293 58.6948 43.5506C58.8081 43.3691 58.9951 43.284 59.1707 43.1791C62.259 41.3386 65.5427 39.9235 68.8803 38.6048C71.5435 37.5526 74.3456 37.062 77.1051 36.3956C78.1846 36.1347 79.2697 35.8964 80.3634 35.6866C77.8871 35.8482 75.4335 36.1857 73.0026 36.6593C71.297 36.9939 69.5602 37.2151 67.9198 37.822C64.8259 38.9678 61.8227 40.3035 59.0659 42.1468C58.7883 42.3312 58.5474 42.5694 58.2443 42.7169C58.1309 42.7367 58.0516 42.6743 57.9808 42.6006C57.2016 41.7753 56.2355 41.3358 55.1135 41.2365C55.0116 41.228 54.9124 41.2167 54.8274 41.1486C54.7197 40.2468 54.8642 39.3563 55.0144 38.48C55.224 37.269 55.4904 36.0638 55.8785 34.8925C56.2723 33.7128 56.8475 32.6266 57.655 31.6794C58.5276 30.6528 59.2954 29.5439 60.202 28.5457C61.1257 27.5332 62.1655 26.6683 63.3214 25.9395C63.7464 25.67 64.2337 25.48 64.3244 24.9015Z" fill="#9FAEFF"/>
<path d="M54.6552 78.0465C54.1537 78.6648 53.6664 79.2915 53.1536 79.8984C51.5896 81.7361 49.9407 83.4802 47.9489 84.8755C45.416 86.6536 42.6139 87.683 39.5654 88.151C36.5593 88.6132 33.5731 89.2059 30.5698 89.6739C28.8387 89.9433 27.0821 90.0227 25.3255 89.9943C24.6512 89.983 24.2007 89.6767 23.8976 89.067C23.4697 88.202 23.2318 87.2747 22.9116 86.3728C21.8831 83.4858 21.1012 80.5308 20.6025 77.502C20.339 75.894 20.3617 74.2634 20.3277 72.6412C20.2739 70.0378 20.441 67.4515 21.1437 64.9275C21.3137 64.3149 21.529 63.7137 21.733 63.1125C21.767 63.0132 21.8151 62.9281 21.7443 62.8289C22.2543 61.4818 22.9428 60.2283 23.7021 59.006C24.5549 57.6391 25.4473 56.3034 26.5211 55.0981C27.5269 53.9694 28.6517 52.9712 29.8502 52.0523C31.3008 50.9378 32.7826 49.8715 34.4259 49.0576C35.749 48.3996 37.1174 47.8409 38.5539 47.4609C38.7069 47.4212 38.8627 47.3645 39.0185 47.4581C39.1404 47.5715 39.1744 47.7303 39.231 47.8806C39.4605 48.4762 39.7949 48.9867 40.3898 49.2788C40.6335 49.3979 40.7468 49.5397 40.5938 49.8204C39.7524 51.3575 40.4663 52.9343 41.8716 53.7198C42.0416 53.8163 42.2598 53.856 42.3363 54.0772C42.0473 54.6075 41.5628 54.9677 41.1718 55.4129C39.5427 57.2733 38.1147 59.2754 36.7973 61.3655C35.0265 64.1759 33.6382 67.1707 32.4539 70.2647C32.1536 71.0503 31.9383 71.8585 31.7796 72.7376C32.8138 70.4944 33.8479 68.3107 34.9557 66.1668C36.9333 62.3411 39.2735 58.748 42.0614 55.4583C42.4043 55.0527 42.6706 54.5706 43.1466 54.287C43.6112 54.2445 44.0702 54.3182 44.532 54.3182C44.7049 54.5196 44.5859 54.7379 44.5405 54.9365C44.311 55.9404 44.0815 56.9443 44.073 57.9823C44.0589 60.0894 44.481 62.1312 45.0052 64.1589C45.535 66.2036 46.47 68.0669 47.6033 69.8308C48.3172 70.9397 49.1247 71.9861 50.0285 72.9532C50.411 73.3615 50.649 73.8635 50.9663 74.3116C51.8984 75.6275 53.0714 76.6966 54.335 77.6778C54.4625 77.7714 54.6552 77.8282 54.6552 78.0465Z" fill="#9FAEFF"/>
<path d="M54.6554 78.0473C53.8224 77.4972 53.0915 76.8165 52.3662 76.1359C51.7145 75.5262 51.1195 74.8399 50.6747 74.0628C50.2214 73.2744 49.5868 72.6449 49.0229 71.9529C48.1928 70.932 47.4363 69.8571 46.7818 68.7199C45.5324 66.5589 44.7561 64.2165 44.3283 61.7662C44.0959 60.4333 43.8834 59.0891 43.9543 57.725C44.0138 56.5821 44.2829 55.4789 44.5634 54.3786C44.6428 54.2141 44.8071 54.1829 44.9544 54.1319C45.2179 54.0439 45.4672 53.9192 45.6712 53.732C45.9404 53.4796 46.1472 53.4881 46.3909 53.783C46.8555 54.3446 47.4562 54.7217 48.1645 54.9004C49.2779 55.184 50.3234 55.1046 51.1904 54.2368C51.2725 54.1546 51.3632 54.078 51.485 54.0695C51.6918 54.1262 51.7145 54.3134 51.7683 54.475C52.777 57.6087 54.3721 60.3908 56.7945 62.6453C57.8201 63.6011 58.9053 64.5029 60.1207 65.2261C60.3049 65.3367 60.4975 65.4274 60.795 65.5125C60.4267 65.124 60.1661 64.7666 59.8487 64.4518C58.6191 63.2409 57.4178 62.0044 56.3157 60.6744C54.6667 58.6864 53.4881 56.4346 52.6523 54.0014C52.5843 53.8029 52.3095 53.6015 52.5588 53.3463C52.9951 53.3747 53.4343 53.3321 53.8678 53.4087C53.9273 53.4427 54.0293 53.5165 53.9499 53.559C53.6071 53.7433 53.7998 53.9277 53.9244 54.1148C55.749 56.8827 58.0581 59.1798 60.727 61.1253C61.9113 61.9874 63.1155 62.8183 64.4131 63.5018C64.9259 63.7741 65.4614 63.9896 66.0195 64.1654C65.2007 63.5273 64.4046 62.8666 63.5829 62.2398C61.1832 60.4078 58.8854 58.4652 56.8143 56.2645C56.3384 55.7597 55.8879 55.2265 55.4487 54.6877C55.0776 54.2311 54.7404 53.7433 54.2899 53.3548C54.3409 53.2187 54.4713 53.1761 54.5789 53.1081C55.9275 52.2686 56.6188 51.0747 56.5452 49.4667C56.5367 49.2626 56.5282 49.0555 56.4205 48.8797C56.1684 48.4657 56.2534 48.338 56.8002 48.2728C56.8738 48.2643 56.9447 48.2785 57.0013 48.3295C57.4688 49.22 58.1063 49.9942 58.7636 50.7372C60.7554 52.9805 63.1013 54.7359 65.9742 55.703C67.1132 56.0858 68.2946 56.2588 69.4902 56.3723C70.1702 56.4375 70.8474 56.4403 71.5245 56.4432C73.3066 56.4488 75.0236 56.1482 76.6612 55.4137C77.0918 55.2209 77.5395 55.0479 78.0098 54.9543C79.6276 56.7976 80.3302 59.0749 80.9167 61.3692C81.8403 64.9935 82.4891 68.6802 82.9028 72.3953C83.1691 74.7888 83.2314 77.1994 82.951 79.6043C82.8745 80.2735 82.6393 80.8975 82.4325 81.5299C82.3191 81.873 82.0131 81.9893 81.693 82.063C80.8544 82.253 79.9931 82.2559 79.1431 82.3041C75.2049 82.5338 71.2638 82.4969 67.3313 82.1481C65.4387 81.9808 63.5489 81.7794 61.7045 81.3257C59.1433 80.7018 56.8115 79.5561 54.6554 78.0473Z" fill="#2D53DF"/>
<path d="M64.3248 24.9012C64.4154 25.3663 64.1548 25.6017 63.7808 25.8002C62.5965 26.4298 61.5793 27.2919 60.6359 28.2278C59.8369 29.019 59.1853 29.9492 58.4883 30.8312C58.1483 31.2622 57.7998 31.6848 57.4598 32.113C56.437 33.4034 55.9157 34.9178 55.5502 36.4889C55.2244 37.8927 54.9014 39.3021 54.9127 40.757C54.9127 40.8817 54.8617 41.0094 54.8334 41.137C54.5728 41.3327 54.4396 41.2986 54.3801 41.0009C54.3206 40.6917 54.3744 40.3684 54.2979 40.0593C54.2838 39.8892 54.2243 39.7275 54.1988 39.5574C54.1619 39.2653 54.2271 38.9817 54.2639 38.6924C54.3914 37.7395 54.3291 36.7867 54.2271 35.8366C54.1931 35.5218 54.2753 35.3148 54.5529 35.1532C55.2272 34.759 55.4907 34.1265 55.4256 33.3864C55.3576 32.6008 54.8759 32.1017 54.1478 31.8351C53.431 31.5714 52.7142 31.6451 52.0257 31.9145C51.2692 32.2094 50.9094 32.839 50.8895 33.6189C50.8697 34.3449 51.3145 34.8242 51.9322 35.1503C52.0993 35.2382 52.2778 35.2949 52.462 35.3403C53.0995 35.4963 53.1306 35.5445 53.21 36.2138C53.2638 36.6619 53.3205 37.1071 53.2921 37.5552C53.2836 37.7253 53.3091 37.9097 53.1306 38.0231C52.9691 38.0798 52.8558 37.9749 52.7312 37.904C51.1389 37.0135 49.4446 37.4985 48.5663 39.0866C48.4813 39.2397 48.4501 39.4609 48.2065 39.4751C48.2405 38.63 47.892 37.8671 47.6738 37.0788C47.6285 36.9114 47.5633 36.7526 47.484 36.5995C47.4557 36.3726 47.5832 36.1826 47.6427 35.9756C47.8155 35.3744 47.6625 34.8667 47.2262 34.4328C47.093 34.3024 46.9315 34.1946 46.8805 33.9989C46.4187 32.2406 46.1014 30.4568 45.8294 28.6617C45.5574 26.8524 45.2797 25.043 45.1437 23.2195C44.9879 21.1635 44.7358 19.1188 44.4921 17.074C44.4864 17.0173 44.4779 16.9578 44.4156 16.8443C44.3363 17.2187 44.2739 17.5505 44.2654 17.8794C44.2314 19.0649 44.0756 20.2503 44.2286 21.4414C44.3193 22.1447 44.2938 22.8622 44.3136 23.5683C44.4099 26.9459 44.8264 30.2782 45.6112 33.565C45.6311 33.6501 45.6452 33.7352 45.6396 33.8231C45.5574 34.0556 45.3279 34.0556 45.1466 34.1265C44.2938 34.4612 43.7923 35.3914 44.0076 36.2762C44.1209 36.7441 44.4298 37.0617 44.8633 37.2546C45.0871 37.3538 45.2769 37.4786 45.3081 37.7424C45.3676 38.2415 45.4384 38.7434 45.3987 39.2511C45.3704 39.3021 45.3364 39.3503 45.2826 39.373C44.0983 39.8863 43.4495 40.8477 43.067 42.0303C42.9905 42.226 43.0358 42.433 43.0047 42.6344C42.9905 42.7194 42.9763 42.8215 42.8857 42.8499C42.7865 42.8839 42.727 42.7932 42.6845 42.7223C42.1858 41.9112 41.8204 41.0491 41.6164 40.1189C41.5597 39.858 41.7269 39.685 41.86 39.495C42.4182 38.6924 42.3417 37.6573 41.6249 37.1014C40.9959 36.6137 40.2422 36.4492 39.4914 36.7611C38.7718 37.0617 38.3015 37.6516 38.1711 38.4343C38.0437 39.1972 38.6585 40.1075 39.5254 40.2635C40.2734 40.3968 40.5737 40.7626 40.6956 41.4489C40.7777 41.9027 40.9902 42.3281 41.1857 42.7478C41.2679 42.9208 41.35 43.0995 41.146 43.2554C40.8542 43.3887 40.6502 43.7035 40.2819 43.6865C37.9388 42.1693 36.3522 39.9969 35.0206 37.6034C34.5078 36.6789 34.0205 35.7402 33.5133 34.81C29.6573 27.7343 31.1731 18.5828 34.0176 11.4305C35.3719 8.0274 37.1653 4.79443 39.4886 1.95849C39.8853 1.47638 40.2734 0.994274 40.5907 0.455445C40.8571 0.00453119 41.3217 -0.103234 41.7892 0.0952812C49.0706 3.20347 55.3066 9.13909 59.9559 15.4519C61.7493 17.888 63.2963 20.4488 64.0868 23.3982C64.2199 23.8916 64.3333 24.3879 64.3248 24.9012Z" fill="#9FAEFF"/>
<path d="M31.6836 29.1863C31.9755 29.5266 31.916 29.9719 32.0123 30.3661C32.4571 32.1867 33.0889 33.9252 34.0494 35.5445C34.5934 36.4605 35.0297 37.4417 35.5737 38.3577C36.4406 39.8126 37.4464 41.171 38.6874 42.3365C39.0642 42.691 39.5005 42.9803 39.9199 43.2866C40.0728 43.4 40.2258 43.505 40.3108 43.6808C40.291 43.8339 40.2003 43.8793 40.0587 43.8509C37.0016 42.7024 33.8822 41.775 30.6722 41.1568C28.8816 40.8136 27.0995 40.4081 25.2777 40.238C24.932 40.2068 24.5892 40.2039 24.2436 40.2294C25.8387 40.6066 27.4168 41.0462 29.0091 41.4234C32.1256 42.1579 35.1798 43.1334 38.2822 43.9218C38.7441 44.0409 39.2229 44.0778 39.679 44.2281C39.7414 44.5968 39.5884 44.8407 39.1945 45.0108C37.2396 45.0023 35.2875 44.8634 33.3354 44.7641C31.4541 44.6705 29.5757 44.5401 27.7001 44.3784C25.0312 44.1487 22.351 44.0977 19.6849 43.8112C18.3901 43.6723 17.084 43.6553 15.7807 43.607C17.1746 44.0183 18.6054 44.2763 20.0419 44.4692C22.5266 44.801 25 45.2349 27.4961 45.4788C28.8957 45.6149 30.2953 45.7 31.6978 45.8049C33.6074 45.9467 35.517 45.9609 37.4294 45.9666C37.9564 45.9694 38.4664 45.89 38.9821 45.8134C39.1209 46.3721 39.0415 46.9279 38.9792 47.4866C37.7014 47.7163 36.5256 48.2495 35.347 48.7543C33.0549 49.7383 31.0858 51.23 29.1422 52.7643C26.717 54.6814 24.9434 57.1231 23.3794 59.7492C22.8298 60.6709 22.3651 61.6323 21.9373 62.6135C21.892 62.7128 21.8353 62.7865 21.7418 62.8347C21.399 63.0162 19.9002 62.4065 19.5092 62.3016C18.7357 62.0945 17.9651 61.8677 17.2058 61.6068C15.6588 61.0793 14.1346 60.4327 12.7236 59.6046C10.0802 58.0562 7.85328 55.7732 5.98334 53.3712C3.70825 50.4502 2.14147 47.1888 0.212039 44.0636C-0.00612028 43.7091 0.0250453 43.3348 0.277203 43.003C2.90078 39.5261 6.159 36.1826 9.60422 33.5168C15.7807 28.7326 23.9857 26.2057 31.5306 29.1097C31.5845 29.1267 31.6326 29.1579 31.6836 29.1863Z" fill="#2D53DF"/>
<path d="M39.265 44.9682C39.4151 44.7357 39.5653 44.5031 39.7126 44.2734C39.7523 44.0324 39.9053 43.8991 40.1263 43.831C40.1858 43.78 40.2453 43.7261 40.3048 43.6751C40.5626 43.5191 40.8232 43.3631 41.0811 43.2071C41.353 43.0767 41.438 43.2894 41.5372 43.4624C41.9197 44.1288 42.3249 44.7839 42.8405 45.3568C43.7046 46.3153 44.6849 47.1179 45.8947 47.6C46.1922 47.7191 46.5634 47.8751 46.7645 47.5433C46.9515 47.237 46.6059 47.0215 46.4019 46.8343C45.8012 46.2898 45.1326 45.8247 44.5574 45.2462C44.1693 44.852 43.8435 44.4067 43.4751 44.0012C42.9368 43.4085 42.8377 42.7392 42.9793 41.9962C43.3731 40.7512 44.0163 39.7246 45.3337 39.285C45.6227 39.753 45.5406 40.2975 45.6171 40.8022C45.9372 42.9547 46.5492 44.9881 47.9063 46.7379C48.0933 46.9789 48.2916 47.2115 48.5466 47.3816C48.6798 47.4695 48.8413 47.5801 48.9858 47.4695C49.1586 47.3363 49.0085 47.1746 48.9433 47.0442C48.5353 46.1934 48.082 45.3681 47.7505 44.4833C47.1952 43.0001 46.6625 41.5141 46.4784 39.9288C46.45 39.6849 46.3877 39.441 46.518 39.2056C46.773 39.0355 46.9884 39.2056 47.215 39.285C47.3538 39.3588 47.5153 39.4126 47.6202 39.5232C47.8553 39.7671 48.0395 39.7586 48.2038 39.4609C48.2888 39.3134 48.3823 39.1688 48.4616 39.0156C49.3598 37.3055 51.4394 36.8291 52.992 37.9748C53.0146 37.9918 53.0458 37.9918 53.0741 38.0003C53.2838 38.0769 53.2385 38.2471 53.2158 38.403C52.8787 40.7512 51.8077 42.7023 50.0228 44.2621C49.8358 44.4237 49.6148 44.5343 49.3881 44.6364C48.983 44.8208 48.8271 45.0533 48.9206 45.3114C49.0396 45.6432 49.4249 45.836 49.8103 45.7425C50.5554 45.5581 51.1362 45.0959 51.6717 44.5854C52.9042 43.4028 53.5643 41.9026 53.9779 40.2748C54.0204 40.1103 54.0091 39.9231 54.1734 39.8068C54.3491 39.7473 54.3094 39.9316 54.3803 39.9912C54.5134 40.2946 54.4851 40.6151 54.4794 40.9299C54.4738 41.222 54.5928 41.2532 54.8194 41.1397C56.1992 41.1114 57.3013 41.6814 58.208 42.691C58.5196 42.9037 58.6698 43.2071 58.7208 43.573C58.9389 44.2649 59.0834 44.9654 58.9616 45.6971C58.7605 46.925 57.9728 47.7049 56.984 48.3402C56.7744 48.3827 56.5647 48.4253 56.3494 48.4678C57.2617 50.1722 56.1085 52.6253 54.2811 53.4052C54.1876 53.5158 54.0799 53.5583 53.9383 53.5016C53.4453 53.5101 52.9466 53.5611 52.4622 53.4137C52.2468 53.4846 52.1108 53.3399 51.9975 53.2577C51.9437 53.5923 51.8587 53.9185 51.4989 54.1028C49.8018 55.6399 47.6853 55.5038 46.1922 53.754C46.0902 53.6349 46.0166 53.5129 45.8607 53.6859C45.5066 54.0801 45.0278 54.2418 44.5404 54.3864C44.0475 54.4771 43.5573 54.3892 43.0643 54.3637C42.764 54.3921 42.4892 54.3495 42.2852 54.1C41.8007 53.8164 41.2907 53.5782 40.8969 53.1499C40.0158 52.1942 39.8429 50.918 40.4606 49.778C40.5201 49.6702 40.6986 49.5369 40.4549 49.4405C39.5681 49.086 39.2026 48.3345 38.9561 47.4866C38.8145 46.9392 38.9051 46.3891 38.9505 45.8389C38.9023 45.4872 38.9816 45.1923 39.265 44.9682Z" fill="#657ED7"/>
<path d="M58.7355 43.5672C58.5655 43.2722 58.3927 42.9801 58.2227 42.6852C58.8176 42.0585 59.5798 41.6529 60.3079 41.2247C62.8068 39.75 65.4474 38.5731 68.1815 37.6145C69.6321 37.1041 71.1507 36.9084 72.6467 36.6021C74.4939 36.2221 76.3639 35.9754 78.231 35.7315C78.9025 35.6436 79.5796 35.6039 80.2539 35.5528C80.4041 35.5415 80.5684 35.4989 80.7469 35.6294C80.4211 35.913 80.0131 35.8761 79.6589 35.9498C77.4858 36.4064 75.3354 36.9538 73.1651 37.4189C70.6039 37.969 68.2098 38.973 65.8129 39.9825C63.3735 41.012 60.9992 42.1804 58.7355 43.5672Z" fill="#2D53DF"/>
<path d="M73.5578 41.8576C72.5236 42.0929 71.5603 42.3652 70.6027 42.6658C68.9112 43.199 67.2113 43.7066 65.5114 44.2199C64.973 44.3815 64.4291 44.529 63.8879 44.6736C63.7491 44.7105 63.5819 44.736 63.4969 44.5801C63.4119 44.4241 63.5706 44.3447 63.6584 44.2653C64.2619 43.7038 64.9929 43.3493 65.7522 43.0713C67.421 42.4616 69.1436 42.0561 70.903 41.8122C71.6028 41.7158 72.3026 41.6193 73.0109 41.642C73.1838 41.6505 73.3594 41.6392 73.5578 41.8576Z" fill="#2D53DF"/>
<path d="M42.3053 54.0918C42.566 54.1797 42.8267 54.2676 43.0845 54.3555C41.274 56.5335 39.5089 58.7456 37.9875 61.1419C36.5284 63.4419 35.1769 65.7986 34.0323 68.2743C33.3325 69.7859 32.5448 71.2549 31.8819 72.7863C31.8507 72.86 31.8564 72.9905 31.7402 72.965C31.5929 72.9309 31.6637 72.809 31.6779 72.7126C31.8252 71.6151 32.1964 70.5799 32.5902 69.5562C33.2248 67.9057 33.9501 66.292 34.7519 64.7237C36.0694 62.1459 37.6192 59.7013 39.3899 57.4042C40.2031 56.3492 41.0474 55.3254 41.9824 54.3782C42.0815 54.2761 42.1977 54.1882 42.3053 54.0918Z" fill="#2D53DF"/>
<path d="M37.7148 70.1737C37.8622 69.3853 38.1512 68.6508 38.4685 67.9304C39.0805 66.5437 39.6386 65.1257 40.5027 63.8665C40.6161 63.702 40.7492 63.5461 40.8881 63.4014C40.9929 63.2965 41.0977 63.0895 41.2706 63.2029C41.4405 63.3164 41.3046 63.495 41.2366 63.6311C40.9702 64.1785 40.7181 64.7343 40.4177 65.2618C40.0013 65.9907 39.6528 66.7564 39.2646 67.4994C38.8425 68.3076 38.4288 69.1187 38.0067 69.9269C37.9472 70.0319 37.9302 70.1907 37.7148 70.1737Z" fill="#2D53DF"/>
<path d="M53.9589 53.4935C54.0723 53.4623 54.1856 53.4311 54.3018 53.397C54.5567 53.3772 54.6871 53.553 54.8231 53.7288C56.1887 55.5155 57.7356 57.1291 59.4016 58.6407C61.5322 60.5748 63.8299 62.2991 66.1022 64.0517C66.19 64.1197 66.3062 64.1708 66.2693 64.3466C65.646 64.253 65.0822 63.9836 64.5467 63.6915C62.3311 62.4862 60.2827 61.0427 58.3901 59.3667C56.625 57.8041 55.0837 56.0572 53.7776 54.0918C53.5594 53.7714 53.4716 53.5672 53.9589 53.4935Z" fill="#9FAEFF"/>
<path d="M51.5215 54.0975C51.6206 53.9415 51.768 53.7941 51.8048 53.6239C51.9153 53.1333 52.1646 53.1929 52.482 53.4084C52.8559 54.0805 53.0373 54.832 53.3404 55.5325C54.1224 57.3333 55.0914 59.0179 56.338 60.5351C57.4429 61.8793 58.6584 63.1186 59.8824 64.3466C60.2195 64.6841 60.5283 65.0471 60.8513 65.3987C60.9052 65.4583 61.0043 65.515 60.9278 65.6114C60.8598 65.6993 60.7748 65.6426 60.6927 65.6114C59.8257 65.2881 59.1089 64.7209 58.4063 64.1452C57.6016 63.4873 56.7771 62.8549 56.0603 62.0892C55.0092 60.9633 54.1111 59.7354 53.3546 58.3911C52.5839 57.027 51.9946 55.5892 51.5215 54.0975Z" fill="#9FAEFF"/>
<path d="M69.0676 70.2847C69.0251 70.4236 68.9146 70.3924 68.8211 70.3698C68.3621 70.2506 67.8975 70.1486 67.464 69.9472C66.3392 69.4311 65.1691 68.9858 64.2936 68.0556C64.1916 67.9479 63.982 67.8429 64.101 67.6699C64.2143 67.5083 64.3956 67.6359 64.5288 67.7096C65.9822 68.5065 67.4357 69.3091 68.8863 70.1089C68.9628 70.1514 69.0421 70.1854 69.0676 70.2847Z" fill="#9FAEFF"/>
<path d="M54.2262 39.818C54.0194 40.6461 53.7842 41.4629 53.4329 42.2428C52.7586 43.7373 51.7783 44.9568 50.288 45.7054C49.8857 45.9068 49.4579 46.0628 49.0471 45.6686C48.6447 45.2829 48.6702 44.883 49.1661 44.6193C51.3845 43.431 52.3903 41.4005 52.9938 39.0977C53.0844 38.7489 53.2318 38.383 53.0901 38.003C53.2686 37.555 53.1439 37.0927 53.1524 36.6361C53.1638 35.9044 52.9088 35.5131 52.1155 35.3287C51.206 35.116 50.6847 34.2738 50.7527 33.5364C50.8433 32.5665 51.4412 31.8888 52.4101 31.6647C53.2459 31.469 54.0421 31.5116 54.773 32.022C55.9007 32.8076 55.8242 34.5971 54.6144 35.2607C54.3707 35.394 54.3112 35.5216 54.3424 35.8052C54.4699 36.8658 54.5294 37.9321 54.3424 38.9984C54.3084 39.1828 54.3169 39.3728 54.3055 39.5628C54.2262 39.6309 54.3169 39.7528 54.2262 39.818Z" fill="#2D53DF"/>
<path d="M42.9877 41.9963C42.7696 43.2101 43.5714 43.9644 44.2514 44.7585C44.8265 45.4306 45.5291 45.9751 46.2176 46.5281C46.4414 46.7068 46.6681 46.9025 46.8409 47.1293C47.1186 47.4952 46.9486 47.8043 46.4896 47.8383C46.1071 47.8667 45.7813 47.6937 45.464 47.532C43.7045 46.6359 42.4041 45.2746 41.4691 43.5475C41.3841 43.3887 41.3445 43.1732 41.0866 43.2072C41.2481 43.0938 41.183 42.9718 41.115 42.8357C40.7976 42.1976 40.5596 41.5312 40.4038 40.8364C40.3472 40.584 40.2367 40.5188 39.9958 40.5046C39.007 40.4394 38.2732 39.8211 38.0834 38.8541C37.9134 37.9834 38.4347 37.4106 39.0269 36.8859C39.9505 36.0692 42.3021 36.608 42.3389 38.2217C42.3531 38.7633 42.2398 39.2568 41.8771 39.6623C41.7071 39.8523 41.6986 40.0111 41.7609 40.2465C41.9933 41.1483 42.3588 41.9878 42.8687 42.8017C42.9679 42.5238 42.8177 42.2345 42.9877 41.9963Z" fill="#2D53DF"/>
<path d="M46.9947 34.0838C46.5527 33.874 46.0795 33.8768 45.6036 33.8853C45.2692 32.8701 45.0794 31.8208 44.9123 30.7686C44.7309 29.6314 44.5609 28.4942 44.4079 27.3542C44.3541 26.9543 44.3258 26.5459 44.3173 26.1489C44.2918 24.6005 44.1218 23.0634 44.1048 21.515C44.0963 20.84 44 20.1565 44.051 19.4816C44.1189 18.5769 44.0849 17.6638 44.2974 16.7704C44.3201 16.6712 44.3173 16.535 44.4306 16.5265C44.6204 16.5095 44.5524 16.6854 44.5638 16.7818C44.6828 17.6666 44.8018 18.5486 44.9066 19.4362C45.0256 20.4515 45.1474 21.4667 45.2324 22.4848C45.2891 23.1598 45.3627 23.8348 45.4137 24.5069C45.5044 25.7008 45.7084 26.8777 45.8727 28.0603C46.1334 29.9434 46.4734 31.8151 46.9097 33.6641C46.9465 33.8002 46.9692 33.942 46.9947 34.0838Z" fill="#2D53DF"/>
<path d="M49.7717 24.992C49.7179 25.7974 49.8114 27.0112 49.8822 28.225C49.9474 29.348 50.1315 30.4625 50.1315 31.5912C50.1315 31.6791 50.1315 31.7642 50.1287 31.8521C50.1287 31.9599 50.1117 32.0705 50.004 32.1074C49.8539 32.1556 49.8085 32.0223 49.7576 31.9202C49.4884 31.4012 49.3609 30.8369 49.2334 30.2725C48.9161 28.8602 48.6781 27.4309 48.7518 25.9817C48.8509 23.9512 48.9104 21.915 49.2617 19.9072C49.2787 19.8051 49.2702 19.6689 49.3921 19.6689C49.5167 19.6689 49.5082 19.8051 49.5252 19.9072C49.7774 21.4556 49.8057 23.0154 49.7717 24.992Z" fill="#2D53DF"/>
<path d="M46.0244 37.2593C46.5521 36.9972 47.0495 36.6998 47.3266 36.1758C47.8277 36.583 47.7024 37.2203 47.9834 37.7125C48.0631 37.8506 48.0555 38.0276 48.1239 38.1728C48.363 38.6897 48.4921 39.2067 48.2377 39.7519C48.196 39.8865 48.1542 40.021 48.1087 40.1556C48.0403 40.3751 47.9454 40.3893 47.7556 40.2335C47.5012 40.0246 47.2203 39.844 46.9507 39.6528C46.3775 38.9446 46.0472 38.1551 46.0244 37.2593Z" fill="#2D53DF"/>
<path d="M54.2251 39.8186C54.2223 39.725 54.2081 39.6258 54.3016 39.5605C54.3328 39.7023 54.4291 39.8328 54.3951 39.9916C54.3384 39.9321 54.2818 39.8753 54.2251 39.8186Z" fill="#9FAEFF"/>
<path d="M39.2654 44.9687C39.1691 45.2551 39.0699 45.5444 38.9736 45.8308C38.7158 46.1002 38.3644 46.069 38.05 46.0747C36.7013 46.0974 35.3527 46.1286 34.0069 46.0747C32.1937 46.001 30.3775 45.8932 28.5699 45.723C26.4223 45.5217 24.2889 45.2041 22.1527 44.8893C20.1014 44.5887 18.0445 44.3419 16.0329 43.823C15.8232 43.7691 15.6164 43.7038 15.4096 43.6386C15.3416 43.6159 15.2651 43.5819 15.2962 43.4883C15.3217 43.4089 15.3982 43.3891 15.4747 43.4004C17.0047 43.5961 18.5488 43.5791 20.0872 43.7095C21.5067 43.8315 22.9261 43.9818 24.3569 44.0158C25.765 44.047 27.1703 44.2228 28.5756 44.3334C29.0346 44.3703 29.4964 44.3901 29.9554 44.4157C31.627 44.5036 33.2929 44.6567 34.9674 44.7106C36.2933 44.7531 37.6193 44.8723 38.9481 44.8694C39.0671 44.8694 39.1861 44.8581 39.2654 44.9687Z" fill="#9FAEFF"/>
<path d="M17.2139 47.7414C18.0157 47.7414 18.8146 47.7386 19.6165 47.7414C21.4354 47.75 23.2402 48.0165 25.0534 48.0704C26.4956 48.113 27.9462 48.1725 29.3911 48.0194C29.9776 47.957 30.5726 47.9853 31.1619 47.9286C32.1649 47.8294 33.165 47.7301 34.1651 47.6025C34.4938 47.5599 34.8281 47.577 35.1624 47.5713C35.2673 47.5713 35.3721 47.6025 35.3891 47.7273C35.4032 47.8322 35.3183 47.8747 35.2446 47.9201C34.6666 48.2803 34.0065 48.3937 33.3577 48.5157C31.601 48.8475 29.8359 49.0687 28.0453 49.1537C26.3794 49.2331 24.7446 49.0743 23.0957 48.89C21.3221 48.6915 19.557 48.4504 17.806 48.0903C17.585 48.0449 17.3584 48.0222 17.2139 47.7414Z" fill="#9FAEFF"/>
<path d="M40.1286 43.8286C39.9898 43.9761 39.8509 44.1235 39.7149 44.271C38.5221 44.2001 37.4002 43.8059 36.2612 43.4996C33.462 42.7424 30.6826 41.9172 27.8522 41.2677C26.5347 40.9643 25.2314 40.59 23.8828 40.2893C23.9933 40.0426 24.2058 40.0795 24.3928 40.0766C25.6536 40.071 26.8917 40.2837 28.1213 40.5219C30.0451 40.8906 31.9745 41.2365 33.87 41.7385C35.8957 42.2745 37.896 42.8956 39.8623 43.6329C39.9728 43.6755 40.0776 43.7095 40.1286 43.8286Z" fill="#9FAEFF"/>
<path d="M46.5619 39.1944C46.6243 40.6549 47.0067 42.0417 47.4884 43.4143C47.936 44.6905 48.4885 45.9156 49.1232 47.1038C49.1997 47.2485 49.3527 47.4158 49.1827 47.5746C49.0155 47.7306 48.8087 47.6852 48.6189 47.5774C48.3355 47.4158 48.1117 47.1917 47.9134 46.9394C46.6186 45.2945 45.9273 43.3944 45.6043 41.3469C45.4966 40.6634 45.4286 39.9715 45.3436 39.2852C45.2926 38.769 45.2388 38.2529 45.1963 37.7339C45.1821 37.5666 45.1 37.4985 44.9498 37.4276C44.0744 37.0221 43.7684 36.4832 43.8675 35.5729C43.9497 34.81 44.5248 34.1748 45.3153 33.9678C45.4145 33.9422 45.5108 33.9111 45.6071 33.8827C46.1086 33.6785 46.5818 33.6813 46.9982 34.0812C47.9672 34.8157 48.0324 35.5531 47.5394 36.5938C47.5649 36.9427 47.2929 37.0901 47.0776 37.2745C46.9331 37.3964 46.7461 37.4531 46.5988 37.5694C46.4656 37.7226 46.5393 37.8927 46.5563 38.0572C46.5931 38.4372 46.6413 38.8172 46.5619 39.1944Z" fill="#2D53DF"/>
</svg>
