<svg width="23" height="23" viewBox="0 0 23 23" fill="none" xmlns="http://www.w3.org/2000/svg">
<g clip-path="url(#clip0_13_10408)">
<path d="M12.1939 22.2914C12.0529 22.2892 11.9178 22.2353 11.8152 22.1401C11.7126 22.045 11.6499 21.9156 11.6395 21.7774C11.4093 20.2096 10.7555 18.7447 10.5619 17.1512C10.4364 16.0923 10.154 15.0592 9.96043 14.0106C9.94568 13.7956 9.84725 13.5945 9.68555 13.449C9.52386 13.3035 9.31133 13.2248 9.09214 13.2293C7.10451 12.9722 5.1221 12.6484 3.14493 12.3246C2.62935 12.2365 2.12072 12.1128 1.62281 11.9545C1.23052 11.8363 0.859145 11.6409 0.890529 11.1423C0.921913 10.6437 1.29328 10.5872 1.6385 10.4895C3.18623 10.0672 4.75821 9.73592 6.34607 9.49748C7.02082 9.38953 7.7008 9.3073 8.37555 9.2045C9.4949 9.04001 10.018 8.57739 10.2115 7.48253C10.426 6.27973 10.5776 5.06151 10.7921 3.85871C10.9386 3.04142 11.1425 2.2344 11.3152 1.4274C11.3669 1.23568 11.4424 1.05096 11.5401 0.877392C11.6865 0.604962 11.8278 0.260567 12.2148 0.296548C12.6019 0.332529 12.6594 0.70262 12.7117 1.01617C12.9471 2.45542 13.1773 3.89468 13.4179 5.33907C13.5957 6.42879 13.784 7.51337 13.9409 8.60309C13.9415 8.72281 13.9679 8.84105 14.0183 8.95003C14.0687 9.05902 14.142 9.15629 14.2334 9.23543C14.3248 9.31458 14.4323 9.37381 14.5486 9.40923C14.665 9.44465 14.7877 9.45546 14.9086 9.44094C17.3042 9.31758 19.6162 10.1246 21.9699 10.1606C22.3465 10.1606 22.7336 10.212 22.8278 10.6489C22.9219 11.0858 22.5401 11.3685 22.1582 11.4867C20.9291 11.8568 19.6894 12.1858 18.455 12.5405C17.2205 12.8951 16.143 13.2241 14.9818 13.5325C14.747 13.5835 14.5359 13.7095 14.3816 13.8909C14.2274 14.0722 14.1386 14.2987 14.1292 14.5349C13.7265 16.7452 13.2923 18.9554 12.8634 21.1606C12.8048 21.4311 12.7171 21.6947 12.6019 21.947C12.5697 22.034 12.5152 22.1113 12.4437 22.1716C12.3723 22.232 12.2863 22.2732 12.1939 22.2914Z" fill="#83C796"/>
<path d="M12.1939 22.2914C12.0529 22.2892 11.9178 22.2353 11.8152 22.1401C11.7126 22.045 11.6499 21.9156 11.6395 21.7774C11.4093 20.2096 10.7555 18.7447 10.5619 17.1512C10.4364 16.0923 10.154 15.0592 9.96043 14.0106C9.94568 13.7956 9.84725 13.5945 9.68555 13.449C9.52386 13.3035 9.31133 13.2248 9.09214 13.2293C7.10451 12.9722 5.1221 12.6484 3.14493 12.3246C2.62935 12.2365 2.12072 12.1128 1.62281 11.9545C1.23052 11.8363 0.859145 11.6409 0.890529 11.1423C0.921913 10.6437 1.29328 10.5872 1.6385 10.4895C3.18623 10.0672 4.75821 9.73592 6.34607 9.49748C7.02082 9.38953 7.7008 9.3073 8.37555 9.2045C9.4949 9.04001 10.018 8.57739 10.2115 7.48253C10.426 6.27973 10.5776 5.06151 10.7921 3.85871C10.9386 3.04142 11.1425 2.2344 11.3152 1.4274C11.3669 1.23568 11.4424 1.05096 11.5401 0.877392C11.6865 0.604962 11.8278 0.260567 12.2148 0.296548C12.6019 0.332529 12.6594 0.70262 12.7117 1.01617C12.9471 2.45542 13.1773 3.89468 13.4179 5.33907C13.5957 6.42879 13.784 7.51337 13.9409 8.60309C13.9415 8.72281 13.9679 8.84105 14.0183 8.95003C14.0687 9.05902 14.142 9.15629 14.2334 9.23543C14.3248 9.31458 14.4323 9.37381 14.5486 9.40923C14.665 9.44465 14.7877 9.45546 14.9086 9.44094C17.3042 9.31758 19.6162 10.1246 21.9699 10.1606C22.3465 10.1606 22.7336 10.212 22.8278 10.6489C22.9219 11.0858 22.5401 11.3685 22.1582 11.4867C20.9291 11.8568 19.6894 12.1858 18.455 12.5405C17.2205 12.8951 16.143 13.2241 14.9818 13.5325C14.747 13.5835 14.5359 13.7095 14.3816 13.8909C14.2274 14.0722 14.1386 14.2987 14.1292 14.5349C13.7265 16.7452 13.2923 18.9554 12.8634 21.1606C12.8048 21.4311 12.7171 21.6947 12.6019 21.947C12.5697 22.034 12.5152 22.1113 12.4437 22.1716C12.3723 22.232 12.2863 22.2732 12.1939 22.2914Z" fill="#83C796"/>
</g>
<defs>
<clipPath id="clip0_13_10408">
<rect width="22" height="22" fill="white" transform="translate(0.885742 0.28125)"/>
</clipPath>
</defs>
</svg>
