<svg width="23" height="22" viewBox="0 0 23 22" fill="none" xmlns="http://www.w3.org/2000/svg">
<g clip-path="url(#clip0_184_490)">
<path d="M12.1939 22.0102C12.0529 22.008 11.9178 21.954 11.8152 21.8589C11.7126 21.7638 11.6499 21.6344 11.6395 21.4961C11.4093 19.9284 10.7555 18.4634 10.5619 16.87C10.4364 15.8111 10.154 14.7779 9.96043 13.7293C9.94568 13.5144 9.84725 13.3132 9.68555 13.1677C9.52386 13.0223 9.31133 12.9436 9.09214 12.948C7.10451 12.691 5.1221 12.3672 3.14493 12.0433C2.62935 11.9552 2.12072 11.8316 1.62281 11.6733C1.23052 11.555 0.859145 11.3597 0.890529 10.8611C0.921913 10.3625 1.29328 10.306 1.6385 10.2083C3.18623 9.78595 4.75821 9.45467 6.34607 9.21623C7.02082 9.10829 7.7008 9.02605 8.37555 8.92325C9.4949 8.75876 10.018 8.29614 10.2115 7.20128C10.426 5.99848 10.5776 4.78026 10.7921 3.57746C10.9386 2.76017 11.1425 1.95315 11.3152 1.14615C11.3669 0.954434 11.4424 0.769707 11.5401 0.596142C11.6865 0.323712 11.8278 -0.0206833 12.2148 0.015298C12.6019 0.0512793 12.6594 0.42137 12.7117 0.734921C12.9471 2.17417 13.1773 3.61343 13.4179 5.05782C13.5957 6.14754 13.784 7.23212 13.9409 8.32184C13.9415 8.44156 13.9679 8.5598 14.0183 8.66878C14.0687 8.77777 14.142 8.87504 14.2334 8.95418C14.3248 9.03333 14.4323 9.09255 14.5486 9.12798C14.665 9.1634 14.7877 9.17421 14.9086 9.15969C17.3042 9.03633 19.6162 9.84334 21.9699 9.87932C22.3465 9.87932 22.7336 9.93073 22.8278 10.3676C22.9219 10.8046 22.5401 11.0873 22.1582 11.2055C20.9291 11.5756 19.6894 11.9046 18.455 12.2592C17.2205 12.6139 16.143 12.9429 14.9818 13.2513C14.747 13.3022 14.5359 13.4283 14.3816 13.6096C14.2274 13.791 14.1386 14.0174 14.1292 14.2536C13.7265 16.4639 13.2923 18.6742 12.8634 20.8793C12.8048 21.1498 12.7171 21.4134 12.6019 21.6658C12.5697 21.7527 12.5152 21.8301 12.4437 21.8904C12.3723 21.9507 12.2863 21.992 12.1939 22.0102Z" fill="#83C796"/>
<path d="M12.1939 22.0102C12.0529 22.008 11.9178 21.954 11.8152 21.8589C11.7126 21.7638 11.6499 21.6344 11.6395 21.4961C11.4093 19.9284 10.7555 18.4634 10.5619 16.87C10.4364 15.8111 10.154 14.7779 9.96043 13.7293C9.94568 13.5144 9.84725 13.3132 9.68555 13.1677C9.52386 13.0223 9.31133 12.9436 9.09214 12.948C7.10451 12.691 5.1221 12.3672 3.14493 12.0433C2.62935 11.9552 2.12072 11.8316 1.62281 11.6733C1.23052 11.555 0.859145 11.3597 0.890529 10.8611C0.921913 10.3625 1.29328 10.306 1.6385 10.2083C3.18623 9.78595 4.75821 9.45467 6.34607 9.21623C7.02082 9.10829 7.7008 9.02605 8.37555 8.92325C9.4949 8.75876 10.018 8.29614 10.2115 7.20128C10.426 5.99848 10.5776 4.78026 10.7921 3.57746C10.9386 2.76017 11.1425 1.95315 11.3152 1.14615C11.3669 0.954434 11.4424 0.769707 11.5401 0.596142C11.6865 0.323712 11.8278 -0.0206833 12.2148 0.015298C12.6019 0.0512793 12.6594 0.42137 12.7117 0.734921C12.9471 2.17417 13.1773 3.61343 13.4179 5.05782C13.5957 6.14754 13.784 7.23212 13.9409 8.32184C13.9415 8.44156 13.9679 8.5598 14.0183 8.66878C14.0687 8.77777 14.142 8.87504 14.2334 8.95418C14.3248 9.03333 14.4323 9.09255 14.5486 9.12798C14.665 9.1634 14.7877 9.17421 14.9086 9.15969C17.3042 9.03633 19.6162 9.84334 21.9699 9.87932C22.3465 9.87932 22.7336 9.93073 22.8278 10.3676C22.9219 10.8046 22.5401 11.0873 22.1582 11.2055C20.9291 11.5756 19.6894 11.9046 18.455 12.2592C17.2205 12.6139 16.143 12.9429 14.9818 13.2513C14.747 13.3022 14.5359 13.4283 14.3816 13.6096C14.2274 13.791 14.1386 14.0174 14.1292 14.2536C13.7265 16.4639 13.2923 18.6742 12.8634 20.8793C12.8048 21.1498 12.7171 21.4134 12.6019 21.6658C12.5697 21.7527 12.5152 21.8301 12.4437 21.8904C12.3723 21.9507 12.2863 21.992 12.1939 22.0102Z" fill="#83C796"/>
</g>
<defs>
<clipPath id="clip0_184_490">
<rect width="22" height="22" fill="white" transform="translate(0.885742)"/>
</clipPath>
</defs>
</svg>
