<svg width="36" height="36" viewBox="0 0 36 36" fill="none" xmlns="http://www.w3.org/2000/svg">
<path d="M18 1.76172C13.6699 6.09178 12.588 9.33931 12.588 11.5044C12.588 13.6694 15.8351 14.752 18 14.752C20.1651 14.752 23.412 13.6694 23.412 11.5044C23.412 9.33931 22.3301 6.09192 18 1.76172ZM9.33187 14.352C8.6843 14.3444 7.85904 14.4547 6.75 14.752C7.54242 17.7095 8.47997 18.2514 9.41752 18.7927C10.3549 19.334 11.8336 18.9371 12.375 17.9995C12.9163 17.062 12.5194 15.5832 11.5819 15.042C10.9959 14.7037 10.4109 14.3647 9.33187 14.352ZM26.6681 14.352C25.5891 14.3647 25.0041 14.7036 24.4181 15.042C23.4807 15.5832 23.0837 17.0621 23.625 17.9995C24.1663 18.937 25.6451 19.334 26.5826 18.7926C27.52 18.2514 28.4576 17.7095 29.25 14.752C28.1409 14.4548 27.3157 14.3444 26.6681 14.352ZM18 16.9163C15.6087 16.9163 13.6692 18.8556 13.6692 21.2471C13.6692 23.6384 15.6086 25.5779 18 25.5779C20.3913 25.5779 22.3308 23.6387 22.3308 21.2472C22.3308 18.8557 20.3913 16.9163 18 16.9163ZM7.87289 21.1504C7.52098 21.1573 7.17771 21.2456 6.85547 21.4317C4.98045 22.5143 2.70998 25.0747 1.125 30.9898C7.04004 32.5746 10.3945 31.8877 12.2695 30.8052C14.1446 29.7227 13.4575 26.3697 12.375 24.4946C11.4785 22.9419 9.56791 21.1169 7.87289 21.1504ZM28.0305 21.1504C26.3599 21.1856 24.5045 22.9712 23.625 24.4946C22.5425 26.3697 21.8554 29.7227 23.7305 30.8052C25.6055 31.8877 28.96 32.5747 34.875 30.9898C33.2902 25.0746 31.0196 22.5143 29.1445 21.4316C28.793 21.2287 28.4161 21.1423 28.0305 21.1504ZM18 27.7422C16.9175 27.7422 15.8358 28.824 15.8358 29.9065C15.8358 30.9891 15.8349 32.0723 18 34.2373C20.1651 32.0722 20.1642 30.989 20.1642 29.9065C20.1642 28.8241 19.0825 27.7422 18 27.7422Z" fill="#3B76DA"/>
</svg>
