<svg width="78" height="60" viewBox="0 0 78 60" fill="none" xmlns="http://www.w3.org/2000/svg">
<path d="M25.2815 8.00114C25.3062 9.06704 25.1176 10.1271 24.7267 11.1191C24.3358 12.111 23.7507 13.0149 23.0055 13.7775C22.2604 14.54 21.3703 15.146 20.3877 15.5597C19.405 15.9734 18.3496 16.1865 17.2834 16.1865C16.2172 16.1865 15.1618 15.9734 14.1792 15.5597C13.1965 15.146 12.3065 14.54 11.5613 13.7775C10.8162 13.0149 10.231 12.111 9.84016 11.1191C9.4493 10.1271 9.26067 9.06704 9.28535 8.00114C9.3197 5.90231 10.1776 3.90105 11.674 2.42895C13.1704 0.956844 15.1854 0.131836 17.2845 0.131836C19.3836 0.131836 21.3986 0.956844 22.895 2.42895C24.3914 3.90105 25.2493 5.90231 25.2837 8.00114" fill="#3B76DA"/>
<path fill-rule="evenodd" clip-rule="evenodd" d="M7.91883 34.2712C7.3165 35.235 6.356 35.9199 5.24864 36.1755C4.14127 36.431 2.97773 36.2362 2.01401 35.6339C1.05028 35.0315 0.365298 34.071 0.109751 32.9637C-0.145796 31.8563 0.0490241 30.6928 0.651354 29.7291L0.659924 29.7162L0.674922 29.6926L0.726343 29.6112C0.99812 29.1828 1.27741 28.7593 1.56407 28.3407C2.25899 27.3158 2.98932 26.3153 3.75374 25.3411C4.60862 24.2613 5.65846 23.0422 6.76829 22.0523C7.32321 21.5574 7.99168 21.0304 8.74799 20.6061C9.45932 20.2076 10.5713 19.7148 11.9318 19.7148H22.6359C23.9964 19.7148 25.1084 20.2076 25.8219 20.6061C26.576 21.0304 27.2466 21.5574 27.7994 22.0523C28.9092 23.0422 29.9612 24.2613 30.814 25.3433C31.8929 26.7151 32.9033 28.1395 33.8414 29.6112L33.8949 29.6926L33.9099 29.7141L33.9164 29.7269C34.5022 30.69 34.6849 31.8451 34.425 32.9419C34.1651 34.0388 33.4834 34.989 32.5277 35.5868C31.5721 36.1846 30.4193 36.3817 29.3193 36.1354C28.2193 35.8892 27.2606 35.2194 26.651 34.2712L26.6446 34.2627L26.6103 34.2091C26.5032 34.0403 26.3947 33.8725 26.2846 33.7056V39.0277L27.8337 55.3002C27.9311 56.4094 27.5929 57.513 26.8908 58.3772C26.1886 59.2413 25.1777 59.7983 24.072 59.93C22.9663 60.0617 21.8528 59.7579 20.9673 59.0829C20.0818 58.4079 19.4938 57.4147 19.3278 56.3136L17.1403 41.0159L14.9549 56.3136C14.7984 57.4231 14.2136 58.4272 13.3258 59.1107C12.4379 59.7942 11.3176 60.1027 10.205 59.9702C9.09239 59.8377 8.07595 59.2746 7.37348 58.4017C6.671 57.5288 6.33839 56.4154 6.44691 55.3002L8.24664 36.4245H8.28521V33.7035C8.17464 33.8712 8.06537 34.0397 7.9574 34.2091L7.92526 34.2627L7.91883 34.2712Z" fill="#3B76DA"/>
<path d="M68.1331 7.99915C68.1331 10.1207 67.2903 12.1553 65.7902 13.6554C64.29 15.1555 62.2554 15.9983 60.1339 15.9983C58.0124 15.9983 55.9778 15.1555 54.4777 13.6554C52.9775 12.1553 52.1348 10.1207 52.1348 7.99915C52.1348 5.87765 52.9775 3.84303 54.4777 2.3429C55.9778 0.842765 58.0124 0 60.1339 0C62.2554 0 64.29 0.842765 65.7902 2.3429C67.2903 3.84303 68.1331 5.87765 68.1331 7.99915Z" fill="#3B76DA"/>
<path fill-rule="evenodd" clip-rule="evenodd" d="M50.7796 33.8213C50.1734 34.769 49.2188 35.4404 48.1218 35.6903C47.0249 35.9403 45.8737 35.7488 44.9167 35.1572C43.9597 34.5656 43.2738 33.6215 43.007 32.5285C42.7402 31.4355 42.914 30.2815 43.4907 29.3155L43.4972 29.3027L43.5143 29.2791L43.5636 29.1977L43.7457 28.9106C44.6244 27.5429 45.563 26.2147 46.5588 24.9298C47.403 23.8499 48.4443 22.6287 49.5412 21.6367C50.0919 21.1418 50.7561 20.6104 51.5081 20.1862C52.2151 19.7834 53.3292 19.2842 54.6962 19.2842H65.2846C66.6515 19.2842 67.7657 19.7834 68.4748 20.184C69.2247 20.6126 69.8889 21.1418 70.4395 21.6367C71.5387 22.6287 72.5778 23.8499 73.4219 24.9298C74.4897 26.3017 75.4893 27.7254 76.4172 29.1955L76.4686 29.2791L76.4901 29.3155C77.0878 30.2821 77.2772 31.4465 77.0164 32.5527C76.7556 33.6589 76.0661 34.6161 75.0995 35.2139C74.133 35.8117 72.9685 36.001 71.8624 35.7403C70.7562 35.4795 69.7989 34.79 69.2012 33.8234L69.1947 33.8127L69.1626 33.7591C68.8402 33.2514 68.5081 32.75 68.1663 32.2551C69.169 37.2472 71.1444 44.0947 72.1771 47.5571C72.2633 47.8382 72.2901 48.1342 72.256 48.4262C72.2219 48.7183 72.1276 49.0001 71.9789 49.2539C71.8303 49.5076 71.6307 49.7277 71.3926 49.9003C71.1546 50.0729 70.8833 50.1943 70.5959 50.2567C63.0178 51.8357 57.7129 51.795 49.4834 50.2267C49.1881 50.1685 48.9083 50.0488 48.6625 49.8752C48.4166 49.7016 48.21 49.4781 48.0564 49.2193C47.9027 48.9605 47.8054 48.6722 47.7707 48.3732C47.736 48.0743 47.7647 47.7713 47.8551 47.4842C48.9371 44.0047 50.9489 37.2301 51.9023 32.1265C51.5305 32.6637 51.169 33.208 50.8182 33.7591L50.7861 33.8127L50.7796 33.8213ZM50.5632 53.8904V56.7785C50.564 57.5573 50.8476 58.3093 51.3612 58.8947C51.8748 59.4802 52.5835 59.8592 53.3555 59.9613C54.1276 60.0634 54.9105 59.8818 55.5586 59.45C56.2068 59.0183 56.6762 58.3659 56.8794 57.6141L57.7257 54.4775C55.3305 54.3923 52.9404 54.1964 50.5632 53.8904ZM62.6793 54.4689L63.5299 57.6163C63.7332 58.3682 64.2027 59.0208 64.8511 59.4525C65.4995 59.8842 66.2826 60.0657 67.0548 59.9633C67.827 59.8609 68.5357 59.4815 69.0492 58.8957C69.5626 58.3099 69.8458 57.5575 69.8461 56.7785V53.8604C67.4673 54.1688 65.076 54.3733 62.6793 54.4689Z" fill="#3B76DA"/>
</svg>
