<svg width="78" height="60" viewBox="0 0 78 60" fill="none" xmlns="http://www.w3.org/2000/svg">
<path d="M25.282 8.00114C25.3067 9.06704 25.118 10.1271 24.7272 11.1191C24.3363 12.111 23.7511 13.0149 23.006 13.7775C22.2609 14.54 21.3708 15.146 20.3882 15.5597C19.4055 15.9734 18.3501 16.1865 17.2839 16.1865C16.2177 16.1865 15.1623 15.9734 14.1797 15.5597C13.197 15.146 12.307 14.54 11.5618 13.7775C10.8167 13.0149 10.2315 12.111 9.84065 11.1191C9.44979 10.1271 9.26116 9.06704 9.28583 8.00114C9.32018 5.90231 10.1781 3.90105 11.6745 2.42895C13.1708 0.956844 15.1859 0.131836 17.285 0.131836C19.3841 0.131836 21.3991 0.956844 22.8955 2.42895C24.3919 3.90105 25.2498 5.90231 25.2841 8.00114" fill="#3B76DA"/>
<path fill-rule="evenodd" clip-rule="evenodd" d="M7.91883 34.2712C7.3165 35.235 6.356 35.9199 5.24864 36.1755C4.14127 36.431 2.97773 36.2362 2.01401 35.6339C1.05028 35.0315 0.365298 34.071 0.109751 32.9637C-0.145796 31.8563 0.0490241 30.6928 0.651354 29.7291L0.659924 29.7162L0.674922 29.6926L0.726343 29.6112C0.99812 29.1828 1.27741 28.7593 1.56407 28.3407C2.25899 27.3158 2.98932 26.3153 3.75374 25.3411C4.60862 24.2613 5.65846 23.0422 6.76829 22.0523C7.32321 21.5574 7.99168 21.0304 8.74799 20.6061C9.45932 20.2076 10.5713 19.7148 11.9318 19.7148H22.6359C23.9964 19.7148 25.1084 20.2076 25.8219 20.6061C26.576 21.0304 27.2466 21.5574 27.7994 22.0523C28.9092 23.0422 29.9612 24.2613 30.814 25.3433C31.8929 26.7151 32.9033 28.1395 33.8414 29.6112L33.8949 29.6926L33.9099 29.7141L33.9164 29.7269C34.5022 30.69 34.6849 31.8451 34.425 32.9419C34.1651 34.0388 33.4834 34.989 32.5277 35.5868C31.5721 36.1846 30.4193 36.3817 29.3193 36.1354C28.2193 35.8892 27.2606 35.2194 26.651 34.2712L26.6446 34.2627L26.6103 34.2091C26.5033 34.0403 26.3947 33.8725 26.2846 33.7056V39.0277L27.8337 55.3002C27.9311 56.4094 27.5929 57.513 26.8908 58.3772C26.1886 59.2413 25.1777 59.7983 24.072 59.93C22.9663 60.0617 21.8528 59.7579 20.9673 59.0829C20.0818 58.4079 19.4938 57.4147 19.3278 56.3136L17.1403 41.0159L14.9549 56.3136C14.7984 57.4231 14.2136 58.4272 13.3258 59.1107C12.4379 59.7942 11.3176 60.1027 10.205 59.9702C9.09239 59.8377 8.07595 59.2746 7.37348 58.4017C6.671 57.5288 6.33839 56.4154 6.44691 55.3002L8.24664 36.4245H8.28521V33.7035C8.17464 33.8712 8.06537 34.0397 7.9574 34.2091L7.92526 34.2627L7.91883 34.2712Z" fill="#3B76DA"/>
<path d="M68.1326 7.99915C68.1326 10.1207 67.2898 12.1553 65.7897 13.6554C64.2896 15.1555 62.2549 15.9983 60.1334 15.9983C58.0119 15.9983 55.9773 15.1555 54.4772 13.6554C52.977 12.1553 52.1343 10.1207 52.1343 7.99915C52.1343 5.87765 52.977 3.84303 54.4772 2.3429C55.9773 0.842765 58.0119 0 60.1334 0C62.2549 0 64.2896 0.842765 65.7897 2.3429C67.2898 3.84303 68.1326 5.87765 68.1326 7.99915Z" fill="#3B76DA"/>
<path fill-rule="evenodd" clip-rule="evenodd" d="M50.7801 33.8208C50.1739 34.7685 49.2193 35.4399 48.1223 35.6898C47.0254 35.9398 45.8742 35.7483 44.9172 35.1567C43.9602 34.5652 43.2743 33.621 43.0075 32.528C42.7407 31.435 42.9144 30.281 43.4912 29.315L43.4976 29.3022L43.5148 29.2786L43.5641 29.1972L43.7462 28.9101C44.6249 27.5424 45.5635 26.2142 46.5593 24.9293C47.4035 23.8494 48.4448 22.6282 49.5417 21.6362C50.0924 21.1413 50.7566 20.6099 51.5086 20.1857C52.2156 19.7829 53.3297 19.2837 54.6967 19.2837H65.2851C66.652 19.2837 67.7661 19.7829 68.4753 20.1836C69.2252 20.6121 69.8894 21.1413 70.44 21.6362C71.5391 22.6282 72.5783 23.8494 73.4224 24.9293C74.4902 26.3012 75.4898 27.7249 76.4177 29.1951L76.4691 29.2786L76.4905 29.315C77.0883 30.2816 77.2777 31.4461 77.0169 32.5522C76.7561 33.6584 76.0666 34.6157 75.1 35.2134C74.1335 35.8112 72.969 36.0006 71.8629 35.7398C70.7567 35.479 69.7994 34.7895 69.2016 33.8229L69.1952 33.8122L69.1631 33.7587C68.8407 33.2509 68.5086 32.7495 68.1668 32.2546C69.1695 37.2467 71.1449 44.0942 72.1776 47.5566C72.2638 47.8377 72.2906 48.1337 72.2565 48.4258C72.2224 48.7178 72.128 48.9996 71.9794 49.2534C71.8308 49.5071 71.6312 49.7272 71.3931 49.8998C71.1551 50.0724 70.8838 50.1938 70.5964 50.2562C63.0183 51.8352 57.7134 51.7945 49.4839 50.2262C49.1886 50.1681 48.9088 50.0483 48.6629 49.8747C48.417 49.7011 48.2105 49.4776 48.0569 49.2188C47.9032 48.96 47.8058 48.6717 47.7712 48.3728C47.7365 48.0738 47.7652 47.7708 47.8556 47.4837C48.9375 44.0043 50.9494 37.2296 51.9028 32.126C51.531 32.6632 51.1695 33.2075 50.8187 33.7587L50.7866 33.8122L50.7801 33.8208ZM50.5637 53.8899V56.7781C50.5645 57.5568 50.8481 58.3088 51.3617 58.8943C51.8753 59.4797 52.584 59.8587 53.356 59.9608C54.1281 60.063 54.911 59.8813 55.5591 59.4496C56.2073 59.0178 56.6766 58.3654 56.8799 57.6136L57.7262 54.477C55.3309 54.3918 52.9409 54.196 50.5637 53.8899ZM62.6798 54.4684L63.5303 57.6158C63.7337 58.3677 64.2032 59.0203 64.8516 59.452C65.5 59.8837 66.2831 60.0652 67.0553 59.9628C67.8275 59.8604 68.5362 59.481 69.0497 58.8952C69.5631 58.3094 69.8463 57.557 69.8465 56.7781V53.8599C67.4678 54.1683 65.0765 54.3728 62.6798 54.4684Z" fill="#3B76DA"/>
</svg>
