<svg width="60" height="60" viewBox="0 0 60 60" fill="none" xmlns="http://www.w3.org/2000/svg">
<path fill-rule="evenodd" clip-rule="evenodd" d="M55 3.33333H5C4.55797 3.33333 4.13405 3.50893 3.82149 3.82149C3.50893 4.13405 3.33333 4.55797 3.33333 5V55C3.33333 55.442 3.50893 55.866 3.82149 56.1785C4.13405 56.4911 4.55797 56.6667 5 56.6667H55C55.442 56.6667 55.866 56.4911 56.1785 56.1785C56.4911 55.866 56.6667 55.442 56.6667 55V5C56.6667 4.55797 56.4911 4.13405 56.1785 3.82149C55.866 3.50893 55.442 3.33333 55 3.33333ZM5 0C3.67392 0 2.40215 0.526784 1.46447 1.46447C0.526784 2.40215 0 3.67392 0 5V55C0 56.3261 0.526784 57.5978 1.46447 58.5355C2.40215 59.4732 3.67392 60 5 60H55C56.3261 60 57.5978 59.4732 58.5355 58.5355C59.4732 57.5978 60 56.3261 60 55V5C60 3.67392 59.4732 2.40215 58.5355 1.46447C57.5978 0.526784 56.3261 0 55 0H5Z" fill="#3B76DA"/>
<path fill-rule="evenodd" clip-rule="evenodd" d="M9.0565 6.6665C8.6215 6.6665 8.18984 6.68317 7.76317 6.71984C7.46559 6.74286 7.18756 6.87702 6.98437 7.09565C6.78118 7.31428 6.66771 7.60137 6.6665 7.89984V53.8165C6.6665 54.4698 7.19984 54.9998 7.8615 54.9998H11.4448C11.7602 55.0012 12.0631 54.8773 12.2872 54.6554C12.5112 54.4336 12.6381 54.1318 12.6398 53.8165V45.1732L17.5348 47.2515C18.1598 47.5182 18.9215 47.7982 19.7165 47.9015C20.5248 48.0065 21.4432 47.9382 22.2965 47.4215C22.9947 47.0019 23.5725 46.4089 23.974 45.7002C24.3756 44.9915 24.5871 44.1911 24.5882 43.3765V39.8248C24.5864 39.5095 24.4596 39.2078 24.2355 38.9859C24.0114 38.764 23.7085 38.6402 23.3932 38.6415L19.7165 37.4565C19.7165 36.1482 20.8782 36.2732 22.1998 36.2732H23.3932C23.5494 36.2738 23.7043 36.2437 23.8489 36.1845C23.9936 36.1253 24.1251 36.0382 24.2361 35.9282C24.3471 35.8181 24.4353 35.6873 24.4957 35.5432C24.5561 35.3991 24.5875 35.2444 24.5882 35.0882V32.7198H25.9382C27.8482 32.7198 28.9865 30.6115 27.9282 29.0365L24.5882 24.0698V22.0615C24.5882 13.5598 17.6348 6.6665 9.05484 6.6665M21.0015 25.0215C21.0006 25.2558 20.9536 25.4877 20.863 25.7038C20.7725 25.92 20.6403 26.1162 20.4739 26.2812C20.3075 26.4462 20.1102 26.5767 19.8933 26.6655C19.6764 26.7542 19.4442 26.7993 19.2098 26.7982C18.9755 26.7993 18.7433 26.7542 18.5264 26.6655C18.3095 26.5767 18.1122 26.4462 17.9458 26.2812C17.7794 26.1162 17.6472 25.92 17.5566 25.7038C17.4661 25.4877 17.419 25.2558 17.4182 25.0215C17.419 24.7872 17.4661 24.5553 17.5566 24.3392C17.6472 24.123 17.7794 23.9269 17.9458 23.7619C18.1122 23.5969 18.3095 23.4663 18.5264 23.3776C18.7433 23.2888 18.9755 23.2437 19.2098 23.2448C19.4442 23.2437 19.6764 23.2888 19.8933 23.3776C20.1102 23.4663 20.3075 23.5969 20.4739 23.7619C20.6403 23.9269 20.7725 24.123 20.863 24.3392C20.9536 24.5553 21.0006 24.7872 21.0015 25.0215ZM32.4932 40.1398C33.098 39.7844 33.5991 39.2767 33.9465 38.6673C34.2939 38.0578 34.4755 37.368 34.4732 36.6665C34.4732 35.1782 33.6748 33.8832 32.4915 33.1932L34.1748 30.3148C35.2827 30.9638 36.2011 31.8917 36.8386 33.0061C37.4761 34.1206 37.8104 35.3826 37.8082 36.6665C37.8101 37.9501 37.4756 39.2118 36.8381 40.3259C36.2007 41.4401 35.2824 42.3677 34.1748 43.0165L32.4932 40.1398ZM41.4915 36.6665C41.4915 33.2215 39.9915 30.3565 37.9698 28.8948L39.9248 26.1948C42.9365 28.3732 44.8248 32.3148 44.8248 36.6665C44.8248 41.0165 42.9365 44.9598 39.9248 47.1398L37.9698 44.4398C39.9915 42.9765 41.4915 40.1115 41.4915 36.6665Z" fill="#3B76DA"/>
<path fill-rule="evenodd" clip-rule="evenodd" d="M43.5249 48.695C46.4016 46.4133 48.5082 41.9683 48.5082 36.6667C48.5082 31.365 46.4016 26.92 43.5249 24.64L45.5966 22.0283C49.4332 25.07 51.8416 30.575 51.8416 36.6667C51.8416 42.76 49.4332 48.2633 45.5966 51.305L43.5249 48.695Z" fill="#3B76DA"/>
</svg>
