<svg width="58" height="56" viewBox="0 0 58 56" fill="none" xmlns="http://www.w3.org/2000/svg">
<path d="M29.2686 14.5572C29.2686 14.5572 30.586 -0.667309 22.5369 2.72126C22.5369 2.72126 17.3225 -0.701677 15.0464 1.66963C12.7703 4.03407 13.2669 6.94838 13.2669 6.94838C13.2669 6.94838 6.96966 9.69085 11.1908 14.0348C15.4119 18.3719 29.2686 31.5275 29.2686 31.5275V14.5572Z" fill="#FF0C63"/>
<path d="M42.1877 24.166C42.1877 24.166 56.4858 18.6398 49.8851 12.928C49.8851 12.928 50.6714 6.75573 47.5331 5.76596C44.3949 4.7762 41.9946 6.49454 41.9946 6.49454C41.9946 6.49454 36.7458 2.06809 34.6973 7.75924C32.6488 13.4504 26.9033 31.6442 26.9033 31.6442L42.1877 24.166Z" fill="#FF0C63"/>
<path d="M38.5804 37.6515C38.5804 37.6515 48.7332 49.1025 51.8232 40.9576C51.8232 40.9576 57.9066 39.5554 57.7548 36.2768C57.6031 33.0051 55.1546 31.3486 55.1546 31.3486C55.1546 31.3486 57.5065 24.9083 51.4369 24.9632C45.3673 25.0182 26.2549 25.9461 26.2549 25.9461L38.5804 37.6515Z" fill="#FF0C63"/>
<path d="M22.6884 38.5657C22.6884 38.5657 16.8464 52.6973 25.5439 51.8725C25.5439 51.8725 29.4892 56.6908 32.3722 55.1167C35.2553 53.5359 35.6623 50.6147 35.6623 50.6147C35.6623 50.6147 42.4975 49.8792 39.773 44.4768C37.0486 39.0743 27.7924 22.3789 27.7924 22.3789L22.6884 38.5657Z" fill="#FF0C63"/>
<path d="M16.3846 23.8569C16.3846 23.8569 1.78995 19.1556 3.29356 27.7335C3.29356 27.7335 -1.22417 32.0294 0.582925 34.7718C2.39002 37.5143 5.34206 37.693 5.34206 37.693C5.34206 37.693 6.61116 44.4289 11.8048 41.3015C16.9985 38.1742 32.9726 27.6717 32.9726 27.6717L16.3846 23.8569Z" fill="#FF0C63"/>
<path d="M25.331 36.4079C25.2483 36.4079 25.1586 36.3941 25.0689 36.3666C24.5999 36.2223 24.3309 35.7274 24.4758 35.2531L29.7384 17.9872C29.8833 17.513 30.3799 17.2518 30.8558 17.3961C31.3248 17.5405 31.5938 18.0354 31.4489 18.5096L26.1863 35.7755C26.0691 36.1604 25.7104 36.4079 25.331 36.4079Z" fill="#FFB6B6"/>
<path d="M27.9583 36.4073C27.4892 36.4073 27.0961 36.0431 27.0685 35.5688L26.0063 17.5056C25.9787 17.0176 26.3512 16.5914 26.8478 16.5639C27.3375 16.5364 27.7651 16.9076 27.7927 17.4025L28.8549 35.4657C28.8825 35.9537 28.51 36.3798 28.0134 36.4073C27.9927 36.4073 27.9789 36.4073 27.9583 36.4073Z" fill="#FFB6B6"/>
<path d="M32.9801 35.3219C32.6973 35.3219 32.4214 35.1913 32.2489 34.9439L21.9582 20.4067C21.6754 20.0081 21.7719 19.4513 22.172 19.1695C22.5789 18.8877 23.1307 18.9839 23.4135 19.3826L33.7112 33.9129C33.994 34.3115 33.8974 34.8683 33.4973 35.1501C33.3387 35.2669 33.1594 35.3219 32.9801 35.3219Z" fill="#FFB6B6"/>
<path d="M35.3388 32.4146C35.2008 32.4146 35.0629 32.3803 34.9318 32.3184L19.137 24.2628C18.6956 24.036 18.5232 23.4999 18.7508 23.0669C18.9784 22.627 19.5164 22.462 19.9509 22.682L35.7457 30.7375C36.1871 30.9644 36.3596 31.5005 36.132 31.9335C35.9733 32.2428 35.6629 32.4146 35.3388 32.4146Z" fill="#FFB6B6"/>
<path d="M19.5441 28.3865C19.0613 28.3865 18.6613 28.0016 18.6544 27.5136C18.6475 27.0187 19.0337 26.6132 19.5303 26.6063L35.3252 26.2695C35.808 26.3039 36.2287 26.6476 36.2356 27.1424C36.2425 27.6373 35.8562 28.0429 35.3596 28.0497L19.5648 28.3865C19.551 28.3865 19.5441 28.3865 19.5441 28.3865Z" fill="#FFB6B6"/>
<path d="M19.5431 33.2386C19.2948 33.2386 19.0465 33.1355 18.8671 32.9293C18.543 32.5582 18.5844 31.9946 18.9568 31.6715L33.4273 19.217C33.7998 18.8939 34.3654 18.9352 34.6896 19.3063C35.0137 19.6775 34.9723 20.2411 34.5999 20.5642L20.1225 33.0256C19.9569 33.1699 19.75 33.2386 19.5431 33.2386Z" fill="#FFB6B6"/>
<path d="M21.627 35.9606C21.4408 35.9606 21.2614 35.9056 21.1028 35.7888C20.7028 35.5001 20.62 34.9434 20.9097 34.5447L27.0207 26.2073L34.8836 21.609C35.3112 21.3616 35.8561 21.4991 36.1044 21.9252C36.3527 22.3514 36.2148 22.8944 35.7872 23.1418L28.2415 27.5545L22.3443 35.5963C22.1788 35.8369 21.9029 35.9606 21.627 35.9606Z" fill="#FFB6B6"/>
<path d="M26.1993 28.38C27.0408 29.0192 28.3858 28.8542 29.041 28.0294C29.6963 27.2046 29.5445 25.8574 28.7306 25.1976C27.9099 24.5309 26.5649 24.6615 25.882 25.4725C25.1992 26.2698 25.2682 27.6651 26.1993 28.38Z" fill="#FF0C63"/>
</svg>
