<svg width="60" height="60" viewBox="0 0 60 60" fill="none" xmlns="http://www.w3.org/2000/svg">
<path fill-rule="evenodd" clip-rule="evenodd" d="M55 3.33333H5C4.55797 3.33333 4.13405 3.50893 3.82149 3.82149C3.50893 4.13405 3.33333 4.55797 3.33333 5V55C3.33333 55.442 3.50893 55.866 3.82149 56.1785C4.13405 56.4911 4.55797 56.6667 5 56.6667H55C55.442 56.6667 55.866 56.4911 56.1785 56.1785C56.4911 55.866 56.6667 55.442 56.6667 55V5C56.6667 4.55797 56.4911 4.13405 56.1785 3.82149C55.866 3.50893 55.442 3.33333 55 3.33333ZM5 0C3.67392 0 2.40215 0.526784 1.46447 1.46447C0.526784 2.40215 0 3.67392 0 5V55C0 56.3261 0.526784 57.5978 1.46447 58.5355C2.40215 59.4732 3.67392 60 5 60H55C56.3261 60 57.5978 59.4732 58.5355 58.5355C59.4732 57.5978 60 56.3261 60 55V5C60 3.67392 59.4732 2.40215 58.5355 1.46447C57.5978 0.526784 56.3261 0 55 0H5Z" fill="#3B76DA"/>
<path fill-rule="evenodd" clip-rule="evenodd" d="M9.05699 6.66699C8.62199 6.66699 8.19033 6.68366 7.76366 6.72032C7.46608 6.74335 7.18805 6.87751 6.98486 7.09614C6.78167 7.31477 6.6682 7.60186 6.66699 7.90033V53.817C6.66699 54.4703 7.20033 55.0003 7.86199 55.0003H11.4453C11.7606 55.0017 12.0636 54.8778 12.2877 54.6559C12.5117 54.434 12.6386 54.1323 12.6403 53.817V45.1737L17.5353 47.252C18.1603 47.5187 18.922 47.7987 19.717 47.902C20.5253 48.007 21.4437 47.9387 22.297 47.422C22.9951 47.0024 23.573 46.4094 23.9745 45.7007C24.376 44.992 24.5876 44.1916 24.5887 43.377V39.8253C24.5869 39.51 24.4601 39.2083 24.236 38.9864C24.0119 38.7645 23.709 38.6407 23.3937 38.642L19.717 37.457C19.717 36.1487 20.8787 36.2737 22.2003 36.2737H23.3937C23.5499 36.2743 23.7048 36.2442 23.8494 36.185C23.9941 36.1258 24.1256 36.0387 24.2366 35.9287C24.3476 35.8186 24.4358 35.6878 24.4962 35.5437C24.5566 35.3995 24.588 35.2449 24.5887 35.0887V32.7203H25.9387C27.8487 32.7203 28.987 30.612 27.9287 29.037L24.5887 24.0703V22.062C24.5887 13.5603 17.6353 6.66699 9.05533 6.66699M21.002 25.022C21.0011 25.2563 20.9541 25.4882 20.8635 25.7043C20.773 25.9205 20.6408 26.1166 20.4744 26.2816C20.308 26.4466 20.1107 26.5772 19.8938 26.6659C19.6769 26.7547 19.4447 26.7998 19.2103 26.7987C18.976 26.7998 18.7437 26.7547 18.5269 26.6659C18.31 26.5772 18.1127 26.4466 17.9463 26.2816C17.7799 26.1166 17.6476 25.9205 17.5571 25.7043C17.4666 25.4882 17.4195 25.2563 17.4187 25.022C17.4195 24.7877 17.4666 24.5558 17.5571 24.3397C17.6476 24.1235 17.7799 23.9273 17.9463 23.7623C18.1127 23.5973 18.31 23.4668 18.5269 23.378C18.7437 23.2893 18.976 23.2442 19.2103 23.2453C19.4447 23.2442 19.6769 23.2893 19.8938 23.378C20.1107 23.4668 20.308 23.5973 20.4744 23.7623C20.6408 23.9273 20.773 24.1235 20.8635 24.3397C20.9541 24.5558 21.0011 24.7877 21.002 25.022ZM32.4937 40.1403C33.0985 39.7849 33.5995 39.2772 33.947 38.6678C34.2944 38.0583 34.476 37.3685 34.4737 36.667C34.4737 35.1787 33.6753 33.8837 32.492 33.1937L34.1753 30.3153C35.2831 30.9643 36.2016 31.8922 36.839 33.0066C37.4765 34.1211 37.8108 35.3831 37.8087 36.667C37.8106 37.9506 37.4761 39.2123 36.8386 40.3264C36.2012 41.4405 35.2829 42.3682 34.1753 43.017L32.4937 40.1403ZM41.492 36.667C41.492 33.222 39.992 30.357 37.9703 28.8953L39.9253 26.1953C42.937 28.3737 44.8253 32.3153 44.8253 36.667C44.8253 41.017 42.937 44.9603 39.9253 47.1403L37.9703 44.4403C39.992 42.977 41.492 40.112 41.492 36.667Z" fill="#3B76DA"/>
<path fill-rule="evenodd" clip-rule="evenodd" d="M43.5254 48.695C46.4021 46.4133 48.5087 41.9683 48.5087 36.6667C48.5087 31.365 46.4021 26.92 43.5254 24.64L45.5971 22.0283C49.4337 25.07 51.8421 30.575 51.8421 36.6667C51.8421 42.76 49.4337 48.2633 45.5971 51.305L43.5254 48.695Z" fill="#3B76DA"/>
</svg>
