<svg width="86" height="71" viewBox="0 0 86 71" fill="none" xmlns="http://www.w3.org/2000/svg">
<path d="M83.6529 8.73772C83.6529 8.73772 79.4921 12.7196 73.1342 23.8567C66.7762 34.9938 55.4432 44.4803 45.5825 40.693C45.5825 40.693 36.5175 14.3363 83.6529 8.73772Z" fill="#169E3B"/>
<g clip-path="url(#clip0_13_10458)">
<path d="M5.79926 10.4946C5.79926 10.4946 9.96001 14.4765 16.318 25.6136C22.6759 36.7506 34.0089 46.2371 43.8697 42.4498C43.8697 42.4498 52.9346 16.0931 5.79926 10.4946Z" fill="#169E3B"/>
<path d="M16.3464 16.1636C22.5773 21.2965 28.6294 26.6815 34.3897 32.3109C39.9246 38.0653 46.0645 43.686 49.4974 51.0479C46.4982 43.481 40.2852 37.7108 34.623 32.0733C28.7941 26.4744 22.681 21.1779 16.3079 16.2048L16.3464 16.1636Z" fill="#386845"/>
<path d="M38.6448 36.0246C38.5361 33.7421 38.2824 31.4689 37.8853 29.2188C37.7344 28.3791 37.5531 27.5382 37.3412 26.7662C37.2294 26.3769 37.1228 26.0062 37.0216 25.654C36.9203 25.3018 36.8244 24.9681 36.6715 24.6809C36.5655 24.4077 36.442 24.1415 36.3018 23.8841C36.2118 23.6787 36.1046 23.4812 35.9813 23.2938C35.7806 22.9803 35.6596 22.8043 35.6596 22.8043C35.6596 22.8043 35.7713 22.9829 35.9654 23.3085C36.0852 23.4972 36.1893 23.6955 36.2766 23.9014C36.3485 24.1516 36.5093 24.3964 36.6092 24.7089C36.709 25.0213 36.846 25.3231 36.8916 25.6913C36.9371 26.0596 37.0993 26.4143 37.2112 26.8036C37.4297 27.5636 37.5526 28.4113 37.6756 29.259C37.7986 30.1067 37.9096 30.9477 37.9861 31.7386C38.0625 32.5294 38.1164 33.2765 38.1503 33.919C38.2246 35.1921 38.2281 36.044 38.2281 36.044L38.6448 36.0246Z" fill="#386845"/>
<path d="M37.5605 27.5662L37.6427 27.4322C37.7145 27.3022 37.7765 27.167 37.8281 27.0277C37.8983 26.8363 37.9527 26.6394 37.9907 26.4391C38.0191 26.3305 38.0411 26.2203 38.0567 26.1091C38.0274 26.0071 38.079 25.8719 38.0869 25.7592C38.1029 25.6442 38.1099 25.5282 38.1077 25.4121L38.1008 25.0729C38.0913 24.9672 38.0876 24.8611 38.0898 24.755L38.0126 24.4862C37.9658 24.1484 37.9297 23.918 37.9297 23.918C37.9297 23.918 37.9445 24.1445 37.9754 24.4969C37.9967 24.571 38.0234 24.6637 37.9943 24.7724C37.9652 24.8811 37.9918 24.9738 37.984 25.0864L37.9671 25.4124C37.9638 25.5278 37.9497 25.6428 37.925 25.7556L37.8802 26.0896L37.7903 26.4064C37.7343 26.5893 37.6685 26.769 37.5931 26.9447C37.5163 27.0973 37.4527 27.2259 37.4037 27.3002L37.3162 27.4157L37.5605 27.5662Z" fill="#386845"/>
<path d="M33.0108 30.6604C32.9322 28.9744 32.7452 27.2953 32.4508 25.6335C32.3427 25.0124 32.2067 24.3992 32.0508 23.8219C31.9682 23.5346 31.8909 23.2658 31.8137 22.997C31.7364 22.7282 31.6698 22.4965 31.5475 22.2808C31.4252 22.0651 31.36 21.8731 31.2788 21.6957C31.2111 21.5454 31.1325 21.4004 31.0435 21.2616L30.8082 20.8978L31.0249 21.267C31.1186 21.406 31.1954 21.5558 31.2536 21.713C31.349 21.9045 31.4326 22.1017 31.5038 22.3034C31.5677 22.5258 31.6396 22.7761 31.7142 23.0356C31.7888 23.2951 31.866 23.5639 31.9486 23.8513C32.1111 24.4167 32.2007 25.0431 32.2969 25.6577C32.3931 26.2722 32.4641 26.9041 32.5244 27.4988C32.5847 28.0936 32.6198 28.6354 32.6429 29.1004C32.7142 30.0833 32.7015 30.669 32.7015 30.669L33.0108 30.6604Z" fill="#386845"/>
<path d="M38.6695 35.9374C36.3973 36.2895 34.1046 36.4926 31.8061 36.5453C30.9461 36.5617 30.0875 36.5476 29.2858 36.487C28.889 36.4706 28.5027 36.421 28.1311 36.3874C27.7595 36.3537 27.4263 36.2789 27.0825 36.2372C26.7942 36.1848 26.5092 36.1159 26.2289 36.031C26.0101 35.9843 25.796 35.9182 25.589 35.8336L25.0354 35.6214L25.593 35.8123C25.8312 35.8925 26.0766 35.9496 26.3258 35.9831C26.6068 36.0592 26.8923 36.1179 27.1806 36.1588C27.4939 36.1992 27.8337 36.2621 28.2212 36.2812C28.6088 36.3002 28.9738 36.3458 29.3772 36.3503C30.1709 36.3831 31.0243 36.3787 31.8762 36.3345C32.7282 36.2903 33.5842 36.2249 34.3764 36.1477C35.1686 36.0706 35.9157 35.9763 36.5433 35.8862C37.8172 35.7007 38.6465 35.5426 38.6465 35.5426L38.6695 35.9374Z" fill="#386845"/>
<path d="M33.1795 31.0732C31.5111 31.3325 29.8274 31.4812 28.1395 31.5183C27.519 31.5375 26.8979 31.5251 26.2788 31.4811C25.9855 31.4751 25.6908 31.4293 25.4227 31.4061C25.1546 31.3828 24.9064 31.3237 24.6661 31.2924C24.4546 31.2537 24.2454 31.2032 24.0395 31.1413C23.8753 31.1083 23.7154 31.0566 23.5629 30.9873L23.1567 30.8331L23.5696 30.9754C23.722 31.0353 23.8798 31.0807 24.0408 31.1109C24.2481 31.1671 24.4587 31.2104 24.6714 31.2407C24.9116 31.272 25.1572 31.3218 25.4319 31.3332C25.7066 31.3445 25.9894 31.3837 26.2827 31.3897C26.8719 31.411 27.505 31.4097 28.1274 31.3713C28.7498 31.3329 29.3934 31.2984 29.9799 31.2402L31.5816 31.0408C32.5476 30.9036 33.1301 30.7964 33.1301 30.7964L33.1795 31.0732Z" fill="#386845"/>
<path d="M26.8926 31.515L26.7971 31.6027C26.7168 31.6721 26.6303 31.734 26.5385 31.7874C26.4099 31.8669 26.2751 31.9359 26.1353 31.9936L25.8938 32.063L25.6431 32.1351C25.5624 32.1683 25.4783 32.1924 25.3923 32.2071L25.1601 32.2739L24.9372 32.3379L24.7289 32.3476L24.3029 32.3697L24.7209 32.3198L24.9252 32.2611L25.3803 32.1303C25.462 32.1116 25.5426 32.0885 25.6217 32.0609L25.8632 31.9915L26.0954 31.9248C26.2204 31.8618 26.341 31.7902 26.4562 31.7107C26.5364 31.6518 26.6118 31.5865 26.6816 31.5155L26.7611 31.4424L26.8926 31.515Z" fill="#386845"/>
</g>
<path d="M44.5688 35.2653C44.5688 35.2653 45.2445 27.456 41.1158 29.1941C41.1158 29.1941 38.4411 27.4384 37.2736 28.6547C36.1061 29.8675 36.3608 31.3624 36.3608 31.3624C36.3608 31.3624 33.1307 32.7691 35.2959 34.9973C37.4611 37.222 44.5688 43.9701 44.5688 43.9701V35.2653Z" fill="#FF55CF"/>
<path d="M51.1955 40.1937C51.1955 40.1937 58.5296 37.3591 55.1438 34.4293C55.1438 34.4293 55.5471 31.2633 53.9374 30.7556C52.3276 30.2479 51.0964 31.1293 51.0964 31.1293C51.0964 31.1293 48.4041 28.8588 47.3533 31.7781C46.3025 34.6973 43.3555 44.0296 43.3555 44.0296L51.1955 40.1937Z" fill="#FF55CF"/>
<path d="M49.3457 47.111C49.3457 47.111 54.5535 52.9848 56.1385 48.8069C56.1385 48.8069 59.2589 48.0876 59.1811 46.4059C59.1032 44.7277 57.8473 43.878 57.8473 43.878C57.8473 43.878 59.0537 40.5745 55.9403 40.6027C52.827 40.6309 43.0234 41.1069 43.0234 41.1069L49.3457 47.111Z" fill="#FF55CF"/>
<path d="M41.1938 47.5802C41.1938 47.5802 38.1972 54.8289 42.6585 54.4058C42.6585 54.4058 44.6822 56.8773 46.161 56.0699C47.6398 55.2591 47.8486 53.7607 47.8486 53.7607C47.8486 53.7607 51.3547 53.3834 49.9572 50.6123C48.5597 47.8411 43.8118 39.2773 43.8118 39.2773L41.1938 47.5802Z" fill="#FF55CF"/>
<path d="M37.96 40.0354C37.96 40.0354 30.4737 37.6239 31.245 42.0239C31.245 42.0239 28.9277 44.2274 29.8546 45.6341C30.7815 47.0409 32.2958 47.1325 32.2958 47.1325C32.2958 47.1325 32.9467 50.5877 35.6108 48.9835C38.2748 47.3793 46.4686 41.9922 46.4686 41.9922L37.96 40.0354Z" fill="#FF55CF"/>
<path d="M42.5487 46.4734C42.5062 46.4734 42.4602 46.4664 42.4142 46.4523C42.1737 46.3782 42.0357 46.1244 42.11 45.8811L44.8094 37.0247C44.8837 36.7815 45.1384 36.6475 45.3825 36.7215C45.6231 36.7956 45.7611 37.0494 45.6868 37.2927L42.9874 46.1491C42.9272 46.3465 42.7433 46.4734 42.5487 46.4734Z" fill="#EBBC15"/>
<path d="M43.8965 46.4732C43.6559 46.4732 43.4543 46.2863 43.4401 46.0431L42.8953 36.7777C42.8811 36.5274 43.0722 36.3088 43.3269 36.2947C43.5781 36.2806 43.7974 36.471 43.8116 36.7248L44.3564 45.9902C44.3706 46.2405 44.1795 46.4591 43.9248 46.4732C43.9142 46.4732 43.9071 46.4732 43.8965 46.4732Z" fill="#EBBC15"/>
<path d="M46.4722 45.916C46.3271 45.916 46.1856 45.8491 46.0972 45.7221L40.8186 38.2654C40.6735 38.0609 40.7231 37.7753 40.9283 37.6308C41.137 37.4862 41.42 37.5356 41.5651 37.7401L46.8472 45.1933C46.9922 45.3978 46.9427 45.6833 46.7375 45.8279C46.6561 45.8878 46.5642 45.916 46.4722 45.916Z" fill="#EBBC15"/>
<path d="M47.6822 44.4249C47.6115 44.4249 47.5407 44.4072 47.4735 44.3755L39.3717 40.2435C39.1453 40.1271 39.0568 39.8521 39.1736 39.63C39.2903 39.4044 39.5663 39.3197 39.7892 39.4326L47.891 43.5646C48.1174 43.681 48.2058 43.956 48.0891 44.1781C48.0077 44.3367 47.8485 44.4249 47.6822 44.4249Z" fill="#EBBC15"/>
<path d="M39.5805 42.3593C39.3328 42.3593 39.1276 42.1619 39.1241 41.9116C39.1205 41.6577 39.3187 41.4497 39.5734 41.4462L47.6752 41.2734C47.9229 41.2911 48.1387 41.4673 48.1422 41.7212C48.1457 41.975 47.9476 42.1831 47.6929 42.1866L39.5911 42.3593C39.584 42.3593 39.5805 42.3593 39.5805 42.3593Z" fill="#EBBC15"/>
<path d="M39.58 44.848C39.4526 44.848 39.3253 44.7952 39.2333 44.6894C39.067 44.499 39.0882 44.2099 39.2793 44.0442L46.7018 37.6557C46.8929 37.49 47.183 37.5112 47.3492 37.7016C47.5155 37.892 47.4943 38.1811 47.3033 38.3468L39.8772 44.7387C39.7923 44.8128 39.6861 44.848 39.58 44.848Z" fill="#EBBC15"/>
<path d="M40.6487 46.2438C40.5532 46.2438 40.4612 46.2156 40.3799 46.1557C40.1747 46.0076 40.1322 45.722 40.2808 45.5175L43.4154 41.2409L47.4486 38.8823C47.668 38.7554 47.9475 38.8259 48.0748 39.0445C48.2022 39.263 48.1314 39.5416 47.9121 39.6685L44.0416 41.932L41.0167 46.0569C40.9318 46.1803 40.7903 46.2438 40.6487 46.2438Z" fill="#EBBC15"/>
<path d="M42.9949 42.3553C43.4265 42.6832 44.1164 42.5986 44.4525 42.1755C44.7886 41.7525 44.7108 41.0614 44.2933 40.723C43.8723 40.381 43.1824 40.448 42.8322 40.864C42.4819 41.273 42.5173 41.9887 42.9949 42.3553Z" fill="#FF55CF"/>
<path d="M70.9691 49.5954C70.9691 49.5954 71.6449 41.7861 67.5161 43.5242C67.5161 43.5242 64.8415 41.7685 63.674 42.9848C62.5065 44.1976 62.7612 45.6925 62.7612 45.6925C62.7612 45.6925 59.5311 47.0992 61.6963 49.3274C63.8615 51.5521 70.9691 58.3002 70.9691 58.3002V49.5954Z" fill="#FF55CF"/>
<path d="M77.5959 54.5238C77.5959 54.5238 84.93 51.6892 81.5442 48.7594C81.5442 48.7594 81.9475 45.5934 80.3378 45.0857C78.728 44.578 77.4968 45.4594 77.4968 45.4594C77.4968 45.4594 74.8045 43.1889 73.7537 46.1081C72.7029 49.0274 69.7559 58.3597 69.7559 58.3597L77.5959 54.5238Z" fill="#FF55CF"/>
<path d="M75.7461 61.4411C75.7461 61.4411 80.9539 67.3148 82.5389 63.137C82.5389 63.137 85.6593 62.4177 85.5815 60.736C85.5036 59.0578 84.2477 58.2081 84.2477 58.2081C84.2477 58.2081 85.4541 54.9046 82.3407 54.9328C79.2274 54.961 69.4238 55.437 69.4238 55.437L75.7461 61.4411Z" fill="#FF55CF"/>
<path d="M67.5942 61.9103C67.5942 61.9103 64.5976 69.159 69.0589 68.7359C69.0589 68.7359 71.0825 71.2074 72.5614 70.4C74.0402 69.5891 74.249 68.0907 74.249 68.0907C74.249 68.0907 77.755 67.7135 76.3576 64.9423C74.9601 62.1712 70.2122 53.6074 70.2122 53.6074L67.5942 61.9103Z" fill="#FF55CF"/>
<path d="M64.3603 54.3655C64.3603 54.3655 56.8741 51.954 57.6454 56.354C57.6454 56.354 55.3281 58.5575 56.255 59.9642C57.1819 61.371 58.6962 61.4626 58.6962 61.4626C58.6962 61.4626 59.3471 64.9177 62.0112 63.3136C64.6752 61.7094 72.869 56.3222 72.869 56.3222L64.3603 54.3655Z" fill="#FF55CF"/>
<path d="M68.9491 60.8035C68.9066 60.8035 68.8606 60.7965 68.8146 60.7824C68.5741 60.7083 68.4361 60.4545 68.5104 60.2112L71.2098 51.3548C71.2841 51.1115 71.5388 50.9776 71.7829 51.0516C72.0235 51.1256 72.1615 51.3795 72.0872 51.6228L69.3878 60.4792C69.3276 60.6766 69.1437 60.8035 68.9491 60.8035Z" fill="#EBBC15"/>
<path d="M70.2969 60.8033C70.0563 60.8033 69.8546 60.6164 69.8405 60.3731L69.2957 51.1078C69.2815 50.8575 69.4726 50.6389 69.7273 50.6248C69.9785 50.6107 70.1978 50.801 70.212 51.0549L70.7568 60.3203C70.771 60.5706 70.5799 60.7892 70.3252 60.8033C70.3146 60.8033 70.3075 60.8033 70.2969 60.8033Z" fill="#EBBC15"/>
<path d="M72.8726 60.2461C72.7275 60.2461 72.586 60.1791 72.4975 60.0522L67.219 52.5955C67.0739 52.391 67.1235 52.1054 67.3287 51.9609C67.5374 51.8163 67.8204 51.8657 67.9655 52.0702L73.2476 59.5234C73.3926 59.7278 73.3431 60.0134 73.1379 60.158C73.0565 60.2179 72.9645 60.2461 72.8726 60.2461Z" fill="#EBBC15"/>
<path d="M74.0826 58.7549C74.0119 58.7549 73.9411 58.7373 73.8739 58.7056L65.7721 54.5735C65.5456 54.4572 65.4572 54.1822 65.5739 53.9601C65.6907 53.7344 65.9667 53.6498 66.1895 53.7626L74.2914 57.8947C74.5178 58.011 74.6062 58.286 74.4895 58.5082C74.4081 58.6668 74.2489 58.7549 74.0826 58.7549Z" fill="#EBBC15"/>
<path d="M65.9809 56.6894C65.7332 56.6894 65.528 56.492 65.5245 56.2417C65.5209 55.9878 65.719 55.7798 65.9738 55.7763L74.0756 55.6035C74.3232 55.6211 74.5391 55.7974 74.5426 56.0513C74.5461 56.3051 74.348 56.5131 74.0933 56.5167L65.9915 56.6894C65.9844 56.6894 65.9809 56.6894 65.9809 56.6894Z" fill="#EBBC15"/>
<path d="M65.9804 59.1781C65.853 59.1781 65.7257 59.1252 65.6337 59.0195C65.4674 58.8291 65.4886 58.54 65.6797 58.3743L73.1022 51.9858C73.2932 51.8201 73.5834 51.8413 73.7496 52.0317C73.9159 52.222 73.8947 52.5111 73.7036 52.6768L66.2776 59.0688C66.1927 59.1429 66.0865 59.1781 65.9804 59.1781Z" fill="#EBBC15"/>
<path d="M67.0491 60.5739C66.9536 60.5739 66.8616 60.5457 66.7803 60.4857C66.5751 60.3377 66.5326 60.0521 66.6812 59.8476L69.8158 55.571L73.849 53.2124C74.0684 53.0854 74.3478 53.1559 74.4752 53.3745C74.6026 53.5931 74.5318 53.8716 74.3125 53.9986L70.442 56.262L67.4171 60.387C67.3322 60.5104 67.1907 60.5739 67.0491 60.5739Z" fill="#EBBC15"/>
<path d="M69.3953 56.6854C69.8269 57.0133 70.5168 56.9287 70.8529 56.5056C71.189 56.0825 71.1112 55.3915 70.6937 55.0531C70.2727 54.7111 69.5828 54.7781 69.2326 55.1941C68.8823 55.6031 68.9177 56.3188 69.3953 56.6854Z" fill="#FF55CF"/>
<path d="M15.35 49.5954C15.35 49.5954 16.0257 41.7861 11.897 43.5242C11.897 43.5242 9.22234 41.7685 8.05483 42.9848C6.88732 44.1976 7.14205 45.6925 7.14205 45.6925C7.14205 45.6925 3.91194 47.0992 6.07714 49.3274C8.24234 51.5521 15.35 58.3002 15.35 58.3002V49.5954Z" fill="#FF55CF"/>
<path d="M21.9767 54.5238C21.9767 54.5238 29.3108 51.6892 25.925 48.7594C25.925 48.7594 26.3284 45.5934 24.7186 45.0857C23.1089 44.578 21.8777 45.4594 21.8777 45.4594C21.8777 45.4594 19.1853 43.1889 18.1346 46.1081C17.0838 49.0274 14.1367 58.3597 14.1367 58.3597L21.9767 54.5238Z" fill="#FF55CF"/>
<path d="M20.1269 61.4411C20.1269 61.4411 25.3347 67.3148 26.9197 63.137C26.9197 63.137 30.0402 62.4177 29.9623 60.736C29.8845 59.0578 28.6285 58.2081 28.6285 58.2081C28.6285 58.2081 29.835 54.9046 26.7216 54.9328C23.6082 54.961 13.8047 55.437 13.8047 55.437L20.1269 61.4411Z" fill="#FF55CF"/>
<path d="M11.975 61.9103C11.975 61.9103 8.97841 69.159 13.4397 68.7359C13.4397 68.7359 15.4634 71.2074 16.9422 70.4C18.4211 69.5891 18.6298 68.0907 18.6298 68.0907C18.6298 68.0907 22.1359 67.7135 20.7384 64.9423C19.341 62.1712 14.5931 53.6074 14.5931 53.6074L11.975 61.9103Z" fill="#FF55CF"/>
<path d="M8.74121 54.3655C8.74121 54.3655 1.25499 51.954 2.02625 56.354C2.02625 56.354 -0.291081 58.5575 0.635851 59.9642C1.56278 61.371 3.07701 61.4626 3.07701 61.4626C3.07701 61.4626 3.72799 64.9177 6.39203 63.3136C9.05608 61.7094 17.2499 56.3222 17.2499 56.3222L8.74121 54.3655Z" fill="#FF55CF"/>
<path d="M13.3299 60.8035C13.2875 60.8035 13.2415 60.7965 13.1955 60.7824C12.9549 60.7083 12.8169 60.4545 12.8912 60.2112L15.5907 51.3548C15.665 51.1115 15.9197 50.9776 16.1638 51.0516C16.4044 51.1256 16.5424 51.3795 16.4681 51.6228L13.7686 60.4792C13.7085 60.6766 13.5245 60.8035 13.3299 60.8035Z" fill="#EBBC15"/>
<path d="M14.6777 60.8033C14.4372 60.8033 14.2355 60.6164 14.2214 60.3731L13.6765 51.1078C13.6624 50.8575 13.8534 50.6389 14.1081 50.6248C14.3593 50.6107 14.5787 50.801 14.5928 51.0549L15.1377 60.3203C15.1518 60.5706 14.9608 60.7892 14.7061 60.8033C14.6954 60.8033 14.6884 60.8033 14.6777 60.8033Z" fill="#EBBC15"/>
<path d="M17.2534 60.2461C17.1084 60.2461 16.9668 60.1791 16.8784 60.0522L11.5998 52.5955C11.4548 52.391 11.5043 52.1054 11.7095 51.9609C11.9182 51.8163 12.2013 51.8657 12.3463 52.0702L17.6284 59.5234C17.7735 59.7278 17.724 60.0134 17.5188 60.158C17.4374 60.2179 17.3454 60.2461 17.2534 60.2461Z" fill="#EBBC15"/>
<path d="M18.4635 58.7549C18.3927 58.7549 18.322 58.7373 18.2547 58.7056L10.1529 54.5735C9.9265 54.4572 9.83806 54.1822 9.95481 53.9601C10.0716 53.7344 10.3475 53.6498 10.5704 53.7626L18.6722 57.8947C18.8986 58.011 18.9871 58.286 18.8703 58.5082C18.789 58.6668 18.6298 58.7549 18.4635 58.7549Z" fill="#EBBC15"/>
<path d="M10.3617 56.6894C10.1141 56.6894 9.90886 56.492 9.90532 56.2417C9.90178 55.9878 10.0999 55.7798 10.3546 55.7763L18.4565 55.6035C18.7041 55.6211 18.9199 55.7974 18.9235 56.0513C18.927 56.3051 18.7289 56.5131 18.4741 56.5167L10.3723 56.6894C10.3652 56.6894 10.3617 56.6894 10.3617 56.6894Z" fill="#EBBC15"/>
<path d="M10.3612 59.1781C10.2339 59.1781 10.1065 59.1252 10.0145 59.0195C9.84825 58.8291 9.86947 58.54 10.0605 58.3743L17.4831 51.9858C17.6741 51.8201 17.9642 51.8413 18.1305 52.0317C18.2968 52.222 18.2756 52.5111 18.0845 52.6768L10.6584 59.0688C10.5735 59.1429 10.4674 59.1781 10.3612 59.1781Z" fill="#EBBC15"/>
<path d="M11.43 60.5739C11.3345 60.5739 11.2425 60.5457 11.1611 60.4857C10.9559 60.3377 10.9135 60.0521 11.0621 59.8476L14.1966 55.571L18.2299 53.2124C18.4492 53.0854 18.7287 53.1559 18.8561 53.3745C18.9834 53.5931 18.9127 53.8716 18.6933 53.9986L14.8229 56.262L11.7979 60.387C11.713 60.5104 11.5715 60.5739 11.43 60.5739Z" fill="#EBBC15"/>
<path d="M13.7762 56.6854C14.2078 57.0133 14.8977 56.9287 15.2338 56.5056C15.5699 56.0825 15.492 55.3915 15.0746 55.0531C14.6536 54.7111 13.9637 54.7781 13.6134 55.1941C13.2632 55.6031 13.2985 56.3188 13.7762 56.6854Z" fill="#FF55CF"/>
<defs>
<clipPath id="clip0_13_10458">
<rect width="30.8353" height="51.0166" fill="white" transform="matrix(-0.961093 0.276224 0.276224 0.961093 35.4443 1.97461)"/>
</clipPath>
</defs>
</svg>
