<svg width="59" height="55" viewBox="0 0 59 55" fill="none" xmlns="http://www.w3.org/2000/svg">
<path d="M30.0391 13.9302C30.0391 13.9302 31.3565 -1.29426 23.3074 2.09431C23.3074 2.09431 18.093 -1.32863 15.8169 1.04268C13.5408 3.40712 14.0374 6.32143 14.0374 6.32143C14.0374 6.32143 7.74016 9.0639 11.9613 13.4079C16.1825 17.745 30.0391 30.9006 30.0391 30.9006L30.0391 13.9302Z" fill="#FF7A00"/>
<path d="M42.9582 23.539C42.9582 23.539 57.2563 18.0128 50.6556 12.3011C50.6556 12.3011 51.4419 6.12877 48.3036 5.13901C45.1654 4.14924 42.7651 5.86758 42.7651 5.86758C42.7651 5.86758 37.5163 1.44114 35.4678 7.13228C33.4193 12.8234 27.6738 31.0172 27.6738 31.0172L42.9582 23.539Z" fill="#FF7A00"/>
<path d="M39.3509 37.0245C39.3509 37.0245 49.5037 48.4755 52.5937 40.3306C52.5937 40.3306 58.6771 38.9284 58.5253 35.6498C58.3736 32.3781 55.9251 30.7216 55.9251 30.7216C55.9251 30.7216 58.277 24.2813 52.2074 24.3363C46.1378 24.3913 27.0254 25.3192 27.0254 25.3192L39.3509 37.0245Z" fill="#FF7A00"/>
<path d="M23.4589 37.9387C23.4589 37.9387 17.6169 52.0704 26.3144 51.2456C26.3144 51.2456 30.2597 56.0638 33.1428 54.4898C36.0258 52.9089 36.4328 49.9877 36.4328 49.9877C36.4328 49.9877 43.268 49.2523 40.5436 43.8498C37.8191 38.4474 28.5629 21.752 28.5629 21.752L23.4589 37.9387Z" fill="#FF7A00"/>
<path d="M17.1551 23.23C17.1551 23.23 2.56046 18.5286 4.06407 27.1066C4.06407 27.1066 -0.45366 31.4024 1.35343 34.1449C3.16052 36.8874 6.11257 37.0661 6.11257 37.0661C6.11257 37.0661 7.38167 43.802 12.5753 40.6746C17.769 37.5472 33.7431 27.0447 33.7431 27.0447L17.1551 23.23Z" fill="#FF7A00"/>
<path d="M26.1016 35.7809C26.0188 35.7809 25.9291 35.7672 25.8395 35.7397C25.3704 35.5953 25.1014 35.1005 25.2463 34.6262L30.5089 17.3603C30.6538 16.886 31.1504 16.6248 31.6263 16.7692C32.0953 16.9135 32.3643 17.4084 32.2195 17.8827L26.9568 35.1486C26.8396 35.5335 26.4809 35.7809 26.1016 35.7809Z" fill="#FFC195"/>
<path d="M28.7288 35.7804C28.2597 35.7804 27.8666 35.4161 27.839 34.9418L26.7768 16.8786C26.7492 16.3906 27.1217 15.9645 27.6183 15.937C28.108 15.9095 28.5356 16.2806 28.5632 16.7755L29.6254 34.8387C29.653 35.3267 29.2805 35.7529 28.7839 35.7804C28.7633 35.7804 28.7495 35.7804 28.7288 35.7804Z" fill="#FFC195"/>
<path d="M33.7496 34.695C33.4668 34.695 33.1909 34.5644 33.0185 34.3169L22.7277 19.7798C22.4449 19.3811 22.5415 18.8244 22.9415 18.5426C23.3485 18.2608 23.9002 18.357 24.183 18.7556L34.4807 33.2859C34.7635 33.6846 34.6669 34.2413 34.2669 34.5231C34.1082 34.64 33.9289 34.695 33.7496 34.695Z" fill="#FFC195"/>
<path d="M36.1093 31.7877C35.9713 31.7877 35.8334 31.7533 35.7023 31.6915L19.9075 23.6359C19.4661 23.4091 19.2937 22.8729 19.5213 22.4399C19.7489 22 20.2869 21.8351 20.7214 22.055L36.5162 30.1106C36.9576 30.3374 37.1301 30.8735 36.9025 31.3066C36.7438 31.6159 36.4334 31.7877 36.1093 31.7877Z" fill="#FFC195"/>
<path d="M20.3146 27.7596C19.8318 27.7596 19.4318 27.3747 19.4249 26.8867C19.418 26.3918 19.8042 25.9862 20.3009 25.9794L36.0957 25.6426C36.5785 25.6769 36.9992 26.0206 37.0061 26.5155C37.013 27.0104 36.6268 27.4159 36.1301 27.4228L20.3353 27.7596C20.3215 27.7596 20.3146 27.7596 20.3146 27.7596Z" fill="#FFC195"/>
<path d="M20.3146 32.6117C20.0663 32.6117 19.818 32.5086 19.6386 32.3024C19.3145 31.9312 19.3558 31.3676 19.7283 31.0446L34.1988 18.59C34.5713 18.267 35.1369 18.3082 35.461 18.6794C35.7852 19.0505 35.7438 19.6142 35.3714 19.9372L20.8939 32.3986C20.7284 32.543 20.5215 32.6117 20.3146 32.6117Z" fill="#FFC195"/>
<path d="M22.3975 35.3337C22.2113 35.3337 22.032 35.2787 21.8733 35.1618C21.4733 34.8732 21.3905 34.3164 21.6802 33.9178L27.7912 25.5804L35.6541 20.9821C36.0817 20.7346 36.6266 20.8721 36.8749 21.2983C37.1232 21.7244 36.9853 22.2674 36.5577 22.5148L29.012 26.9275L23.1148 34.9694C22.9493 35.21 22.6734 35.3337 22.3975 35.3337Z" fill="#FFC195"/>
<path d="M26.9698 27.753C27.8113 28.3922 29.1563 28.2273 29.8115 27.4025C30.4668 26.5777 30.315 25.2305 29.5011 24.5706C28.6804 23.9039 27.3354 24.0345 26.6526 24.8456C25.9697 25.6429 26.0387 27.0382 26.9698 27.753Z" fill="#FF7A00"/>
</svg>
