<svg width="58" height="56" viewBox="0 0 58 56" fill="none" xmlns="http://www.w3.org/2000/svg">
<path d="M29.3819 14.523C29.3819 14.523 30.6993 -0.701489 22.6501 2.68708C22.6501 2.68708 17.4358 -0.735856 15.1597 1.63546C12.8836 3.99989 13.3802 6.9142 13.3802 6.9142C13.3802 6.9142 7.08294 9.65667 11.3041 14.0006C15.5252 18.3377 29.3819 31.4934 29.3819 31.4934L29.3819 14.523Z" fill="#FF7A00"/>
<path d="M42.301 24.1318C42.301 24.1318 56.5991 18.6056 49.9984 12.8938C49.9984 12.8938 50.7847 6.72155 47.6464 5.73178C44.5082 4.74202 42.1079 6.46036 42.1079 6.46036C42.1079 6.46036 36.859 2.03391 34.8105 7.72506C32.7621 13.4162 27.0166 31.61 27.0166 31.61L42.301 24.1318Z" fill="#FF7A00"/>
<path d="M38.6936 37.6173C38.6936 37.6173 48.8465 49.0683 51.9364 40.9234C51.9364 40.9234 58.0199 39.5212 57.8681 36.2426C57.7164 32.9709 55.2678 31.3144 55.2678 31.3144C55.2678 31.3144 57.6198 24.8741 51.5502 24.9291C45.4806 24.984 26.3682 25.912 26.3682 25.912L38.6936 37.6173Z" fill="#FF7A00"/>
<path d="M22.8017 38.5315C22.8017 38.5315 16.9597 52.6631 25.6572 51.8383C25.6572 51.8383 29.6025 56.6566 32.4855 55.0826C35.3686 53.5017 35.7755 50.5805 35.7755 50.5805C35.7755 50.5805 42.6108 49.8451 39.8863 44.4426C37.1619 39.0401 27.9057 22.3447 27.9057 22.3447L22.8017 38.5315Z" fill="#FF7A00"/>
<path d="M16.4979 23.8228C16.4979 23.8228 1.90323 19.1214 3.40684 27.6993C3.40684 27.6993 -1.11089 31.9952 0.696206 34.7377C2.5033 37.4801 5.45534 37.6588 5.45534 37.6588C5.45534 37.6588 6.72444 44.3947 11.9181 41.2674C17.1118 38.14 33.0859 27.6375 33.0859 27.6375L16.4979 23.8228Z" fill="#FF7A00"/>
<path d="M25.4443 36.3737C25.3616 36.3737 25.2719 36.3599 25.1822 36.3324C24.7132 36.1881 24.4442 35.6932 24.5891 35.219L29.8517 17.9531C29.9965 17.4788 30.4931 17.2176 30.9691 17.362C31.4381 17.5063 31.7071 18.0012 31.5622 18.4754L26.2996 35.7413C26.1823 36.1262 25.8237 36.3737 25.4443 36.3737Z" fill="#FFC195"/>
<path d="M28.0715 36.3732C27.6025 36.3732 27.2094 36.0089 27.1818 35.5346L26.1196 17.4714C26.092 16.9834 26.4645 16.5572 26.9611 16.5298C27.4508 16.5023 27.8784 16.8734 27.906 17.3683L28.9682 35.4315C28.9958 35.9195 28.6233 36.3457 28.1267 36.3732C28.106 36.3732 28.0922 36.3732 28.0715 36.3732Z" fill="#FFC195"/>
<path d="M33.0924 35.2878C32.8096 35.2878 32.5337 35.1572 32.3612 34.9097L22.0705 20.3725C21.7877 19.9739 21.8842 19.4171 22.2843 19.1353C22.6912 18.8535 23.243 18.9498 23.5258 19.3484L33.8235 33.8787C34.1063 34.2774 34.0097 34.8341 33.6097 35.1159C33.451 35.2328 33.2717 35.2878 33.0924 35.2878Z" fill="#FFC195"/>
<path d="M35.452 32.3805C35.3141 32.3805 35.1762 32.3461 35.0451 32.2842L19.2503 24.2287C18.8089 24.0018 18.6364 23.4657 18.864 23.0327C19.0917 22.5928 19.6296 22.4278 20.0642 22.6478L35.859 30.7034C36.3004 30.9302 36.4728 31.4663 36.2452 31.8993C36.0866 32.2086 35.7762 32.3805 35.452 32.3805Z" fill="#FFC195"/>
<path d="M19.6574 28.3523C19.1746 28.3523 18.7746 27.9674 18.7677 27.4794C18.7608 26.9845 19.147 26.579 19.6436 26.5721L35.4384 26.2354C35.9212 26.2697 36.342 26.6134 36.3489 27.1083C36.3558 27.6032 35.9695 28.0087 35.4729 28.0156L19.6781 28.3523C19.6643 28.3523 19.6574 28.3523 19.6574 28.3523Z" fill="#FFC195"/>
<path d="M19.6573 33.2045C19.409 33.2045 19.1607 33.1014 18.9814 32.8952C18.6572 32.524 18.6986 31.9604 19.0711 31.6373L33.5416 19.1828C33.9141 18.8597 34.4796 18.901 34.8038 19.2721C35.128 19.6433 35.0866 20.2069 34.7141 20.53L20.2367 32.9914C20.0712 33.1357 19.8643 33.2045 19.6573 33.2045Z" fill="#FFC195"/>
<path d="M21.7403 35.9264C21.5541 35.9264 21.3747 35.8715 21.2161 35.7546C20.816 35.4659 20.7333 34.9092 21.023 34.5105L27.134 26.1731L34.9969 21.5749C35.4245 21.3274 35.9694 21.4649 36.2177 21.891C36.466 22.3172 36.3281 22.8602 35.9004 23.1076L28.3548 27.5203L22.4576 35.5622C22.2921 35.8027 22.0162 35.9264 21.7403 35.9264Z" fill="#FFC195"/>
<path d="M26.3126 28.3458C27.1541 28.985 28.499 28.8201 29.1543 27.9952C29.8095 27.1704 29.6578 25.8233 28.8439 25.1634C28.0231 24.4967 26.6782 24.6273 25.9953 25.4384C25.3125 26.2357 25.3815 27.631 26.3126 28.3458Z" fill="#FF7A00"/>
</svg>
