<svg width="59" height="56" viewBox="0 0 59 56" fill="none" xmlns="http://www.w3.org/2000/svg">
<path d="M29.8458 14.6353C29.8458 14.6353 31.1632 -0.589184 23.114 2.79938C23.114 2.79938 17.8996 -0.623552 15.6235 1.74776C13.3474 4.1122 13.844 7.0265 13.844 7.0265C13.844 7.0265 7.5468 9.76898 11.768 14.1129C15.9891 18.45 29.8458 31.6057 29.8458 31.6057V14.6353Z" fill="#FF0C63"/>
<path d="M42.7649 24.2441C42.7649 24.2441 57.063 18.7179 50.4623 13.0061C50.4623 13.0061 51.2486 6.83385 48.1103 5.84409C44.972 4.85432 42.5718 6.57266 42.5718 6.57266C42.5718 6.57266 37.3229 2.14621 35.2744 7.83736C33.2259 13.5285 27.4805 31.7223 27.4805 31.7223L42.7649 24.2441Z" fill="#FF0C63"/>
<path d="M39.1575 37.7296C39.1575 37.7296 49.3103 49.1806 52.4003 41.0357C52.4003 41.0357 58.4837 39.6335 58.332 36.3549C58.1802 33.0832 55.7317 31.4267 55.7317 31.4267C55.7317 31.4267 58.0837 24.9864 52.0141 25.0414C45.9444 25.0964 26.832 26.0243 26.832 26.0243L39.1575 37.7296Z" fill="#FF0C63"/>
<path d="M23.2656 38.6438C23.2656 38.6438 17.4236 52.7754 26.1211 51.9506C26.1211 51.9506 30.0663 56.7689 32.9494 55.1949C35.8325 53.614 36.2394 50.6928 36.2394 50.6928C36.2394 50.6928 43.0746 49.9574 40.3502 44.5549C37.6258 39.1524 28.3696 22.457 28.3696 22.457L23.2656 38.6438Z" fill="#FF0C63"/>
<path d="M16.9618 23.9351C16.9618 23.9351 2.3671 19.2337 3.87071 27.8116C3.87071 27.8116 -0.647019 32.1075 1.16007 34.85C2.96717 37.5924 5.91921 37.7711 5.91921 37.7711C5.91921 37.7711 7.18831 44.507 12.382 41.3797C17.5756 38.2523 33.5498 27.7498 33.5498 27.7498L16.9618 23.9351Z" fill="#FF0C63"/>
<path d="M25.9082 36.486C25.8254 36.486 25.7358 36.4722 25.6461 36.4448C25.1771 36.3004 24.9081 35.8055 25.0529 35.3313L30.3156 18.0654C30.4604 17.5911 30.957 17.3299 31.4329 17.4743C31.9019 17.6186 32.1709 18.1135 32.0261 18.5877L26.7635 35.8536C26.6462 36.2386 26.2875 36.486 25.9082 36.486Z" fill="#FFB6B6"/>
<path d="M28.5354 36.4855C28.0664 36.4855 27.6732 36.1212 27.6457 35.6469L26.5835 17.5837C26.5559 17.0957 26.9283 16.6696 27.4249 16.6421C27.9146 16.6146 28.3423 16.9857 28.3699 17.4806L29.4321 35.5438C29.4596 36.0318 29.0872 36.458 28.5906 36.4855C28.5699 36.4855 28.5561 36.4855 28.5354 36.4855Z" fill="#FFB6B6"/>
<path d="M33.5572 35.4001C33.2744 35.4001 32.9985 35.2695 32.8261 35.022L22.5353 20.4849C22.2525 20.0862 22.3491 19.5295 22.7491 19.2476C23.1561 18.9658 23.7079 19.0621 23.9906 19.4607L34.2883 33.991C34.5711 34.3897 34.4745 34.9464 34.0745 35.2282C33.9159 35.3451 33.7365 35.4001 33.5572 35.4001Z" fill="#FFB6B6"/>
<path d="M35.9159 32.4928C35.778 32.4928 35.64 32.4584 35.509 32.3965L19.7142 24.341C19.2727 24.1141 19.1003 23.578 19.3279 23.145C19.5555 22.7051 20.0935 22.5401 20.528 22.7601L36.3229 30.8157C36.7643 31.0425 36.9367 31.5786 36.7091 32.0116C36.5505 32.3209 36.2401 32.4928 35.9159 32.4928Z" fill="#FFB6B6"/>
<path d="M20.1213 28.4647C19.6385 28.4647 19.2384 28.0797 19.2315 27.5917C19.2246 27.0969 19.6109 26.6913 20.1075 26.6845L35.9023 26.3477C36.3851 26.382 36.8058 26.7257 36.8127 27.2206C36.8196 27.7155 36.4334 28.121 35.9368 28.1279L20.142 28.4647C20.1282 28.4647 20.1213 28.4647 20.1213 28.4647Z" fill="#FFB6B6"/>
<path d="M20.1202 33.3168C19.8719 33.3168 19.6236 33.2137 19.4443 33.0075C19.1201 32.6363 19.1615 32.0727 19.534 31.7496L34.0045 19.2951C34.3769 18.9721 34.9425 19.0133 35.2667 19.3845C35.5909 19.7556 35.5495 20.3192 35.177 20.6423L20.6996 33.1037C20.5341 33.248 20.3272 33.3168 20.1202 33.3168Z" fill="#FFB6B6"/>
<path d="M22.2042 36.0388C22.0179 36.0388 21.8386 35.9838 21.68 35.8669C21.2799 35.5782 21.1971 35.0215 21.4868 34.6228L27.5978 26.2854L35.4608 21.6872C35.8884 21.4397 36.4333 21.5772 36.6816 22.0033C36.9299 22.4295 36.7919 22.9725 36.3643 23.2199L28.8187 27.6326L22.9215 35.6745C22.7559 35.915 22.48 36.0388 22.2042 36.0388Z" fill="#FFB6B6"/>
<path d="M26.7765 28.4581C27.6179 29.0973 28.9629 28.9324 29.6182 28.1076C30.2734 27.2827 30.1217 25.9356 29.3078 25.2757C28.487 24.609 27.142 24.7396 26.4592 25.5507C25.7764 26.348 25.8453 27.7433 26.7765 28.4581Z" fill="#FF0C63"/>
</svg>
