<svg width="323" height="489" viewBox="0 0 323 489" fill="none" xmlns="http://www.w3.org/2000/svg">
<path d="M13.3857 391.354C10.1515 392.635 9.36619 390.321 9.0252 388.068C4.04471 354.496 -0.977117 320.904 7.1446 287.105C9.95948 275.911 14.2839 265.152 19.9988 255.124C23.9667 247.974 31.1791 244.605 38.1229 241.164C51.5282 234.531 64.992 228.007 78.5145 221.594C79.6859 221.102 80.7209 220.334 81.5307 219.355C82.3405 218.376 82.901 217.215 83.1643 215.973C85.038 208.636 87.0082 201.327 89.0748 194.046C89.6327 192.093 89.6947 190.429 88.4134 188.714C87.6768 187.551 87.0473 186.323 86.5328 185.046C82.751 177.493 80.0024 169.35 68.9668 169.154C64.0173 169.061 59.4398 165.382 55.2963 162.251C47.7015 156.517 43.7853 149.222 45.9966 139.395C46.8336 135.737 46.3789 133.195 42.3284 130.684C34.6406 125.817 25.9093 122.717 18.9655 116.631C12.0218 110.545 6.31796 104.056 2.89775 95.5314C-0.997782 85.7874 4.39603 73.3465 15.69 66.9814C20.6291 64.2121 25.8783 61.9906 31.0344 59.6036C32.4604 58.9423 33.5764 58.4153 34.1343 56.6071C39.3008 39.7023 49.6338 32.4589 67.5822 32.5932C77.4295 32.6759 87.2148 33.2236 96.7522 35.6931C99.1701 36.3234 101.195 35.4451 103.241 34.7528C112.728 31.6443 122.448 29.2982 132.308 27.7367C133.775 27.4991 135.315 27.5404 136.503 26.1455C143.397 18.1575 152.5 12.3873 162.666 9.56104C176.171 5.58285 189.842 2.06964 203.998 1.02601C220.531 -0.193285 234.48 4.89054 245.061 17.9411C246.425 19.6357 247.882 19.7184 249.546 19.6357C266.502 18.8194 275.172 35.0732 271.731 49.1777C268.548 62.1765 265.676 75.0824 257.709 85.9114C249.959 96.2307 241.014 105.596 231.06 113.81C227.826 116.518 226.266 118.894 228.022 123.368C231.752 132.854 232.093 142.216 224.199 150.162C222.225 152.156 223.693 153.417 224.695 155.018C241.724 182.104 258.725 209.198 275.699 236.298C277.176 238.653 278.705 240.978 276.97 243.872L277.135 243.706C274.035 244.74 272.309 242.942 270.842 240.606C255.684 216.221 240.412 191.897 225.377 167.408C218.247 155.773 218.464 155.597 206.003 161.011C200.64 163.336 195.391 165.889 189.584 167.056C185.988 167.78 185.45 170.941 185.554 173.907C185.884 180.427 186.732 186.937 187.031 193.457C187.496 203.79 193.82 209.287 202.655 212.428C209.268 214.784 216.15 216.386 222.907 218.359C227.733 219.765 232.104 222.203 236.464 224.632C238.448 225.737 240.38 227.411 238.82 230.036C237.384 232.433 235.224 231.493 233.364 230.47C224.695 225.686 215.22 223.237 205.724 220.808C200.401 219.386 195.393 216.978 190.958 213.71C185.213 209.576 181.772 203.955 181.555 196.733C181.4 191.246 181.555 185.749 181.555 179.704C178.713 181.45 177.907 184.302 176.388 186.544C171.656 193.416 166.624 199.884 158.109 202.426C155.665 203.306 153.038 203.552 150.473 203.139C144.914 202.06 139.18 202.287 133.724 203.8C124.826 205.891 115.571 205.941 106.651 203.945C107.901 213.586 101.981 218.721 94.6029 221.842C88.5478 224.404 86.3365 228.723 84.8176 234.458C78.6178 258.441 73.4513 282.693 67.9438 306.789C64.3479 322.371 58.6441 337.426 56.2986 353.287C55.4823 358.712 55.1826 364.271 53.1987 369.469C52.496 371.287 53.1987 371.856 54.9656 372.155C59.2435 372.889 61.3101 376.289 62.643 379.802C69.8761 399.124 73.038 418.654 65.0816 438.7C64.131 441.066 63.9036 443.722 63.232 446.202C62.7773 447.865 62.085 449.952 60.0598 449.57C58.0345 449.188 57.7968 447.028 57.9932 445.303C58.3755 442.203 58.6131 439.041 59.7291 436.22C66.0736 420.152 64.6166 404.188 59.4915 388.223C58.712 385.418 57.7771 382.658 56.6912 379.957C55.9369 378.293 54.418 376.278 52.2894 377.725C50.3261 379.058 50.5948 381.31 51.9587 383.212C53.3227 385.113 54.8313 387.066 56.2882 388.978C61.1654 395.322 60.4214 401.832 56.4019 408.104C55.3169 409.778 55.4513 411.276 55.2653 412.909C54.8726 416.308 55.0896 419.987 51.8864 422.281C50.0058 423.634 51.2767 425.122 51.4524 426.414C51.9484 430.289 50.9771 432.696 46.9679 434.463C43.1964 436.117 41.1814 440.663 36.5419 441.614C33.7107 442.223 31.0241 443.515 28.0275 443.329C25.8266 443.195 22.9747 443.329 22.9437 440.322C22.9437 437.615 25.6406 437.511 27.6452 437.449C30.5601 437.27 33.4193 436.57 36.0873 435.383C39.4351 434.06 38.9495 432.51 36.9862 430.526C34.3617 427.891 31.0344 426.517 27.5729 425.36C26.3226 424.936 24.5557 424.595 24.8863 422.818C25.217 421.041 27.0252 421.578 28.3065 421.681C33.1764 421.936 37.7611 424.056 41.1091 427.602C42.2457 428.801 43.3307 429.989 44.9943 428.759C46.6579 427.53 45.6039 425.897 44.9943 424.564C41.5637 416.711 33.814 414.335 27.1182 410.635C26.2193 410.139 25.1756 409.902 24.2767 409.416C23.233 408.827 22.1997 407.97 22.7371 406.585C23.2744 405.2 24.6073 405.397 25.837 405.738C34.0207 408.032 41.8841 410.904 47.2985 418.003C47.8875 418.778 48.1872 419.945 49.4788 419.945C52.1137 414.603 51.3284 408.693 46.9059 404.591C38.9495 397.203 29.3398 395.684 19.0069 397.657C18.1906 397.812 16.8679 398.205 16.7646 398.69C15.535 404.456 9.9345 408.714 10.8955 415.151C11.4243 418.031 11.3292 420.991 10.6165 423.831C9.67769 426.803 9.52403 429.967 10.1704 433.017C10.8168 436.066 12.2413 438.896 14.3054 441.231C17.4052 444.92 20.4431 448.64 23.605 452.288C24.8347 453.714 26.7979 455.026 25.3203 457.072C23.698 459.335 21.3008 458.653 19.2755 457.526C15.38 455.367 13.4167 451.327 10.4822 448.227C9.91384 447.627 9.39719 446.987 8.76688 446.264C4.15837 458.746 6.93794 466.289 17.8702 472.695C22.8197 475.599 27.7796 478.099 33.5763 478.781C36.6694 479.167 39.5934 480.409 42.0184 482.367C43.248 483.338 44.6533 484.434 43.93 486.19C43.7689 486.597 43.5283 486.967 43.2222 487.28C42.9162 487.592 42.5508 487.84 42.1475 488.01C41.7443 488.179 41.3113 488.266 40.8739 488.266C40.4365 488.266 40.0036 488.178 39.6005 488.009C27.8416 484.434 15.6693 481.809 6.3593 472.757C0.986149 467.518 -0.0884806 461.288 0.758823 454.344C0.999789 452.64 1.34487 450.953 1.79212 449.291C3.05274 444.052 3.92071 439.134 3.06308 433.378C1.89146 425.41 2.32002 417.289 4.3237 409.488C6.14722 402.923 9.21679 396.77 13.3651 391.364C15.8829 390.85 18.4351 390.522 21.0011 390.383C24.6177 390.383 26.5293 389.04 28.5649 385.878C31.4478 381.403 35.7153 377.787 41.7291 378.107C44.364 378.242 45.1079 377.074 45.7796 374.739C47.917 366.939 49.4985 358.997 50.5121 350.973C52.5787 335.205 58.2412 320.305 61.7027 304.877C66.7142 282.558 71.1987 260.125 76.8922 237.961C77.4812 235.647 78.6694 233.27 77.7705 230.036C62.4983 237.775 47.5879 245.225 32.7807 252.872C30.0159 254.335 27.7657 256.611 26.3329 259.392C21.3628 269.032 17.0333 278.952 14.4397 289.533C9.28353 310.736 10.0172 332.229 11.8668 353.701C12.7657 364.137 14.5017 374.501 15.7313 384.917C16 387.304 16.7336 390.155 13.3857 391.354ZM237.725 20.3073C231.442 11.6586 223.383 7.68044 213.814 6.65748C196.248 4.77688 179.798 10.3877 163.183 14.6552C155.206 16.7218 148.52 21.5163 141.814 26.2798C148.317 25.8138 154.848 25.9175 161.333 26.5898C167.853 27.1478 174.88 26.5898 180.677 29.204C189.418 33.2132 196.827 29.8757 204.69 27.5508C206.829 26.9204 208.979 26.3315 211.097 25.6701C219.611 23.0146 228.394 21.6713 237.725 20.3073ZM134.251 116.58C146.154 117.076 160.486 106.546 163.617 96.0687C164.288 93.7954 163.534 92.7415 162.077 91.2432C156.229 85.2294 150.711 78.916 144.955 72.7885C142.259 69.8953 141.008 69.5853 138.032 71.6106C126.005 79.8149 122.802 92.6485 120.218 105.709C119.113 111.248 125.447 115.009 129.136 116.042C130.821 116.374 132.533 116.554 134.251 116.58ZM127.327 53.0112C122.977 51.8952 119.206 51.2029 115.703 53.0112C108.191 56.7931 100.834 60.8539 94.5306 66.6714C83.7016 76.7874 76.4479 89.4453 69.0804 102.113C67.5615 104.717 68.8738 105.999 70.5374 107.218C75.7039 110.959 80.953 114.451 86.0369 118.254C87.9691 119.669 88.5271 118.481 89.6017 117.22C94.0759 111.888 95.0885 105.74 96.1942 98.9309C98.6741 83.7415 107.56 71.5899 118.637 61.1019C121.396 58.4567 124.166 55.9561 127.327 53.0319V53.0112ZM98.7361 52.8562C90.1287 53.2695 82.2033 53.3212 74.4226 54.0858C61.744 55.3258 53.0333 64.4188 42.8864 70.7012C41.6361 71.4762 42.0907 72.6645 42.597 73.9045C46.4351 83.5402 52.5553 92.1 60.4318 98.8483C62.829 100.915 63.6866 100.657 65.1229 97.9286C70.7027 87.2753 76.9645 76.994 85.0449 68.0147C89.3641 63.1685 95.0472 59.583 98.7361 52.8769V52.8562ZM250.321 25.4428C252.666 32.9032 253.824 40.343 252.191 48.1754C249.962 59.3659 245.158 69.8836 238.159 78.8953C232.352 86.3557 226.4 93.7128 220.18 100.832C216.728 104.779 220.459 106.743 221.915 109.202C223.837 112.457 225.129 109.016 226.142 108.169C232.279 103.167 237.508 97.2053 243.119 91.6359C257.11 77.7793 263.361 60.4406 265.851 41.4899C266.129 39.3617 265.922 37.1982 265.248 35.1607C264.573 33.1232 263.448 31.2641 261.955 29.7219C260.463 28.1796 258.641 26.9939 256.627 26.253C254.613 25.5122 252.457 25.2352 250.321 25.4428ZM212.213 83.3075C215.044 79.3809 217.493 76.2811 219.56 72.9642C220.693 71.0624 221.648 69.0596 222.411 66.9814C226.018 58.1157 222.411 49.591 213.566 46.4291C208.594 44.5532 203.493 43.0338 198.305 41.8826C192.911 40.8493 187.248 38.7104 182.01 42.7816C178.641 45.3958 175.159 47.8757 170.106 51.6162C180.294 53.2489 189.026 55.0985 196.3 60.7816C203.574 66.4647 208.379 74.2145 212.213 83.3075ZM200.63 35.7758C206.354 37.5014 212.078 39.196 217.782 40.9423C224.509 43.0089 228.487 47.4211 229.562 54.4578C229.81 56.0904 229.562 58.3843 231.194 59.118C234.997 60.8126 236.495 64.1398 238.324 68.5313C245.309 55.6048 249.897 43.2362 245.557 29.1317C245.288 27.8588 244.535 26.7399 243.458 26.0097C242.381 25.2795 241.064 24.9949 239.781 25.2155C238.076 25.3602 236.402 25.8355 234.708 26.1041C222.969 27.81 211.509 31.0694 200.63 35.7965V35.7758ZM137.784 162.975C144.583 161.466 150.98 159.751 156.962 156.465C169.899 149.356 182.795 142.247 194.461 133.071C196.434 131.511 199.1 130.756 196.6 127.223C194.223 123.875 192.466 125.383 190.4 127.099C178.997 136.631 165.144 142.765 150.422 144.799C142.445 145.956 134.54 147.641 126.656 149.335C125.044 149.676 121.82 149.077 122.058 151.164C122.399 154.181 122.554 158.346 125.612 159.782C129.404 161.58 133.796 162.045 137.784 162.995V162.975ZM36.3663 76.4464C30.9001 82.7702 27.9345 89.8793 29.2468 96.8127C31.3134 107.983 36.8829 117.82 47.2365 123.957C48.8382 124.908 50.5948 126.086 52.5064 125.611C55.4203 124.887 59.9151 108.148 57.6728 106.226C48.2905 98.1973 40.5614 88.9906 36.3663 76.4464ZM135.315 197.26C129.177 190.15 125.581 182.432 122.812 174.289C122.275 172.688 121.21 172.336 119.712 172.295C116.457 172.192 113.202 171.882 109.958 171.747C100.493 171.334 100.503 171.355 98.9531 180.468C98.7037 182.518 98.2995 184.545 97.7441 186.534C96.8865 189.117 97.9094 190.481 99.8107 192.134C110.371 201.01 122.244 199.77 135.315 197.26ZM176.368 169.629C166.551 170.197 157.872 171.406 149.202 170.662C143.417 170.087 137.58 170.306 131.853 171.313C130.097 171.644 128.33 171.634 129.373 174.413C131.843 180.892 134.705 187.123 139.479 192.258C140.874 193.757 142.269 195.245 144.8 194.325C157.83 189.82 166.603 180.014 176.368 169.629ZM30.5591 117.768C28.8645 114.11 27.6866 111.692 26.6016 109.243C23.5017 102.351 21.7864 95.4384 24.597 87.8747C26.6016 82.4912 28.7922 77.273 33.07 73.4085C36.0976 70.6393 34.3823 67.6427 33.2457 65.4728C32.2124 63.4785 29.9495 65.8344 28.4099 66.5061C24.7581 68.0108 21.2156 69.7682 17.8082 71.7655C9.66585 76.6634 4.81968 84.9607 7.07227 91.6152C10.9575 103.147 19.3685 110.886 30.5591 117.768ZM182.154 113.077C178.61 108.944 175.086 104.697 171.47 100.564C169.941 98.8069 168.918 98.4969 167.585 101.256C164.064 108.468 158.269 114.321 151.093 117.914C143.917 121.507 135.758 122.639 127.875 121.136C127.121 121.002 126.232 120.455 125.653 121.405C126.18 125.538 130.551 126.572 132.122 129.796C133.693 133.019 135.79 132.895 138.539 131.862C140.13 131.242 141.825 130.829 143.457 130.343C157.386 125.879 170.819 120.3 182.154 113.077ZM159.752 68.645C167.678 74.3488 170.912 81.3855 170.86 89.9412C170.86 92.1112 172.09 93.4545 173.495 94.7151C177.825 98.6209 182.206 102.475 186.546 106.371C187.693 107.404 188.612 108.727 190.472 107.456C192.332 106.185 193.097 105.007 192.415 102.723C190.948 97.8046 189.914 92.7415 188.344 87.854C183.973 74.2145 175.489 68.2523 159.752 68.5933V68.645ZM39.6728 56.0181C68.4811 49.8183 84.1976 44.5588 90.0461 39.0824C86.6362 38.5554 83.4639 37.8011 80.2607 37.6254C69.4628 37.0364 58.5615 35.8895 48.6315 41.9859C46.099 43.4072 43.9564 45.4315 42.3936 47.8793C40.8309 50.3271 39.8963 53.1226 39.6728 56.0181ZM79.8267 135.83C82.3893 136.109 82.3893 136.109 83.309 133.515C85.6339 126.902 85.3756 126.179 79.2688 122.304C77.3985 121.116 75.7762 119.442 73.8026 118.481C70.2584 116.766 67.0965 111.176 63.697 113.314C60.7521 115.164 60.1734 120.796 58.6338 124.794C58.1378 126.096 58.0035 127.305 59.5534 128.339C65.7326 132.43 72.077 135.964 79.8267 135.83ZM51.3904 141.616C51.0276 143.968 51.2435 146.372 52.0196 148.621C52.7956 150.87 54.1083 152.895 55.8439 154.522C60.2974 159.038 65.7946 161.755 71.6844 163.739C73.3066 164.297 75.2389 165.279 76.5408 164.008C77.8428 162.737 75.8072 161.342 75.6109 159.875C75.3258 158.716 75.2213 157.521 75.3009 156.331C75.8382 153.231 74.4846 152.197 71.643 151.495C65.8152 150.007 60.8761 146.99 58.3548 141.162C57.2595 138.651 56.5879 135.293 53.1883 135.995C50.0988 136.636 52.465 140.077 51.3904 141.616ZM109.741 97.753C107.426 100.636 105.608 102.919 103.83 105.1C102.187 107.073 100.172 108.851 100.462 111.775C100.754 116.405 101.537 120.991 102.797 125.456C103.438 127.593 104.867 129.407 106.796 130.529C110.133 132.596 111.57 132.451 111.394 128.039C111.156 121.839 111.394 115.639 111.177 109.44C111.063 105.916 111.477 102.258 109.741 97.753ZM199.121 98.8689C204.876 93.8988 204.887 93.8988 199.989 88.6083C199.297 87.854 198.491 87.203 197.798 86.4384C196.372 84.8781 193.572 83.1008 195.566 81.0549C197.406 79.1743 199.7 81.5715 201.229 83.0181C203.228 85.1449 205.108 87.3802 206.86 89.7139C207.491 78.0893 194.874 63.0239 184.851 61.7426C192.942 72.7988 193.779 86.4384 199.121 98.8689ZM191.795 144.148C181.958 152.414 169.61 156.351 158.357 163.894C167.326 164.649 174.973 162.644 182.733 161.735C183.416 161.714 184.08 161.503 184.65 161.125C185.219 160.747 185.672 160.217 185.957 159.596C188.292 154.698 190.627 149.79 191.795 144.148ZM149.192 56.0078C143.395 55.0365 138.301 51.7299 134.375 54.9745C126.563 61.6496 122.574 71.2076 118.296 80.4142C127.524 71.5072 138.053 64.3981 149.192 56.0078ZM192.064 159.885C199.297 156.982 205.496 154.512 211.613 152.063C214.042 151.092 212.874 149.697 211.996 148.447C209.723 145.212 207.305 142.092 205.124 138.806C203.295 136.068 202.128 135.923 200.805 139.199C198.181 145.708 195.349 152.146 192.064 159.885ZM176.161 39.196C161.55 38.9997 147.229 39.878 133.61 46.1708C148.107 46.1708 163.224 50.9653 176.161 39.196ZM224.726 136.14C224.375 132.337 224.189 129.072 223.693 125.807C223.527 124.681 223.455 122.449 221.45 123.265C216.78 125.156 212.326 128.091 209.609 132.017C207.873 134.538 212.295 137.266 213.742 140.005C214.834 141.747 216.028 143.424 217.317 145.026C218.247 146.339 219.146 146.39 220.149 145.13C222.494 142.329 224.53 139.385 224.726 136.14ZM170.995 32.8102C160.388 30.7453 149.523 30.3617 138.797 31.6736C131.13 32.7069 123.525 33.9262 118.606 41.0456C119.668 41.8301 120.927 42.3044 122.242 42.4157C123.558 42.527 124.878 42.2709 126.056 41.6759C128.417 40.6534 130.832 39.76 133.29 38.9997C145.465 35.0073 158.182 32.906 170.995 32.7689V32.8102ZM86.4502 153.086V153.169C85.2607 153.272 84.0645 153.272 82.875 153.169C78.0701 152.28 78.2975 154.946 79.2171 158.18C80.736 163.522 84.3836 165.413 89.7877 165.486C95.1919 165.558 97.8371 163.925 97.6305 157.86C97.4961 154.037 94.0346 153.055 90.542 153.107C89.1781 153.107 87.8141 153.086 86.4502 153.086ZM172.824 126.282C156.797 132.906 140.667 139.002 123.411 141.492C122.016 141.699 119.516 141.265 119.681 143.187C119.898 145.626 122.419 144.685 123.907 144.417C131.998 142.949 140.027 141.11 148.148 139.788C158.047 138.176 165.012 131.552 172.824 126.282ZM53.4983 404.549C56.6602 396.789 52.2997 392.274 48.4972 387.779C44.364 382.912 41.0471 382.881 36.1803 386.88C33.5247 389.071 32.76 390.476 36.8519 391.85C43.7472 393.944 49.657 398.452 53.4983 404.549ZM218.33 115.019C217.756 112.583 216.489 110.365 214.682 108.634C213.887 107.807 213.184 108.706 212.564 109.274C208.875 112.622 205.248 116.042 201.487 119.308C199.834 120.744 200.278 121.963 201.487 123.203C202.696 124.443 203.078 126.944 205.331 125.404C209.464 122.604 213.349 119.525 217.297 116.507C217.722 116.073 218.071 115.57 218.33 115.019ZM115.362 110.938C115.692 115.898 116.002 120.847 116.395 125.807C117.149 136.564 117.16 136.564 127.637 134.166C127.885 134.115 128.051 133.712 128.495 133.195C122.719 126.768 119.164 119.029 115.362 110.938ZM100.203 100.605C111.725 92.3385 112.51 79.5463 117.821 69.1823C109.09 77.6967 103.768 88.0503 100.203 100.595V100.605ZM90.3354 216.262C99.7384 212.625 101.702 209.752 101.144 202.498C100.875 199.305 98.3021 198.427 96.2252 197.136C95.2642 196.536 94.9542 197.88 94.7579 198.665C93.3319 204.276 91.9267 209.886 90.3354 216.262ZM213.422 93.4235C227.619 83.1731 233.364 73.9251 229.893 66.4131C225.956 76.6944 219.095 84.6404 213.422 93.4235ZM84.8589 46.6358L84.9726 47.917C91.41 47.5141 97.8474 47.0904 104.285 46.7184C105.067 46.751 105.833 46.4954 106.439 46.0001C107.045 45.5049 107.447 44.8045 107.571 44.0318C107.767 42.0686 105.649 42.6059 104.471 42.1719C96.8968 39.1857 91.286 44.6208 84.8589 46.6358ZM62.2504 138.754C66.2182 145.119 72.4697 146.897 79.3308 147.289C80.6327 147.362 82.7303 148.912 83.1746 146.618C83.5776 144.551 82.7303 142.65 79.9404 142.35C73.9783 141.72 68.2228 140.036 62.2504 138.754ZM96.6798 143.28C94.6132 143.28 92.371 143.28 90.1494 143.28C88.6924 143.28 86.4502 141.813 86.5018 144.995C86.5018 147.61 88.2481 148.095 90.3664 147.827C97.1861 147.134 104.006 146.452 110.815 145.698C111.849 145.584 113.636 145.822 113.223 143.962C112.861 142.381 111.156 142.929 110.123 143.032C105.68 143.796 101.148 143.88 96.6798 143.28ZM164.309 86.6864C162.666 76.5084 152.778 67.715 145.906 69.9573C152.655 74.818 158.829 80.4304 164.309 86.6864ZM118.844 165.589L119.133 164.225C114.194 162.406 109.224 160.681 104.326 158.749C101.371 157.591 101.567 159.916 101.371 161.373C101.175 162.83 99.6144 165.506 103.035 165.558C108.294 165.672 113.564 165.589 118.834 165.589H118.844ZM160.796 54.2925C163.503 56.8137 162.863 61.7219 166.51 62.9515C169.837 64.0881 173.578 64.0571 177.132 64.5325C172.514 59.459 167.368 55.7908 160.786 54.2925H160.796ZM88.4651 129.258C89.2401 131.996 84.7556 135.138 88.9404 136.378C93.3319 137.669 98.2401 137.06 102.993 137.277L103.241 135.985C98.1574 134.569 93.8796 131.459 88.4858 129.258H88.4651ZM101.03 152.342C106.486 155.297 113.285 157.044 117.129 156.62C115 149.645 117.263 149.935 101.051 152.342H101.03ZM91.813 182.473C95.6775 171.747 95.2952 171.107 85.6132 171.892C87.0342 175.764 89.1413 179.348 91.8337 182.473H91.813ZM54.232 58.3533L53.8083 57.444C49.6751 58.7667 45.4386 60.048 41.2744 61.4326C39.3112 62.0836 39.3422 63.7782 39.9001 65.2558C40.7578 67.5187 42.1527 65.9481 43.1447 65.3384C46.8749 63.0858 50.5328 60.6989 54.232 58.3533ZM145.358 64.7288C148.397 65.2484 151.513 65.0896 154.482 64.2638C155.578 64.0468 157.128 64.5221 157.665 63.2305C158.202 61.9389 156.694 61.2672 155.981 60.4199C155.788 60.1398 155.537 59.9043 155.246 59.7294C154.954 59.5545 154.628 59.4442 154.29 59.406C153.952 59.3678 153.61 59.4026 153.287 59.508C152.963 59.6134 152.666 59.7869 152.416 60.017C150.391 61.4119 148.334 62.7449 145.348 64.7288H145.358ZM121.314 85.6944C115.269 88.9286 115.114 93.8988 115.796 100.243C117.811 94.8804 119.474 90.5406 121.314 85.6944ZM96.3078 116.693C90.9554 122.118 91.2137 123.203 98.1368 125.27L96.3078 116.693ZM205.341 108.313C201.281 109.915 197.86 112.25 195.742 116.166C199.855 114.709 202.675 111.558 205.341 108.313Z" fill="#467DDB"/>
<path d="M276.958 243.893C285.607 232.867 293.202 230.17 304.382 235.874C312.824 240.183 317.991 247.964 319.726 257.387C320.687 262.554 321.183 268.03 318.486 273.032C317.505 274.86 318.92 276.007 319.582 277.165C322.599 282.745 322.961 288.345 321.648 294.596C314.973 325.823 311.098 357.38 311.832 389.37C312.111 401.77 314.384 413.994 314.622 426.414C314.794 434.308 312.638 442.078 308.422 448.754C300.734 461.577 290.784 472.231 280.42 482.739C273.579 489.683 264.972 486.087 260.219 479.567C250.124 465.721 245.546 449.911 243.531 433.069C241.547 416.536 242.498 400.086 244.275 383.636C244.424 382.268 244.694 380.916 245.081 379.595C245.339 378.686 245.339 377.333 246.734 377.364C248.129 377.395 248.222 378.789 248.264 379.668C248.508 383.107 248.528 386.559 248.326 390.001C246.776 408.497 248.377 426.796 251.797 444.941C253.957 456.421 259.155 466.702 265.85 476.178C269.012 480.652 272.608 481.065 276.741 477.521C289.181 466.702 299.634 453.791 307.627 439.372C308.856 437.222 308.836 434.774 308.939 432.345C309.404 420.979 307.782 409.685 306.872 398.37C304.671 370.378 307.544 342.686 312.256 315.128C313.527 307.678 315.077 300.259 316.74 292.881C317.331 290.441 317.408 287.905 316.965 285.434C316.522 282.963 315.569 280.611 314.167 278.529C309.001 290.928 299.856 299.649 289.978 307.75C289.149 308.348 288.52 309.181 288.17 310.141C287.82 311.1 287.766 312.143 288.015 313.134C290.928 331.206 291.424 349.434 291.114 367.692C291.114 370.461 292.148 375.194 287.839 375.059C284.119 374.935 285.256 370.492 285.214 367.764C285.008 353.298 284.915 338.832 284.811 324.366C284.811 321.689 285.049 319.613 281.009 321.607C277.279 323.446 272.226 319.065 271.616 313.857C271.372 311.289 271.438 308.701 271.812 306.149C272.546 300.29 274.799 294.669 273.621 288.5C272.949 284.987 277.165 281.908 276.721 279.066C276.338 276.689 271.75 275.222 271.099 271.833C269.147 261.624 268.072 251.529 277.175 243.676L276.958 243.893ZM279.49 288.862C287.756 285.09 290.474 285.214 292.726 289.296C292.454 289.487 292.159 289.643 291.848 289.761C289.324 290.293 286.931 291.322 284.807 292.787C282.684 294.251 280.873 296.124 279.479 298.294C278.085 300.465 277.136 302.891 276.688 305.431C276.239 307.971 276.299 310.576 276.865 313.092C277.186 314.487 277.806 316.13 279.139 316.275C280.926 316.471 280.823 314.415 281.205 313.227C282.373 309.755 283.644 306.366 286.785 304.165C297.118 296.994 303.896 286.506 312.132 277.382C313.661 275.697 312.018 274.902 311.284 273.972C308.474 270.417 304.733 267.886 301.117 265.282C294.783 260.715 289.885 262.502 287.436 269.911C286.733 272.04 286.868 273.011 289.42 273.249C291.428 273.335 293.38 273.943 295.083 275.012C296.786 276.081 298.181 277.574 299.133 279.345C289.637 276.669 281.67 276.803 279.49 288.862ZM316.523 271.575C316.523 259.909 313.692 250.237 304.682 243.149C298.42 238.22 289.658 238.84 285.876 244.74C286.551 244.909 287.25 244.958 287.942 244.885C295.795 242.312 299.639 246.734 301.582 253.244C304.041 261.335 311.336 265.065 316.523 271.575ZM277.868 248.129C277.113 249.999 275.977 251.808 275.667 253.761C274.633 260.394 274.447 267.028 278.157 273.063C278.758 273.872 279.601 274.47 280.565 274.767C281.246 275.005 281.66 274.271 281.753 273.496C282.538 266.635 284.946 259.785 281.753 252.882C280.916 250.981 280.523 248.894 277.868 248.088V248.129ZM295.733 255.848C295.093 251.312 293.274 249.452 289.358 250.165C287.808 250.454 285.772 250.258 287.033 252.531C287.922 254.122 286.33 258.39 290.649 256.84C292.354 256.178 294.989 257.79 295.733 255.806V255.848Z" fill="#467DDB"/>
</svg>
