<svg width="375" height="488" viewBox="0 0 375 488" fill="none" xmlns="http://www.w3.org/2000/svg">
<path d="M15.0128 390.504C11.2447 391.785 10.3297 389.47 9.93246 387.218C4.12984 353.646 -1.72094 320.053 7.74143 286.254C11.021 275.06 16.0592 264.302 22.7175 254.274C27.3403 247.123 35.7433 243.755 43.8333 240.314C59.4514 233.68 75.1378 227.156 90.8923 220.743C92.2572 220.251 93.463 219.483 94.4064 218.504C95.3499 217.525 96.003 216.365 96.3097 215.122C98.4927 207.786 100.788 200.477 103.196 193.195C103.846 191.242 103.918 189.579 102.425 187.864C101.567 186.7 100.834 185.473 100.234 184.195C95.8282 176.642 92.6259 168.5 79.7686 168.303C74.0021 168.21 68.669 164.532 63.8415 161.401C54.9931 155.666 50.4305 148.371 53.0067 138.544C53.9819 134.886 53.4522 132.344 48.733 129.834C39.7763 124.967 29.6036 121.867 21.5136 115.781C13.4237 109.695 6.77834 103.205 2.79355 94.6808C-1.74502 84.9368 4.53915 72.4959 17.6974 66.1308C23.4519 63.3616 29.5675 61.14 35.5748 58.7531C37.2361 58.0917 38.5363 57.5648 39.1864 55.7565C45.2057 38.8517 57.2443 31.6083 78.1554 31.7427C89.6283 31.8253 101.029 32.373 112.141 34.8425C114.958 35.4729 117.317 34.5946 119.701 33.9022C130.754 30.7937 142.078 28.4476 153.566 26.8862C155.275 26.6485 157.069 26.6898 158.453 25.2949C166.485 17.3069 177.091 11.5367 188.935 8.71046C204.67 4.73226 220.597 1.21905 237.09 0.17542C256.351 -1.04387 272.604 4.03995 284.931 17.0905C286.52 18.7851 288.218 18.8678 290.156 18.7851C309.911 17.9688 320.012 34.2226 316.003 48.3271C312.295 61.326 308.948 74.2318 299.666 85.0608C290.637 95.3801 280.215 104.745 268.619 112.96C264.851 115.667 263.033 118.044 265.079 122.518C269.425 132.004 269.823 141.365 260.625 149.311C258.326 151.306 260.035 152.566 261.203 154.168C281.043 181.254 300.85 208.347 320.626 235.447C322.347 237.803 324.129 240.128 322.107 243.021L322.299 242.856C318.688 243.889 316.677 242.091 314.968 239.756C297.307 215.37 279.514 191.046 261.998 166.557C253.691 154.922 253.944 154.746 239.425 160.161C233.177 162.486 227.061 165.038 220.296 166.206C216.106 166.929 215.48 170.091 215.601 173.056C215.986 179.577 216.973 186.086 217.322 192.606C217.864 202.939 225.232 208.437 235.525 211.578C243.229 213.934 251.247 215.535 259.12 217.509C264.742 218.914 269.835 221.353 274.915 223.781C277.226 224.887 279.478 226.561 277.66 229.185C275.986 231.582 273.47 230.642 271.303 229.619C261.203 224.835 250.164 222.386 239.1 219.958C232.899 218.536 227.064 216.128 221.897 212.859C215.203 208.726 211.195 203.105 210.942 195.882C210.761 190.395 210.942 184.898 210.942 178.853C207.631 180.599 206.692 183.451 204.922 185.694C199.409 192.565 193.546 199.034 183.626 201.575C180.779 202.456 177.717 202.701 174.729 202.288C168.253 201.21 161.572 201.436 155.215 202.95C144.849 205.041 134.065 205.09 123.674 203.094C125.13 212.735 118.232 217.871 109.637 220.991C102.582 223.554 100.006 227.873 98.2359 233.608C91.0127 257.59 84.9934 281.842 78.5768 305.938C74.3874 321.521 67.742 336.576 65.0093 352.437C64.0582 357.862 63.7091 363.421 61.3977 368.618C60.579 370.437 61.3977 371.005 63.4563 371.305C68.4403 372.038 70.848 375.438 72.401 378.951C80.828 398.274 84.5119 417.803 75.2421 437.849C74.1345 440.215 73.8697 442.871 73.0872 445.351C72.5575 447.015 71.7509 449.102 69.3913 448.719C67.0317 448.337 66.7549 446.178 66.9836 444.452C67.429 441.352 67.7059 438.19 69.0061 435.369C76.3978 419.302 74.7004 403.337 68.7292 387.373C67.8211 384.567 66.7319 381.808 65.4667 379.106C64.5879 377.443 62.8182 375.428 60.3383 376.874C58.0509 378.207 58.3639 380.46 59.953 382.361C61.5421 384.262 63.2998 386.215 64.9972 388.127C70.6795 394.471 69.8127 400.981 65.1296 407.253C63.8656 408.927 64.0221 410.425 63.8054 412.058C63.3479 415.458 63.6007 419.136 59.8688 421.43C57.6777 422.784 59.1585 424.272 59.3631 425.563C59.941 429.438 58.8094 431.846 54.1384 433.613C49.7443 435.266 47.3967 439.812 41.9914 440.763C38.6928 441.373 35.5627 442.664 32.0715 442.478C29.5073 442.344 26.1846 442.478 26.1485 439.471C26.1485 436.764 29.2906 436.661 31.6261 436.599C35.0221 436.42 38.3533 435.72 41.4617 434.532C45.3622 433.21 44.7964 431.66 42.509 429.676C39.4512 427.041 35.5748 425.667 31.5418 424.509C30.0852 424.086 28.0265 423.745 28.4118 421.967C28.797 420.19 30.9038 420.727 32.3966 420.831C38.0703 421.086 43.4119 423.206 47.3125 426.752C48.6367 427.95 49.9008 429.138 51.839 427.909C53.7772 426.679 52.5493 425.047 51.839 423.714C47.8422 415.861 38.8132 413.484 31.0121 409.785C29.9648 409.289 28.7489 409.051 27.7015 408.566C26.4856 407.977 25.2817 407.119 25.9077 405.734C26.5338 404.35 28.0867 404.546 29.5193 404.887C39.0539 407.181 48.2154 410.053 54.5236 417.152C55.2098 417.927 55.5589 419.095 57.0638 419.095C60.1336 413.753 59.2187 407.842 54.0661 403.74C44.7964 396.352 33.6004 394.833 21.5618 396.807C20.6107 396.962 19.0698 397.354 18.9494 397.84C17.5168 403.606 10.9919 407.863 12.1115 414.3C12.7276 417.18 12.6168 420.14 11.7864 422.98C10.6927 425.952 10.5136 429.117 11.2667 432.166C12.0199 435.215 13.6795 438.045 16.0842 440.381C19.6958 444.07 23.2352 447.79 26.919 451.437C28.3516 452.863 30.6389 454.175 28.9174 456.221C27.0273 458.484 24.2344 457.802 21.8748 456.676C17.3362 454.516 15.0489 450.476 11.6299 447.376C10.9678 446.777 10.3659 446.136 9.6315 445.413C4.26226 457.895 7.50066 465.438 20.2375 471.845C26.004 474.748 31.7826 477.249 38.5363 477.931C42.14 478.316 45.5465 479.558 48.3719 481.516C49.8045 482.488 51.4417 483.583 50.599 485.34C50.4114 485.746 50.131 486.117 49.7744 486.429C49.4178 486.741 48.9921 486.99 48.5223 487.159C48.0525 487.328 47.548 487.416 47.0385 487.415C46.5289 487.415 46.0245 487.328 45.5548 487.158C31.8548 483.583 17.6733 480.958 6.82649 471.907C0.566398 466.668 -0.685621 460.437 0.301547 453.493C0.58229 451.79 0.98433 450.102 1.50541 448.44C2.97413 443.202 3.98537 438.283 2.98616 432.528C1.62115 424.56 2.12045 416.438 4.45488 408.638C6.57941 402.073 10.1557 395.919 14.9887 390.514C17.9221 390 20.8957 389.672 23.8852 389.532C28.0988 389.532 30.3259 388.189 32.6975 385.027C36.0563 380.553 41.0283 376.936 48.0348 377.257C51.1046 377.391 51.9714 376.223 52.7539 373.888C55.2442 366.088 57.0867 358.146 58.2676 350.122C60.6753 334.354 67.2725 319.454 71.3055 304.027C77.1442 281.708 82.369 259.275 89.0023 237.111C89.6885 234.796 91.0729 232.419 90.0256 229.185C72.2324 236.925 54.8607 244.375 37.6093 252.021C34.3881 253.485 31.7665 255.76 30.0972 258.541C24.3066 268.182 19.2624 278.101 16.2407 288.682C10.2334 309.886 11.0882 331.378 13.2431 352.85C14.2905 363.286 16.3129 373.65 17.7455 384.066C18.0585 386.453 18.9133 389.305 15.0128 390.504ZM276.384 19.4567C269.064 10.8081 259.674 6.82986 248.526 5.80689C228.061 3.92629 208.895 9.53709 189.537 13.8046C180.243 15.8712 172.454 20.6657 164.641 25.4292C172.217 24.9632 179.827 25.0669 187.382 25.7392C194.978 26.2972 203.165 25.7392 209.918 28.3534C220.103 32.3626 228.735 29.0251 237.896 26.7002C240.388 26.0699 242.892 25.4809 245.36 24.8196C255.28 22.164 265.513 20.8207 276.384 19.4567ZM155.829 115.729C169.697 116.225 186.395 105.696 190.043 95.2181C190.825 92.9449 189.946 91.8909 188.249 90.3926C181.435 84.3788 175.006 78.0654 168.301 71.9379C165.159 69.0447 163.702 68.7347 160.235 70.76C146.222 78.9643 142.49 91.7979 139.48 104.859C138.192 110.397 145.572 114.158 149.87 115.192C151.833 115.523 153.828 115.703 155.829 115.729ZM147.763 52.1606C142.695 51.0447 138.301 50.3523 134.219 52.1606C125.467 55.9425 116.896 60.0033 109.552 65.8208C96.9357 75.9368 88.4846 88.5947 79.9011 101.263C78.1314 103.867 79.6603 105.148 81.5985 106.367C87.6178 110.108 93.7335 113.6 99.6565 117.403C101.908 118.819 102.558 117.63 103.81 116.37C109.023 111.038 110.202 104.89 111.49 98.0803C114.38 82.8909 124.733 70.7393 137.638 60.2513C140.853 57.6061 144.079 55.1055 147.763 52.1813V52.1606ZM114.452 52.0056C104.424 52.4189 95.1901 52.4706 86.125 53.2352C71.3536 54.4752 61.205 63.5682 49.3831 69.8507C47.9264 70.6256 48.4561 71.8139 49.046 73.0539C53.5176 82.6896 60.6481 91.2494 69.8247 97.9977C72.6177 100.064 73.6169 99.806 75.2903 97.078C81.7911 86.4247 89.0865 76.1434 98.5008 67.1641C103.533 62.3179 110.154 58.7324 114.452 52.0263V52.0056ZM291.059 24.5922C293.792 32.0526 295.14 39.4924 293.238 47.3248C290.641 58.5153 285.044 69.033 276.889 78.0447C270.124 85.5051 263.189 92.8622 255.942 99.9816C251.921 103.929 256.267 105.892 257.965 108.351C260.204 111.606 261.709 108.165 262.888 107.318C270.039 102.317 276.131 96.3547 282.668 90.7853C298.968 76.9287 306.252 59.59 309.153 40.6393C309.476 38.5111 309.236 36.3477 308.45 34.3101C307.664 32.2726 306.353 30.4135 304.614 28.8713C302.875 27.329 300.753 26.1433 298.406 25.4024C296.059 24.6616 293.548 24.3846 291.059 24.5922ZM246.66 82.4569C249.959 78.5304 252.812 75.4305 255.22 72.1136C256.541 70.2118 257.653 68.209 258.542 66.1308C262.744 57.2651 258.542 48.7404 248.237 45.5785C242.444 43.7026 236.502 42.1832 230.456 41.032C224.172 39.9987 217.575 37.8598 211.471 41.931C207.547 44.5452 203.49 47.0251 197.603 50.7657C209.473 52.3983 219.646 54.2479 228.121 59.931C236.596 65.6141 242.194 73.3639 246.66 82.4569ZM233.165 34.9252C239.834 36.6508 246.504 38.3454 253.149 40.0917C260.986 42.1583 265.621 46.5705 266.873 53.6072C267.162 55.2398 266.873 57.5338 268.775 58.2674C273.206 59.962 274.951 63.2892 277.082 67.6807C285.22 54.7542 290.565 42.3856 285.509 28.2811C285.195 27.0082 284.318 25.8893 283.064 25.1591C281.809 24.4289 280.273 24.1443 278.779 24.3649C276.793 24.5096 274.843 24.9849 272.868 25.2535C259.192 26.9595 245.84 30.2188 233.165 34.9459V34.9252ZM159.946 162.124C167.867 160.616 175.319 158.9 182.29 155.614C197.362 148.505 212.386 141.396 225.978 132.22C228.277 130.66 231.383 129.906 228.47 126.372C225.701 123.024 223.655 124.533 221.247 126.248C207.962 135.78 191.822 141.914 174.669 143.948C165.375 145.106 156.166 146.79 146.98 148.485C145.102 148.826 141.346 148.226 141.623 150.314C142.02 153.331 142.201 157.495 145.764 158.931C150.183 160.729 155.299 161.194 159.946 162.145V162.124ZM41.7867 75.5958C35.4183 81.9196 31.9632 89.0287 33.4921 95.9621C35.8998 107.132 42.3886 116.969 54.4514 123.107C56.3174 124.057 58.3639 125.235 60.5911 124.76C63.986 124.037 69.2228 107.297 66.6104 105.375C55.6793 97.3467 46.6744 88.14 41.7867 75.5958ZM157.069 196.409C149.918 189.3 145.728 181.581 142.502 173.439C141.876 171.837 140.636 171.486 138.89 171.444C135.098 171.341 131.306 171.031 127.526 170.897C116.499 170.484 116.511 170.504 114.705 179.618C114.414 181.667 113.943 183.695 113.296 185.683C112.297 188.267 113.489 189.631 115.704 191.284C128.007 200.16 141.84 198.92 157.069 196.409ZM204.898 168.779C193.462 169.347 183.349 170.556 173.249 169.812C166.508 169.236 159.707 169.456 153.036 170.463C150.989 170.793 148.931 170.783 150.147 173.563C153.024 180.042 156.358 186.272 161.92 191.408C163.546 192.906 165.171 194.394 168.12 193.474C183.301 188.969 193.522 179.163 204.898 168.779ZM35.021 116.917C33.0467 113.259 31.6743 110.842 30.4102 108.393C26.7986 101.501 24.8002 94.5878 28.0747 87.0241C30.4102 81.6406 32.9624 76.4224 37.9464 72.5579C41.4737 69.7887 39.4753 66.7921 38.151 64.6222C36.9472 62.6279 34.3107 64.9838 32.517 65.6555C28.2624 67.1602 24.1352 68.9176 20.1653 70.915C10.6789 75.8128 5.03273 84.1102 7.65716 90.7646C12.1837 102.296 21.9831 110.036 35.021 116.917ZM211.64 112.226C207.511 108.093 203.406 103.846 199.192 99.713C197.41 97.9564 196.218 97.6464 194.665 100.405C190.564 107.617 183.812 113.471 175.452 117.064C167.091 120.656 157.586 121.789 148.401 120.286C147.522 120.152 146.487 119.604 145.813 120.555C146.427 124.688 151.519 125.721 153.349 128.945C155.179 132.169 157.623 132.045 160.825 131.012C162.679 130.392 164.653 129.978 166.555 129.493C182.783 125.029 198.434 119.449 211.64 112.226ZM185.54 67.7944C194.774 73.4982 198.542 80.535 198.482 89.0907C198.482 91.2606 199.914 92.6039 201.552 93.8645C206.596 97.7704 211.7 101.625 216.756 105.52C218.093 106.553 219.164 107.876 221.331 106.605C223.498 105.334 224.389 104.156 223.594 101.873C221.885 96.954 220.681 91.8909 218.851 87.0034C213.759 73.3639 203.875 67.4017 185.54 67.7427V67.7944ZM45.6391 55.1675C79.2028 48.9677 97.5136 43.7082 104.327 38.2318C100.355 37.7048 96.6588 36.9505 92.9269 36.7748C80.3465 36.1858 67.6457 35.0389 56.0766 41.1353C53.1261 42.5567 50.6297 44.581 48.809 47.0287C46.9883 49.4765 45.8995 52.272 45.6391 55.1675ZM92.4212 134.979C95.4068 135.258 95.4068 135.258 96.4783 132.665C99.187 126.052 98.886 125.328 91.7712 121.454C89.5922 120.265 87.7021 118.591 85.4027 117.63C81.2735 115.915 77.5896 110.325 73.6289 112.464C70.1979 114.313 69.5237 119.945 67.73 123.944C67.1521 125.246 66.9956 126.455 68.8014 127.488C76.0005 131.58 83.3923 135.114 92.4212 134.979ZM59.2909 140.766C58.8682 143.117 59.1198 145.521 60.0239 147.77C60.9281 150.019 62.4575 152.045 64.4796 153.672C69.6682 158.187 76.0728 160.905 82.9348 162.889C84.8249 163.447 87.0761 164.428 88.593 163.157C90.1098 161.886 87.7382 160.492 87.5095 159.024C87.1774 157.866 87.0555 156.67 87.1483 155.48C87.7743 152.38 86.1973 151.347 82.8866 150.644C76.0968 149.156 70.3424 146.139 67.4049 140.311C66.1289 137.8 65.3463 134.442 61.3856 135.145C57.7861 135.785 60.5429 139.226 59.2909 140.766ZM127.273 96.9024C124.576 99.7853 122.458 102.069 120.387 104.249C118.473 106.223 116.125 108 116.462 110.924C116.803 115.554 117.715 120.14 119.183 124.605C119.93 126.742 121.595 128.556 123.842 129.679C127.731 131.745 129.404 131.601 129.199 127.188C128.922 120.989 129.199 114.789 128.946 108.589C128.814 105.065 129.296 101.408 127.273 96.9024ZM231.407 98.0183C238.113 93.0482 238.125 93.0482 232.419 87.7577C231.612 87.0034 230.673 86.3524 229.866 85.5878C228.205 84.0275 224.943 82.2502 227.266 80.2043C229.409 78.3237 232.082 80.7209 233.863 82.1676C236.192 84.2943 238.382 86.5296 240.424 88.8633C241.159 77.2387 226.46 62.1733 214.782 60.892C224.208 71.9483 225.183 85.5878 231.407 98.0183ZM222.872 143.297C211.411 151.564 197.025 155.501 183.915 163.044C194.364 163.798 203.273 161.793 212.314 160.884C213.11 160.863 213.884 160.652 214.547 160.274C215.211 159.896 215.738 159.367 216.07 158.745C218.791 153.847 221.512 148.939 222.872 143.297ZM173.237 55.1572C166.483 54.1859 160.548 50.8793 155.973 54.1239C146.872 60.799 142.225 70.357 137.241 79.5637C147.992 70.6566 160.259 63.5476 173.237 55.1572ZM223.185 159.035C231.612 156.131 238.835 153.661 245.962 151.213C248.791 150.241 247.431 148.846 246.408 147.596C243.759 144.362 240.942 141.241 238.402 137.955C236.271 135.217 234.911 135.072 233.37 138.348C230.312 144.858 227.013 151.295 223.185 159.035ZM204.658 38.3454C187.635 38.1491 170.949 39.0274 155.082 45.3202C171.973 45.3202 189.585 50.1147 204.658 38.3454ZM261.239 135.289C260.83 131.487 260.613 128.222 260.035 124.956C259.843 123.83 259.758 121.598 257.423 122.415C251.981 124.305 246.793 127.24 243.627 131.167C241.604 133.688 246.757 136.416 248.442 139.154C249.714 140.897 251.105 142.574 252.607 144.176C253.691 145.488 254.738 145.54 255.906 144.279C258.639 141.479 261.01 138.534 261.239 135.289ZM198.638 31.9596C186.281 29.8947 173.622 29.5111 161.126 30.823C152.193 31.8563 143.333 33.0756 137.602 40.195C138.839 40.9795 140.306 41.4538 141.838 41.5651C143.371 41.6764 144.909 41.4203 146.282 40.8253C149.033 39.8028 151.846 38.9094 154.709 38.1491C168.895 34.1567 183.71 32.0554 198.638 31.9183V31.9596ZM100.138 152.235V152.318C98.7522 152.421 97.3585 152.421 95.9726 152.318C90.3747 151.43 90.6395 154.095 91.711 157.33C93.4806 162.672 97.7303 164.563 104.027 164.635C110.323 164.707 113.405 163.075 113.164 157.009C113.007 153.186 108.974 152.204 104.905 152.256C103.316 152.256 101.727 152.235 100.138 152.235ZM200.769 125.432C182.097 132.055 163.305 138.152 143.2 140.642C141.575 140.849 138.662 140.415 138.854 142.336C139.107 144.775 142.045 143.835 143.778 143.566C153.204 142.099 162.558 140.26 172.021 138.937C183.554 137.325 191.668 130.702 200.769 125.432ZM61.7468 403.699C65.4306 395.939 60.3503 391.423 55.9201 386.928C51.1046 382.061 47.2402 382.03 41.57 386.029C38.4761 388.22 37.5852 389.625 42.3525 390.999C50.386 393.093 57.2713 397.602 61.7468 403.699ZM253.787 114.169C253.119 111.733 251.643 109.515 249.538 107.783C248.611 106.956 247.792 107.855 247.07 108.424C242.772 111.772 238.546 115.192 234.164 118.457C232.238 119.893 232.756 121.113 234.164 122.353C235.573 123.592 236.018 126.093 238.643 124.553C243.458 121.753 247.985 118.674 252.583 115.657C253.079 115.222 253.486 114.719 253.787 114.169ZM133.822 110.087C134.207 115.047 134.569 119.997 135.026 124.956C135.905 135.713 135.917 135.713 148.124 133.316C148.413 133.264 148.606 132.861 149.123 132.344C142.394 125.917 138.252 118.178 133.822 110.087ZM116.161 99.7543C129.585 91.4879 130.499 78.6957 136.687 68.3317C126.515 76.8461 120.315 87.1997 116.161 99.744V99.7543ZM104.665 215.411C115.62 211.774 117.907 208.901 117.257 201.648C116.944 198.455 113.946 197.577 111.527 196.285C110.407 195.686 110.046 197.029 109.817 197.814C108.156 203.425 106.518 209.036 104.665 215.411ZM248.069 92.5729C264.61 82.3226 271.303 73.0746 267.258 65.5625C262.672 75.8438 254.678 83.7898 248.069 92.5729ZM98.2841 45.7852L98.4165 47.0665C105.917 46.6635 113.417 46.2398 120.917 45.8678C121.828 45.9004 122.721 45.6448 123.426 45.1496C124.132 44.6543 124.601 43.9539 124.745 43.1813C124.974 41.218 122.506 41.7553 121.133 41.3213C112.309 38.3351 105.772 43.7702 98.2841 45.7852ZM71.9435 137.904C76.5664 144.269 83.8497 146.046 91.8434 146.439C93.3603 146.511 95.8041 148.061 96.3218 145.767C96.7913 143.7 95.8041 141.799 92.5537 141.5C85.6074 140.869 78.9019 139.185 71.9435 137.904ZM112.056 142.429C109.649 142.429 107.036 142.429 104.448 142.429C102.75 142.429 100.138 140.962 100.198 144.145C100.198 146.759 102.233 147.245 104.701 146.976C112.646 146.284 120.592 145.602 128.525 144.847C129.729 144.734 131.812 144.971 131.33 143.111C130.909 141.531 128.922 142.078 127.719 142.181C122.543 142.946 117.261 143.029 112.056 142.429ZM190.849 85.8358C188.935 75.6578 177.414 66.8644 169.408 69.1067C177.271 73.9674 184.464 79.5798 190.849 85.8358ZM137.879 164.738L138.216 163.374C132.462 161.556 126.671 159.83 120.965 157.898C117.522 156.741 117.751 159.066 117.522 160.523C117.293 161.979 115.475 164.656 119.46 164.707C125.588 164.821 131.727 164.738 137.867 164.738H137.879ZM186.756 53.4419C189.91 55.9631 189.164 60.8713 193.413 62.1009C197.29 63.2376 201.648 63.2066 205.789 63.6819C200.408 58.6084 194.413 54.9402 186.744 53.4419H186.756ZM102.486 128.408C103.388 131.146 98.1637 134.287 103.039 135.527C108.156 136.819 113.874 136.209 119.412 136.426L119.701 135.134C113.778 133.719 108.794 130.609 102.51 128.408H102.486ZM117.125 151.491C123.481 154.447 131.402 156.193 135.881 155.769C133.401 148.795 136.037 149.084 117.149 151.491H117.125ZM106.386 181.622C110.889 170.897 110.443 170.256 99.1629 171.041C100.818 174.914 103.273 178.498 106.41 181.622H106.386ZM62.6015 57.5028L62.1079 56.5935C57.2925 57.9161 52.3566 59.1974 47.5051 60.582C45.2177 61.233 45.2538 62.9276 45.9039 64.4052C46.9031 66.6681 48.5284 65.0975 49.6841 64.4879C54.03 62.2353 58.2917 59.8483 62.6015 57.5028ZM168.77 63.8782C172.31 64.3978 175.94 64.2391 179.4 63.4132C180.677 63.1962 182.482 63.6715 183.108 62.3799C183.734 61.0883 181.977 60.4167 181.146 59.5694C180.921 59.2892 180.629 59.0538 180.289 58.8788C179.95 58.7039 179.57 58.5937 179.176 58.5554C178.783 58.5172 178.384 58.552 178.007 58.6574C177.631 58.7628 177.285 58.9364 176.993 59.1664C174.633 60.5613 172.237 61.8943 168.758 63.8782H168.77ZM140.756 84.8438C133.714 88.078 133.533 93.0482 134.328 99.3926C136.675 94.0298 138.614 89.69 140.756 84.8438ZM111.623 115.843C105.387 121.268 105.688 122.353 113.754 124.419L111.623 115.843ZM238.655 107.463C233.923 109.064 229.939 111.4 227.471 115.316C232.262 113.859 235.549 110.707 238.655 107.463Z" fill="#467DDB"/>
<path d="M322.093 243.041C332.169 232.016 341.018 229.319 354.044 235.023C363.879 239.332 369.898 247.113 371.921 256.536C373.041 261.703 373.618 267.179 370.476 272.18C369.333 274.009 370.982 275.156 371.752 276.314C375.268 281.893 375.689 287.494 374.16 293.745C366.383 324.972 361.869 356.529 362.723 388.519C363.048 400.919 365.697 413.143 365.974 425.563C366.174 433.457 363.662 441.227 358.751 447.903C349.794 460.726 338.201 471.379 326.126 481.888C318.156 488.832 308.128 485.236 302.59 478.716C290.829 464.87 285.496 449.06 283.148 432.218C280.837 415.685 281.944 399.235 284.015 382.785C284.188 381.417 284.502 380.065 284.954 378.744C285.255 377.835 285.255 376.481 286.88 376.512C288.505 376.543 288.614 377.938 288.662 378.817C288.946 382.256 288.97 385.708 288.734 389.15C286.928 407.646 288.794 425.945 292.779 444.09C295.295 455.57 301.35 465.851 309.151 475.327C312.835 479.801 317.025 480.214 321.84 476.67C336.334 465.851 348.512 452.94 357.824 438.521C359.256 436.371 359.232 433.922 359.353 431.494C359.894 420.128 358.004 408.834 356.945 397.519C354.381 369.527 357.727 341.835 363.217 314.277C364.698 306.827 366.504 299.408 368.442 292.03C369.13 289.59 369.219 287.054 368.703 284.583C368.187 282.112 367.077 279.76 365.444 277.678C359.425 290.077 348.771 298.798 337.262 306.899C336.297 307.497 335.563 308.33 335.155 309.29C334.747 310.249 334.684 311.292 334.974 312.283C338.369 330.355 338.947 348.582 338.586 366.841C338.586 369.61 339.79 374.343 334.77 374.208C330.436 374.084 331.76 369.641 331.712 366.913C331.471 352.447 331.363 337.981 331.242 323.515C331.242 320.838 331.519 318.762 326.812 320.756C322.466 322.595 316.579 318.214 315.869 313.006C315.584 310.438 315.661 307.85 316.098 305.298C316.952 299.439 319.577 293.818 318.205 287.649C317.422 284.136 322.334 281.056 321.816 278.215C321.371 275.838 316.026 274.371 315.267 270.982C312.992 260.773 311.74 250.678 322.346 242.824L322.093 243.041ZM325.042 288.011C334.673 284.239 337.84 284.363 340.464 288.445C340.147 288.635 339.803 288.792 339.441 288.91C336.5 289.442 333.712 290.471 331.238 291.935C328.764 293.4 326.654 295.273 325.03 297.443C323.406 299.614 322.3 302.04 321.778 304.58C321.255 307.12 321.325 309.725 321.985 312.241C322.358 313.636 323.08 315.279 324.633 315.424C326.716 315.62 326.595 313.564 327.041 312.376C328.401 308.904 329.882 305.515 333.542 303.314C345.58 296.143 353.478 285.655 363.073 276.531C364.854 274.846 362.94 274.051 362.085 273.121C358.811 269.566 354.453 267.035 350.239 264.431C342.86 259.864 337.153 261.651 334.3 269.06C333.482 271.188 333.638 272.16 336.612 272.397C338.952 272.484 341.226 273.092 343.209 274.161C345.193 275.229 346.819 276.723 347.928 278.494C336.864 275.818 327.583 275.952 325.042 288.011ZM368.189 270.723C368.189 259.058 364.89 249.386 354.393 242.297C347.097 237.369 336.888 237.989 332.482 243.889C333.269 244.058 334.084 244.107 334.89 244.033C344.039 241.461 348.518 245.883 350.781 252.393C353.646 260.484 362.146 264.214 368.189 270.723ZM323.152 247.278C322.274 249.148 320.949 250.957 320.588 252.909C319.384 259.543 319.168 266.177 323.489 272.211C324.19 273.021 325.172 273.618 326.294 273.916C327.089 274.154 327.571 273.42 327.679 272.645C328.594 265.784 331.399 258.934 327.679 252.031C326.704 250.13 326.246 248.043 323.152 247.237V247.278ZM343.967 254.997C343.221 250.461 341.102 248.601 336.539 249.314C334.734 249.603 332.362 249.407 333.831 251.68C334.866 253.271 333.012 257.539 338.044 255.989C340.031 255.327 343.1 256.939 343.967 254.955V254.997Z" fill="#467DDB"/>
</svg>
