<svg width="323" height="488" viewBox="0 0 323 488" fill="none" xmlns="http://www.w3.org/2000/svg">
<path d="M13.4511 390.504C10.2169 391.785 9.43162 389.47 9.09063 387.218C4.11014 353.646 -0.911687 320.053 7.21003 286.254C10.0249 275.06 14.3493 264.302 20.0643 254.274C24.0321 247.123 31.2445 243.755 38.1883 240.314C51.5936 233.68 65.0575 227.156 78.5799 220.743C79.7514 220.251 80.7863 219.483 81.5961 218.504C82.4059 217.525 82.9664 216.365 83.2297 215.122C85.1034 207.786 87.0736 200.477 89.1402 193.195C89.6982 191.242 89.7602 189.579 88.4789 187.864C87.7422 186.7 87.1128 185.473 86.5983 184.195C82.8164 176.642 80.0678 168.5 69.0322 168.303C64.0827 168.21 59.5052 164.532 55.3617 161.401C47.767 155.666 43.8508 148.371 46.062 138.544C46.899 134.886 46.4443 132.344 42.3938 129.834C34.7061 124.967 25.9747 121.867 19.031 115.781C12.0872 109.695 6.38339 103.205 2.96318 94.6808C-0.932353 84.9368 4.46146 72.4959 15.7554 66.1308C20.6946 63.3616 25.9437 61.14 31.0999 58.7531C32.5258 58.0917 33.6418 57.5648 34.1998 55.7565C39.3662 38.8517 49.6992 31.6083 67.6476 31.7427C77.4949 31.8253 87.2803 32.373 96.8176 34.8425C99.2355 35.4729 101.261 34.5946 103.307 33.9022C112.793 30.7937 122.513 28.4476 132.373 26.8862C133.841 26.6485 135.38 26.6898 136.569 25.2949C143.463 17.3069 152.566 11.5367 162.732 8.71046C176.237 4.73226 189.907 1.21905 204.064 0.17542C220.596 -1.04387 234.546 4.03995 245.127 17.0905C246.491 18.7851 247.948 18.8678 249.611 18.7851C266.568 17.9688 275.237 34.2226 271.796 48.3271C268.614 61.326 265.741 74.2318 257.774 85.0608C250.024 95.3801 241.079 104.745 231.126 112.96C227.891 115.667 226.331 118.044 228.088 122.518C231.818 132.003 232.159 141.365 224.264 149.311C222.291 151.306 223.758 152.566 224.76 154.168C241.789 181.254 258.79 208.347 275.764 235.447C277.242 237.803 278.771 240.128 277.035 243.021L277.2 242.856C274.1 243.889 272.375 242.091 270.908 239.756C255.749 215.37 240.477 191.046 225.442 166.557C218.313 154.922 218.53 154.746 206.068 160.161C200.705 162.486 195.456 165.038 189.649 166.206C186.053 166.929 185.516 170.091 185.619 173.056C185.95 179.577 186.797 186.086 187.097 192.606C187.562 202.939 193.886 208.437 202.72 211.578C209.333 213.934 216.215 215.535 222.973 217.509C227.798 218.914 232.169 221.353 236.53 223.781C238.514 224.887 240.446 226.561 238.886 229.185C237.449 231.582 235.29 230.642 233.43 229.619C224.76 224.835 215.285 222.386 205.789 219.958C200.467 218.536 195.458 216.128 191.023 212.859C185.278 208.726 181.837 203.105 181.62 195.882C181.465 190.395 181.62 184.898 181.62 178.853C178.779 180.599 177.973 183.451 176.454 185.694C171.721 192.565 166.689 199.034 158.175 201.575C155.731 202.456 153.103 202.701 150.539 202.288C144.98 201.21 139.246 201.436 133.789 202.95C124.891 205.041 115.636 205.09 106.717 203.094C107.967 212.735 102.046 217.871 94.6683 220.991C88.6132 223.554 86.4019 227.873 84.883 233.608C78.6832 257.59 73.5167 281.842 68.0092 305.938C64.4134 321.521 58.7096 336.576 56.364 352.437C55.5477 357.862 55.248 363.421 53.2641 368.618C52.5615 370.437 53.2641 371.005 55.031 371.305C59.3089 372.038 61.3755 375.438 62.7084 378.951C69.9415 398.274 73.1034 417.803 65.147 437.849C64.1964 440.215 63.9691 442.871 63.2974 445.351C62.8428 447.015 62.1505 449.102 60.1252 448.719C58.0999 448.337 57.8623 446.178 58.0586 444.452C58.4409 441.352 58.6786 438.19 59.7945 435.369C66.139 419.302 64.682 403.337 59.5569 387.373C58.7774 384.567 57.8426 381.808 56.7566 379.106C56.0023 377.443 54.4834 375.428 52.3548 376.874C50.3915 378.207 50.6602 380.46 52.0241 382.361C53.3881 384.262 54.8967 386.215 56.3537 388.127C61.2308 394.471 60.4868 400.981 56.4673 407.253C55.3824 408.927 55.5167 410.425 55.3307 412.058C54.938 415.458 55.155 419.136 51.9518 421.43C50.0712 422.784 51.3422 424.272 51.5178 425.563C52.0138 429.438 51.0425 431.846 47.0333 433.613C43.2618 435.266 41.2468 439.812 36.6073 440.763C33.7761 441.373 31.0895 442.664 28.093 442.478C25.892 442.344 23.0401 442.478 23.0091 439.471C23.0091 436.764 25.7061 436.661 27.7107 436.599C30.6255 436.42 33.4847 435.72 36.1527 434.532C39.5006 433.21 39.0149 431.66 37.0517 429.676C34.4271 427.041 31.0999 425.667 27.6383 424.509C26.388 424.086 24.6211 423.745 24.9517 421.967C25.2824 420.19 27.0907 420.727 28.372 420.831C33.2418 421.086 37.8266 423.206 41.1745 426.752C42.3111 427.95 43.3961 429.138 45.0597 427.909C46.7233 426.679 45.6694 425.047 45.0597 423.714C41.6292 415.861 33.8794 413.484 27.1837 409.785C26.2847 409.289 25.2411 409.051 24.3421 408.566C23.2985 407.977 22.2652 407.119 22.8025 405.734C23.3398 404.35 24.6728 404.546 25.9024 404.887C34.0861 407.181 41.9495 410.053 47.364 417.152C47.9529 417.927 48.2526 419.095 49.5442 419.095C52.1791 413.753 51.3938 407.842 46.9713 403.74C39.0149 396.352 29.4053 394.833 19.0723 396.807C18.256 396.962 16.9334 397.354 16.83 397.84C15.6004 403.606 9.99993 407.863 10.9609 414.3C11.4898 417.18 11.3946 420.14 10.6819 422.98C9.74312 425.952 9.58945 429.117 10.2359 432.166C10.8823 435.215 12.3068 438.045 14.3708 440.381C17.4707 444.07 20.5086 447.79 23.6705 451.437C24.9001 452.863 26.8633 454.175 25.3857 456.221C23.7635 458.484 21.3662 457.802 19.3409 456.676C15.4454 454.516 13.4821 450.476 10.5476 447.376C9.97927 446.777 9.46262 446.136 8.83231 445.413C4.2238 457.895 7.00337 465.438 17.9357 471.845C22.8852 474.748 27.845 477.249 33.6418 477.931C36.7349 478.316 39.6588 479.558 42.0838 481.516C43.3134 482.488 44.7187 483.583 43.9954 485.34C43.8344 485.746 43.5937 486.117 43.2877 486.429C42.9816 486.741 42.6162 486.99 42.213 487.159C41.8097 487.328 41.3767 487.416 40.9394 487.415C40.502 487.415 40.069 487.328 39.6659 487.158C27.907 483.583 15.7347 480.958 6.42473 471.907C1.05158 466.668 -0.0230509 460.437 0.824253 453.493C1.06522 451.79 1.4103 450.102 1.85755 448.44C3.11817 443.202 3.98614 438.283 3.12851 432.528C1.95689 424.56 2.38545 416.438 4.38913 408.638C6.21265 402.073 9.28222 395.919 13.4305 390.514C15.9483 390 18.5006 389.672 21.0665 389.532C24.6831 389.532 26.5947 388.189 28.6303 385.027C31.5132 380.553 35.7807 376.936 41.7945 377.257C44.4294 377.391 45.1734 376.223 45.845 373.888C47.9825 366.088 49.5639 358.146 50.5775 350.122C52.6441 334.354 58.3066 319.454 61.7681 304.027C66.7796 281.708 71.2641 259.275 76.9576 237.111C77.5466 234.796 78.7349 232.419 77.8359 229.185C62.5638 236.925 47.6533 244.375 32.8461 252.021C30.0813 253.485 27.8312 255.76 26.3984 258.541C21.4282 268.182 17.0987 278.101 14.5051 288.682C9.34896 309.886 10.0826 331.378 11.9322 352.85C12.8312 363.286 14.5671 373.65 15.7967 384.066C16.0654 386.453 16.799 389.305 13.4511 390.504ZM237.79 19.4567C231.508 10.8081 223.448 6.82986 213.88 5.80689C196.314 3.92629 179.864 9.53709 163.248 13.8046C155.271 15.8712 148.586 20.6657 141.88 25.4292C148.383 24.9632 154.914 25.0669 161.399 25.7392C167.919 26.2972 174.945 25.7392 180.742 28.3534C189.484 32.3626 196.892 29.0251 204.756 26.7002C206.895 26.0699 209.044 25.4809 211.162 24.8196C219.677 22.164 228.46 20.8207 237.79 19.4567ZM134.316 115.729C146.22 116.225 160.551 105.696 163.682 95.2181C164.354 92.9449 163.6 91.8909 162.143 90.3926C156.294 84.3788 150.776 78.0654 145.021 71.9379C142.324 69.0447 141.074 68.7347 138.098 70.76C126.07 78.9643 122.867 91.7979 120.284 104.859C119.178 110.397 125.512 114.158 129.201 115.192C130.887 115.523 132.598 115.703 134.316 115.729ZM127.393 52.1606C123.043 51.0447 119.271 50.3523 115.768 52.1606C108.256 55.9425 100.899 60.0033 94.596 65.8208C83.767 75.9368 76.5133 88.5947 69.1459 101.263C67.6269 103.867 68.9392 105.148 70.6028 106.367C75.7693 110.108 81.0185 113.6 86.1023 117.403C88.0346 118.819 88.5925 117.63 89.6672 116.37C94.1413 111.038 95.154 104.89 96.2596 98.0803C98.7395 82.8909 107.626 70.7393 118.703 60.2513C121.462 57.6061 124.231 55.1055 127.393 52.1813V52.1606ZM98.8015 52.0056C90.1941 52.4189 82.2688 52.4706 74.488 53.2352C61.8095 54.4752 53.0988 63.5682 42.9518 69.8507C41.7015 70.6256 42.1562 71.8139 42.6625 73.0539C46.5005 82.6896 52.6207 91.2494 60.4972 97.9977C62.8944 100.064 63.7521 99.806 65.1884 97.078C70.7682 86.4248 77.0299 76.1434 85.1103 67.1641C89.4295 62.3179 95.1126 58.7324 98.8015 52.0263V52.0056ZM250.386 24.5922C252.732 32.0526 253.889 39.4924 252.257 47.3248C250.027 58.5153 245.223 69.033 238.224 78.0447C232.417 85.5051 226.465 92.8622 220.245 99.9816C216.794 103.929 220.524 105.892 221.981 108.351C223.903 111.606 225.194 108.165 226.207 107.318C232.345 102.317 237.573 96.3547 243.184 90.7853C257.175 76.9287 263.426 59.59 265.917 40.6393C266.194 38.5111 265.988 36.3476 265.313 34.3101C264.639 32.2726 263.513 30.4135 262.021 28.8713C260.528 27.329 258.707 26.1433 256.692 25.4024C254.678 24.6616 252.522 24.3846 250.386 24.5922ZM212.278 82.4569C215.109 78.5304 217.558 75.4305 219.625 72.1136C220.759 70.2118 221.713 68.209 222.477 66.1308C226.083 57.2651 222.477 48.7404 213.632 45.5785C208.659 43.7026 203.559 42.1832 198.37 41.032C192.976 39.9987 187.314 37.8598 182.075 41.931C178.706 44.5452 175.224 47.0251 170.171 50.7657C180.36 52.3983 189.091 54.2479 196.365 59.931C203.64 65.6141 208.445 73.3639 212.278 82.4569ZM200.695 34.9252C206.419 36.6508 212.144 38.3454 217.848 40.0917C224.574 42.1583 228.553 46.5705 229.627 53.6072C229.875 55.2398 229.627 57.5338 231.26 58.2674C235.062 59.962 236.561 63.2892 238.39 67.6807C245.375 54.7542 249.963 42.3856 245.623 28.2811C245.353 27.0082 244.601 25.8893 243.524 25.1591C242.447 24.4289 241.129 24.1443 239.847 24.3649C238.142 24.5096 236.468 24.9849 234.773 25.2535C223.034 26.9595 211.574 30.2188 200.695 34.9459V34.9252ZM137.85 162.124C144.649 160.616 151.045 158.9 157.028 155.614C169.965 148.505 182.86 141.396 194.526 132.22C196.5 130.66 199.166 129.906 196.665 126.372C194.289 123.024 192.532 124.533 190.465 126.248C179.063 135.78 165.209 141.914 150.487 143.948C142.51 145.106 134.605 146.79 126.721 148.485C125.109 148.826 121.885 148.226 122.123 150.314C122.464 153.331 122.619 157.495 125.678 158.931C129.47 160.729 133.861 161.194 137.85 162.145V162.124ZM36.4317 75.5958C30.9655 81.9196 28 89.0287 29.3123 95.9621C31.3789 107.132 36.9483 116.969 47.302 123.107C48.9036 124.057 50.6602 125.235 52.5718 124.76C55.4857 124.037 59.9805 107.297 57.7383 105.375C48.3559 97.3467 40.6269 88.14 36.4317 75.5958ZM135.38 196.409C129.242 189.3 125.647 181.581 122.877 173.439C122.34 171.837 121.276 171.486 119.777 171.444C116.523 171.341 113.268 171.031 110.023 170.897C100.558 170.484 100.568 170.504 99.0185 179.618C98.7691 181.667 98.365 183.695 97.8095 185.683C96.9519 188.267 97.9749 189.631 99.8761 191.284C110.436 200.16 122.309 198.92 135.38 196.409ZM176.433 168.779C166.617 169.347 157.937 170.556 149.268 169.812C143.482 169.236 137.645 169.456 131.919 170.463C130.162 170.794 128.395 170.783 129.439 173.563C131.908 180.042 134.771 186.272 139.544 191.408C140.939 192.906 142.334 194.394 144.866 193.474C157.896 188.969 166.668 179.163 176.433 168.779ZM30.6245 116.917C28.9299 113.259 27.752 110.842 26.667 108.393C23.5671 101.501 21.8519 94.5878 24.6624 87.0241C26.667 81.6406 28.8576 76.4224 33.1355 72.5579C36.163 69.7887 34.4478 66.7921 33.3111 64.6222C32.2778 62.6279 30.0149 64.9838 28.4753 65.6555C24.8235 67.1602 21.2811 68.9176 17.8737 70.915C9.73128 75.8128 4.88511 84.1102 7.1377 90.7646C11.0229 102.296 19.4339 110.036 30.6245 116.917ZM182.22 112.226C178.675 108.093 175.152 103.846 171.535 99.713C170.006 97.9564 168.983 97.6464 167.65 100.405C164.13 107.617 158.335 113.471 151.159 117.064C143.983 120.656 135.824 121.789 127.94 120.286C127.186 120.152 126.298 119.604 125.719 120.555C126.246 124.688 130.617 125.721 132.187 128.945C133.758 132.169 135.856 132.045 138.604 131.012C140.195 130.392 141.89 129.978 143.523 129.493C157.451 125.029 170.884 119.449 182.22 112.226ZM159.818 67.7944C167.743 73.4982 170.977 80.535 170.926 89.0907C170.926 91.2606 172.155 92.6039 173.561 93.8645C177.89 97.7704 182.271 101.625 186.611 105.52C187.758 106.553 188.678 107.876 190.538 106.605C192.398 105.334 193.162 104.156 192.48 101.873C191.013 96.954 189.98 91.8909 188.409 87.0034C184.038 73.3639 175.555 67.4017 159.818 67.7427V67.7944ZM39.7382 55.1675C68.5466 48.9677 84.263 43.7082 90.1115 38.2318C86.7016 37.7048 83.5294 36.9505 80.3262 36.7748C69.5282 36.1858 58.6269 35.0389 48.6969 41.1353C46.1644 42.5567 44.0218 44.581 42.4591 47.0287C40.8963 49.4765 39.9617 52.272 39.7382 55.1675ZM79.8922 134.979C82.4547 135.258 82.4547 135.258 83.3744 132.665C85.6993 126.052 85.441 125.328 79.3342 121.454C77.4639 120.265 75.8416 118.591 73.868 117.63C70.3238 115.915 67.1619 110.325 63.7624 112.464C60.8175 114.313 60.2389 119.945 58.6992 123.944C58.2033 125.246 58.0689 126.455 59.6189 127.488C65.798 131.58 72.1424 135.114 79.8922 134.979ZM51.4558 140.766C51.093 143.117 51.309 145.521 52.085 147.77C52.861 150.019 54.1737 152.045 55.9093 153.672C60.3629 158.187 65.86 160.905 71.7498 162.889C73.3721 163.447 75.3043 164.428 76.6063 163.157C77.9082 161.886 75.8726 160.492 75.6763 159.024C75.3913 157.866 75.2867 156.67 75.3663 155.48C75.9036 152.38 74.55 151.347 71.7085 150.644C65.8807 149.156 60.9415 146.139 58.4203 140.311C57.325 137.8 56.6533 134.442 53.2538 135.145C50.1642 135.785 52.5305 139.226 51.4558 140.766ZM109.806 96.9024C107.492 99.7853 105.673 102.069 103.896 104.249C102.253 106.223 100.238 108 100.527 110.924C100.82 115.554 101.603 120.14 102.862 124.605C103.503 126.742 104.933 128.556 106.861 129.679C110.199 131.745 111.635 131.601 111.459 127.188C111.222 120.989 111.459 114.789 111.242 108.589C111.129 105.065 111.542 101.408 109.806 96.9024ZM199.186 98.0183C204.942 93.0482 204.952 93.0482 200.054 87.7577C199.362 87.0034 198.556 86.3524 197.864 85.5878C196.438 84.0275 193.638 82.2502 195.632 80.2043C197.471 78.3237 199.765 80.7209 201.294 82.1676C203.293 84.2943 205.173 86.5296 206.926 88.8633C207.556 77.2387 194.94 62.1733 184.917 60.892C193.007 71.9483 193.844 85.5878 199.186 98.0183ZM191.86 143.297C182.023 151.564 169.675 155.501 158.423 163.044C167.392 163.798 175.038 161.793 182.798 160.884C183.482 160.863 184.145 160.652 184.715 160.274C185.285 159.896 185.737 159.367 186.022 158.745C188.357 153.847 190.693 148.939 191.86 143.297ZM149.257 55.1572C143.461 54.1859 138.366 50.8793 134.44 54.1239C126.628 60.799 122.64 70.357 118.362 79.5637C127.589 70.6566 138.118 63.5476 149.257 55.1572ZM192.129 159.035C199.362 156.131 205.562 153.661 211.679 151.213C214.107 150.241 212.94 148.846 212.061 147.596C209.788 144.362 207.37 141.241 205.19 137.955C203.361 135.217 202.193 135.072 200.871 138.348C198.246 144.858 195.415 151.295 192.129 159.035ZM176.227 38.3454C161.616 38.1491 147.294 39.0274 133.675 45.3202C148.172 45.3202 163.29 50.1147 176.227 38.3454ZM224.791 135.289C224.44 131.487 224.254 128.222 223.758 124.956C223.593 123.83 223.521 121.598 221.516 122.415C216.845 124.305 212.392 127.24 209.674 131.167C207.938 133.688 212.361 136.416 213.808 139.154C214.899 140.897 216.093 142.574 217.383 144.176C218.313 145.488 219.212 145.54 220.214 144.279C222.56 141.479 224.595 138.534 224.791 135.289ZM171.06 31.9596C160.454 29.8947 149.588 29.5111 138.862 30.823C131.195 31.8563 123.59 33.0756 118.672 40.195C119.734 40.9795 120.992 41.4538 122.308 41.5651C123.623 41.6764 124.943 41.4203 126.122 40.8253C128.483 39.8028 130.897 38.9094 133.355 38.1491C145.531 34.1567 158.247 32.0554 171.06 31.9183V31.9596ZM86.5156 152.235V152.318C85.3261 152.421 84.1299 152.421 82.9404 152.318C78.1356 151.43 78.3629 154.095 79.2825 157.33C80.8015 162.672 84.449 164.563 89.8532 164.635C95.2573 164.707 97.9025 163.075 97.6959 157.009C97.5616 153.186 94.1 152.204 90.6075 152.256C89.2435 152.256 87.8796 152.235 86.5156 152.235ZM172.889 125.432C156.863 132.055 140.733 138.152 123.477 140.642C122.082 140.849 119.581 140.415 119.746 142.336C119.963 144.775 122.485 143.835 123.973 143.566C132.063 142.099 140.092 140.26 148.214 138.937C158.113 137.325 165.077 130.702 172.889 125.432ZM53.5638 403.699C56.7256 395.939 52.3651 391.423 48.5626 386.928C44.4294 382.061 41.1125 382.03 36.2457 386.029C33.5901 388.22 32.8255 389.625 36.9173 390.999C43.8126 393.093 49.7224 397.602 53.5638 403.699ZM218.395 114.169C217.822 111.733 216.555 109.515 214.748 107.783C213.952 106.956 213.25 107.855 212.63 108.424C208.941 111.772 205.314 115.192 201.553 118.457C199.899 119.893 200.344 121.113 201.553 122.353C202.762 123.592 203.144 126.093 205.396 124.553C209.53 121.753 213.415 118.674 217.362 115.657C217.787 115.222 218.137 114.719 218.395 114.169ZM115.427 110.087C115.758 115.047 116.068 119.997 116.461 124.956C117.215 135.713 117.225 135.713 127.703 133.316C127.951 133.264 128.116 132.861 128.56 132.344C122.784 125.917 119.23 118.178 115.427 110.087ZM100.269 99.7543C111.79 91.4879 112.575 78.6957 117.887 68.3317C109.155 76.8461 103.834 87.1997 100.269 99.744V99.7543ZM90.4008 215.411C99.8038 211.774 101.767 208.901 101.209 201.648C100.94 198.455 98.3675 197.577 96.2906 196.285C95.3296 195.686 95.0196 197.029 94.8233 197.814C93.3974 203.425 91.9921 209.036 90.4008 215.411ZM213.487 92.5729C227.685 82.3226 233.43 73.0746 229.958 65.5625C226.021 75.8438 219.16 83.7898 213.487 92.5729ZM84.9243 45.7852L85.038 47.0665C91.4754 46.6635 97.9129 46.2398 104.35 45.8678C105.132 45.9004 105.899 45.6448 106.504 45.1496C107.11 44.6543 107.513 43.9539 107.636 43.1813C107.833 41.218 105.714 41.7553 104.536 41.3213C96.9622 38.3351 91.3514 43.7702 84.9243 45.7852ZM62.3158 137.904C66.2836 144.269 72.5351 146.046 79.3962 146.439C80.6981 146.511 82.7957 148.061 83.2401 145.767C83.643 143.7 82.7957 141.799 80.0058 141.5C74.0437 140.869 68.2882 139.185 62.3158 137.904ZM96.7453 142.429C94.6787 142.429 92.4364 142.429 90.2148 142.429C88.7579 142.429 86.5156 140.962 86.5673 144.145C86.5673 146.759 88.3135 147.245 90.4318 146.976C97.2516 146.284 104.071 145.602 110.881 144.847C111.914 144.734 113.702 144.971 113.288 143.111C112.927 141.531 111.222 142.078 110.188 142.181C105.746 142.946 101.213 143.029 96.7453 142.429ZM164.375 85.8358C162.732 75.6578 152.843 66.8644 145.972 69.1067C152.72 73.9674 158.894 79.5798 164.375 85.8358ZM118.909 164.738L119.199 163.374C114.26 161.556 109.289 159.83 104.392 157.898C101.436 156.741 101.633 159.066 101.436 160.523C101.24 161.979 99.6798 164.656 103.1 164.707C108.36 164.821 113.629 164.738 118.899 164.738H118.909ZM160.861 53.4419C163.569 55.9632 162.928 60.8713 166.576 62.1009C169.903 63.2376 173.643 63.2066 177.198 63.6819C172.579 58.6084 167.433 54.9402 160.851 53.4419H160.861ZM88.5305 128.408C89.3055 131.146 84.821 134.287 89.0059 135.527C93.3974 136.819 98.3055 136.209 103.059 136.426L103.307 135.134C98.2229 133.719 93.945 130.609 88.5512 128.408H88.5305ZM101.095 151.492C106.551 154.447 113.35 156.193 117.194 155.769C115.066 148.795 117.329 149.084 101.116 151.492H101.095ZM91.8784 181.622C95.743 170.897 95.3606 170.256 85.6786 171.041C87.0996 174.914 89.2067 178.498 91.8991 181.622H91.8784ZM54.2974 57.5028L53.8737 56.5935C49.7406 57.9161 45.504 59.1974 41.3398 60.582C39.3766 61.233 39.4076 62.9276 39.9656 64.4052C40.8232 66.6681 42.2182 65.0975 43.2101 64.4879C46.9403 62.2353 50.5982 59.8483 54.2974 57.5028ZM145.424 63.8782C148.462 64.3978 151.578 64.2391 154.548 63.4132C155.643 63.1962 157.193 63.6715 157.73 62.3799C158.268 61.0883 156.759 60.4167 156.046 59.5694C155.853 59.2892 155.603 59.0538 155.311 58.8788C155.019 58.7039 154.694 58.5937 154.356 58.5555C154.018 58.5173 153.675 58.552 153.352 58.6574C153.029 58.7628 152.732 58.9364 152.481 59.1664C150.456 60.5613 148.4 61.8943 145.414 63.8782H145.424ZM121.379 84.8438C115.334 88.078 115.179 93.0482 115.861 99.3926C117.876 94.0298 119.54 89.69 121.379 84.8438ZM96.3733 115.843C91.0208 121.268 91.2791 122.353 98.2022 124.419L96.3733 115.843ZM205.407 107.463C201.346 109.064 197.926 111.4 195.807 115.316C199.92 113.859 202.741 110.707 205.407 107.463Z" fill="#467DDB"/>
<path d="M277.023 243.041C285.672 232.016 293.267 229.319 304.447 235.023C312.889 239.332 318.055 247.113 319.791 256.536C320.752 261.703 321.248 267.179 318.551 272.18C317.57 274.009 318.985 275.156 319.647 276.314C322.664 281.893 323.026 287.494 321.713 293.745C315.038 324.972 311.163 356.529 311.897 388.519C312.176 400.919 314.449 413.143 314.687 425.563C314.859 433.457 312.702 441.227 308.487 447.903C300.799 460.726 290.849 471.379 280.485 481.888C273.644 488.832 265.037 485.236 260.284 478.716C250.188 464.87 245.611 449.06 243.596 432.218C241.612 415.685 242.563 399.235 244.34 382.785C244.489 381.417 244.759 380.065 245.146 378.744C245.404 377.835 245.404 376.481 246.799 376.512C248.194 376.543 248.287 377.938 248.329 378.817C248.573 382.256 248.593 385.708 248.391 389.15C246.841 407.646 248.442 425.945 251.862 444.09C254.022 455.57 259.219 465.851 265.915 475.327C269.077 479.801 272.673 480.214 276.806 476.67C289.246 465.851 299.699 452.94 307.692 438.521C308.921 436.371 308.9 433.922 309.004 431.494C309.469 420.128 307.846 408.834 306.937 397.519C304.736 369.527 307.609 341.835 312.321 314.277C313.592 306.827 315.142 299.408 316.805 292.03C317.396 289.59 317.472 287.054 317.03 284.583C316.587 282.112 315.634 279.76 314.232 277.678C309.066 290.077 299.921 298.798 290.043 306.899C289.214 307.497 288.584 308.33 288.234 309.29C287.884 310.249 287.83 311.292 288.08 312.283C290.993 330.355 291.489 348.582 291.179 366.841C291.179 369.61 292.213 374.343 287.904 374.208C284.184 374.084 285.321 369.641 285.279 366.913C285.073 352.447 284.98 337.981 284.876 323.515C284.876 320.838 285.114 318.762 281.074 320.756C277.344 322.595 272.291 318.214 271.681 313.006C271.437 310.438 271.503 307.85 271.877 305.298C272.611 299.439 274.864 293.818 273.686 287.649C273.014 284.136 277.23 281.056 276.786 278.215C276.403 275.838 271.815 274.371 271.164 270.982C269.212 260.773 268.137 250.678 277.24 242.824L277.023 243.041ZM279.555 288.011C287.821 284.239 290.539 284.363 292.791 288.445C292.519 288.635 292.224 288.792 291.913 288.91C289.389 289.442 286.996 290.471 284.872 291.935C282.749 293.4 280.938 295.273 279.544 297.443C278.15 299.614 277.201 302.04 276.752 304.58C276.304 307.12 276.364 309.725 276.93 312.241C277.251 313.636 277.871 315.279 279.203 315.424C280.991 315.62 280.888 313.564 281.27 312.376C282.438 308.904 283.709 305.515 286.85 303.314C297.183 296.143 303.961 285.655 312.197 276.531C313.726 274.846 312.083 274.051 311.349 273.121C308.539 269.566 304.798 267.035 301.182 264.431C294.848 259.864 289.95 261.651 287.501 269.06C286.798 271.188 286.933 272.16 289.485 272.397C291.493 272.484 293.445 273.092 295.148 274.161C296.851 275.229 298.246 276.723 299.198 278.494C289.702 275.818 281.735 275.952 279.555 288.011ZM316.588 270.723C316.588 259.058 313.757 249.386 304.747 242.297C298.485 237.369 289.722 237.989 285.941 243.889C286.616 244.058 287.315 244.107 288.007 244.033C295.86 241.461 299.704 245.883 301.647 252.393C304.106 260.484 311.401 264.214 316.588 270.723ZM277.933 247.278C277.178 249.148 276.042 250.957 275.732 252.909C274.698 259.543 274.512 266.177 278.222 272.211C278.823 273.021 279.666 273.618 280.629 273.916C281.311 274.154 281.725 273.42 281.818 272.645C282.603 265.784 285.011 258.934 281.818 252.031C280.981 250.13 280.588 248.043 277.933 247.237V247.278ZM295.798 254.997C295.158 250.461 293.339 248.601 289.423 249.314C287.873 249.603 285.837 249.407 287.098 251.68C287.986 253.271 286.395 257.539 290.714 255.989C292.419 255.327 295.054 256.939 295.798 254.955V254.997Z" fill="#467DDB"/>
</svg>
