<svg width="120" height="120" viewBox="0 0 120 120" fill="none" xmlns="http://www.w3.org/2000/svg">
<path d="M20 70C17.25 70 14.8967 69.0217 12.94 67.065C10.9833 65.1083 10.0033 62.7533 10 60V15C10 12.25 10.98 9.89667 12.94 7.94C14.9 5.98333 17.2533 5.00333 20 5H100C102.75 5 105.105 5.98 107.065 7.94C109.025 9.9 110.003 12.2533 110 15V60C110 62.75 109.022 65.105 107.065 67.065C105.108 69.025 102.753 70.0033 100 70H83.875C84.375 68.3333 84.7083 66.6667 84.875 65C85.0417 63.3333 85.0417 61.6667 84.875 60C84.2083 53.6667 81.5217 48.3333 76.815 44C72.1083 39.6667 66.5033 37.5 60 37.5C53.4967 37.5 47.8917 39.6667 43.185 44C38.4783 48.3333 35.7917 53.6667 35.125 60C34.9583 61.6667 34.9583 63.3333 35.125 65C35.2917 66.6667 35.625 68.3333 36.125 70H20ZM35 42.5L45 32.5L35 22.5L25 32.5L35 42.5ZM82.5 35C84.5833 35 86.355 34.2717 87.815 32.815C89.275 31.3583 90.0033 29.5867 90 27.5C89.9967 25.4133 89.2683 23.6433 87.815 22.19C86.3617 20.7367 84.59 20.0067 82.5 20C80.41 19.9933 78.64 20.7233 77.19 22.19C75.74 23.6567 75.01 25.4267 75 27.5C74.99 29.5733 75.72 31.345 77.19 32.815C78.66 34.285 80.43 35.0133 82.5 35ZM25 115V104.5C25 101.583 25.8133 98.875 27.44 96.375C29.0667 93.875 31.2117 92 33.875 90.75C37.9583 88.8333 42.2083 87.3967 46.625 86.44C51.0417 85.4833 55.5 85.0033 60 85C64.5 84.9967 68.9583 85.4767 73.375 86.44C77.7917 87.4033 82.0417 88.84 86.125 90.75C88.7917 92 90.9383 93.875 92.565 96.375C94.1917 98.875 95.0033 101.583 95 104.5V115H25ZM60 80C55.1667 80 51.0417 78.2917 47.625 74.875C44.2083 71.4583 42.5 67.3333 42.5 62.5C42.5 57.6667 44.2083 53.5417 47.625 50.125C51.0417 46.7083 55.1667 45 60 45C64.8333 45 68.9583 46.7083 72.375 50.125C75.7917 53.5417 77.5 57.6667 77.5 62.5C77.5 67.3333 75.7917 71.4583 72.375 74.875C68.9583 78.2917 64.8333 80 60 80Z" fill="#F9A5A5"/>
</svg>
