<svg width="121" height="120" viewBox="0 0 121 120" fill="none" xmlns="http://www.w3.org/2000/svg">
<path d="M40.5 54.5C40.5 59.1667 42.7917 63.625 47.375 67.875C51.9583 72.125 55.7917 75.6667 58.875 78.5C59.375 78.9167 59.9383 79.125 60.565 79.125C61.1917 79.125 61.7533 78.9167 62.25 78.5C65.25 75.75 69.0417 72.1883 73.625 67.815C78.2083 63.4417 80.5 59.0033 80.5 54.5C80.5 51.5 79.4167 48.9167 77.25 46.75C75.0833 44.5833 72.5 43.5 69.5 43.5C67.75 43.5 66.0617 43.855 64.435 44.565C62.8083 45.275 61.4967 46.2533 60.5 47.5C59.5 46.25 58.2083 45.2717 56.625 44.565C55.0417 43.8583 53.3333 43.5033 51.5 43.5C48.5 43.5 45.9167 44.5833 43.75 46.75C41.5833 48.9167 40.5 51.5 40.5 54.5ZM60.5 109.5C59.9167 109.5 59.375 109.458 58.875 109.375C58.375 109.292 57.875 109.167 57.375 109C46.125 105.25 37.1667 98.3117 30.5 88.185C23.8333 78.0583 20.5 67.1633 20.5 55.5V31.875C20.5 29.7917 21.105 27.9167 22.315 26.25C23.525 24.5833 25.0867 23.375 27 22.625L57 11.375C58.1667 10.9583 59.3333 10.75 60.5 10.75C61.6667 10.75 62.8333 10.9583 64 11.375L94 22.625C95.9167 23.375 97.48 24.5833 98.69 26.25C99.9 27.9167 100.503 29.7917 100.5 31.875V55.5C100.5 67.1667 97.1667 78.0633 90.5 88.19C83.8333 98.3167 74.875 105.253 63.625 109C63.125 109.167 62.625 109.292 62.125 109.375C61.625 109.458 61.0833 109.5 60.5 109.5Z" fill="#F9A5A5"/>
</svg>
