<svg width="60" height="60" viewBox="0 0 60 60" fill="none" xmlns="http://www.w3.org/2000/svg">
<path d="M26.5 40.125L44.125 22.5L40.625 19L26.5 33.125L19.375 26L15.875 29.5L26.5 40.125ZM12.5 52.5C11.125 52.5 9.94833 52.0108 8.97 51.0325C7.99167 50.0542 7.50167 48.8767 7.5 47.5V12.5C7.5 11.125 7.99 9.94833 8.97 8.97C9.95 7.99167 11.1267 7.50167 12.5 7.5H23C23.5417 6 24.4483 4.79167 25.72 3.875C26.9917 2.95833 28.4183 2.5 30 2.5C31.5817 2.5 33.0092 2.95833 34.2825 3.875C35.5558 4.79167 36.4617 6 37 7.5H47.5C48.875 7.5 50.0525 7.99 51.0325 8.97C52.0125 9.95 52.5017 11.1267 52.5 12.5V47.5C52.5 48.875 52.0108 50.0525 51.0325 51.0325C50.0542 52.0125 48.8767 52.5017 47.5 52.5H12.5ZM30 10.625C30.5417 10.625 30.99 10.4475 31.345 10.0925C31.7 9.7375 31.8767 9.29 31.875 8.75C31.8733 8.21 31.6958 7.7625 31.3425 7.4075C30.9892 7.0525 30.5417 6.875 30 6.875C29.4583 6.875 29.0108 7.0525 28.6575 7.4075C28.3042 7.7625 28.1267 8.21 28.125 8.75C28.1233 9.29 28.3008 9.73833 28.6575 10.095C29.0142 10.4517 29.4617 10.6283 30 10.625Z" fill="#83C796"/>
</svg>
