<svg width="120" height="120" viewBox="0 0 120 120" fill="none" xmlns="http://www.w3.org/2000/svg">
<g clip-path="url(#clip0_99_461)">
<path d="M10 105C7.25 105 4.89667 104.022 2.94 102.065C0.983333 100.108 0.00333333 97.7533 0 95V25C0 22.25 0.98 19.8967 2.94 17.94C4.9 15.9833 7.25333 15.0033 10 15H110C112.75 15 115.105 15.98 117.065 17.94C119.025 19.9 120.003 22.2533 120 25V95C120 97.75 119.022 100.105 117.065 102.065C115.108 104.025 112.753 105.003 110 105H10ZM45 70C49.1667 70 52.7083 68.5417 55.625 65.625C58.5417 62.7083 60 59.1667 60 55C60 50.8333 58.5417 47.2917 55.625 44.375C52.7083 41.4583 49.1667 40 45 40C40.8333 40 37.2917 41.4583 34.375 44.375C31.4583 47.2917 30 50.8333 30 55C30 59.1667 31.4583 62.7083 34.375 65.625C37.2917 68.5417 40.8333 70 45 70ZM95 90L105 80L97.5 70H89.25C88.75 68.5 88.3333 66.8967 88 65.19C87.6667 63.4833 87.5 61.7533 87.5 60C87.5 58.2467 87.6667 56.56 88 54.94C88.3333 53.32 88.75 51.6733 89.25 50H97.5L105 40L95 30C90.5 33.5 86.875 37.9383 84.125 43.315C81.375 48.6917 80 54.2533 80 60C80 65.7467 81.375 71.31 84.125 76.69C86.875 82.07 90.5 86.5067 95 90ZM10.5 95H79.5C76 88.75 71.1667 83.855 65 80.315C58.8333 76.775 52.1667 75.0033 45 75C37.8333 74.9967 31.1667 76.7683 25 80.315C18.8333 83.8617 14 88.7567 10.5 95Z" fill="#83C796"/>
</g>
<defs>
<clipPath id="clip0_99_461">
<rect width="120" height="120" fill="white"/>
</clipPath>
</defs>
</svg>
