<svg width="61" height="60" viewBox="0 0 61 60" fill="none" xmlns="http://www.w3.org/2000/svg">
<g clip-path="url(#clip0_213_971)">
<path d="M5.5 52.5C4.125 52.5 2.94833 52.0108 1.97 51.0325C0.991667 50.0542 0.501667 48.8767 0.5 47.5V12.5C0.5 11.125 0.99 9.94833 1.97 8.97C2.95 7.99167 4.12667 7.50167 5.5 7.5H55.5C56.875 7.5 58.0525 7.99 59.0325 8.97C60.0125 9.95 60.5017 11.1267 60.5 12.5V47.5C60.5 48.875 60.0108 50.0525 59.0325 51.0325C58.0542 52.0125 56.8767 52.5017 55.5 52.5H5.5ZM23 35C25.0833 35 26.8542 34.2708 28.3125 32.8125C29.7708 31.3542 30.5 29.5833 30.5 27.5C30.5 25.4167 29.7708 23.6458 28.3125 22.1875C26.8542 20.7292 25.0833 20 23 20C20.9167 20 19.1458 20.7292 17.6875 22.1875C16.2292 23.6458 15.5 25.4167 15.5 27.5C15.5 29.5833 16.2292 31.3542 17.6875 32.8125C19.1458 34.2708 20.9167 35 23 35ZM48 45L53 40L49.25 35H45.125C44.875 34.25 44.6667 33.4483 44.5 32.595C44.3333 31.7417 44.25 30.8767 44.25 30C44.25 29.1233 44.3333 28.28 44.5 27.47C44.6667 26.66 44.875 25.8367 45.125 25H49.25L53 20L48 15C45.75 16.75 43.9375 18.9692 42.5625 21.6575C41.1875 24.3458 40.5 27.1267 40.5 30C40.5 32.8733 41.1875 35.655 42.5625 38.345C43.9375 41.035 45.75 43.2533 48 45ZM5.75 47.5H40.25C38.5 44.375 36.0833 41.9275 33 40.1575C29.9167 38.3875 26.5833 37.5017 23 37.5C19.4167 37.4983 16.0833 38.3842 13 40.1575C9.91667 41.9308 7.5 44.3783 5.75 47.5Z" fill="#83C796"/>
</g>
<defs>
<clipPath id="clip0_213_971">
<rect width="60" height="60" fill="white" transform="translate(0.5)"/>
</clipPath>
</defs>
</svg>
