<svg width="60" height="60" viewBox="0 0 60 60" fill="none" xmlns="http://www.w3.org/2000/svg">
<path d="M20 35H35C35.7083 35 36.3025 34.76 36.7825 34.28C37.2625 33.8 37.5017 33.2067 37.5 32.5V27.5L42.5 32.5V17.5L37.5 22.5V17.5C37.5 16.7917 37.26 16.1983 36.78 15.72C36.3 15.2417 35.7067 15.0017 35 15H20C19.2917 15 18.6983 15.24 18.22 15.72C17.7417 16.2 17.5017 16.7933 17.5 17.5V32.5C17.5 33.2083 17.74 33.8025 18.22 34.2825C18.7 34.7625 19.2933 35.0017 20 35ZM5 55V10C5 8.625 5.49 7.44833 6.47 6.47C7.45 5.49167 8.62667 5.00167 10 5H50C51.375 5 52.5525 5.49 53.5325 6.47C54.5125 7.45 55.0017 8.62667 55 10V40C55 41.375 54.5108 42.5525 53.5325 43.5325C52.5542 44.5125 51.3767 45.0017 50 45H15L5 55Z" fill="#83C796"/>
</svg>
