<svg width="121" height="120" viewBox="0 0 121 120" fill="none" xmlns="http://www.w3.org/2000/svg">
<path d="M20.5 15C14.95 15 10.5 19.45 10.5 25V75C10.5 77.6522 11.5536 80.1957 13.4289 82.0711C15.3043 83.9464 17.8478 85 20.5 85H60.5V110L75.5 95L90.5 110V85H100.5C103.152 85 105.696 83.9464 107.571 82.0711C109.446 80.1957 110.5 77.6522 110.5 75V25C110.5 22.3478 109.446 19.8043 107.571 17.9289C105.696 16.0536 103.152 15 100.5 15H20.5ZM60.5 25L75.5 35L90.5 25V42.5L105.5 50L90.5 57.5V75L75.5 65L60.5 75V57.5L45.5 50L60.5 42.5V25ZM20.5 25H45.5V35H20.5V25ZM20.5 45H35.5V55H20.5V45ZM20.5 65H45.5V75H20.5V65Z" fill="#F9A5A5"/>
</svg>
