<svg width="61" height="60" viewBox="0 0 61 60" fill="none" xmlns="http://www.w3.org/2000/svg">
<path d="M10.5 7.5C7.725 7.5 5.5 9.725 5.5 12.5V37.5C5.5 38.8261 6.02678 40.0979 6.96447 41.0355C7.90215 41.9732 9.17392 42.5 10.5 42.5H30.5V55L38 47.5L45.5 55V42.5H50.5C51.8261 42.5 53.0979 41.9732 54.0355 41.0355C54.9732 40.0979 55.5 38.8261 55.5 37.5V12.5C55.5 11.1739 54.9732 9.90215 54.0355 8.96447C53.0979 8.02678 51.8261 7.5 50.5 7.5H10.5ZM30.5 12.5L38 17.5L45.5 12.5V21.25L53 25L45.5 28.75V37.5L38 32.5L30.5 37.5V28.75L23 25L30.5 21.25V12.5ZM10.5 12.5H23V17.5H10.5V12.5ZM10.5 22.5H18V27.5H10.5V22.5ZM10.5 32.5H23V37.5H10.5V32.5Z" fill="#F9A5A5"/>
</svg>
