<svg width="120" height="120" viewBox="0 0 120 120" fill="none" xmlns="http://www.w3.org/2000/svg">
<path d="M20 15C14.45 15 10 19.45 10 25V75C10 77.6522 11.0536 80.1957 12.9289 82.0711C14.8043 83.9464 17.3478 85 20 85H60V110L75 95L90 110V85H100C102.652 85 105.196 83.9464 107.071 82.0711C108.946 80.1957 110 77.6522 110 75V25C110 22.3478 108.946 19.8043 107.071 17.9289C105.196 16.0536 102.652 15 100 15H20ZM60 25L75 35L90 25V42.5L105 50L90 57.5V75L75 65L60 75V57.5L45 50L60 42.5V25ZM20 25H45V35H20V25ZM20 45H35V55H20V45ZM20 65H45V75H20V65Z" fill="#F9A5A5"/>
</svg>
