<svg width="156" height="24" viewBox="0 0 156 24" fill="none" xmlns="http://www.w3.org/2000/svg">
<path d="M25.7021 24C24.0681 24 22.7972 23.7504 21.8894 23.2511C20.9816 22.7518 20.3348 21.9801 19.9489 20.9362C19.5858 19.8695 19.4043 18.4511 19.4043 16.6809V3.57447L10.8936 22.4681H10.2128L1.3617 3.23404V22.4681H0V0H3.23404L11.4043 17.7021L19.4043 0H22.4681V16.6809C22.4681 18.7915 22.7291 20.4255 23.2511 21.583C23.7957 22.7404 24.6128 23.3191 25.7021 23.3191V24Z" fill="black"/>
<path d="M30.45 4.42553C29.928 4.42553 29.4741 4.20993 29.0883 3.77872C28.7252 3.34752 28.5436 2.83688 28.5436 2.24681C28.5436 1.77021 28.6798 1.39574 28.9521 1.1234C29.2472 0.851063 29.633 0.714893 30.1096 0.714893C30.6316 0.714893 31.0741 0.930496 31.4372 1.3617C31.8231 1.79291 32.016 2.30355 32.016 2.89362C32.016 3.37021 31.8684 3.74468 31.5734 4.01702C31.3011 4.28936 30.9266 4.42553 30.45 4.42553ZM29.1564 10.5532C29.1564 9.39574 28.9975 8.54468 28.6798 8C28.3621 7.43262 27.7266 7.14894 26.7734 7.14894H26.0926V6.46808H29.1564C29.9961 6.46808 30.6202 6.58156 31.0287 6.80851C31.4599 7.01277 31.7663 7.39858 31.9479 7.96596C32.1294 8.53333 32.2202 9.39574 32.2202 10.5532V22.4681H29.1564V10.5532Z" fill="black"/>
<path d="M37.534 10.5532C37.534 9.39574 37.3752 8.54468 37.0574 8C36.7397 7.43262 36.1043 7.14894 35.1511 7.14894H34.4702V6.46808H37.534C38.3738 6.46808 39.0092 6.58156 39.4404 6.80851C39.8943 7.03546 40.2234 7.37589 40.4277 7.82979H40.5979C41.0745 7.35319 41.6872 6.95603 42.4362 6.6383C43.2078 6.29787 44.0702 6.12766 45.0234 6.12766C46.7255 6.12766 48.1099 6.58156 49.1766 7.48936C50.266 8.39716 50.8106 9.98582 50.8106 12.2553V22.4681H47.7468V12.2553C47.7468 10.6667 47.3837 9.50922 46.6574 8.78298C45.9539 8.03404 45.0688 7.65957 44.0021 7.65957C42.7993 7.65957 41.6645 8.26099 40.5979 9.46383V22.4681H37.534V10.5532Z" fill="black"/>
<path d="M60.8173 22.8085C58.8428 22.8085 57.3223 22.0255 56.2556 20.4596C55.2116 18.8936 54.6896 16.8965 54.6896 14.4681C54.6896 12.0397 55.2343 10.0426 56.3237 8.4766C57.4357 6.91064 59.0471 6.12766 61.1577 6.12766C62.0201 6.12766 62.7804 6.21844 63.4386 6.4C64.0967 6.58156 64.7549 6.83121 65.413 7.14894V4.08511C65.413 2.92766 65.2542 2.0766 64.9364 1.53192C64.6187 0.964539 63.9832 0.68085 63.0301 0.68085H62.3492V0H65.413C66.2527 0 66.8769 0.113475 67.2854 0.340425C67.7166 0.544681 68.023 0.930496 68.2045 1.49787C68.3861 2.06525 68.4769 2.92766 68.4769 4.08511V22.4681H66.7747L65.5832 20.9362H65.413C64.9137 21.5035 64.3237 21.9574 63.6428 22.2979C62.9847 22.6383 62.0428 22.8085 60.8173 22.8085ZM61.8386 21.4468C62.7691 21.4468 63.4726 21.2766 63.9492 20.9362C64.4258 20.5957 64.9137 20.0851 65.413 19.4043V8.51064C64.7322 8.19291 64.1421 7.94326 63.6428 7.7617C63.1435 7.58014 62.6556 7.48936 62.179 7.48936C60.7265 7.48936 59.6485 8.12482 58.945 9.39575C58.2641 10.6667 57.9237 12.3574 57.9237 14.4681C57.9237 16.556 58.2528 18.2468 58.9109 19.5404C59.5691 20.8113 60.5449 21.4468 61.8386 21.4468Z" fill="black"/>
<path d="M73.9037 10.5532C73.9037 9.39574 73.7449 8.54468 73.4271 8C73.1094 7.43262 72.4739 7.14894 71.5207 7.14894H70.8399V6.46808H73.9037C74.7434 6.46808 75.3789 6.58156 75.8101 6.80851C76.264 7.03546 76.5931 7.37589 76.7973 7.82979H76.9676C77.4442 7.35319 78.0569 6.95603 78.8059 6.6383C79.5775 6.29787 80.4399 6.12766 81.3931 6.12766C82.3463 6.12766 83.1633 6.30922 83.8441 6.67234C84.525 7.01277 85.0697 7.62553 85.4782 8.51064C86.0683 7.7617 86.8172 7.18298 87.725 6.77447C88.6555 6.34326 89.6087 6.12766 90.5846 6.12766C92.0371 6.12766 93.1945 6.58156 94.0569 7.48936C94.9193 8.39716 95.3505 9.98582 95.3505 12.2553V22.4681H92.2867V12.2553C92.2867 10.6213 92.0598 9.45248 91.6059 8.74894C91.152 8.02269 90.4711 7.65957 89.5633 7.65957C88.9278 7.65957 88.2583 7.89787 87.5548 8.37447C86.8512 8.82837 86.3293 9.32766 85.9888 9.87234C86.1023 10.2128 86.159 11.0071 86.159 12.2553V22.4681H83.0952V12.2553C83.0952 10.6213 82.8683 9.45248 82.4144 8.74894C81.9605 8.02269 81.2796 7.65957 80.3718 7.65957C79.169 7.65957 78.0342 8.26099 76.9676 9.46383V22.4681H73.9037V10.5532Z" fill="black"/>
<path d="M106.352 22.8085C104.808 22.8085 103.503 22.4454 102.437 21.7191C101.37 20.9702 100.564 19.9716 100.02 18.7234C99.475 17.4525 99.2027 16.034 99.2027 14.4681C99.2027 12.9248 99.475 11.5177 100.02 10.2468C100.564 8.97589 101.347 7.9773 102.369 7.25106C103.413 6.50213 104.627 6.12766 106.011 6.12766C108.303 6.12766 110.006 6.77447 111.118 8.06809C112.252 9.33901 112.82 11.1887 112.82 13.617L112.752 14.9787H102.437C102.437 16.8851 102.845 18.4397 103.662 19.6426C104.479 20.8454 105.603 21.4468 107.032 21.4468C108.099 21.4468 108.996 21.2199 109.722 20.766C110.471 20.3121 111.163 19.6312 111.798 18.7234L112.479 19.234C111.73 20.4823 110.857 21.3901 109.858 21.9574C108.859 22.5248 107.691 22.8085 106.352 22.8085ZM109.586 13.617C109.586 11.6199 109.291 10.0993 108.701 9.05532C108.11 8.01135 107.214 7.48936 106.011 7.48936C105.33 7.48936 104.718 7.7617 104.173 8.30638C103.628 8.82837 103.197 9.55461 102.879 10.4851C102.584 11.4156 102.437 12.4596 102.437 13.617H109.586Z" fill="black"/>
<path d="M116.88 4.08511C116.88 2.92766 116.721 2.0766 116.404 1.53192C116.086 0.964539 115.451 0.68085 114.497 0.68085H113.816V0H116.88C117.72 0 118.344 0.113475 118.753 0.340425C119.184 0.544681 119.49 0.930496 119.672 1.49787C119.853 2.06525 119.944 2.92766 119.944 4.08511V22.4681H116.88V4.08511Z" fill="black"/>
<path d="M130.265 22.8085C128.291 22.8085 126.77 22.0255 125.704 20.4596C124.66 18.8936 124.138 16.8965 124.138 14.4681C124.138 12.0397 124.682 10.0426 125.772 8.4766C126.884 6.91064 128.495 6.12766 130.606 6.12766C131.468 6.12766 132.229 6.21844 132.887 6.4C133.545 6.58156 134.203 6.83121 134.861 7.14894V4.08511C134.861 2.92766 134.702 2.0766 134.385 1.53192C134.067 0.964539 133.431 0.68085 132.478 0.68085H131.797V0H134.861C135.701 0 136.325 0.113475 136.734 0.340425C137.165 0.544681 137.471 0.930496 137.653 1.49787C137.834 2.06525 137.925 2.92766 137.925 4.08511V22.4681H136.223L135.031 20.9362H134.861C134.362 21.5035 133.772 21.9574 133.091 22.2979C132.433 22.6383 131.491 22.8085 130.265 22.8085ZM131.287 21.4468C132.217 21.4468 132.921 21.2766 133.397 20.9362C133.874 20.5957 134.362 20.0851 134.861 19.4043V8.51064C134.18 8.19291 133.59 7.94326 133.091 7.7617C132.592 7.58014 132.104 7.48936 131.627 7.48936C130.175 7.48936 129.097 8.12482 128.393 9.39575C127.712 10.6667 127.372 12.3574 127.372 14.4681C127.372 16.556 127.701 18.2468 128.359 19.5404C129.017 20.8113 129.993 21.4468 131.287 21.4468Z" fill="black"/>
<path d="M148.118 22.8085C146.143 22.8085 144.623 22.0255 143.556 20.4596C142.512 18.8936 141.99 16.8965 141.99 14.4681C141.99 12.0397 142.535 10.0426 143.624 8.4766C144.736 6.91064 146.348 6.12766 148.458 6.12766C149.321 6.12766 150.081 6.21844 150.739 6.4C151.397 6.58156 152.055 6.83121 152.714 7.14894V4.08511C152.714 2.92766 152.555 2.0766 152.237 1.53192C151.919 0.964539 151.284 0.68085 150.331 0.68085H149.65V0H152.714C153.553 0 154.177 0.113475 154.586 0.340425C155.017 0.544681 155.324 0.930496 155.505 1.49787C155.687 2.06525 155.777 2.92766 155.777 4.08511V22.4681H154.075L152.884 20.9362H152.714C152.214 21.5035 151.624 21.9574 150.943 22.2979C150.285 22.6383 149.343 22.8085 148.118 22.8085ZM149.139 21.4468C150.07 21.4468 150.773 21.2766 151.25 20.9362C151.726 20.5957 152.214 20.0851 152.714 19.4043V8.51064C152.033 8.19291 151.443 7.94326 150.943 7.7617C150.444 7.58014 149.956 7.48936 149.48 7.48936C148.027 7.48936 146.949 8.12482 146.245 9.39575C145.565 10.6667 145.224 12.3574 145.224 14.4681C145.224 16.556 145.553 18.2468 146.211 19.5404C146.87 20.8113 147.845 21.4468 149.139 21.4468Z" fill="black"/>
</svg>
