<svg width="157" height="24" viewBox="0 0 157 24" fill="none" xmlns="http://www.w3.org/2000/svg">
<path d="M26.0429 24C24.4089 24 23.138 23.7504 22.2302 23.2511C21.3224 22.7518 20.6756 21.9801 20.2898 20.9362C19.9266 19.8695 19.7451 18.4511 19.7451 16.6809V3.57447L11.2344 22.4681H10.5536L1.70252 3.23404V22.4681H0.34082V0H3.57486L11.7451 17.7021L19.7451 0H22.8089V16.6809C22.8089 18.7915 23.0699 20.4255 23.5919 21.583C24.1366 22.7404 24.9536 23.3191 26.0429 23.3191V24Z" fill="black"/>
<path d="M30.7908 4.42553C30.2688 4.42553 29.8149 4.20993 29.4291 3.77872C29.066 3.34752 28.8844 2.83688 28.8844 2.24681C28.8844 1.77021 29.0206 1.39574 29.2929 1.1234C29.588 0.851063 29.9738 0.714892 30.4504 0.714892C30.9724 0.714892 31.4149 0.930496 31.7781 1.3617C32.1639 1.79291 32.3568 2.30355 32.3568 2.89362C32.3568 3.37021 32.2093 3.74468 31.9142 4.01702C31.6419 4.28936 31.2674 4.42553 30.7908 4.42553ZM29.4972 10.5532C29.4972 9.39574 29.3383 8.54468 29.0206 8C28.7029 7.43262 28.0674 7.14894 27.1142 7.14894H26.4334V6.46808H29.4972C30.3369 6.46808 30.961 6.58156 31.3695 6.80851C31.8007 7.01277 32.1071 7.39858 32.2887 7.96596C32.4703 8.53333 32.561 9.39574 32.561 10.5532V22.4681H29.4972V10.5532Z" fill="black"/>
<path d="M37.8749 10.5532C37.8749 9.39574 37.716 8.54468 37.3983 8C37.0805 7.43262 36.4451 7.14894 35.4919 7.14894H34.811V6.46808H37.8749C38.7146 6.46808 39.35 6.58156 39.7812 6.80851C40.2351 7.03546 40.5642 7.37589 40.7685 7.82979H40.9387C41.4153 7.35319 42.0281 6.95603 42.777 6.6383C43.5486 6.29787 44.411 6.12766 45.3642 6.12766C47.0664 6.12766 48.4508 6.58156 49.5174 7.48936C50.6068 8.39716 51.1515 9.98582 51.1515 12.2553V22.4681H48.0876V12.2553C48.0876 10.6667 47.7245 9.50922 46.9983 8.78298C46.2947 8.03404 45.4096 7.65957 44.3429 7.65957C43.1401 7.65957 42.0054 8.26099 40.9387 9.46383V22.4681H37.8749V10.5532Z" fill="black"/>
<path d="M61.1581 22.8085C59.1836 22.8085 57.6631 22.0255 56.5964 20.4596C55.5524 18.8936 55.0304 16.8965 55.0304 14.4681C55.0304 12.0397 55.5751 10.0426 56.6645 8.4766C57.7765 6.91064 59.3879 6.12766 61.4985 6.12766C62.3609 6.12766 63.1212 6.21844 63.7794 6.4C64.4375 6.58156 65.0957 6.83121 65.7539 7.14894V4.08511C65.7539 2.92766 65.595 2.0766 65.2773 1.53192C64.9595 0.964539 64.3241 0.68085 63.3709 0.68085H62.69V0H65.7539C66.5936 0 67.2177 0.113475 67.6262 0.340425C68.0574 0.544681 68.3638 0.930496 68.5453 1.49787C68.7269 2.06525 68.8177 2.92766 68.8177 4.08511V22.4681H67.1156L65.9241 20.9362H65.7539C65.2546 21.5035 64.6645 21.9574 63.9836 22.2979C63.3255 22.6383 62.3836 22.8085 61.1581 22.8085ZM62.1794 21.4468C63.1099 21.4468 63.8134 21.2766 64.29 20.9362C64.7666 20.5957 65.2546 20.0851 65.7539 19.4043V8.51064C65.073 8.19291 64.4829 7.94326 63.9836 7.7617C63.4844 7.58014 62.9964 7.48936 62.5198 7.48936C61.0673 7.48936 59.9893 8.12482 59.2858 9.39575C58.6049 10.6667 58.2645 12.3574 58.2645 14.4681C58.2645 16.556 58.5936 18.2468 59.2517 19.5404C59.9099 20.8113 60.8858 21.4468 62.1794 21.4468Z" fill="black"/>
<path d="M74.2445 10.5532C74.2445 9.39574 74.0857 8.54468 73.7679 8C73.4502 7.43262 72.8148 7.14894 71.8616 7.14894H71.1807V6.46808H74.2445C75.0843 6.46808 75.7197 6.58156 76.1509 6.80851C76.6048 7.03546 76.9339 7.37589 77.1382 7.82979H77.3084C77.785 7.35319 78.3977 6.95603 79.1467 6.6383C79.9183 6.29787 80.7807 6.12766 81.7339 6.12766C82.6871 6.12766 83.5041 6.30922 84.185 6.67234C84.8658 7.01277 85.4105 7.62553 85.819 8.51064C86.4091 7.7617 87.158 7.18298 88.0658 6.77447C88.9963 6.34326 89.9495 6.12766 90.9254 6.12766C92.3779 6.12766 93.5353 6.58156 94.3977 7.48936C95.2601 8.39716 95.6914 9.98582 95.6914 12.2553V22.4681H92.6275V12.2553C92.6275 10.6213 92.4006 9.45248 91.9467 8.74894C91.4928 8.02269 90.8119 7.65957 89.9041 7.65957C89.2687 7.65957 88.5992 7.89787 87.8956 8.37447C87.1921 8.82837 86.6701 9.32766 86.3297 9.87234C86.4431 10.2128 86.4999 11.0071 86.4999 12.2553V22.4681H83.436V12.2553C83.436 10.6213 83.2091 9.45248 82.7552 8.74894C82.3013 8.02269 81.6204 7.65957 80.7126 7.65957C79.5098 7.65957 78.375 8.26099 77.3084 9.46383V22.4681H74.2445V10.5532Z" fill="black"/>
<path d="M106.692 22.8085C105.149 22.8085 103.844 22.4454 102.778 21.7191C101.711 20.9702 100.905 19.9716 100.361 18.7234C99.8158 17.4525 99.5435 16.034 99.5435 14.4681C99.5435 12.9248 99.8158 11.5177 100.361 10.2468C100.905 8.97589 101.688 7.9773 102.709 7.25106C103.753 6.50213 104.968 6.12766 106.352 6.12766C108.644 6.12766 110.346 6.77447 111.458 8.06809C112.593 9.33901 113.161 11.1887 113.161 13.617L113.092 14.9787H102.778C102.778 16.8851 103.186 18.4397 104.003 19.6426C104.82 20.8454 105.943 21.4468 107.373 21.4468C108.44 21.4468 109.336 21.2199 110.063 20.766C110.812 20.3121 111.504 19.6312 112.139 18.7234L112.82 19.234C112.071 20.4823 111.197 21.3901 110.199 21.9574C109.2 22.5248 108.031 22.8085 106.692 22.8085ZM109.926 13.617C109.926 11.6199 109.631 10.0993 109.041 9.05532C108.451 8.01135 107.555 7.48936 106.352 7.48936C105.671 7.48936 105.058 7.7617 104.514 8.30638C103.969 8.82837 103.538 9.55461 103.22 10.4851C102.925 11.4156 102.778 12.4596 102.778 13.617H109.926Z" fill="black"/>
<path d="M117.221 4.08511C117.221 2.92766 117.062 2.0766 116.745 1.53192C116.427 0.964539 115.791 0.68085 114.838 0.68085H114.157V0H117.221C118.061 0 118.685 0.113475 119.093 0.340425C119.525 0.544681 119.831 0.930496 120.013 1.49787C120.194 2.06525 120.285 2.92766 120.285 4.08511V22.4681H117.221V4.08511Z" fill="black"/>
<path d="M130.606 22.8085C128.632 22.8085 127.111 22.0255 126.045 20.4596C125.001 18.8936 124.479 16.8965 124.479 14.4681C124.479 12.0397 125.023 10.0426 126.113 8.4766C127.225 6.91064 128.836 6.12766 130.947 6.12766C131.809 6.12766 132.569 6.21844 133.228 6.4C133.886 6.58156 134.544 6.83121 135.202 7.14894V4.08511C135.202 2.92766 135.043 2.0766 134.725 1.53192C134.408 0.964539 133.772 0.68085 132.819 0.68085H132.138V0H135.202C136.042 0 136.666 0.113475 137.074 0.340425C137.506 0.544681 137.812 0.930496 137.993 1.49787C138.175 2.06525 138.266 2.92766 138.266 4.08511V22.4681H136.564L135.372 20.9362H135.202C134.703 21.5035 134.113 21.9574 133.432 22.2979C132.774 22.6383 131.832 22.8085 130.606 22.8085ZM131.628 21.4468C132.558 21.4468 133.262 21.2766 133.738 20.9362C134.215 20.5957 134.703 20.0851 135.202 19.4043V8.51064C134.521 8.19291 133.931 7.94326 133.432 7.7617C132.932 7.58014 132.445 7.48936 131.968 7.48936C130.515 7.48936 129.437 8.12482 128.734 9.39575C128.053 10.6667 127.713 12.3574 127.713 14.4681C127.713 16.556 128.042 18.2468 128.7 19.5404C129.358 20.8113 130.334 21.4468 131.628 21.4468Z" fill="black"/>
<path d="M148.459 22.8085C146.484 22.8085 144.964 22.0255 143.897 20.4596C142.853 18.8936 142.331 16.8965 142.331 14.4681C142.331 12.0397 142.876 10.0426 143.965 8.4766C145.077 6.91064 146.688 6.12766 148.799 6.12766C149.661 6.12766 150.422 6.21844 151.08 6.4C151.738 6.58156 152.396 6.83121 153.054 7.14894V4.08511C153.054 2.92766 152.896 2.0766 152.578 1.53192C152.26 0.964539 151.625 0.68085 150.671 0.68085H149.991V0H153.054C153.894 0 154.518 0.113475 154.927 0.340425C155.358 0.544681 155.664 0.930496 155.846 1.49787C156.027 2.06525 156.118 2.92766 156.118 4.08511V22.4681H154.416L153.225 20.9362H153.054C152.555 21.5035 151.965 21.9574 151.284 22.2979C150.626 22.6383 149.684 22.8085 148.459 22.8085ZM149.48 21.4468C150.41 21.4468 151.114 21.2766 151.591 20.9362C152.067 20.5957 152.555 20.0851 153.054 19.4043V8.51064C152.374 8.19291 151.783 7.94326 151.284 7.7617C150.785 7.58014 150.297 7.48936 149.82 7.48936C148.368 7.48936 147.29 8.12482 146.586 9.39575C145.905 10.6667 145.565 12.3574 145.565 14.4681C145.565 16.556 145.894 18.2468 146.552 19.5404C147.21 20.8113 148.186 21.4468 149.48 21.4468Z" fill="black"/>
</svg>
