<svg width="157" height="24" viewBox="0 0 157 24" fill="none" xmlns="http://www.w3.org/2000/svg">
<path d="M26.1611 24C24.5271 24 23.2561 23.7504 22.3483 23.2511C21.4405 22.7518 20.7937 21.9801 20.4079 20.9362C20.0448 19.8695 19.8632 18.4511 19.8632 16.6809V3.57447L11.3526 22.4681H10.6718L1.82069 3.23404V22.4681H0.458984V0H3.69303L11.8632 17.7021L19.8632 0H22.9271V16.6809C22.9271 18.7915 23.1881 20.4255 23.71 21.583C24.2547 22.7404 25.0718 23.3191 26.1611 23.3191V24Z" fill="black"/>
<path d="M30.909 4.42553C30.387 4.42553 29.9331 4.20993 29.5473 3.77872C29.1842 3.34752 29.0026 2.83688 29.0026 2.24681C29.0026 1.77021 29.1388 1.39574 29.4111 1.1234C29.7061 0.851063 30.092 0.714892 30.5686 0.714892C31.0905 0.714892 31.5331 0.930496 31.8962 1.3617C32.282 1.79291 32.4749 2.30355 32.4749 2.89362C32.4749 3.37021 32.3274 3.74468 32.0324 4.01702C31.76 4.28936 31.3856 4.42553 30.909 4.42553ZM29.6154 10.5532C29.6154 9.39574 29.4565 8.54468 29.1388 8C28.821 7.43262 28.1856 7.14894 27.2324 7.14894H26.5515V6.46808H29.6154C30.4551 6.46808 31.0792 6.58156 31.4877 6.80851C31.9189 7.01277 32.2253 7.39858 32.4069 7.96596C32.5884 8.53333 32.6792 9.39574 32.6792 10.5532V22.4681H29.6154V10.5532Z" fill="black"/>
<path d="M37.993 10.5532C37.993 9.39574 37.8342 8.54468 37.5164 8C37.1987 7.43262 36.5632 7.14894 35.61 7.14894H34.9292V6.46808H37.993C38.8327 6.46808 39.4682 6.58156 39.8994 6.80851C40.3533 7.03546 40.6824 7.37589 40.8866 7.82979H41.0569C41.5335 7.35319 42.1462 6.95603 42.8952 6.6383C43.6668 6.29787 44.5292 6.12766 45.4824 6.12766C47.1845 6.12766 48.5689 6.58156 49.6356 7.48936C50.7249 8.39716 51.2696 9.98582 51.2696 12.2553V22.4681H48.2058V12.2553C48.2058 10.6667 47.8427 9.50922 47.1164 8.78298C46.4129 8.03404 45.5278 7.65957 44.4611 7.65957C43.2583 7.65957 42.1235 8.26099 41.0569 9.46383V22.4681H37.993V10.5532Z" fill="black"/>
<path d="M61.2763 22.8085C59.3018 22.8085 57.7812 22.0255 56.7146 20.4596C55.6706 18.8936 55.1486 16.8965 55.1486 14.4681C55.1486 12.0397 55.6933 10.0426 56.7827 8.4766C57.8947 6.91064 59.5061 6.12766 61.6167 6.12766C62.4791 6.12766 63.2394 6.21844 63.8975 6.4C64.5557 6.58156 65.2139 6.83121 65.872 7.14894V4.08511C65.872 2.92766 65.7132 2.0766 65.3954 1.53192C65.0777 0.964539 64.4422 0.68085 63.489 0.68085H62.8082V0H65.872C66.7117 0 67.3358 0.113475 67.7444 0.340425C68.1756 0.544681 68.4819 0.930496 68.6635 1.49787C68.8451 2.06525 68.9358 2.92766 68.9358 4.08511V22.4681H67.2337L66.0422 20.9362H65.872C65.3727 21.5035 64.7827 21.9574 64.1018 22.2979C63.4437 22.6383 62.5018 22.8085 61.2763 22.8085ZM62.2975 21.4468C63.228 21.4468 63.9316 21.2766 64.4082 20.9362C64.8848 20.5957 65.3727 20.0851 65.872 19.4043V8.51064C65.1912 8.19291 64.6011 7.94326 64.1018 7.7617C63.6025 7.58014 63.1146 7.48936 62.638 7.48936C61.1855 7.48936 60.1075 8.12482 59.4039 9.39575C58.7231 10.6667 58.3827 12.3574 58.3827 14.4681C58.3827 16.556 58.7117 18.2468 59.3699 19.5404C60.028 20.8113 61.0039 21.4468 62.2975 21.4468Z" fill="black"/>
<path d="M74.3627 10.5532C74.3627 9.39574 74.2038 8.54468 73.8861 8C73.5684 7.43262 72.9329 7.14894 71.9797 7.14894H71.2989V6.46808H74.3627C75.2024 6.46808 75.8379 6.58156 76.2691 6.80851C76.723 7.03546 77.0521 7.37589 77.2563 7.82979H77.4265C77.9031 7.35319 78.5159 6.95603 79.2648 6.6383C80.0365 6.29787 80.8989 6.12766 81.8521 6.12766C82.8053 6.12766 83.6223 6.30922 84.3031 6.67234C84.984 7.01277 85.5287 7.62553 85.9372 8.51064C86.5272 7.7617 87.2762 7.18298 88.184 6.77447C89.1145 6.34326 90.0677 6.12766 91.0436 6.12766C92.496 6.12766 93.6535 6.58156 94.5159 7.48936C95.3783 8.39716 95.8095 9.98582 95.8095 12.2553V22.4681H92.7457V12.2553C92.7457 10.6213 92.5187 9.45248 92.0648 8.74894C91.6109 8.02269 90.9301 7.65957 90.0223 7.65957C89.3868 7.65957 88.7173 7.89787 88.0138 8.37447C87.3102 8.82837 86.7882 9.32766 86.4478 9.87234C86.5613 10.2128 86.618 11.0071 86.618 12.2553V22.4681H83.5542V12.2553C83.5542 10.6213 83.3273 9.45248 82.8734 8.74894C82.4194 8.02269 81.7386 7.65957 80.8308 7.65957C79.628 7.65957 78.4932 8.26099 77.4265 9.46383V22.4681H74.3627V10.5532Z" fill="black"/>
<path d="M106.811 22.8085C105.267 22.8085 103.962 22.4454 102.896 21.7191C101.829 20.9702 101.023 19.9716 100.479 18.7234C99.934 17.4525 99.6616 16.034 99.6616 14.4681C99.6616 12.9248 99.934 11.5177 100.479 10.2468C101.023 8.97589 101.806 7.9773 102.828 7.25106C103.872 6.50213 105.086 6.12766 106.47 6.12766C108.762 6.12766 110.464 6.77447 111.577 8.06809C112.711 9.33901 113.279 11.1887 113.279 13.617L113.211 14.9787H102.896C102.896 16.8851 103.304 18.4397 104.121 19.6426C104.938 20.8454 106.062 21.4468 107.491 21.4468C108.558 21.4468 109.455 21.2199 110.181 20.766C110.93 20.3121 111.622 19.6312 112.257 18.7234L112.938 19.234C112.189 20.4823 111.316 21.3901 110.317 21.9574C109.318 22.5248 108.15 22.8085 106.811 22.8085ZM110.045 13.617C110.045 11.6199 109.75 10.0993 109.16 9.05532C108.569 8.01135 107.673 7.48936 106.47 7.48936C105.789 7.48936 105.177 7.7617 104.632 8.30638C104.087 8.82837 103.656 9.55461 103.338 10.4851C103.043 11.4156 102.896 12.4596 102.896 13.617H110.045Z" fill="black"/>
<path d="M117.339 4.08511C117.339 2.92766 117.18 2.0766 116.863 1.53192C116.545 0.964539 115.91 0.68085 114.956 0.68085H114.275V0H117.339C118.179 0 118.803 0.113475 119.212 0.340425C119.643 0.544681 119.949 0.930496 120.131 1.49787C120.312 2.06525 120.403 2.92766 120.403 4.08511V22.4681H117.339V4.08511Z" fill="black"/>
<path d="M130.724 22.8085C128.75 22.8085 127.229 22.0255 126.163 20.4596C125.119 18.8936 124.597 16.8965 124.597 14.4681C124.597 12.0397 125.141 10.0426 126.231 8.4766C127.343 6.91064 128.954 6.12766 131.065 6.12766C131.927 6.12766 132.688 6.21844 133.346 6.4C134.004 6.58156 134.662 6.83121 135.32 7.14894V4.08511C135.32 2.92766 135.161 2.0766 134.844 1.53192C134.526 0.964539 133.89 0.68085 132.937 0.68085H132.256V0H135.32C136.16 0 136.784 0.113475 137.192 0.340425C137.624 0.544681 137.93 0.930496 138.112 1.49787C138.293 2.06525 138.384 2.92766 138.384 4.08511V22.4681H136.682L135.49 20.9362H135.32C134.821 21.5035 134.231 21.9574 133.55 22.2979C132.892 22.6383 131.95 22.8085 130.724 22.8085ZM131.746 21.4468C132.676 21.4468 133.38 21.2766 133.856 20.9362C134.333 20.5957 134.821 20.0851 135.32 19.4043V8.51064C134.639 8.19291 134.049 7.94326 133.55 7.7617C133.051 7.58014 132.563 7.48936 132.086 7.48936C130.634 7.48936 129.556 8.12482 128.852 9.39575C128.171 10.6667 127.831 12.3574 127.831 14.4681C127.831 16.556 128.16 18.2468 128.818 19.5404C129.476 20.8113 130.452 21.4468 131.746 21.4468Z" fill="black"/>
<path d="M148.577 22.8085C146.602 22.8085 145.082 22.0255 144.015 20.4596C142.971 18.8936 142.449 16.8965 142.449 14.4681C142.449 12.0397 142.994 10.0426 144.083 8.4766C145.195 6.91064 146.807 6.12766 148.917 6.12766C149.78 6.12766 150.54 6.21844 151.198 6.4C151.856 6.58156 152.514 6.83121 153.173 7.14894V4.08511C153.173 2.92766 153.014 2.0766 152.696 1.53192C152.378 0.964539 151.743 0.68085 150.79 0.68085H150.109V0H153.173C154.012 0 154.636 0.113475 155.045 0.340425C155.476 0.544681 155.782 0.930496 155.964 1.49787C156.146 2.06525 156.236 2.92766 156.236 4.08511V22.4681H154.534L153.343 20.9362H153.173C152.673 21.5035 152.083 21.9574 151.402 22.2979C150.744 22.6383 149.802 22.8085 148.577 22.8085ZM149.598 21.4468C150.529 21.4468 151.232 21.2766 151.709 20.9362C152.185 20.5957 152.673 20.0851 153.173 19.4043V8.51064C152.492 8.19291 151.902 7.94326 151.402 7.7617C150.903 7.58014 150.415 7.48936 149.939 7.48936C148.486 7.48936 147.408 8.12482 146.704 9.39575C146.024 10.6667 145.683 12.3574 145.683 14.4681C145.683 16.556 146.012 18.2468 146.67 19.5404C147.329 20.8113 148.304 21.4468 149.598 21.4468Z" fill="black"/>
</svg>
