<svg width="131" height="20" viewBox="0 0 131 20" fill="none" xmlns="http://www.w3.org/2000/svg">
<path d="M21.8774 20C20.5157 20 19.4566 19.792 18.7001 19.3759C17.9436 18.9598 17.4046 18.3168 17.0831 17.4468C16.7805 16.5579 16.6292 15.3759 16.6292 13.9007V2.97872L9.537 18.7234H8.96962L1.59374 2.69504V18.7234H0.458984V0H3.15402L9.96253 14.7518L16.6292 0H19.1824V13.9007C19.1824 15.6596 19.3999 17.0213 19.8349 17.9858C20.2888 18.9504 20.9696 19.4326 21.8774 19.4326V20Z" fill="black"/>
<path d="M25.834 3.68794C25.399 3.68794 25.0207 3.50827 24.6992 3.14894C24.3966 2.7896 24.2453 2.36407 24.2453 1.87234C24.2453 1.47518 24.3588 1.16312 24.5858 0.93617C24.8316 0.709219 25.1531 0.595744 25.5503 0.595744C25.9853 0.595744 26.3541 0.775413 26.6567 1.13475C26.9782 1.49409 27.1389 1.91962 27.1389 2.41135C27.1389 2.80851 27.016 3.12057 26.7702 3.34752C26.5432 3.57447 26.2311 3.68794 25.834 3.68794ZM24.756 8.79433C24.756 7.82979 24.6236 7.12057 24.3588 6.66667C24.094 6.19385 23.5645 5.95745 22.7702 5.95745H22.2028V5.39007H24.756C25.4557 5.39007 25.9758 5.48463 26.3163 5.67376C26.6756 5.84397 26.9309 6.16548 27.0822 6.6383C27.2335 7.11111 27.3092 7.82979 27.3092 8.79433V18.7234H24.756V8.79433Z" fill="black"/>
<path d="M31.7374 8.79433C31.7374 7.82979 31.605 7.12057 31.3402 6.66667C31.0754 6.19385 30.5459 5.95745 29.7515 5.95745H29.1842V5.39007H31.7374C32.4371 5.39007 32.9667 5.48463 33.326 5.67376C33.7043 5.86288 33.9785 6.14657 34.1487 6.52482H34.2905C34.6877 6.12766 35.1983 5.79669 35.8225 5.53191C36.4655 5.24823 37.1842 5.10638 37.9785 5.10638C39.3969 5.10638 40.5506 5.48463 41.4395 6.24113C42.3473 6.99764 42.8012 8.32151 42.8012 10.2128V18.7234H40.248V10.2128C40.248 8.88889 39.9454 7.92435 39.3402 7.31915C38.7539 6.69503 38.0163 6.38298 37.1274 6.38298C36.1251 6.38298 35.1794 6.88416 34.2905 7.88652V18.7234H31.7374V8.79433Z" fill="black"/>
<path d="M51.1401 19.0071C49.4947 19.0071 48.2275 18.3546 47.3386 17.0496C46.4687 15.7447 46.0337 14.0804 46.0337 12.0567C46.0337 10.0331 46.4876 8.36879 47.3954 7.06383C48.3221 5.75887 49.6649 5.10638 51.4237 5.10638C52.1424 5.10638 52.776 5.18203 53.3245 5.33333C53.8729 5.48463 54.4214 5.69267 54.9698 5.95745V3.40426C54.9698 2.43972 54.8375 1.7305 54.5727 1.2766C54.3079 0.803782 53.7784 0.567375 52.984 0.567375H52.4167V0H54.9698C55.6696 0 56.1897 0.0945626 56.5301 0.283688C56.8895 0.4539 57.1448 0.775413 57.2961 1.24823C57.4474 1.72104 57.523 2.43972 57.523 3.40426V18.7234H56.1046L55.1117 17.4468H54.9698C54.5538 17.9196 54.062 18.2979 53.4947 18.5816C52.9462 18.8652 52.1613 19.0071 51.1401 19.0071ZM51.9911 17.8723C52.7665 17.8723 53.3528 17.7305 53.75 17.4468C54.1471 17.1631 54.5538 16.7376 54.9698 16.1702V7.0922C54.4025 6.82742 53.9107 6.61939 53.4947 6.46809C53.0786 6.31678 52.672 6.24113 52.2748 6.24113C51.0644 6.24113 50.1661 6.77069 49.5798 7.82979C49.0124 8.88889 48.7287 10.2979 48.7287 12.0567C48.7287 13.7967 49.0029 15.2057 49.5514 16.2837C50.0999 17.3428 50.9131 17.8723 51.9911 17.8723Z" fill="black"/>
<path d="M62.0454 8.79433C62.0454 7.82979 61.913 7.12057 61.6483 6.66667C61.3835 6.19385 60.8539 5.95745 60.0596 5.95745H59.4922V5.39007H62.0454C62.7452 5.39007 63.2747 5.48463 63.6341 5.67376C64.0123 5.86288 64.2866 6.14657 64.4568 6.52482H64.5986C64.9958 6.12766 65.5064 5.79669 66.1305 5.53191C66.7736 5.24823 67.4922 5.10638 68.2866 5.10638C69.0809 5.10638 69.7617 5.25768 70.3291 5.56028C70.8965 5.84397 71.3504 6.35461 71.6908 7.0922C72.1825 6.46809 72.8066 5.98582 73.5631 5.64539C74.3386 5.28605 75.1329 5.10638 75.9461 5.10638C77.1565 5.10638 78.1211 5.48463 78.8397 6.24113C79.5584 6.99764 79.9178 8.32151 79.9178 10.2128V18.7234H77.3646V10.2128C77.3646 8.85106 77.1754 7.87707 76.7972 7.29078C76.4189 6.68558 75.8516 6.38298 75.0951 6.38298C74.5655 6.38298 74.0076 6.58156 73.4213 6.97872C72.835 7.35697 72.4 7.77305 72.1163 8.22695C72.2109 8.51064 72.2582 9.17258 72.2582 10.2128V18.7234H69.705V10.2128C69.705 8.85106 69.5159 7.87707 69.1376 7.29078C68.7594 6.68558 68.192 6.38298 67.4355 6.38298C66.4331 6.38298 65.4875 6.88416 64.5986 7.88652V18.7234H62.0454V8.79433Z" fill="black"/>
<path d="M89.0853 19.0071C87.7993 19.0071 86.7118 18.7045 85.8229 18.0993C84.934 17.4752 84.2626 16.643 83.8087 15.6028C83.3548 14.5437 83.1279 13.3617 83.1279 12.0567C83.1279 10.7707 83.3548 9.59811 83.8087 8.53901C84.2626 7.47991 84.9151 6.64775 85.7662 6.04255C86.6361 5.41844 87.648 5.10638 88.8016 5.10638C90.7118 5.10638 92.1302 5.64539 93.0569 6.7234C94.0026 7.78251 94.4754 9.32388 94.4754 11.3475L94.4186 12.4823H85.8229C85.8229 14.0709 86.1633 15.3664 86.8442 16.3688C87.525 17.3712 88.4612 17.8723 89.6527 17.8723C90.5416 17.8723 91.2886 17.6832 91.8938 17.305C92.5179 16.9267 93.0948 16.3593 93.6243 15.6028L94.1917 16.0284C93.5676 17.0686 92.8394 17.8251 92.0073 18.2979C91.1751 18.7707 90.2012 19.0071 89.0853 19.0071ZM91.7803 11.3475C91.7803 9.68322 91.5345 8.41608 91.0428 7.5461C90.551 6.67612 89.804 6.24113 88.8016 6.24113C88.2342 6.24113 87.7236 6.46808 87.2697 6.92199C86.8158 7.35697 86.4565 7.96218 86.1917 8.73759C85.9458 9.513 85.8229 10.383 85.8229 11.3475H91.7803Z" fill="black"/>
<path d="M97.8592 3.40426C97.8592 2.43972 97.7269 1.7305 97.4621 1.2766C97.1973 0.803782 96.6678 0.567375 95.8734 0.567375H95.3061V0H97.8592C98.559 0 99.0791 0.0945626 99.4195 0.283688C99.7789 0.4539 100.034 0.775413 100.185 1.24823C100.337 1.72104 100.412 2.43972 100.412 3.40426V18.7234H97.8592V3.40426Z" fill="black"/>
<path d="M109.014 19.0071C107.368 19.0071 106.101 18.3546 105.212 17.0496C104.342 15.7447 103.907 14.0804 103.907 12.0567C103.907 10.0331 104.361 8.36879 105.269 7.06383C106.196 5.75887 107.538 5.10638 109.297 5.10638C110.016 5.10638 110.649 5.18203 111.198 5.33333C111.746 5.48463 112.295 5.69267 112.843 5.95745V3.40426C112.843 2.43972 112.711 1.7305 112.446 1.2766C112.181 0.803782 111.652 0.567375 110.857 0.567375H110.29V0H112.843C113.543 0 114.063 0.0945626 114.404 0.283688C114.763 0.4539 115.018 0.775413 115.17 1.24823C115.321 1.72104 115.396 2.43972 115.396 3.40426V18.7234H113.978L112.985 17.4468H112.843C112.427 17.9196 111.935 18.2979 111.368 18.5816C110.82 18.8652 110.035 19.0071 109.014 19.0071ZM109.865 17.8723C110.64 17.8723 111.226 17.7305 111.623 17.4468C112.021 17.1631 112.427 16.7376 112.843 16.1702V7.0922C112.276 6.82742 111.784 6.61939 111.368 6.46809C110.952 6.31678 110.545 6.24113 110.148 6.24113C108.938 6.24113 108.04 6.77069 107.453 7.82979C106.886 8.88889 106.602 10.2979 106.602 12.0567C106.602 13.7967 106.876 15.2057 107.425 16.2837C107.973 17.3428 108.787 17.8723 109.865 17.8723Z" fill="black"/>
<path d="M123.89 19.0071C122.245 19.0071 120.978 18.3546 120.089 17.0496C119.219 15.7447 118.784 14.0804 118.784 12.0567C118.784 10.0331 119.238 8.36879 120.146 7.06383C121.073 5.75887 122.415 5.10638 124.174 5.10638C124.893 5.10638 125.526 5.18203 126.075 5.33333C126.623 5.48463 127.172 5.69267 127.72 5.95745V3.40426C127.72 2.43972 127.588 1.7305 127.323 1.2766C127.058 0.803782 126.529 0.567375 125.734 0.567375H125.167V0H127.72C128.42 0 128.94 0.0945626 129.281 0.283688C129.64 0.4539 129.895 0.775413 130.047 1.24823C130.198 1.72104 130.273 2.43972 130.273 3.40426V18.7234H128.855L127.862 17.4468H127.72C127.304 17.9196 126.812 18.2979 126.245 18.5816C125.697 18.8652 124.912 19.0071 123.89 19.0071ZM124.742 17.8723C125.517 17.8723 126.103 17.7305 126.5 17.4468C126.898 17.1631 127.304 16.7376 127.72 16.1702V7.0922C127.153 6.82742 126.661 6.61939 126.245 6.46809C125.829 6.31678 125.422 6.24113 125.025 6.24113C123.815 6.24113 122.916 6.77069 122.33 7.82979C121.763 8.88889 121.479 10.2979 121.479 12.0567C121.479 13.7967 121.753 15.2057 122.302 16.2837C122.85 17.3428 123.664 17.8723 124.742 17.8723Z" fill="black"/>
</svg>
