<svg width="200" height="201" viewBox="0 0 200 201" fill="none" xmlns="http://www.w3.org/2000/svg">
<g clip-path="url(#clip0_13_10387)">
<path d="M160.5 140.923C163.941 144.273 166.666 148.69 166.666 154.223C166.666 160.498 163.116 165.382 159.166 168.765C155.166 172.165 149.883 174.857 144.083 176.957C132.4 181.165 116.816 183.615 99.9997 183.615C83.183 183.615 67.5997 181.165 55.9163 176.948C50.1163 174.865 44.833 172.165 40.8413 168.765C36.883 165.382 33.333 160.498 33.333 154.223C33.333 148.698 36.058 144.273 39.4997 140.923C47.2783 149.155 56.6576 155.71 67.0614 160.185C77.4652 164.661 88.6741 166.962 99.9997 166.948C123.825 166.948 145.316 156.948 160.5 140.923ZM99.9997 16.9482C117.681 16.9482 134.638 23.972 147.14 36.4745C159.643 48.9769 166.666 65.9338 166.666 83.6149C166.666 101.296 159.643 118.253 147.14 130.755C134.638 143.258 117.681 150.282 99.9997 150.282C82.3186 150.282 65.3616 143.258 52.8592 130.755C40.3568 118.253 33.333 101.296 33.333 83.6149C33.333 65.9338 40.3568 48.9769 52.8592 36.4745C65.3616 23.972 82.3186 16.9482 99.9997 16.9482ZM99.9997 50.2816C91.1591 50.2816 82.6807 53.7935 76.4294 60.0447C70.1782 66.2959 66.6663 74.7744 66.6663 83.6149C66.6663 92.4555 70.1782 100.934 76.4294 107.185C82.6807 113.436 91.1591 116.948 99.9997 116.948C108.84 116.948 117.319 113.436 123.57 107.185C129.821 100.934 133.333 92.4555 133.333 83.6149C133.333 74.7744 129.821 66.2959 123.57 60.0447C117.319 53.7935 108.84 50.2816 99.9997 50.2816ZM99.9997 66.9482C104.42 66.9482 108.659 68.7042 111.785 71.8298C114.91 74.9554 116.666 79.1946 116.666 83.6149C116.666 88.0352 114.91 92.2744 111.785 95.4C108.659 98.5256 104.42 100.282 99.9997 100.282C95.5794 100.282 91.3402 98.5256 88.2146 95.4C85.089 92.2744 83.333 88.0352 83.333 83.6149C83.333 79.1946 85.089 74.9554 88.2146 71.8298C91.3402 68.7042 95.5794 66.9482 99.9997 66.9482Z" fill="#83C796"/>
</g>
<defs>
<clipPath id="clip0_13_10387">
<rect width="200" height="200" fill="white" transform="translate(0 0.28125)"/>
</clipPath>
</defs>
</svg>
