<svg width="200" height="201" viewBox="0 0 200 201" fill="none" xmlns="http://www.w3.org/2000/svg">
<g clip-path="url(#clip0_13_10379)">
<path d="M57.1414 20.6558C66.6664 27.5975 74.0831 37.0725 80.4164 46.1392L84.0997 51.5059L87.5747 56.6309C89.3129 59.1703 90.0561 62.2604 89.6627 65.3125C89.2693 68.3646 87.7668 71.1652 85.4414 73.1809L69.1831 85.2559C68.3976 85.8231 67.8447 86.6561 67.627 87.6002C67.4094 88.5443 67.5418 89.5353 67.9997 90.3892C71.6831 97.0808 78.2331 107.048 85.7331 114.548C93.2414 122.048 103.675 129.031 110.833 133.131C111.731 133.635 112.787 133.776 113.785 133.524C114.783 133.273 115.647 132.649 116.2 131.781L126.783 115.673C128.729 113.088 131.599 111.356 134.793 110.841C137.987 110.325 141.256 111.065 143.916 112.906L149.441 116.731C159.766 123.898 170.858 132.039 179.341 142.898C180.687 144.629 181.543 146.69 181.82 148.866C182.097 151.041 181.785 153.251 180.916 155.264C173.941 171.539 156.291 185.398 137.933 184.723L135.433 184.581L133.491 184.414L131.341 184.164L129 183.848L126.458 183.431C126.013 183.351 125.569 183.267 125.125 183.181L122.325 182.581C121.835 182.473 121.346 182.362 120.858 182.248L117.808 181.464L114.6 180.548L111.25 179.464C95.8664 174.248 76.3414 163.998 56.3081 143.964C36.2831 123.939 26.0331 104.414 20.8164 89.0309L19.7331 85.6809L18.8164 82.4725L18.0331 79.4225L17.3831 76.5392C17.1953 75.6361 17.0203 74.7305 16.8581 73.8225L16.4414 71.2809L16.1081 68.9392L15.8664 66.7892L15.6997 64.8475L15.5664 62.3475C14.8914 44.0475 28.8997 26.2725 45.0997 19.3308C47.0495 18.4889 49.1847 18.1684 51.2958 18.4006C53.4069 18.6329 55.4213 19.4101 57.1414 20.6558ZM124.933 50.6142L125.9 50.7225C131.966 51.7925 137.537 54.7554 141.816 59.1865C146.094 63.6176 148.86 69.2895 149.716 75.3892C150.022 77.499 149.507 79.6457 148.278 81.3875C147.049 83.1294 145.199 84.334 143.109 84.7535C141.019 85.1731 138.847 84.7756 137.041 83.6429C135.235 82.5102 133.932 80.7285 133.4 78.6642L133.208 77.7059C132.873 75.315 131.852 73.0724 130.27 71.2491C128.688 69.4257 126.611 68.0995 124.291 67.4309L123 67.1392C120.907 66.7683 119.035 65.612 117.767 63.9067C116.499 62.2015 115.93 60.0761 116.177 57.9654C116.424 55.8547 117.468 53.918 119.096 52.5515C120.723 51.1851 122.811 50.492 124.933 50.6142ZM125 25.2808C138.261 25.2808 150.978 30.5487 160.355 39.9255C169.732 49.3023 175 62.02 175 75.2809C174.997 77.4049 174.184 79.4478 172.726 80.9923C171.268 82.5367 169.275 83.4661 167.155 83.5906C165.034 83.7151 162.947 83.0252 161.318 81.662C159.689 80.2987 158.642 78.365 158.391 76.2559L158.333 75.2809C158.336 66.8177 155.118 58.6705 149.333 52.4936C143.548 46.3166 135.628 42.5729 127.183 42.0225L125 41.9475C122.79 41.9475 120.67 41.0695 119.107 39.5067C117.544 37.9439 116.666 35.8243 116.666 33.6142C116.666 31.404 117.544 29.2844 119.107 27.7216C120.67 26.1588 122.79 25.2808 125 25.2808Z" fill="#83C796"/>
</g>
<defs>
<clipPath id="clip0_13_10379">
<rect width="200" height="200" fill="white" transform="translate(0 0.28125)"/>
</clipPath>
</defs>
</svg>
