<svg width="200" height="201" viewBox="0 0 200 201" fill="none" xmlns="http://www.w3.org/2000/svg">
<g clip-path="url(#clip0_13_10371)">
<path d="M83.3337 25.2812C117.259 25.2812 147.5 47.5312 149.85 78.3479C169.05 85.5312 183.334 101.765 183.334 122.181C183.334 137.74 174.784 151.115 162.334 159.623C162.155 160.834 162.093 162.059 162.15 163.281L162.267 166.948C162.267 169.158 161.389 171.278 159.826 172.84C158.263 174.403 156.144 175.281 153.934 175.281C147.617 175.281 141.767 173.223 136.817 169.365C133.767 169.798 130.69 170.015 127.609 170.015C104.55 170.015 83.2587 157.59 75.242 138.756C73.9771 138.626 72.7156 138.465 71.4587 138.273C65.492 142.998 58.6253 145.648 50.9253 145.648C48.7152 145.648 46.5956 144.77 45.0328 143.207C43.47 141.644 42.592 139.525 42.592 137.315L42.6337 135.623L42.7837 132.206C42.8703 130.503 42.7075 128.796 42.3003 127.14C27.067 116.981 16.667 100.89 16.667 82.2229C16.667 49.4146 48.0003 25.2812 83.3337 25.2812ZM127.609 91.0229C104.542 91.0229 88.542 106.331 88.542 122.19C88.542 138.04 104.542 153.356 127.609 153.356C130.623 153.356 133.63 153.075 136.592 152.515C140.209 151.831 143.417 153.348 146.175 155.515C147 151.906 148.875 148.498 152.059 146.448C161.359 140.448 166.667 131.556 166.667 122.19C166.667 106.331 150.667 91.0229 127.609 91.0229ZM83.3337 41.9479C54.2337 41.9479 33.3337 61.3396 33.3337 82.2229C33.3337 94.5312 40.3087 106.04 52.2003 113.698C56.6253 116.556 58.5337 121.673 59.117 126.69L63.1337 123.84C65.7003 122.106 68.3837 120.79 71.8837 121.44C72.3503 94.0562 98.5753 74.3562 127.609 74.3562C129.209 74.3562 130.8 74.4146 132.384 74.5312C128.017 56.8146 108.825 41.9479 83.3337 41.9479ZM113.5 108.615C115.71 108.615 117.83 109.493 119.393 111.055C120.956 112.618 121.834 114.738 121.834 116.948C121.834 119.158 120.956 121.278 119.393 122.84C117.83 124.403 115.71 125.281 113.5 125.281C111.29 125.281 109.171 124.403 107.608 122.84C106.045 121.278 105.167 119.158 105.167 116.948C105.167 114.738 106.045 112.618 107.608 111.055C109.171 109.493 111.29 108.615 113.5 108.615ZM141.667 108.615C143.877 108.615 145.997 109.493 147.56 111.055C149.122 112.618 150 114.738 150 116.948C150 119.158 149.122 121.278 147.56 122.84C145.997 124.403 143.877 125.281 141.667 125.281C139.457 125.281 137.337 124.403 135.774 122.84C134.212 121.278 133.334 119.158 133.334 116.948C133.334 114.738 134.212 112.618 135.774 111.055C137.337 109.493 139.457 108.615 141.667 108.615ZM66.667 58.6146C68.8771 58.6146 70.9967 59.4926 72.5596 61.0554C74.1224 62.6182 75.0003 64.7378 75.0003 66.9479C75.0003 69.1581 74.1224 71.2777 72.5596 72.8405C70.9967 74.4033 68.8771 75.2812 66.667 75.2812C64.4569 75.2812 62.3372 74.4033 60.7744 72.8405C59.2116 71.2777 58.3337 69.1581 58.3337 66.9479C58.3337 64.7378 59.2116 62.6182 60.7744 61.0554C62.3372 59.4926 64.4569 58.6146 66.667 58.6146ZM100 58.6146C102.21 58.6146 104.33 59.4926 105.893 61.0554C107.456 62.6182 108.334 64.7378 108.334 66.9479C108.334 69.1581 107.456 71.2777 105.893 72.8405C104.33 74.4033 102.21 75.2812 100 75.2812C97.7902 75.2812 95.6706 74.4033 94.1078 72.8405C92.545 71.2777 91.667 69.1581 91.667 66.9479C91.667 64.7378 92.545 62.6182 94.1078 61.0554C95.6706 59.4926 97.7902 58.6146 100 58.6146Z" fill="#83C796"/>
</g>
<defs>
<clipPath id="clip0_13_10371">
<rect width="200" height="200" fill="white" transform="translate(0 0.28125)"/>
</clipPath>
</defs>
</svg>
