<svg width="200" height="201" viewBox="0 0 200 201" fill="none" xmlns="http://www.w3.org/2000/svg">
<path fill-rule="evenodd" clip-rule="evenodd" d="M54.167 33.6143C54.167 30.2991 52.85 27.1196 50.5058 24.7754C48.1616 22.4312 44.9822 21.1143 41.667 21.1143C38.3518 21.1143 35.1724 22.4312 32.8282 24.7754C30.484 27.1196 29.167 30.2991 29.167 33.6143V166.948C29.167 170.263 30.484 173.442 32.8282 175.786C35.1724 178.131 38.3518 179.448 41.667 179.448H158.334C161.649 179.448 164.828 178.131 167.173 175.786C169.517 173.442 170.834 170.263 170.834 166.948C170.834 163.632 169.517 160.453 167.173 158.109C164.828 155.765 161.649 154.448 158.334 154.448H54.167V33.6143ZM100 71.1143C103.316 71.1143 106.495 69.7973 108.839 67.4531C111.183 65.1089 112.5 61.9295 112.5 58.6143C112.5 55.299 111.183 52.1196 108.839 49.7754C106.495 47.4312 103.316 46.1143 100 46.1143H75.0003C73.3588 46.1143 71.7334 46.4376 70.2168 47.0658C68.7002 47.6939 67.3222 48.6147 66.1615 49.7754C65.0008 50.9362 64.08 52.3141 63.4518 53.8307C62.8237 55.3473 62.5003 56.9727 62.5003 58.6143C62.5003 60.2558 62.8237 61.8812 63.4518 63.3978C64.08 64.9144 65.0008 66.2924 66.1615 67.4531C67.3222 68.6138 68.7002 69.5346 70.2168 70.1628C71.7334 70.7909 73.3588 71.1143 75.0003 71.1143H100ZM154.167 91.9476C154.167 95.2628 152.85 98.4422 150.506 100.786C148.162 103.131 144.982 104.448 141.667 104.448H75.0003C71.6851 104.448 68.5057 103.131 66.1615 100.786C63.8173 98.4422 62.5003 95.2628 62.5003 91.9476C62.5003 88.6324 63.8173 85.453 66.1615 83.1088C68.5057 80.7645 71.6851 79.4476 75.0003 79.4476H141.667C144.982 79.4476 148.162 80.7645 150.506 83.1088C152.85 85.453 154.167 88.6324 154.167 91.9476ZM116.667 137.781C119.982 137.781 123.162 136.464 125.506 134.12C127.85 131.776 129.167 128.596 129.167 125.281C129.167 121.966 127.85 118.786 125.506 116.442C123.162 114.098 119.982 112.781 116.667 112.781H75.0003C71.6851 112.781 68.5057 114.098 66.1615 116.442C63.8173 118.786 62.5003 121.966 62.5003 125.281C62.5003 128.596 63.8173 131.776 66.1615 134.12C68.5057 136.464 71.6851 137.781 75.0003 137.781H116.667Z" fill="#83C796"/>
</svg>
