<svg width="37" height="51" viewBox="0 0 37 51" fill="none" xmlns="http://www.w3.org/2000/svg">
<path d="M36.3039 3.77345C36.4152 4.81568 36.1093 5.85946 35.4536 6.67601C34.7979 7.49257 33.8458 8.01532 32.8057 8.12978C32.2363 8.18179 31.6621 8.11435 31.12 7.93182C22.8086 22.8714 13.6359 38.0262 1.92582 50.406C1.32504 51.0329 0.242139 50.2227 0.841035 49.5812C12.5003 37.2674 21.6496 22.1601 29.9319 7.22432C29.5184 6.90486 29.1746 6.50395 28.9218 6.04638C28.6689 5.58881 28.5124 5.08421 28.4618 4.56378C28.4029 4.04829 28.4466 3.52629 28.5901 3.02783C28.7336 2.52937 28.9742 2.06429 29.298 1.65949C29.6219 1.25469 30.0223 0.918238 30.4767 0.669342C30.9311 0.420447 31.4303 0.264143 31.9454 0.209421C32.466 0.151666 32.9931 0.198399 33.4955 0.347054C33.9979 0.495709 34.4654 0.743306 34.8712 1.07518C35.2771 1.40706 35.6128 1.81664 35.8587 2.27996C36.1047 2.74328 36.2562 3.25096 36.3039 3.77345Z" fill="#83C796"/>
</svg>
