<svg width="59" height="20" viewBox="0 0 59 20" fill="none" xmlns="http://www.w3.org/2000/svg">
<path d="M56.275 1.10135C55.3287 0.650598 54.2426 0.592811 53.2547 0.940483C52.2669 1.28815 51.4578 2.01291 51.0048 2.95616C50.7668 3.47607 50.6399 4.04014 50.6323 4.61206C33.7814 7.49637 16.4418 11.1218 0.878223 18.0615C0.0875108 18.4203 0.492545 19.7106 1.29641 19.3585C16.7809 12.4448 34.0679 8.82568 50.9055 5.96763C51.0698 6.46361 51.3339 6.92098 51.6817 7.31131C52.0294 7.70163 52.4535 8.01666 52.9277 8.23713C53.3944 8.46371 53.9014 8.59564 54.4192 8.62564C54.937 8.65563 55.4556 8.58296 55.9449 8.41176C56.4342 8.24055 56.8845 7.97439 57.27 7.62831C57.6556 7.28222 57.9686 6.86318 58.1911 6.39543C58.4183 5.92348 58.5492 5.41065 58.5756 4.88738C58.602 4.36412 58.5235 3.84098 58.3451 3.34803C58.1667 2.85509 57.8917 2.40249 57.5362 2.01676C57.1807 1.63103 56.752 1.3197 56.275 1.10135Z" fill="#83C796"/>
</svg>
