<svg width="60" height="60" viewBox="0 0 60 60" fill="none" xmlns="http://www.w3.org/2000/svg">
<path fill-rule="evenodd" clip-rule="evenodd" d="M0 5C0 3.67392 0.526784 2.40215 1.46447 1.46447C2.40215 0.526784 3.67392 0 5 0H55C56.3261 0 57.5978 0.526784 58.5355 1.46447C59.4732 2.40215 60 3.67392 60 5V55C60 56.3261 59.4732 57.5978 58.5355 58.5355C57.5978 59.4732 56.3261 60 55 60H5C3.67392 60 2.40215 59.4732 1.46447 58.5355C0.526784 57.5978 0 56.3261 0 55V5ZM5 3.33333H55C55.442 3.33333 55.866 3.50893 56.1785 3.82149C56.4911 4.13405 56.6667 4.55797 56.6667 5V55C56.6667 55.442 56.4911 55.866 56.1785 56.1785C55.866 56.4911 55.442 56.6667 55 56.6667H31.69V46.6667C31.69 46.6667 33.0783 47.1217 35.0233 47.4333C35.5117 47.51 36.035 47.58 36.58 47.63C41.1083 48.0467 47.1467 47.18 47.1467 39.59C47.1467 39.59 51.2167 38.9683 51.63 36.7117C52.0417 34.4567 48.915 31.645 48.915 31.645C47.8583 29.4533 47.8867 27.6 47.9167 25.495C47.925 24.9 47.9333 24.285 47.92 23.635C47.8434 20.791 46.9163 18.0353 45.2583 15.7233C43.4032 13.4751 41.0103 11.7317 38.3017 10.655C34.8116 9.11759 31.0387 8.32678 27.225 8.33333C22.215 8.33333 17.4083 10.2283 13.8667 13.6C10.3233 16.9733 8.33333 21.5467 8.33333 26.3167C8.33333 32.055 11.7217 36.4817 16.1167 39.7667V56.6667H5C4.55797 56.6667 4.13405 56.4911 3.82149 56.1785C3.50893 55.866 3.33333 55.442 3.33333 55V5C3.33333 4.55797 3.50893 4.13405 3.82149 3.82149C4.13405 3.50893 4.55797 3.33333 5 3.33333ZM34.1517 27.45C33.965 27.6583 33.8667 27.7667 33.2783 27.7667C32.3508 27.7678 31.4435 27.4953 30.67 26.9833C30.13 27.54 29.47 27.9717 28.735 28.245C28.07 28.5633 27.785 29.0317 27.43 29.6067C27.3649 29.7134 27.2988 29.8195 27.2317 29.925C26.7718 30.6434 26.5277 31.4787 26.5283 32.3317V37.1183H21.5733C21.5362 36.8006 21.4845 36.4847 21.4183 36.1717L21.41 36.135C21.2733 35.4608 21.0152 34.817 20.6483 34.235C20.0762 33.3576 19.3148 32.6195 18.42 32.075C17.6436 31.7524 16.9695 31.2247 16.47 30.5483C15.9778 29.8805 15.6817 29.0886 15.615 28.2617C14.8634 27.4914 14.4173 26.4742 14.36 25.3995C14.3027 24.3248 14.6379 23.2659 15.3033 22.42C15.189 22.0316 15.134 21.6282 15.14 21.2233C15.1367 20.2567 15.4567 19.3133 16.0467 18.5333L18.42 16.8983C18.7879 16.0966 19.3808 15.4192 20.1267 14.9483C20.6599 14.6113 21.2552 14.3843 21.8774 14.2807C22.4996 14.1771 23.1363 14.199 23.75 14.345C24.519 13.6509 25.4957 13.2303 26.5283 13.1483L31.57 13.49C32.6833 13.7567 33.6567 14.4133 34.3033 15.335H34.6317L37.545 16.3267C38.3664 16.963 38.9424 17.864 39.175 18.8767C40.175 19.3 40.995 20.0433 41.4983 20.9833C42.0019 21.9199 42.1589 23.0041 41.9417 24.045C41.7218 25.0918 41.1436 26.029 40.3067 26.695L37.3233 27.75L37.1017 27.7483H37.0783C36.2252 27.715 35.3969 27.4512 34.6817 26.985C34.3983 27.1717 34.26 27.3283 34.1517 27.45ZM40.2317 33.61C40.6662 33.611 41.0864 33.4552 41.4153 33.1713C41.7442 32.8873 41.9596 32.4943 42.022 32.0643C42.0844 31.6343 41.9896 31.1962 41.7551 30.8305C41.5205 30.4648 41.1618 30.1959 40.745 30.0733L40.725 30.0667C40.3612 29.963 39.974 29.9762 39.6181 30.1045C39.2622 30.2328 38.9556 30.4697 38.7417 30.7817L38.7333 30.795C38.5495 31.0666 38.4432 31.3831 38.4257 31.7106C38.4083 32.038 38.4803 32.364 38.6342 32.6536C38.7881 32.9432 39.018 33.1854 39.2991 33.3542C39.5803 33.523 39.9021 33.612 40.23 33.6117M26.3867 42.8017H21.5733V39.4683H26.3867V42.8017ZM21.5733 53.8117H26.3867V50.4783H21.5733V53.8117ZM26.3867 48.265H21.5733V44.9317H26.3867V48.265Z" fill="#3B76DA"/>
</svg>
