<svg width="88" height="34" viewBox="0 0 88 34" fill="none" xmlns="http://www.w3.org/2000/svg">
<path d="M83.8223 32.6029C82.3477 33.2062 80.6944 33.2011 79.2249 32.5891C77.7554 31.9771 76.5895 30.8081 75.9825 29.3379C75.6657 28.5285 75.5214 27.6616 75.5586 26.793C50.2314 20.9765 24.2257 13.9934 1.19854 2.13218C0.0291635 1.52015 0.754068 -0.403541 1.94396 0.199552C24.8534 12.0145 50.7797 18.9835 76.0891 24.7591C76.3807 24.0204 76.8206 23.3488 77.3817 22.7862C77.9428 22.2235 78.6134 21.7816 79.3518 21.4875C80.0795 21.1835 80.8601 21.0266 81.6486 21.0253C82.437 21.024 83.2178 21.1786 83.9458 21.4802C84.6738 21.7818 85.3344 22.2242 85.8899 22.7824C86.4455 23.3405 86.8848 24.0032 87.1825 24.7321C87.487 25.4677 87.6418 26.2572 87.6372 27.0536C87.6326 27.85 87.4688 28.6372 87.1559 29.3701C86.843 30.103 86.387 30.7664 85.8146 31.3214C85.2421 31.8764 84.565 32.3123 83.8223 32.6029Z" fill="#83C796"/>
</svg>
