<svg width="560" height="636" viewBox="0 0 560 636" fill="none" xmlns="http://www.w3.org/2000/svg">
<path d="M131.144 529.479C123.799 519.154 115.766 509.339 107.101 500.099C112.17 495.32 117.396 490.283 122.778 484.988C148.675 507.413 176.884 526.999 206.922 543.409C236.398 555.506 330.806 589.53 330.806 589.53C330.806 589.53 278.165 550.053 247.492 531.023C222.718 515.22 156.071 485.05 133.157 474.775L150.939 457.676C183.888 478.244 218.259 496.417 253.787 512.055C285.724 521.019 318.449 526.827 351.491 529.394C351.491 529.394 286.949 518.519 264.755 500.302C242.562 482.085 228.477 466.634 200.379 457.153C182.977 451.364 170 447.994 162.608 446.256L185.818 423.838C210.264 445.602 237.081 464.528 265.755 480.253C295.166 492.56 385.662 531.457 385.662 531.457C359.611 515.099 334.662 497.033 310.98 477.376C286.201 455.244 216.749 423.737 195.584 414.124C199.318 410.576 203.116 406.817 207.188 402.915C235.103 423.061 264.961 440.342 296.31 454.495C328.115 465.366 438.527 495.538 438.527 495.538C409.241 480.772 380.883 464.216 353.613 445.964C325.406 425.636 241.58 399.41 217.971 392.138L236.689 373.491C258.256 385.312 280.448 395.942 303.165 405.333C332.866 415.247 361.742 427.512 389.519 442.013C414.681 456.557 453.791 483.633 453.791 483.633C453.791 483.633 366.857 406.278 328.831 390.24C300.913 379.816 272.016 372.279 242.592 367.746C250.729 359.593 259.14 351.295 267.479 342.861C297.338 362.183 329.887 376.942 364.052 386.649C414.961 394.06 466.241 398.542 517.638 400.074C484.239 394.663 451.166 387.35 418.582 378.171C383.375 367.156 294.581 342.137 273.915 336.131L292.899 316.992C311.283 326.31 372.665 356.788 408.31 362.648C450.637 369.563 537.517 380.639 537.517 380.639C537.517 380.639 457.94 352.176 411.304 335.745C375.227 324.346 338.489 315.196 301.302 308.347C307.536 301.9 313.568 295.734 319.117 289.648C355.862 298.475 393.122 304.945 430.669 309.018C472.345 311.703 558.789 306.652 558.789 306.652C558.789 306.652 482.172 292.46 432.597 287.073C390.744 282.722 341.216 282.412 326.222 281.862C334.819 272.588 342.731 263.674 350.095 255.05C378.447 263.724 407.802 268.615 437.401 269.595C485.486 270.489 543.078 265.5 543.078 265.5C510.036 257.817 476.49 252.551 442.705 249.742C410.412 247.922 373.846 247.295 356.643 247.205C362.45 240.279 367.846 233.569 372.831 227.076C400.668 231.34 428.813 233.178 456.948 232.571C494.49 230.397 549.577 221.977 549.577 221.977C523.882 222.003 498.215 220.049 472.803 216.134C441.675 213.025 410.291 213.996 379.444 219.021C385.372 211.328 390.615 203.995 395.519 197.017C418.363 200.473 441.538 201.038 464.499 198.696C484.92 193.926 548.344 180.063 548.344 180.063L464.457 181.657C442.54 182.963 420.78 186.122 399.407 191.101C403.634 184.83 407.522 178.914 410.998 173.215C426.37 175.148 474.002 180.502 485.75 175.549C500.109 169.573 559.074 157.881 559.074 157.881C559.074 157.881 511.196 163.034 479.878 164.394C457.281 165.032 429.494 166.117 415.636 166.728C418.71 161.593 421.444 156.811 423.977 152.312C433.385 151.229 468.606 147.638 485.366 146.555C505.71 143.959 525.887 140.209 545.798 135.321C545.798 135.321 515.238 136.459 493.705 138.12C476.736 139.138 440.297 144.073 427.64 145.635C429.568 141.982 431.431 138.539 433.021 135.24C453.054 134.993 473.029 133.125 492.749 129.653C511.921 124.838 549.783 109.304 549.783 109.304C549.783 109.304 516.859 113.268 488.215 119.376C466.262 123.897 444.165 128.142 435.458 129.56L439.282 120.863C453.373 119.221 467.1 115.32 479.94 109.31C500.227 98.6311 528.842 85.1514 528.842 85.1514C510.978 84.7589 493.244 88.1043 476.77 94.974C463.736 100.591 451.556 108.009 440.582 117.013C443.015 111.042 444.985 104.889 446.474 98.6098C457.056 95.7084 466.877 90.5389 475.259 83.4574C486.099 74.4486 496.394 64.8007 506.089 54.5648C494.843 54.1322 483.839 57.8007 475.113 64.8905C465.927 75.7061 460.427 80.8878 460.427 80.8878C466.366 71.5926 470.815 61.4172 473.611 50.731C475.795 37.3695 475.152 23.6861 471.725 10.5676C463.734 26.8166 457.249 43.7715 452.349 61.2197C450.87 72.3756 447.559 85.3748 446.541 92.4186C446.253 85.144 445.369 77.9032 443.897 70.7695C441.686 60.4905 438.002 50.5811 432.962 41.3495C430.914 51.7587 431.302 62.5116 434.094 72.7643C439.014 87.7629 439.836 87.33 443.491 98.597C440.482 103.523 435.511 116.692 428.994 125.927C430.593 111.667 430.077 97.2393 427.463 83.1138C422.491 59.7008 412.172 20.8103 412.172 20.8103C411.994 43.2933 414.133 65.7436 418.554 87.8038C422.402 100.444 425.384 113.331 427.478 126.373C424.526 130.741 421.308 135.601 417.541 140.75C417.988 126.961 417 113.158 414.591 99.5637C410.335 80.1709 408.037 79.7972 402.154 55.9841C398.171 37.6827 395.591 19.1074 394.437 0.421769C394.437 0.421769 381.315 36.3502 386.67 52.1751C392.024 68.0001 390.783 86.5931 398.481 107.868C403.481 121.57 407.532 135.599 410.605 149.854C407.386 154.714 403.756 159.79 400.062 165.077C397.245 145.32 392.834 125.82 386.873 106.767C377.719 79.3997 351.994 21.8849 351.994 21.8849C351.994 21.8849 364.44 84.1033 371.687 103.857C377.484 120.855 390.841 162.192 394.94 174.633C390.165 181.192 384.64 188.321 379.937 195.018C378.762 170.236 375.836 145.563 371.18 121.184C364.324 91.1996 345.091 29.3883 345.091 29.3883C344.974 63.1504 348.064 96.8595 354.321 130.059C361.405 154.823 370.25 189.916 373.606 203.275C367.815 210.896 361.75 218.662 355.547 226.5C356.208 196.589 354.784 166.66 351.287 136.932C345.92 111.44 324.327 43.484 324.327 43.484C325.446 77.2791 328.298 111.001 332.872 144.516C337.659 165.915 346.312 219.929 348.507 234.076C342.772 241.14 336.627 248.42 330.409 255.563C324.75 225.472 320.908 195.074 318.901 164.533C319.202 138.168 312.366 139.481 308.902 112.283C305.439 85.0858 303.206 44.9289 303.206 44.9289C303.206 44.9289 291.523 89.2451 295.522 109.477C299.52 129.71 290.797 151.714 295.511 175.966C301.854 206.385 311.221 236.1 323.472 264.667C317.182 271.671 310.891 278.676 304.528 285.544C302.898 268.813 296.281 206.693 291.275 184.88C285.36 159.676 259.201 80.053 259.201 80.053C259.201 80.053 267.268 126.636 269.299 148.784C271.329 170.932 260.496 188.594 270.883 218.303C278.338 241.112 291.931 277.576 297.761 292.975C294.31 296.727 290.785 300.34 287.051 303.889C283.318 307.437 279.729 311.261 275.519 315.236C272.658 292.643 268.09 270.294 261.858 248.381C251.409 212.901 235.106 200.553 229.483 169.919C225.916 144.976 224.368 119.793 224.854 94.6155C224.854 94.6155 208.833 143.326 217.803 168.68C226.773 194.034 240.516 218.811 241.21 237.089C239.976 253.604 243.03 270.175 250.074 285.188C256.526 297.445 265.67 312.154 270.415 319.506C261.463 328.439 251.689 337.806 241.649 347.664C240.228 313.429 236.322 279.334 229.961 245.649C217.275 207.135 201.981 169.525 184.186 133.084C184.186 133.084 198.824 194.148 202.972 223.976C207.12 253.803 205.706 280.05 215.379 302.748C222.555 319.372 231.744 342.149 236.084 353.055L216.06 372.214C213.4 352.861 205.674 299.941 200.623 273.052C194.179 239.861 168.299 148.131 168.299 148.131C173.87 176.861 177.475 205.932 179.09 235.14C176.329 263.393 178.718 291.934 186.142 319.369C193.227 341.143 203.905 368.411 208.544 380.216C200.673 387.877 192.73 395.4 185.407 402.773C183.551 371.651 178.994 340.741 171.789 310.392C160.551 270.754 113.273 186.594 113.273 186.594C124.219 210.813 131.803 236.41 135.814 262.67C138.985 295.297 144.14 344.997 155.368 368.986C162.81 385.119 171.526 402.341 176.528 411.844L161.456 426.109C155.522 400.947 148.288 376.106 139.785 351.686C126.217 313.275 78.8468 197.681 78.8468 197.681C78.8468 197.681 94.2643 286.828 101.972 323.751C109.68 360.674 119.081 377.535 152.149 434.701C145.972 440.591 139.795 446.482 133.819 452.089C131.446 431.242 124.675 411.124 113.956 393.072C90.5028 348.275 63.0927 305.665 32.0558 265.755C43.7014 289.039 54.0635 312.942 63.0952 337.357C70.3332 359.753 113.613 441.972 124.053 461.804C118.827 466.841 113.666 471.668 108.642 476.423C107.321 455.764 101.136 435.693 90.592 417.859C69.6394 381.048 0.323605 352.459 0.323605 352.459C0.323605 352.459 60.3501 387.345 69.9501 409.905C79.5501 432.465 72.6637 437.673 81.6861 453.15C87.8598 463.4 94.592 473.302 101.852 482.812C96.013 488.348 93.36 490.624 87.8601 495.806C80.4691 473.899 67.296 454.391 49.7448 439.361C36.5384 427.328 20.1797 419.335 2.61166 416.332C15.1211 427.511 26.0952 440.307 35.2445 454.38C48.6732 472.149 64.4857 487.975 82.2309 501.407C41.4173 539.6 12.4826 566.439 12.4826 566.439L34.6335 570.609C34.6335 570.609 60.6487 546.537 102.801 506.232C111.819 529.378 124.186 551.078 139.503 570.632C162.977 594.707 188.646 616.527 216.172 635.803C198.047 619.491 180.97 602.045 165.044 583.57C149.153 568.015 145.477 549.724 131.144 529.479Z" fill="#83C796"/>
</svg>
