<svg width="63" height="60" viewBox="0 0 63 60" fill="none" xmlns="http://www.w3.org/2000/svg">
<path d="M13.3333 8.88889C13.3333 7.71015 13.8016 6.57969 14.6351 5.74619C15.4686 4.9127 16.599 4.44444 17.7778 4.44444C18.9565 4.44444 20.087 4.9127 20.9205 5.74619C21.754 6.57969 22.2222 7.71015 22.2222 8.88889C22.2222 10.0676 21.754 11.1981 20.9205 12.0316C20.087 12.8651 18.9565 13.3333 17.7778 13.3333C16.599 13.3333 15.4686 12.8651 14.6351 12.0316C13.8016 11.1981 13.3333 10.0676 13.3333 8.88889ZM17.7778 0C15.4203 0 13.1594 0.936505 11.4924 2.60349C9.82539 4.27048 8.88889 6.53141 8.88889 8.88889C8.88889 11.2464 9.82539 13.5073 11.4924 15.1743C13.1594 16.8413 15.4203 17.7778 17.7778 17.7778C20.1353 17.7778 22.3962 16.8413 24.0632 15.1743C25.7302 13.5073 26.6667 11.2464 26.6667 8.88889C26.6667 6.53141 25.7302 4.27048 24.0632 2.60349C22.3962 0.936505 20.1353 0 17.7778 0ZM5.55556 22.2222C4.08213 22.2222 2.66905 22.8075 1.62718 23.8494C0.585316 24.8913 0 26.3044 0 27.7778V28.3333C0 28.9444 -2.6491e-07 32.4333 2.34222 35.8C4.02444 38.2178 6.74889 40.3489 11.0067 41.4444C11.8629 39.8019 13.2109 38.468 14.8622 37.6289C9.68444 37.0711 7.22444 35.0356 5.99111 33.2622C4.99898 31.8086 4.46069 30.0932 4.44444 28.3333V27.7778C4.44444 27.4831 4.56151 27.2005 4.76988 26.9921C4.97825 26.7837 5.26087 26.6667 5.55556 26.6667H18.8889C18.8889 25.0978 19.1844 23.6 19.7222 22.2222H5.55556ZM59.88 35.8C58.1978 38.2178 55.4733 40.3489 51.2156 41.4444C50.3593 39.8019 49.0113 38.468 47.36 37.6289C52.5378 37.0711 54.9978 35.0356 56.2311 33.2622C57.2232 31.8086 57.7615 30.0932 57.7778 28.3333V27.7778C57.7778 27.4831 57.6607 27.2005 57.4523 26.9921C57.244 26.7837 56.9613 26.6667 56.6667 26.6667H43.3333C43.3333 25.0978 43.0378 23.6 42.5 22.2222H56.6667C58.1401 22.2222 59.5532 22.8075 60.595 23.8494C61.6369 24.8913 62.2222 26.3044 62.2222 27.7778V28.3333C62.2222 28.9444 62.2222 32.4333 59.88 35.8ZM40 8.88889C40 7.71015 40.4683 6.57969 41.3017 5.74619C42.1352 4.9127 43.2657 4.44444 44.4444 4.44444C45.6232 4.44444 46.7536 4.9127 47.5871 5.74619C48.4206 6.57969 48.8889 7.71015 48.8889 8.88889C48.8889 10.0676 48.4206 11.1981 47.5871 12.0316C46.7536 12.8651 45.6232 13.3333 44.4444 13.3333C43.2657 13.3333 42.1352 12.8651 41.3017 12.0316C40.4683 11.1981 40 10.0676 40 8.88889ZM44.4444 0C42.087 0 39.826 0.936505 38.159 2.60349C36.4921 4.27048 35.5556 6.53141 35.5556 8.88889C35.5556 11.2464 36.4921 13.5073 38.159 15.1743C39.826 16.8413 42.087 17.7778 44.4444 17.7778C46.8019 17.7778 49.0628 16.8413 50.7298 15.1743C52.3968 13.5073 53.3333 11.2464 53.3333 8.88889C53.3333 6.53141 52.3968 4.27048 50.7298 2.60349C49.0628 0.936505 46.8019 0 44.4444 0ZM31.1111 22.2222C29.9324 22.2222 28.8019 22.6905 27.9684 23.524C27.1349 24.3575 26.6667 25.4879 26.6667 26.6667C26.6667 27.8454 27.1349 28.9759 27.9684 29.8094C28.8019 30.6429 29.9324 31.1111 31.1111 31.1111C32.2898 31.1111 33.4203 30.6429 34.2538 29.8094C35.0873 28.9759 35.5556 27.8454 35.5556 26.6667C35.5556 25.4879 35.0873 24.3575 34.2538 23.524C33.4203 22.6905 32.2898 22.2222 31.1111 22.2222ZM22.2222 26.6667C22.2222 24.3092 23.1587 22.0483 24.8257 20.3813C26.4927 18.7143 28.7536 17.7778 31.1111 17.7778C33.4686 17.7778 35.7295 18.7143 37.3965 20.3813C39.0635 22.0483 40 24.3092 40 26.6667C40 29.0241 39.0635 31.2851 37.3965 32.9521C35.7295 34.619 33.4686 35.5556 31.1111 35.5556C28.7536 35.5556 26.4927 34.619 24.8257 32.9521C23.1587 31.2851 22.2222 29.0241 22.2222 26.6667ZM13.3333 45.5556C13.3333 44.0821 13.9186 42.6691 14.9605 41.6272C16.0024 40.5853 17.4155 40 18.8889 40H43.3333C44.0629 40 44.7853 40.1437 45.4594 40.4229C46.1334 40.7021 46.7458 41.1113 47.2617 41.6272C47.7776 42.1431 48.1868 42.7555 48.466 43.4295C48.7452 44.1036 48.8889 44.826 48.8889 45.5556V46.1111C48.8889 46.7222 48.8889 50.2111 46.5467 53.5778C44.1022 57.0911 39.4578 60 31.1111 60C22.7644 60 18.12 57.0911 15.6756 53.5778C13.3333 50.2111 13.3333 46.7244 13.3333 46.1111V45.5556ZM18.8889 44.4444C18.5942 44.4444 18.3116 44.5615 18.1032 44.7699C17.8948 44.9783 17.7778 45.2609 17.7778 45.5556V46.1111C17.7778 46.4778 17.78 48.8222 19.3244 51.04C20.7689 53.1178 23.9022 55.5556 31.1111 55.5556C38.32 55.5556 41.4533 53.1178 42.8978 51.04C43.8899 49.5864 44.4282 47.871 44.4444 46.1111V45.5556C44.4444 45.2609 44.3274 44.9783 44.119 44.7699C43.9106 44.5615 43.628 44.4444 43.3333 44.4444H18.8889Z" fill="#3B76DA"/>
</svg>
