<svg width="78" height="56" viewBox="0 0 78 56" fill="none" xmlns="http://www.w3.org/2000/svg">
<path d="M71.6149 0.99152C70.0308 0.821256 68.4439 1.28501 67.202 2.28085C65.9601 3.27669 65.1645 4.72339 64.9894 6.30431C64.9097 7.16979 65.0116 8.0427 65.2885 8.86685C42.5709 21.4847 19.5253 35.4117 0.695179 53.1983C-0.258372 54.1109 0.971996 55.7578 1.94774 54.8481C20.6776 37.1385 43.6509 23.2472 66.3627 10.6736C66.8478 11.3024 67.4569 11.8254 68.1521 12.2102C68.8474 12.595 69.6142 12.8335 70.4053 12.911C71.1888 13.0011 71.9822 12.9352 72.7401 12.7176C73.4979 12.5 74.2051 12.1348 74.8208 11.6429C75.4364 11.1511 75.9483 10.5428 76.3271 9.85232C76.7059 9.16189 76.944 8.4033 77.0277 7.62041C77.1161 6.82915 77.0456 6.02776 76.8202 5.26393C76.5947 4.50011 76.2189 3.78927 75.7148 3.17204C75.2108 2.55481 74.5886 2.04406 73.8846 1.66972C73.1806 1.29537 72.409 1.06458 71.6149 0.99152Z" fill="#83C796"/>
</svg>
