<svg width="54" height="54" viewBox="0 0 54 54" fill="none" xmlns="http://www.w3.org/2000/svg">
<path d="M27.7492 53.9938C27.4031 53.9884 27.0714 53.856 26.8196 53.6225C26.5677 53.389 26.4139 53.0714 26.3883 52.7321C25.8234 48.884 24.2185 45.2882 23.7435 41.377C23.4354 38.7779 22.7421 36.2419 22.267 33.6681C22.2308 33.1405 21.9892 32.6468 21.5923 32.2897C21.1955 31.9325 20.6738 31.7394 20.1358 31.7503C15.257 31.1195 10.3911 30.3246 5.53808 29.5297C4.27257 29.3135 3.02411 29.0099 1.80198 28.6214C0.839073 28.3312 -0.0724738 27.8517 0.00455898 26.6279C0.0815918 25.4041 0.993137 25.2653 1.8405 25.0256C5.63946 23.9889 9.49795 23.1758 13.3954 22.5905C15.0516 22.3255 16.7207 22.1237 18.3769 21.8714C21.1244 21.4676 22.4083 20.3321 22.8833 17.6447C23.4097 14.6924 23.782 11.7022 24.3084 8.74988C24.6679 6.7438 25.1686 4.76295 25.5923 2.7821C25.7192 2.31154 25.9047 1.85812 26.1444 1.4321C26.5039 0.763404 26.8505 -0.0819293 27.8006 0.00638847C28.7506 0.0947062 28.8919 1.00311 29.0203 1.77274C29.598 5.30545 30.1629 8.83816 30.7535 12.3835C31.19 15.0583 31.6522 17.7204 32.0374 20.3952C32.0388 20.689 32.1035 20.9792 32.2273 21.2468C32.351 21.5143 32.5309 21.753 32.7553 21.9473C32.9797 22.1416 33.2433 22.2869 33.529 22.3739C33.8146 22.4608 34.1157 22.4873 34.4125 22.4517C40.2927 22.1489 45.9675 24.1298 51.7449 24.2181C52.6693 24.2181 53.6194 24.3443 53.8505 25.4167C54.0816 26.4891 53.1444 27.183 52.2071 27.4732C49.19 28.3816 46.1472 29.1891 43.1172 30.0597C40.0873 30.9302 37.4425 31.7377 34.5923 32.4947C34.0158 32.6198 33.4977 32.9291 33.1191 33.3742C32.7405 33.8194 32.5226 34.3753 32.4996 34.955C31.511 40.3802 30.4454 45.8054 29.3926 51.2181C29.2487 51.882 29.0335 52.5291 28.7507 53.1484C28.6715 53.3619 28.5378 53.5518 28.3624 53.6998C28.187 53.8478 27.9759 53.9491 27.7492 53.9938Z" fill="#83C796"/>
</svg>
