<svg width="54" height="55" viewBox="0 0 54 55" fill="none" xmlns="http://www.w3.org/2000/svg">
<path d="M27.7492 54.275C27.4031 54.2697 27.0714 54.1372 26.8196 53.9037C26.5677 53.6703 26.4139 53.3526 26.3883 53.0133C25.8234 49.1652 24.2185 45.5694 23.7435 41.6582C23.4354 39.0591 22.7421 36.5232 22.267 33.9493C22.2308 33.4217 21.9892 32.9281 21.5923 32.5709C21.1955 32.2138 20.6738 32.0206 20.1358 32.0316C15.257 31.4007 10.3911 30.6059 5.53808 29.811C4.27257 29.5947 3.02412 29.2912 1.80198 28.9026C0.839073 28.6124 -0.0724738 28.133 0.00455898 26.9091C0.0815918 25.6853 0.993137 25.5465 1.8405 25.3068C5.63946 24.2702 9.49795 23.457 13.3954 22.8717C15.0516 22.6068 16.7207 22.4049 18.3769 22.1526C21.1244 21.7489 22.4083 20.6134 22.8833 17.926C23.4097 14.9736 23.782 11.9835 24.3084 9.03113C24.6679 7.02505 25.1686 5.0442 25.5923 3.06335C25.7192 2.59279 25.9047 2.13937 26.1444 1.71335C26.5039 1.04465 26.8505 0.199321 27.8006 0.287638C28.7506 0.375956 28.8919 1.28436 29.0203 2.05399C29.598 5.5867 30.1629 9.11941 30.7535 12.6647C31.19 15.3395 31.6522 18.0017 32.0374 20.6764C32.0388 20.9703 32.1035 21.2605 32.2273 21.528C32.351 21.7955 32.5309 22.0343 32.7553 22.2285C32.9797 22.4228 33.2433 22.5682 33.529 22.6551C33.8146 22.7421 34.1157 22.7686 34.4125 22.733C40.2927 22.4302 45.9675 24.411 51.7449 24.4993C52.6693 24.4993 53.6194 24.6255 53.8505 25.6979C54.0816 26.7704 53.1444 27.4643 52.2071 27.7545C49.19 28.6629 46.1472 29.4704 43.1172 30.3409C40.0873 31.2115 37.4425 32.0189 34.5923 32.776C34.0158 32.901 33.4977 33.2104 33.1191 33.6555C32.7405 34.1006 32.5226 34.6565 32.4996 35.2363C31.511 40.6615 30.4454 46.0867 29.3926 51.4993C29.2487 52.1633 29.0335 52.8103 28.7507 53.4297C28.6715 53.6431 28.5378 53.833 28.3624 53.9811C28.187 54.1291 27.9759 54.2303 27.7492 54.275Z" fill="#83C796"/>
</svg>
