<svg width="64" height="64" viewBox="0 0 64 64" fill="none" xmlns="http://www.w3.org/2000/svg">
<path d="M12.1094 42.5586C13.352 42.5586 14.3594 41.5512 14.3594 40.3086C14.3594 39.066 13.352 38.0586 12.1094 38.0586C10.8667 38.0586 9.85938 39.066 9.85938 40.3086C9.85938 41.5512 10.8667 42.5586 12.1094 42.5586Z" fill="#3B76DA"/>
<path d="M22.8398 42.5586C24.0825 42.5586 25.0898 41.5512 25.0898 40.3086C25.0898 39.066 24.0825 38.0586 22.8398 38.0586C21.5972 38.0586 20.5898 39.066 20.5898 40.3086C20.5898 41.5512 21.5972 42.5586 22.8398 42.5586Z" fill="#3B76DA"/>
<path d="M13.544 47.6563C14.245 48.9413 15.662 50.0883 17.476 50.0883C19.29 50.0883 20.706 48.9423 21.407 47.6563C21.596 47.3103 21.346 46.9373 21.067 47.1523C18.754 48.9533 16.186 48.9413 13.882 47.1523C13.604 46.9383 13.354 47.3113 13.544 47.6563Z" fill="#3B76DA"/>
<path d="M54.316 50.949C56.656 49.178 58.618 46.765 59.115 43.941C60.512 43.725 62 42.833 62 40.018C62 37.539 61.086 36.797 60.313 36.613C60.232 26.444 57.75 22.108 46.618 22.003C35.394 21.896 32.437 26.419 32.33 36.74C32.2123 36.7995 32.1016 36.872 32 36.956V36.67C32 24.274 23.878 24.506 23.878 24.506C23.878 24.506 23.267 22 17.001 22C7.298 22 2 28.33 2 36.67V62H62V54.775C62 52.869 58.712 51.595 54.316 50.949ZM5.893 36.711C11.913 36.711 21.721 28.881 21.721 28.881C21.721 28.881 25.428 35.793 29.006 36.711C29.006 36.711 30.741 37.029 30.741 39.774C30.741 43.073 28.428 43.643 28.428 43.643C28.399 48.622 21.602 53.627 17.478 53.627C13.349 53.627 6.439 48.621 6.439 43.643C6.439 43.643 4.21 43.073 4.21 39.774C4.21 37.16 5.893 36.711 5.893 36.711ZM31.5 61.021L2.999 61V54.775C2.999 53.761 5.588 52.468 10.51 51.837C12.799 53.54 15.439 54.626 17.478 54.626C19.45 54.626 21.998 53.584 24.237 51.94C28.672 52.602 31.501 54.54 31.501 55.5L31.5 61.021ZM31.97 40.018C31.97 38.386 32.367 37.558 33.153 37.558C33.205 37.558 33.257 37.561 33.31 37.567C33.414 38.165 33.536 38.596 33.681 38.881C34.039 39.578 34.72 39.959 34.797 40L35.635 40.451L35.501 39.486C35.3961 38.5784 35.3617 37.664 35.398 36.751C35.73 31.725 36.049 31.055 37.141 31.055C37.637 31.055 38.318 31.194 39.181 31.368C40.862 31.709 43.163 32.176 46.498 32.176C49.833 32.176 52.135 31.709 53.815 31.368C54.678 31.193 55.359 31.055 55.856 31.055C56.949 31.055 57.268 31.727 57.596 36.75C57.654 38.327 57.497 39.475 57.495 39.486L57.36 40.453L58.201 40C58.278 39.959 58.957 39.578 59.316 38.881C59.463 38.594 59.584 38.172 59.69 37.567C60.569 37.471 61.03 38.28 61.03 40.018C61.03 41.924 60.276 42.868 58.658 42.989L58.262 43.018L58.211 43.422C57.462 49.361 49.612 53.127 46.498 53.127C43.384 53.127 35.534 49.361 34.787 43.422L34.736 43.018L34.34 42.989C32.724 42.867 31.97 41.924 31.97 40.018ZM32 43.026C32.536 43.572 33.219 43.838 33.885 43.941C34.394 46.837 36.442 49.301 38.86 51.084C34.887 51.764 32 52.99 32 54.775V43.026ZM60.999 61L32.5 61.001V55.501C32.5 53.782 35.674 52.52 40.06 51.904C42.346 53.319 44.786 54.127 46.499 54.127C48.254 54.127 50.77 53.275 53.103 51.796C57.987 52.375 60.999 53.604 60.999 54.775V61Z" fill="#3B76DA"/>
<path d="M41.0088 42.5586C42.2514 42.5586 43.2588 41.5512 43.2588 40.3086C43.2588 39.066 42.2514 38.0586 41.0088 38.0586C39.7661 38.0586 38.7588 39.066 38.7588 40.3086C38.7588 41.5512 39.7661 42.5586 41.0088 42.5586Z" fill="#3B76DA"/>
<path d="M52.0068 42.5586C53.2495 42.5586 54.2568 41.5512 54.2568 40.3086C54.2568 39.066 53.2495 38.0586 52.0068 38.0586C50.7642 38.0586 49.7568 39.066 49.7568 40.3086C49.7568 41.5512 50.7642 42.5586 52.0068 42.5586Z" fill="#3B76DA"/>
<path d="M42.5731 47.6563C43.2741 48.9413 44.6921 50.0883 46.5071 50.0883C48.3221 50.0883 49.7391 48.9423 50.4411 47.6563C50.6301 47.3103 50.3781 46.9373 50.1011 47.1523C47.7871 48.9533 45.2161 48.9413 42.9121 47.1523C42.6341 46.9383 42.3841 47.3113 42.5731 47.6563ZM31.9971 26.0003C33.1981 24.9183 49.9741 16.1823 46.5361 7.08034C43.3411 -1.37866 32.9581 2.41634 31.9971 6.64134C30.6771 2.13934 20.5541 -1.21766 17.4641 7.08434C14.0241 16.3363 30.7981 24.6413 31.9971 26.0003Z" fill="#3B76DA"/>
</svg>
