<svg width="23" height="22" viewBox="0 0 23 22" fill="none" xmlns="http://www.w3.org/2000/svg">
<g clip-path="url(#clip0_99_490)">
<path d="M12.1939 22.0111C12.0529 22.0089 11.9178 21.955 11.8152 21.8599C11.7126 21.7648 11.6499 21.6354 11.6395 21.4971C11.4093 19.9294 10.7555 18.4644 10.5619 16.871C10.4364 15.8121 10.154 14.7789 9.96043 13.7303C9.94568 13.5153 9.84725 13.3142 9.68555 13.1687C9.52386 13.0232 9.31133 12.9445 9.09214 12.949C7.10451 12.692 5.1221 12.3681 3.14493 12.0443C2.62935 11.9562 2.12072 11.8325 1.62281 11.6742C1.23052 11.556 0.859145 11.3607 0.890529 10.8621C0.921913 10.3635 1.29328 10.3069 1.6385 10.2093C3.18623 9.78693 4.75821 9.45564 6.34607 9.21721C7.02082 9.10926 7.7008 9.02703 8.37555 8.92423C9.4949 8.75974 10.018 8.29712 10.2115 7.20226C10.426 5.99946 10.5776 4.78124 10.7921 3.57844C10.9386 2.76115 11.1425 1.95413 11.3152 1.14712C11.3669 0.955411 11.4424 0.770684 11.5401 0.597118C11.6865 0.324688 11.8278 -0.0197067 12.2148 0.0162746C12.6019 0.0522559 12.6594 0.422346 12.7117 0.735898C12.9471 2.17515 13.1773 3.6144 13.4179 5.0588C13.5957 6.14852 13.784 7.2331 13.9409 8.32282C13.9415 8.44253 13.9679 8.56077 14.0183 8.66976C14.0687 8.77875 14.142 8.87602 14.2334 8.95516C14.3248 9.0343 14.4323 9.09353 14.5486 9.12895C14.665 9.16437 14.7877 9.17518 14.9086 9.16067C17.3042 9.03731 19.6162 9.84431 21.9699 9.88029C22.3465 9.88029 22.7336 9.9317 22.8278 10.3686C22.9219 10.8055 22.5401 11.0882 22.1582 11.2065C20.9291 11.5766 19.6894 11.9055 18.455 12.2602C17.2205 12.6149 16.143 12.9438 14.9818 13.2523C14.747 13.3032 14.5359 13.4292 14.3816 13.6106C14.2274 13.7919 14.1386 14.0184 14.1292 14.2546C13.7265 16.4649 13.2923 18.6751 12.8634 20.8803C12.8048 21.1508 12.7171 21.4144 12.6019 21.6667C12.5697 21.7537 12.5152 21.8311 12.4437 21.8914C12.3723 21.9517 12.2863 21.9929 12.1939 22.0111Z" fill="#83C796"/>
<path d="M12.1939 22.0111C12.0529 22.0089 11.9178 21.955 11.8152 21.8599C11.7126 21.7648 11.6499 21.6354 11.6395 21.4971C11.4093 19.9294 10.7555 18.4644 10.5619 16.871C10.4364 15.8121 10.154 14.7789 9.96043 13.7303C9.94568 13.5153 9.84725 13.3142 9.68555 13.1687C9.52386 13.0232 9.31133 12.9445 9.09214 12.949C7.10451 12.692 5.1221 12.3681 3.14493 12.0443C2.62935 11.9562 2.12072 11.8325 1.62281 11.6742C1.23052 11.556 0.859145 11.3607 0.890529 10.8621C0.921913 10.3635 1.29328 10.3069 1.6385 10.2093C3.18623 9.78693 4.75821 9.45564 6.34607 9.21721C7.02082 9.10926 7.7008 9.02703 8.37555 8.92423C9.4949 8.75974 10.018 8.29712 10.2115 7.20226C10.426 5.99946 10.5776 4.78124 10.7921 3.57844C10.9386 2.76115 11.1425 1.95413 11.3152 1.14712C11.3669 0.955411 11.4424 0.770684 11.5401 0.597118C11.6865 0.324688 11.8278 -0.0197067 12.2148 0.0162746C12.6019 0.0522559 12.6594 0.422346 12.7117 0.735898C12.9471 2.17515 13.1773 3.6144 13.4179 5.0588C13.5957 6.14852 13.784 7.2331 13.9409 8.32282C13.9415 8.44253 13.9679 8.56077 14.0183 8.66976C14.0687 8.77875 14.142 8.87602 14.2334 8.95516C14.3248 9.0343 14.4323 9.09353 14.5486 9.12895C14.665 9.16437 14.7877 9.17518 14.9086 9.16067C17.3042 9.03731 19.6162 9.84431 21.9699 9.88029C22.3465 9.88029 22.7336 9.9317 22.8278 10.3686C22.9219 10.8055 22.5401 11.0882 22.1582 11.2065C20.9291 11.5766 19.6894 11.9055 18.455 12.2602C17.2205 12.6149 16.143 12.9438 14.9818 13.2523C14.747 13.3032 14.5359 13.4292 14.3816 13.6106C14.2274 13.7919 14.1386 14.0184 14.1292 14.2546C13.7265 16.4649 13.2923 18.6751 12.8634 20.8803C12.8048 21.1508 12.7171 21.4144 12.6019 21.6667C12.5697 21.7537 12.5152 21.8311 12.4437 21.8914C12.3723 21.9517 12.2863 21.9929 12.1939 22.0111Z" fill="#83C796"/>
</g>
<defs>
<clipPath id="clip0_99_490">
<rect width="22" height="22" fill="white" transform="translate(0.885742)"/>
</clipPath>
</defs>
</svg>
