<svg width="120" height="120" viewBox="0 0 120 120" fill="none" xmlns="http://www.w3.org/2000/svg">
<path d="M40 70H70C71.4167 70 72.605 69.52 73.565 68.56C74.525 67.6 75.0033 66.4133 75 65V55L85 65V35L75 45V35C75 33.5833 74.52 32.3967 73.56 31.44C72.6 30.4833 71.4133 30.0033 70 30H40C38.5833 30 37.3967 30.48 36.44 31.44C35.4833 32.4 35.0033 33.5867 35 35V65C35 66.4167 35.48 67.605 36.44 68.565C37.4 69.525 38.5867 70.0033 40 70ZM10 110V20C10 17.25 10.98 14.8967 12.94 12.94C14.9 10.9833 17.2533 10.0033 20 10H100C102.75 10 105.105 10.98 107.065 12.94C109.025 14.9 110.003 17.2533 110 20V80C110 82.75 109.022 85.105 107.065 87.065C105.108 89.025 102.753 90.0033 100 90H30L10 110Z" fill="#83C796"/>
</svg>
