<svg width="121" height="120" viewBox="0 0 121 120" fill="none" xmlns="http://www.w3.org/2000/svg">
<path d="M20.667 105C17.917 105 15.5637 104.022 13.607 102.065C11.6503 100.108 10.6703 97.7533 10.667 95V25C10.667 22.25 11.647 19.8967 13.607 17.94C15.567 15.9833 17.9203 15.0033 20.667 15H100.667C103.417 15 105.772 15.98 107.732 17.94C109.692 19.9 110.67 22.2533 110.667 25V95C110.667 97.75 109.689 100.105 107.732 102.065C105.775 104.025 103.42 105.003 100.667 105H20.667ZM25.667 85H50.667V75H25.667V85ZM73.417 75L98.167 50.25L91.042 43.125L73.417 60.875L66.292 53.75L59.292 60.875L73.417 75ZM25.667 65H50.667V55H25.667V65ZM25.667 45H50.667V35H25.667V45Z" fill="#F9A5A5"/>
</svg>
