<svg width="120" height="120" viewBox="0 0 120 120" fill="none" xmlns="http://www.w3.org/2000/svg">
<path d="M40 54.5C40 59.1667 42.2917 63.625 46.875 67.875C51.4583 72.125 55.2917 75.6667 58.375 78.5C58.875 78.9167 59.4383 79.125 60.065 79.125C60.6917 79.125 61.2533 78.9167 61.75 78.5C64.75 75.75 68.5417 72.1883 73.125 67.815C77.7083 63.4417 80 59.0033 80 54.5C80 51.5 78.9167 48.9167 76.75 46.75C74.5833 44.5833 72 43.5 69 43.5C67.25 43.5 65.5617 43.855 63.935 44.565C62.3083 45.275 60.9967 46.2533 60 47.5C59 46.25 57.7083 45.2717 56.125 44.565C54.5417 43.8583 52.8333 43.5033 51 43.5C48 43.5 45.4167 44.5833 43.25 46.75C41.0833 48.9167 40 51.5 40 54.5ZM60 109.5C59.4167 109.5 58.875 109.458 58.375 109.375C57.875 109.292 57.375 109.167 56.875 109C45.625 105.25 36.6667 98.3117 30 88.185C23.3333 78.0583 20 67.1633 20 55.5V31.875C20 29.7917 20.605 27.9167 21.815 26.25C23.025 24.5833 24.5867 23.375 26.5 22.625L56.5 11.375C57.6667 10.9583 58.8333 10.75 60 10.75C61.1667 10.75 62.3333 10.9583 63.5 11.375L93.5 22.625C95.4167 23.375 96.98 24.5833 98.19 26.25C99.4 27.9167 100.003 29.7917 100 31.875V55.5C100 67.1667 96.6667 78.0633 90 88.19C83.3333 98.3167 74.375 105.253 63.125 109C62.625 109.167 62.125 109.292 61.625 109.375C61.125 109.458 60.5833 109.5 60 109.5Z" fill="#F9A5A5"/>
</svg>
