<svg width="120" height="120" viewBox="0 0 120 120" fill="none" xmlns="http://www.w3.org/2000/svg">
<path d="M53 80.25L88.25 45L81.25 38L53 66.25L38.75 52L31.75 59L53 80.25ZM25 105C22.25 105 19.8967 104.022 17.94 102.065C15.9833 100.108 15.0033 97.7533 15 95V25C15 22.25 15.98 19.8967 17.94 17.94C19.9 15.9833 22.2533 15.0033 25 15H46C47.0833 12 48.8967 9.58333 51.44 7.75C53.9833 5.91667 56.8367 5 60 5C63.1633 5 66.0183 5.91667 68.565 7.75C71.1117 9.58333 72.9233 12 74 15H95C97.75 15 100.105 15.98 102.065 17.94C104.025 19.9 105.003 22.2533 105 25V95C105 97.75 104.022 100.105 102.065 102.065C100.108 104.025 97.7533 105.003 95 105H25ZM60 21.25C61.0833 21.25 61.98 20.895 62.69 20.185C63.4 19.475 63.7533 18.58 63.75 17.5C63.7467 16.42 63.3917 15.525 62.685 14.815C61.9783 14.105 61.0833 13.75 60 13.75C58.9167 13.75 58.0217 14.105 57.315 14.815C56.6083 15.525 56.2533 16.42 56.25 17.5C56.2467 18.58 56.6017 19.4767 57.315 20.19C58.0283 20.9033 58.9233 21.2567 60 21.25Z" fill="#83C796"/>
</svg>
