<svg width="121" height="120" viewBox="0 0 121 120" fill="none" xmlns="http://www.w3.org/2000/svg">
<path d="M51.834 99C55.584 91.4167 60.584 86.355 66.834 83.815C73.084 81.275 78.4173 80.0033 82.834 80C84.7507 80 86.6257 80.1667 88.459 80.5C90.2923 80.8333 92.084 81.25 93.834 81.75C95.834 78.5833 97.4173 75.1667 98.584 71.5C99.7507 67.8333 100.334 64 100.334 60C100.334 48.8333 96.459 39.375 88.709 31.625C80.959 23.875 71.5007 20 60.334 20C49.1673 20 39.709 23.875 31.959 31.625C24.209 39.375 20.334 48.8333 20.334 60C20.334 63.75 20.8123 67.3333 21.769 70.75C22.7257 74.1667 24.164 77.3333 26.084 80.25C29.5007 78.5833 33.0423 77.2917 36.709 76.375C40.3757 75.4583 44.084 75 47.834 75C50.5007 75 53.0623 75.23 55.519 75.69C57.9757 76.15 60.414 76.7533 62.834 77.5C60.9173 78.5 59.104 79.6667 57.394 81C55.684 82.3333 54.0807 83.75 52.584 85.25C51.584 85.0833 50.7307 85 50.024 85H47.834C45.1673 85 42.5207 85.2917 39.894 85.875C37.2673 86.4583 34.7473 87.3333 32.334 88.5C35.0007 91.1667 37.9807 93.3967 41.274 95.19C44.5673 96.9833 48.0873 98.2533 51.834 99ZM60.334 110C53.4173 110 46.9173 108.687 40.834 106.06C34.7507 103.433 29.459 99.8717 24.959 95.375C20.459 90.8783 16.8973 85.5867 14.274 79.5C11.6507 73.4133 10.3373 66.9133 10.334 60C10.3307 53.0867 11.644 46.5867 14.274 40.5C16.904 34.4133 20.4657 29.1217 24.959 24.625C29.4523 20.1283 34.744 16.5667 40.834 13.94C46.924 11.3133 53.424 10 60.334 10C67.244 10 73.744 11.3133 79.834 13.94C85.924 16.5667 91.2157 20.1283 95.709 24.625C100.202 29.1217 103.766 34.4133 106.399 40.5C109.032 46.5867 110.344 53.0867 110.334 60C110.324 66.9133 109.011 73.4133 106.394 79.5C103.777 85.5867 100.216 90.8783 95.709 95.375C91.2023 99.8717 85.9107 103.435 79.834 106.065C73.7573 108.695 67.2573 110.007 60.334 110ZM47.834 67.5C43.0007 67.5 38.8757 65.7917 35.459 62.375C32.0423 58.9583 30.334 54.8333 30.334 50C30.334 45.1667 32.0423 41.0417 35.459 37.625C38.8757 34.2083 43.0007 32.5 47.834 32.5C52.6673 32.5 56.7923 34.2083 60.209 37.625C63.6257 41.0417 65.334 45.1667 65.334 50C65.334 54.8333 63.6257 58.9583 60.209 62.375C56.7923 65.7917 52.6673 67.5 47.834 67.5ZM47.834 57.5C49.9173 57.5 51.689 56.7717 53.149 55.315C54.609 53.8583 55.3373 52.0867 55.334 50C55.3307 47.9133 54.6023 46.1433 53.149 44.69C51.6957 43.2367 49.924 42.5067 47.834 42.5C45.744 42.4933 43.974 43.2233 42.524 44.69C41.074 46.1567 40.344 47.9267 40.334 50C40.324 52.0733 41.054 53.845 42.524 55.315C43.994 56.785 45.764 57.5133 47.834 57.5ZM82.834 72.5C79.334 72.5 76.3757 71.2917 73.959 68.875C71.5423 66.4583 70.334 63.5 70.334 60C70.334 56.5 71.5423 53.5417 73.959 51.125C76.3757 48.7083 79.334 47.5 82.834 47.5C86.334 47.5 89.2923 48.7083 91.709 51.125C94.1257 53.5417 95.334 56.5 95.334 60C95.334 63.5 94.1257 66.4583 91.709 68.875C89.2923 71.2917 86.334 72.5 82.834 72.5Z" fill="#F9A5A5"/>
</svg>
