<svg width="120" height="120" viewBox="0 0 120 120" fill="none" xmlns="http://www.w3.org/2000/svg">
<path d="M42.75 110C40.4167 110 38.375 109.292 36.625 107.875C34.875 106.458 33.7083 104.625 33.125 102.375L27.5 80H92.5L86.875 102.375C86.2917 104.625 85.125 106.458 83.375 107.875C81.625 109.292 79.5833 110 77.25 110H42.75ZM60 40C60 31.6667 62.9167 24.5833 68.75 18.75C74.5833 12.9167 81.6667 10 90 10C90 17.5 87.625 24 82.875 29.5C78.125 35 72.1667 38.3333 65 39.5V50H105V65C105 67.75 104.022 70.105 102.065 72.065C100.108 74.025 97.7533 75.0033 95 75H25C22.25 75 19.8967 74.0217 17.94 72.065C15.9833 70.1083 15.0033 67.7533 15 65V50H55V39.5C47.8333 38.3333 41.875 35 37.125 29.5C32.375 24 30 17.5 30 10C38.3333 10 45.4167 12.9167 51.25 18.75C57.0833 24.5833 60 31.6667 60 40Z" fill="#F9A5A5"/>
</svg>
