<svg width="58" height="60" viewBox="0 0 58 60" fill="none" xmlns="http://www.w3.org/2000/svg">
<path d="M40 60C39.1905 60 38.5124 59.7257 37.9657 59.1771C37.419 58.6286 37.1448 57.9505 37.1429 57.1429C37.1409 56.3352 37.4152 55.6571 37.9657 55.1086C38.5162 54.56 39.1943 54.2857 40 54.2857H48.5714V51.4286H40C39.1905 51.4286 38.5124 51.1543 37.9657 50.6057C37.419 50.0571 37.1448 49.379 37.1429 48.5714C37.1409 47.7638 37.4152 47.0857 37.9657 46.5371C38.5162 45.9886 39.1943 45.7143 40 45.7143H48.5714V42.8571H40C39.1905 42.8571 38.5124 42.5829 37.9657 42.0343C37.419 41.4857 37.1448 40.8076 37.1429 40C37.1409 39.1924 37.4152 38.5143 37.9657 37.9657C38.5162 37.4171 39.1943 37.1429 40 37.1429H48.5714V34.2857H40C39.1905 34.2857 38.5124 34.0114 37.9657 33.4629C37.419 32.9143 37.1448 32.2362 37.1429 31.4286C37.1409 30.621 37.4152 29.9429 37.9657 29.3943C38.5162 28.8457 39.1943 28.5714 40 28.5714H48.5714V25.7143H40C39.1905 25.7143 38.5124 25.44 37.9657 24.8914C37.419 24.3429 37.1448 23.6648 37.1429 22.8571C37.1409 22.0495 37.4152 21.3714 37.9657 20.8229C38.5162 20.2743 39.1943 20 40 20H48.5714V17.1429H40C39.1905 17.1429 38.5124 16.8686 37.9657 16.32C37.419 15.7714 37.1448 15.0933 37.1429 14.2857C37.1409 13.4781 37.4152 12.8 37.9657 12.2514C38.5162 11.7029 39.1943 11.4286 40 11.4286H51.4286C53 11.4286 54.3457 11.9886 55.4657 13.1086C56.5857 14.2286 57.1448 15.5733 57.1428 17.1429V54.2857C57.1428 55.8571 56.5838 57.2029 55.4657 58.3229C54.3476 59.4429 53.0019 60.0019 51.4286 60H40ZM17.1429 37.1429C20.2857 37.1429 22.9762 35.5952 25.2143 32.5C27.4524 29.4048 28.5714 25.7143 28.5714 21.4286C28.5714 17.1429 27.4524 13.4524 25.2143 10.3571C22.9762 7.26191 20.2857 5.71429 17.1429 5.71429C14 5.71429 11.3095 7.26191 9.07143 10.3571C6.83333 13.4524 5.71428 17.1429 5.71428 21.4286C5.71428 25.7143 6.83333 29.4048 9.07143 32.5C11.3095 35.5952 14 37.1429 17.1429 37.1429ZM17.1429 60C14.8571 60 12.9762 59.1543 11.5 57.4629C10.0238 55.7714 9.45238 53.7838 9.78571 51.5L10.9286 41.4286C7.69047 39.8571 5.06 37.2733 3.03714 33.6771C1.01429 30.0809 0.00190476 25.9981 0 21.4286C0 15.4762 1.66667 10.4171 5 6.25143C8.33333 2.08572 12.381 0.00190607 17.1429 1.30463e-06C21.9048 -0.00190346 25.9524 2.08191 29.2857 6.25143C32.619 10.421 34.2857 15.48 34.2857 21.4286C34.2857 26 33.2743 30.0838 31.2514 33.68C29.2286 37.2762 26.5971 39.859 23.3571 41.4286L24.5 51.5C24.8333 53.7857 24.2619 55.7743 22.7857 57.4657C21.3095 59.1571 19.4286 60.0019 17.1429 60Z" fill="#3B76DA"/>
</svg>
